<?xml version="1.0" encoding="UTF-8" standalone="no"?>
<!DOCTYPE svg PUBLIC "-//W3C//DTD SVG 1.1//EN"
 "http://www.w3.org/Graphics/SVG/1.1/DTD/svg11.dtd">
<!-- Generated by graphviz version 2.40.1 (20161225.0304)
 -->
<!-- Title: science_packs Pages: 1 -->
<svg width="1175pt" height="942pt"
 viewBox="0.00 0.00 1174.79 941.59" xmlns="http://www.w3.org/2000/svg" xmlns:xlink="http://www.w3.org/1999/xlink">
<g id="graph0" class="graph" transform="scale(1 1) rotate(0) translate(4 937.5852)">
<title>science_packs</title>
<polygon fill="#ffffff" stroke="transparent" points="-4,4 -4,-937.5852 1170.7901,-937.5852 1170.7901,4 -4,4"/>
<!-- Coal -->
<g id="node1" class="node">
<title>Coal</title>
<ellipse fill="none" stroke="#a0522d" cx="410.2964" cy="-834" rx="27.0966" ry="27.0966"/>
<polyline fill="none" stroke="#a0522d" points="428.351,-854.4732 392.2418,-854.4732 "/>
<polyline fill="none" stroke="#a0522d" points="428.351,-813.5268 392.2418,-813.5268 "/>
<text text-anchor="middle" x="410.2964" y="-830.3" font-family="Times,serif" font-size="14.00" fill="#000000">Coal</text>
</g>
<!-- Grenade -->
<g id="node11" class="node">
<title>Grenade</title>
<ellipse fill="none" stroke="#000000" cx="40.2964" cy="-417" rx="40.0939" ry="18"/>
<text text-anchor="middle" x="40.2964" y="-413.3" font-family="Times,serif" font-size="14.00" fill="#000000">Grenade</text>
</g>
<!-- Coal&#45;&gt;Grenade -->
<g id="edge3" class="edge">
<title>Coal&#45;&gt;Grenade</title>
<path fill="none" stroke="#a0522d" d="M383.8881,-827.0521C324.9968,-810.1618 182.2947,-761.247 108.2964,-667 55.6341,-599.9272 43.6779,-495.0849 41.0187,-445.2027"/>
<polygon fill="#a0522d" stroke="#a0522d" points="44.5124,-444.9811 40.5711,-435.1467 37.5193,-445.2925 44.5124,-444.9811"/>
</g>
<!-- Plastic bar -->
<g id="node12" class="node">
<title>Plastic bar</title>
<ellipse fill="none" stroke="#000000" cx="902.2964" cy="-649" rx="48.1917" ry="18"/>
<text text-anchor="middle" x="902.2964" y="-645.3" font-family="Times,serif" font-size="14.00" fill="#000000">Plastic bar</text>
</g>
<!-- Coal&#45;&gt;Plastic bar -->
<g id="edge5" class="edge">
<title>Coal&#45;&gt;Plastic bar</title>
<path fill="none" stroke="#a0522d" d="M435.4573,-823.1414C464.9621,-810.509 515.4195,-789.2189 559.2964,-772.2555 665.1157,-731.3442 790.9587,-687.2795 856.8702,-664.5466"/>
<polygon fill="#a0522d" stroke="#a0522d" points="858.221,-667.7832 866.5362,-661.2175 855.9415,-661.1647 858.221,-667.7832"/>
</g>
<!-- Petroleum gas -->
<g id="node2" class="node">
<title>Petroleum gas</title>
<ellipse fill="none" stroke="#a0522d" cx="902.2964" cy="-834" rx="61.99" ry="61.99"/>
<polyline fill="none" stroke="#a0522d" points="943.1343,-880.3084 861.4586,-880.3084 "/>
<polyline fill="none" stroke="#a0522d" points="943.1343,-787.6916 861.4586,-787.6916 "/>
<text text-anchor="middle" x="902.2964" y="-830.3" font-family="Times,serif" font-size="14.00" fill="#000000">Petroleum gas</text>
</g>
<!-- Petroleum gas&#45;&gt;Plastic bar -->
<g id="edge6" class="edge">
<title>Petroleum gas&#45;&gt;Plastic bar</title>
<path fill="none" stroke="#a0522d" d="M902.2964,-772.1405C902.2964,-740.1154 902.2964,-702.5662 902.2964,-677.4276"/>
<polygon fill="#a0522d" stroke="#a0522d" points="905.7965,-677.1408 902.2964,-667.1408 898.7965,-677.1409 905.7965,-677.1408"/>
</g>
<!-- Iron ore -->
<g id="node3" class="node">
<title>Iron ore</title>
<ellipse fill="none" stroke="#a0522d" cx="607.2964" cy="-834" rx="38.9931" ry="38.9931"/>
<polyline fill="none" stroke="#a0522d" points="633.0887,-863.2474 581.5041,-863.2474 "/>
<polyline fill="none" stroke="#a0522d" points="633.0887,-804.7526 581.5041,-804.7526 "/>
<text text-anchor="middle" x="607.2964" y="-830.3" font-family="Times,serif" font-size="14.00" fill="#000000">Iron ore</text>
</g>
<!-- Iron plate -->
<g id="node9" class="node">
<title>Iron plate</title>
<ellipse fill="none" stroke="#000000" cx="607.2964" cy="-533" rx="44.6926" ry="18"/>
<text text-anchor="middle" x="607.2964" y="-529.3" font-family="Times,serif" font-size="14.00" fill="#000000">Iron plate</text>
</g>
<!-- Iron ore&#45;&gt;Iron plate -->
<g id="edge1" class="edge">
<title>Iron ore&#45;&gt;Iron plate</title>
<path fill="none" stroke="#a0522d" d="M607.2964,-794.9581C607.2964,-733.4969 607.2964,-615.6148 607.2964,-561.4698"/>
<polygon fill="#a0522d" stroke="#a0522d" points="610.7965,-561.2259 607.2964,-551.226 603.7965,-561.226 610.7965,-561.2259"/>
</g>
<!-- Copper ore -->
<g id="node4" class="node">
<title>Copper ore</title>
<ellipse fill="none" stroke="#a0522d" cx="173.2964" cy="-834" rx="50.0912" ry="50.0912"/>
<polyline fill="none" stroke="#a0522d" points="206.3966,-871.5342 140.1963,-871.5342 "/>
<polyline fill="none" stroke="#a0522d" points="206.3966,-796.4658 140.1963,-796.4658 "/>
<text text-anchor="middle" x="173.2964" y="-830.3" font-family="Times,serif" font-size="14.00" fill="#000000">Copper ore</text>
</g>
<!-- Copper plate -->
<g id="node10" class="node">
<title>Copper plate</title>
<ellipse fill="none" stroke="#000000" cx="173.2964" cy="-649" rx="55.7903" ry="18"/>
<text text-anchor="middle" x="173.2964" y="-645.3" font-family="Times,serif" font-size="14.00" fill="#000000">Copper plate</text>
</g>
<!-- Copper ore&#45;&gt;Copper plate -->
<g id="edge2" class="edge">
<title>Copper ore&#45;&gt;Copper plate</title>
<path fill="none" stroke="#a0522d" d="M173.2964,-783.9363C173.2964,-749.7771 173.2964,-705.7602 173.2964,-677.456"/>
<polygon fill="#a0522d" stroke="#a0522d" points="176.7965,-677.4308 173.2964,-667.4308 169.7965,-677.4309 176.7965,-677.4308"/>
</g>
<!-- Science pack 1 -->
<g id="node5" class="node">
<title>Science pack 1</title>
<polygon fill="none" stroke="#ff0000" points="529.2964,-157 431.2964,-157 431.2964,-59 529.2964,-59 529.2964,-157"/>
<polyline fill="none" stroke="#ff0000" points="443.2964,-157 431.2964,-145 "/>
<polyline fill="none" stroke="#ff0000" points="431.2964,-71 443.2964,-59 "/>
<polyline fill="none" stroke="#ff0000" points="517.2964,-59 529.2964,-71 "/>
<polyline fill="none" stroke="#ff0000" points="529.2964,-145 517.2964,-157 "/>
<text text-anchor="middle" x="480.2964" y="-104.3" font-family="Times,serif" font-size="14.00" fill="#000000">Science pack 1</text>
</g>
<!-- Science pack 2 -->
<g id="node6" class="node">
<title>Science pack 2</title>
<polygon fill="none" stroke="#00ff00" points="774.2964,-157 676.2964,-157 676.2964,-59 774.2964,-59 774.2964,-157"/>
<polyline fill="none" stroke="#00ff00" points="688.2964,-157 676.2964,-145 "/>
<polyline fill="none" stroke="#00ff00" points="676.2964,-71 688.2964,-59 "/>
<polyline fill="none" stroke="#00ff00" points="762.2964,-59 774.2964,-71 "/>
<polyline fill="none" stroke="#00ff00" points="774.2964,-145 762.2964,-157 "/>
<text text-anchor="middle" x="725.2964" y="-104.3" font-family="Times,serif" font-size="14.00" fill="#000000">Science pack 2</text>
</g>
<!-- Science pack 3 -->
<g id="node7" class="node">
<title>Science pack 3</title>
<polygon fill="none" stroke="#0000ff" points="971.2964,-157 873.2964,-157 873.2964,-59 971.2964,-59 971.2964,-157"/>
<polyline fill="none" stroke="#0000ff" points="885.2964,-157 873.2964,-145 "/>
<polyline fill="none" stroke="#0000ff" points="873.2964,-71 885.2964,-59 "/>
<polyline fill="none" stroke="#0000ff" points="959.2964,-59 971.2964,-71 "/>
<polyline fill="none" stroke="#0000ff" points="971.2964,-145 959.2964,-157 "/>
<text text-anchor="middle" x="922.2964" y="-104.3" font-family="Times,serif" font-size="14.00" fill="#000000">Science pack 3</text>
</g>
<!-- Military science pack -->
<g id="node8" class="node">
<title>Military science pack</title>
<polygon fill="none" stroke="#9932cc" points="225.2964,-175 91.2964,-175 91.2964,-41 225.2964,-41 225.2964,-175"/>
<polyline fill="none" stroke="#9932cc" points="103.2964,-175 91.2964,-163 "/>
<polyline fill="none" stroke="#9932cc" points="91.2964,-53 103.2964,-41 "/>
<polyline fill="none" stroke="#9932cc" points="213.2964,-41 225.2964,-53 "/>
<polyline fill="none" stroke="#9932cc" points="225.2964,-163 213.2964,-175 "/>
<text text-anchor="middle" x="158.2964" y="-104.3" font-family="Times,serif" font-size="14.00" fill="#000000">Military science pack</text>
</g>
<!-- Iron plate&#45;&gt;Grenade -->
<g id="edge4" class="edge">
<title>Iron plate&#45;&gt;Grenade</title>
<path fill="none" stroke="#000000" d="M566.9737,-524.7506C464.7694,-503.841 195.9749,-448.8496 87.0946,-426.5742"/>
<polygon fill="#000000" stroke="#000000" points="87.5666,-423.0984 77.068,-424.5229 86.1635,-429.9563 87.5666,-423.0984"/>
</g>
<!-- Firearm magazine -->
<g id="node13" class="node">
<title>Firearm magazine</title>
<ellipse fill="none" stroke="#000000" cx="329.2964" cy="-417" rx="75.2868" ry="18"/>
<text text-anchor="middle" x="329.2964" y="-413.3" font-family="Times,serif" font-size="14.00" fill="#000000">Firearm magazine</text>
</g>
<!-- Iron plate&#45;&gt;Firearm magazine -->
<g id="edge7" class="edge">
<title>Iron plate&#45;&gt;Firearm magazine</title>
<path fill="none" stroke="#000000" d="M575.9467,-519.9188C527.3538,-499.6426 433.5348,-460.4951 376.6519,-436.7598"/>
<polygon fill="#000000" stroke="#000000" points="377.743,-433.4227 367.1664,-432.8019 375.0474,-439.8829 377.743,-433.4227"/>
</g>
<!-- Pipe -->
<g id="node14" class="node">
<title>Pipe</title>
<ellipse fill="none" stroke="#000000" cx="563.2964" cy="-417" rx="27" ry="18"/>
<text text-anchor="middle" x="563.2964" y="-413.3" font-family="Times,serif" font-size="14.00" fill="#000000">Pipe</text>
</g>
<!-- Iron plate&#45;&gt;Pipe -->
<g id="edge8" class="edge">
<title>Iron plate&#45;&gt;Pipe</title>
<path fill="none" stroke="#000000" d="M600.5179,-515.1292C593.3267,-496.1707 581.8797,-465.9922 573.5773,-444.104"/>
<polygon fill="#000000" stroke="#000000" points="576.8296,-442.8094 570.0105,-434.7007 570.2846,-445.292 576.8296,-442.8094"/>
</g>
<!-- Iron gear -->
<g id="node15" class="node">
<title>Iron gear</title>
<ellipse fill="none" stroke="#000000" cx="651.2964" cy="-417" rx="42.7926" ry="18"/>
<text text-anchor="middle" x="651.2964" y="-413.3" font-family="Times,serif" font-size="14.00" fill="#000000">Iron gear</text>
</g>
<!-- Iron plate&#45;&gt;Iron gear -->
<g id="edge9" class="edge">
<title>Iron plate&#45;&gt;Iron gear</title>
<path fill="none" stroke="#000000" d="M614.075,-515.1292C621.2244,-496.2809 632.5802,-466.3427 640.8705,-444.4866"/>
<polygon fill="#000000" stroke="#000000" points="644.1635,-445.6735 644.4377,-435.0822 637.6186,-443.1909 644.1635,-445.6735"/>
</g>
<!-- Steel plate -->
<g id="node16" class="node">
<title>Steel plate</title>
<ellipse fill="none" stroke="#000000" cx="470.2964" cy="-417" rx="48.1917" ry="18"/>
<text text-anchor="middle" x="470.2964" y="-413.3" font-family="Times,serif" font-size="14.00" fill="#000000">Steel plate</text>
</g>
<!-- Iron plate&#45;&gt;Steel plate -->
<g id="edge10" class="edge">
<title>Iron plate&#45;&gt;Steel plate</title>
<path fill="none" stroke="#000000" d="M587.9582,-516.6261C564.4294,-496.7038 524.5449,-462.933 497.819,-440.3038"/>
<polygon fill="#000000" stroke="#000000" points="499.8733,-437.4571 489.9799,-433.6663 495.3499,-442.7993 499.8733,-437.4571"/>
</g>
<!-- Transport belt -->
<g id="node18" class="node">
<title>Transport belt</title>
<ellipse fill="none" stroke="#000000" cx="667.2964" cy="-302" rx="60.3893" ry="18"/>
<text text-anchor="middle" x="667.2964" y="-298.3" font-family="Times,serif" font-size="14.00" fill="#000000">Transport belt</text>
</g>
<!-- Iron plate&#45;&gt;Transport belt -->
<g id="edge12" class="edge">
<title>Iron plate&#45;&gt;Transport belt</title>
<path fill="none" stroke="#000000" d="M630.7234,-517.5132C654.1449,-500.4778 688.7151,-470.7222 703.2964,-435 717.8526,-399.3396 699.8564,-355.9228 684.4983,-328.614"/>
<polygon fill="#000000" stroke="#000000" points="687.3211,-326.5096 679.2336,-319.6654 681.2878,-330.0592 687.3211,-326.5096"/>
</g>
<!-- Electronic circuit -->
<g id="node19" class="node">
<title>Electronic circuit</title>
<ellipse fill="none" stroke="#000000" cx="916.2964" cy="-417" rx="71.4873" ry="18"/>
<text text-anchor="middle" x="916.2964" y="-413.3" font-family="Times,serif" font-size="14.00" fill="#000000">Electronic circuit</text>
</g>
<!-- Iron plate&#45;&gt;Electronic circuit -->
<g id="edge14" class="edge">
<title>Iron plate&#45;&gt;Electronic circuit</title>
<path fill="none" stroke="#000000" d="M640.0723,-520.6958C694.366,-500.3137 803.2764,-459.4282 866.9199,-435.5362"/>
<polygon fill="#000000" stroke="#000000" points="868.218,-438.7874 876.3499,-431.9961 865.7577,-432.234 868.218,-438.7874"/>
</g>
<!-- Inserter -->
<g id="node20" class="node">
<title>Inserter</title>
<ellipse fill="none" stroke="#000000" cx="783.2964" cy="-302" rx="37.8943" ry="18"/>
<text text-anchor="middle" x="783.2964" y="-298.3" font-family="Times,serif" font-size="14.00" fill="#000000">Inserter</text>
</g>
<!-- Iron plate&#45;&gt;Inserter -->
<g id="edge16" class="edge">
<title>Iron plate&#45;&gt;Inserter</title>
<path fill="none" stroke="#000000" d="M630.3557,-517.1942C654.8947,-499.4601 693.6451,-468.7265 719.2964,-435 744.3028,-402.1215 763.1936,-357.9128 773.7551,-329.6801"/>
<polygon fill="#000000" stroke="#000000" points="777.1283,-330.646 777.2653,-320.0521 770.5517,-328.2483 777.1283,-330.646"/>
</g>
<!-- Electric mining drill -->
<g id="node22" class="node">
<title>Electric mining drill</title>
<ellipse fill="none" stroke="#000000" cx="922.2964" cy="-302" rx="83.3857" ry="18"/>
<text text-anchor="middle" x="922.2964" y="-298.3" font-family="Times,serif" font-size="14.00" fill="#000000">Electric mining drill</text>
</g>
<!-- Iron plate&#45;&gt;Electric mining drill -->
<g id="edge22" class="edge">
<title>Iron plate&#45;&gt;Electric mining drill</title>
<path fill="none" stroke="#000000" d="M629.5112,-517.1431C656.4976,-497.8454 703.3698,-464.216 743.2964,-435 795.3619,-396.9014 855.4908,-352.0475 891.1241,-325.3761"/>
<polygon fill="#000000" stroke="#000000" points="893.2985,-328.1205 899.2051,-319.3249 889.1027,-322.5173 893.2985,-328.1205"/>
</g>
<!-- Gun turret -->
<g id="node25" class="node">
<title>Gun turret</title>
<ellipse fill="none" stroke="#000000" cx="158.2964" cy="-302" rx="47.3916" ry="18"/>
<text text-anchor="middle" x="158.2964" y="-298.3" font-family="Times,serif" font-size="14.00" fill="#000000">Gun turret</text>
</g>
<!-- Iron plate&#45;&gt;Gun turret -->
<g id="edge31" class="edge">
<title>Iron plate&#45;&gt;Gun turret</title>
<path fill="none" stroke="#000000" d="M562.5878,-530.9622C489.5938,-525.5895 343.1658,-506.0512 245.2964,-435 208.1848,-408.0577 182.5894,-360.0357 169.2003,-329.6638"/>
<polygon fill="#000000" stroke="#000000" points="172.265,-327.9271 165.1285,-320.0963 165.824,-330.6683 172.265,-327.9271"/>
</g>
<!-- Copper plate&#45;&gt;Science pack 1 -->
<g id="edge34" class="edge">
<title>Copper plate&#45;&gt;Science pack 1</title>
<path fill="none" stroke="#ff0000" d="M166.4013,-630.7338C142.196,-565.2761 64.5586,-343.199 102.2964,-284 138.7883,-226.7555 324.7103,-158.9187 421.5143,-126.738"/>
<polygon fill="#ff0000" stroke="#ff0000" points="422.7657,-130.0107 431.163,-123.5505 420.5698,-123.364 422.7657,-130.0107"/>
</g>
<!-- Copper cable -->
<g id="node17" class="node">
<title>Copper cable</title>
<ellipse fill="none" stroke="#000000" cx="916.2964" cy="-533" rx="57.6901" ry="18"/>
<text text-anchor="middle" x="916.2964" y="-529.3" font-family="Times,serif" font-size="14.00" fill="#000000">Copper cable</text>
</g>
<!-- Copper plate&#45;&gt;Copper cable -->
<g id="edge11" class="edge">
<title>Copper plate&#45;&gt;Copper cable</title>
<path fill="none" stroke="#000000" d="M223.7817,-641.118C355.6737,-620.5266 710.287,-565.163 854.2654,-542.6845"/>
<polygon fill="#000000" stroke="#000000" points="854.9215,-546.1246 864.2619,-541.1238 853.8416,-539.2084 854.9215,-546.1246"/>
</g>
<!-- Piercing rounds magazine -->
<g id="node24" class="node">
<title>Piercing rounds magazine</title>
<ellipse fill="none" stroke="#000000" cx="326.2964" cy="-302" rx="102.8821" ry="18"/>
<text text-anchor="middle" x="326.2964" y="-298.3" font-family="Times,serif" font-size="14.00" fill="#000000">Piercing rounds magazine</text>
</g>
<!-- Copper plate&#45;&gt;Piercing rounds magazine -->
<g id="edge28" class="edge">
<title>Copper plate&#45;&gt;Piercing rounds magazine</title>
<path fill="none" stroke="#000000" d="M175.8938,-630.7622C182.5179,-588.1114 202.6183,-479.3843 245.2964,-399 259.6099,-372.0406 282.2889,-345.7352 300.0133,-327.3353"/>
<polygon fill="#000000" stroke="#000000" points="302.7538,-329.5402 307.2673,-319.9548 297.7614,-324.6334 302.7538,-329.5402"/>
</g>
<!-- Copper plate&#45;&gt;Gun turret -->
<g id="edge32" class="edge">
<title>Copper plate&#45;&gt;Gun turret</title>
<path fill="none" stroke="#000000" d="M172.5111,-630.8323C170.0564,-574.0467 162.5146,-399.5802 159.5304,-330.5465"/>
<polygon fill="#000000" stroke="#000000" points="163.0208,-330.2459 159.0921,-320.4065 156.0273,-330.5483 163.0208,-330.2459"/>
</g>
<!-- Grenade&#45;&gt;Military science pack -->
<g id="edge41" class="edge">
<title>Grenade&#45;&gt;Military science pack</title>
<path fill="none" stroke="#9932cc" d="M42.7446,-398.9595C46.5972,-373.0034 55.1318,-323.8608 69.2964,-284 81.3487,-250.0835 98.5102,-214.3441 114.5525,-183.9981"/>
<polygon fill="#9932cc" stroke="#9932cc" points="117.6404,-185.6457 119.2645,-175.1761 111.466,-182.3477 117.6404,-185.6457"/>
</g>
<!-- Advanced circuit -->
<g id="node23" class="node">
<title>Advanced circuit</title>
<ellipse fill="none" stroke="#000000" cx="1095.2964" cy="-302" rx="71.4873" ry="18"/>
<text text-anchor="middle" x="1095.2964" y="-298.3" font-family="Times,serif" font-size="14.00" fill="#000000">Advanced circuit</text>
</g>
<!-- Plastic bar&#45;&gt;Advanced circuit -->
<g id="edge25" class="edge">
<title>Plastic bar&#45;&gt;Advanced circuit</title>
<path fill="none" stroke="#000000" d="M918.75,-632.0347C936.306,-613.3093 964.1688,-581.734 983.2964,-551 1030.3142,-475.4525 1068.6015,-376.8078 1085.6795,-329.5648"/>
<polygon fill="#000000" stroke="#000000" points="1089.0193,-330.6197 1089.0914,-320.0251 1082.4282,-328.2624 1089.0193,-330.6197"/>
</g>
<!-- Firearm magazine&#45;&gt;Piercing rounds magazine -->
<g id="edge29" class="edge">
<title>Firearm magazine&#45;&gt;Piercing rounds magazine</title>
<path fill="none" stroke="#000000" d="M328.8211,-398.7779C328.3405,-380.3567 327.5912,-351.6329 327.0336,-330.2569"/>
<polygon fill="#000000" stroke="#000000" points="330.5292,-330.0421 326.7696,-320.1368 323.5316,-330.2247 330.5292,-330.0421"/>
</g>
<!-- Engine unit -->
<g id="node21" class="node">
<title>Engine unit</title>
<ellipse fill="none" stroke="#000000" cx="499.2964" cy="-302" rx="51.9908" ry="18"/>
<text text-anchor="middle" x="499.2964" y="-298.3" font-family="Times,serif" font-size="14.00" fill="#000000">Engine unit</text>
</g>
<!-- Pipe&#45;&gt;Engine unit -->
<g id="edge19" class="edge">
<title>Pipe&#45;&gt;Engine unit</title>
<path fill="none" stroke="#000000" d="M553.853,-400.0314C543.387,-381.2252 526.3711,-350.6498 514.1238,-328.643"/>
<polygon fill="#000000" stroke="#000000" points="517.1211,-326.8313 509.1999,-319.7953 511.0045,-330.2354 517.1211,-326.8313"/>
</g>
<!-- Iron gear&#45;&gt;Science pack 1 -->
<g id="edge35" class="edge">
<title>Iron gear&#45;&gt;Science pack 1</title>
<path fill="none" stroke="#ff0000" d="M641.3636,-399.0512C616.721,-354.5216 551.9223,-237.4291 512.4312,-166.0682"/>
<polygon fill="#ff0000" stroke="#ff0000" points="515.4126,-164.2269 507.5082,-157.1721 509.2878,-167.6164 515.4126,-164.2269"/>
</g>
<!-- Iron gear&#45;&gt;Transport belt -->
<g id="edge13" class="edge">
<title>Iron gear&#45;&gt;Transport belt</title>
<path fill="none" stroke="#000000" d="M653.8317,-398.7779C656.3946,-380.3567 660.391,-351.6329 663.365,-330.2569"/>
<polygon fill="#000000" stroke="#000000" points="666.8615,-330.5238 664.773,-320.1368 659.9283,-329.5591 666.8615,-330.5238"/>
</g>
<!-- Iron gear&#45;&gt;Inserter -->
<g id="edge17" class="edge">
<title>Iron gear&#45;&gt;Inserter</title>
<path fill="none" stroke="#000000" d="M669.9288,-400.7672C692.7278,-380.9045 731.465,-347.1561 757.216,-324.7215"/>
<polygon fill="#000000" stroke="#000000" points="759.518,-327.3581 764.7588,-318.1502 754.9198,-322.0801 759.518,-327.3581"/>
</g>
<!-- Iron gear&#45;&gt;Engine unit -->
<g id="edge20" class="edge">
<title>Iron gear&#45;&gt;Engine unit</title>
<path fill="none" stroke="#000000" d="M630.4802,-401.2509C604.3198,-381.4585 559.233,-347.3468 529.3383,-324.729"/>
<polygon fill="#000000" stroke="#000000" points="531.4241,-321.9183 521.3376,-318.6759 527.2006,-327.5006 531.4241,-321.9183"/>
</g>
<!-- Iron gear&#45;&gt;Electric mining drill -->
<g id="edge23" class="edge">
<title>Iron gear&#45;&gt;Electric mining drill</title>
<path fill="none" stroke="#000000" d="M681.5947,-404.1428C728.5981,-384.1967 819.4573,-345.6402 875.1072,-322.0249"/>
<polygon fill="#000000" stroke="#000000" points="876.5584,-325.2113 884.3966,-318.0829 873.8239,-318.7675 876.5584,-325.2113"/>
</g>
<!-- Iron gear&#45;&gt;Gun turret -->
<g id="edge33" class="edge">
<title>Iron gear&#45;&gt;Gun turret</title>
<path fill="none" stroke="#000000" d="M619.0471,-405.104C612.5555,-402.9173 605.7454,-400.7696 599.2964,-399 430.8471,-352.7763 383.2495,-364.3472 214.2964,-320 210.7282,-319.0634 207.0519,-318.0327 203.369,-316.9531"/>
<polygon fill="#000000" stroke="#000000" points="204.2603,-313.566 193.6749,-314.0122 202.2281,-320.2646 204.2603,-313.566"/>
</g>
<!-- Steel plate&#45;&gt;Engine unit -->
<g id="edge21" class="edge">
<title>Steel plate&#45;&gt;Engine unit</title>
<path fill="none" stroke="#000000" d="M474.8277,-399.0313C479.4823,-380.5734 486.7932,-351.5819 492.2127,-330.0908"/>
<polygon fill="#000000" stroke="#000000" points="495.6498,-330.7744 494.7013,-320.2221 488.8623,-329.0627 495.6498,-330.7744"/>
</g>
<!-- Steel plate&#45;&gt;Piercing rounds magazine -->
<g id="edge30" class="edge">
<title>Steel plate&#45;&gt;Piercing rounds magazine</title>
<path fill="none" stroke="#000000" d="M449.6647,-400.5233C425.316,-381.0781 384.6132,-348.5725 356.6629,-326.251"/>
<polygon fill="#000000" stroke="#000000" points="358.7847,-323.4663 348.7865,-319.9609 354.4164,-328.9361 358.7847,-323.4663"/>
</g>
<!-- Copper cable&#45;&gt;Electronic circuit -->
<g id="edge15" class="edge">
<title>Copper cable&#45;&gt;Electronic circuit</title>
<path fill="none" stroke="#000000" d="M916.2964,-514.875C916.2964,-496.3412 916.2964,-467.2787 916.2964,-445.6311"/>
<polygon fill="#000000" stroke="#000000" points="919.7965,-445.3805 916.2964,-435.3805 912.7965,-445.3806 919.7965,-445.3805"/>
</g>
<!-- Copper cable&#45;&gt;Advanced circuit -->
<g id="edge26" class="edge">
<title>Copper cable&#45;&gt;Advanced circuit</title>
<path fill="none" stroke="#000000" d="M930.9888,-515.4877C947.2209,-496.0287 974.0134,-463.5784 996.2964,-435 1024.8848,-398.3349 1056.8082,-354.9918 1076.4778,-327.9932"/>
<polygon fill="#000000" stroke="#000000" points="1079.3628,-329.9769 1082.4137,-319.8308 1073.7016,-325.8598 1079.3628,-329.9769"/>
</g>
<!-- Transport belt&#45;&gt;Science pack 2 -->
<g id="edge36" class="edge">
<title>Transport belt&#45;&gt;Science pack 2</title>
<path fill="none" stroke="#00ff00" d="M672.7529,-283.749C680.6727,-257.2588 695.7132,-206.9507 707.6799,-166.9243"/>
<polygon fill="#00ff00" stroke="#00ff00" points="711.0604,-167.8358 710.5715,-157.2522 704.3537,-165.8307 711.0604,-167.8358"/>
</g>
<!-- Electronic circuit&#45;&gt;Inserter -->
<g id="edge18" class="edge">
<title>Electronic circuit&#45;&gt;Inserter</title>
<path fill="none" stroke="#000000" d="M896.0966,-399.534C872.8841,-379.463 834.7298,-346.4725 809.3129,-324.4954"/>
<polygon fill="#000000" stroke="#000000" points="811.3969,-321.6704 801.5432,-317.7773 806.8184,-326.9655 811.3969,-321.6704"/>
</g>
<!-- Electronic circuit&#45;&gt;Electric mining drill -->
<g id="edge24" class="edge">
<title>Electronic circuit&#45;&gt;Electric mining drill</title>
<path fill="none" stroke="#000000" d="M917.2471,-398.7779C918.2082,-380.3567 919.7069,-351.6329 920.8222,-330.2569"/>
<polygon fill="#000000" stroke="#000000" points="924.3243,-330.3056 921.3502,-320.1368 917.3338,-329.9409 924.3243,-330.3056"/>
</g>
<!-- Electronic circuit&#45;&gt;Advanced circuit -->
<g id="edge27" class="edge">
<title>Electronic circuit&#45;&gt;Advanced circuit</title>
<path fill="none" stroke="#000000" d="M942.7085,-400.0314C973.8645,-380.0149 1025.7733,-346.6657 1060.2653,-324.506"/>
<polygon fill="#000000" stroke="#000000" points="1062.5461,-327.2008 1069.0676,-318.8509 1058.7624,-321.3115 1062.5461,-327.2008"/>
</g>
<!-- Inserter&#45;&gt;Science pack 2 -->
<g id="edge37" class="edge">
<title>Inserter&#45;&gt;Science pack 2</title>
<path fill="none" stroke="#00ff00" d="M777.9439,-284.0967C770.0421,-257.6665 754.8926,-206.9941 742.8658,-166.7665"/>
<polygon fill="#00ff00" stroke="#00ff00" points="746.1782,-165.6268 739.9604,-157.0484 739.4715,-167.6319 746.1782,-165.6268"/>
</g>
<!-- Engine unit&#45;&gt;Science pack 3 -->
<g id="edge38" class="edge">
<title>Engine unit&#45;&gt;Science pack 3</title>
<path fill="none" stroke="#0000ff" d="M531.8029,-287.8254C584.7158,-264.6715 692.6747,-217.0922 783.2964,-175 809.903,-162.6417 839.182,-148.5962 863.9783,-136.5684"/>
<polygon fill="#0000ff" stroke="#0000ff" points="865.7821,-139.5833 873.2473,-132.0652 862.7231,-133.287 865.7821,-139.5833"/>
</g>
<!-- Electric mining drill&#45;&gt;Science pack 3 -->
<g id="edge39" class="edge">
<title>Electric mining drill&#45;&gt;Science pack 3</title>
<path fill="none" stroke="#0000ff" d="M922.2964,-283.749C922.2964,-257.3708 922.2964,-207.3757 922.2964,-167.4325"/>
<polygon fill="#0000ff" stroke="#0000ff" points="925.7965,-167.2522 922.2964,-157.2522 918.7965,-167.2523 925.7965,-167.2522"/>
</g>
<!-- Advanced circuit&#45;&gt;Science pack 3 -->
<g id="edge40" class="edge">
<title>Advanced circuit&#45;&gt;Science pack 3</title>
<path fill="none" stroke="#0000ff" d="M1079.3311,-284.0967C1055.3632,-257.2194 1009.04,-205.2731 972.8896,-164.7345"/>
<polygon fill="#0000ff" stroke="#0000ff" points="975.3033,-162.1824 966.0355,-157.0484 970.0788,-166.8413 975.3033,-162.1824"/>
</g>
<!-- Piercing rounds magazine&#45;&gt;Military science pack -->
<g id="edge42" class="edge">
<title>Piercing rounds magazine&#45;&gt;Military science pack</title>
<path fill="none" stroke="#9932cc" d="M310.7925,-284.0967C290.9235,-261.1527 255.2342,-219.94 223.3752,-183.1505"/>
<polygon fill="#9932cc" stroke="#9932cc" points="225.8343,-180.6436 216.6421,-175.3753 220.5426,-185.2261 225.8343,-180.6436"/>
</g>
<!-- Gun turret&#45;&gt;Military science pack -->
<g id="edge43" class="edge">
<title>Gun turret&#45;&gt;Military science pack</title>
<path fill="none" stroke="#9932cc" d="M158.2964,-283.749C158.2964,-261.16 158.2964,-221.2517 158.2964,-185.1682"/>
<polygon fill="#9932cc" stroke="#9932cc" points="161.7965,-185.1097 158.2964,-175.1098 154.7965,-185.1098 161.7965,-185.1097"/>
</g>
</g>
</svg>
