<?xml version="1.0" encoding="UTF-8" standalone="no"?>
<!DOCTYPE svg PUBLIC "-//W3C//DTD SVG 1.1//EN"
 "http://www.w3.org/Graphics/SVG/1.1/DTD/svg11.dtd">
<!-- Generated by graphviz version 2.40.1 (20161225.0304)
 -->
<!-- Title: science_packs Pages: 1 -->
<svg width="1244pt" height="996pt"
 viewBox="0.00 0.00 1243.89 996.16" xmlns="http://www.w3.org/2000/svg" xmlns:xlink="http://www.w3.org/1999/xlink">
<g id="graph0" class="graph" transform="scale(1 1) rotate(0) translate(4 992.1555)">
<title>science_packs</title>
<polygon fill="#ffffff" stroke="transparent" points="-4,4 -4,-992.1555 1239.8927,-992.1555 1239.8927,4 -4,4"/>
<!-- Coal -->
<g id="node1" class="node">
<title>Coal</title>
<ellipse fill="none" stroke="#a0522d" cx="75.2964" cy="-903" rx="27.0966" ry="27.0966"/>
<polyline fill="none" stroke="#a0522d" points="93.351,-923.4732 57.2418,-923.4732 "/>
<polyline fill="none" stroke="#a0522d" points="93.351,-882.5268 57.2418,-882.5268 "/>
<text text-anchor="middle" x="75.2964" y="-899.3" font-family="Times,serif" font-size="14.00" fill="#000000">Coal</text>
</g>
<!-- Grenade -->
<g id="node14" class="node">
<title>Grenade</title>
<ellipse fill="none" stroke="#000000" cx="40.2964" cy="-479" rx="40.0939" ry="18"/>
<text text-anchor="middle" x="40.2964" y="-475.3" font-family="Times,serif" font-size="14.00" fill="#000000">Grenade</text>
</g>
<!-- Coal&#45;&gt;Grenade -->
<g id="edge6" class="edge">
<title>Coal&#45;&gt;Grenade</title>
<path fill="none" stroke="#a0522d" d="M73.0269,-875.5069C66.7191,-799.0915 49.0214,-584.6969 42.6333,-507.309"/>
<polygon fill="#a0522d" stroke="#a0522d" points="46.1202,-507.0053 41.8093,-497.3272 39.1439,-507.5812 46.1202,-507.0053"/>
</g>
<!-- Plastic bar -->
<g id="node15" class="node">
<title>Plastic bar</title>
<ellipse fill="none" stroke="#000000" cx="968.2964" cy="-602" rx="48.1917" ry="18"/>
<text text-anchor="middle" x="968.2964" y="-598.3" font-family="Times,serif" font-size="14.00" fill="#000000">Plastic bar</text>
</g>
<!-- Coal&#45;&gt;Plastic bar -->
<g id="edge8" class="edge">
<title>Coal&#45;&gt;Plastic bar</title>
<path fill="none" stroke="#a0522d" d="M89.8507,-879.6449C96.8115,-870.1589 105.9003,-859.8362 116.2964,-852.9544 423.3149,-649.7214 559.0608,-727.2103 911.2964,-620 914.7774,-618.9405 918.3741,-617.8336 921.9895,-616.7121"/>
<polygon fill="#a0522d" stroke="#a0522d" points="923.0339,-620.0527 931.5368,-613.7319 920.9481,-613.3706 923.0339,-620.0527"/>
</g>
<!-- Crude oil -->
<g id="node2" class="node">
<title>Crude oil</title>
<ellipse fill="none" stroke="#a0522d" cx="1089.2964" cy="-903" rx="44.393" ry="44.393"/>
<polyline fill="none" stroke="#a0522d" points="1118.5277,-936.1471 1060.0651,-936.1471 "/>
<polyline fill="none" stroke="#a0522d" points="1118.5277,-869.8529 1060.0651,-869.8529 "/>
<text text-anchor="middle" x="1089.2964" y="-899.3" font-family="Times,serif" font-size="14.00" fill="#000000">Crude oil</text>
</g>
<!-- Petroleum gas -->
<g id="node9" class="node">
<title>Petroleum gas</title>
<ellipse fill="none" stroke="#000000" cx="964.2964" cy="-725" rx="61.99" ry="18"/>
<text text-anchor="middle" x="964.2964" y="-721.3" font-family="Times,serif" font-size="14.00" fill="#000000">Petroleum gas</text>
</g>
<!-- Crude oil&#45;&gt;Petroleum gas -->
<g id="edge1" class="edge">
<title>Crude oil&#45;&gt;Petroleum gas</title>
<path fill="none" stroke="#a0522d" d="M1063.6992,-866.5495C1039.6457,-832.2974 1004.2311,-781.867 982.8062,-751.358"/>
<polygon fill="#a0522d" stroke="#a0522d" points="985.5062,-749.1124 976.8949,-742.9402 979.7776,-753.1353 985.5062,-749.1124"/>
</g>
<!-- Heavy oil -->
<g id="node10" class="node">
<title>Heavy oil</title>
<ellipse fill="none" stroke="#000000" cx="1089.2964" cy="-725" rx="45.4919" ry="18"/>
<text text-anchor="middle" x="1089.2964" y="-721.3" font-family="Times,serif" font-size="14.00" fill="#000000">Heavy oil</text>
</g>
<!-- Crude oil&#45;&gt;Heavy oil -->
<g id="edge2" class="edge">
<title>Crude oil&#45;&gt;Heavy oil</title>
<path fill="none" stroke="#a0522d" d="M1089.2964,-858.5422C1089.2964,-825.4886 1089.2964,-781.3912 1089.2964,-753.0893"/>
<polygon fill="#a0522d" stroke="#a0522d" points="1092.7965,-753.0716 1089.2964,-743.0717 1085.7965,-753.0717 1092.7965,-753.0716"/>
</g>
<!-- Light oil -->
<g id="node11" class="node">
<title>Light oil</title>
<ellipse fill="none" stroke="#000000" cx="1194.2964" cy="-725" rx="41.6928" ry="18"/>
<text text-anchor="middle" x="1194.2964" y="-721.3" font-family="Times,serif" font-size="14.00" fill="#000000">Light oil</text>
</g>
<!-- Crude oil&#45;&gt;Light oil -->
<g id="edge3" class="edge">
<title>Crude oil&#45;&gt;Light oil</title>
<path fill="none" stroke="#a0522d" d="M1111.8216,-864.8145C1132.0271,-830.5614 1161.1409,-781.2066 1178.8285,-751.2218"/>
<polygon fill="#a0522d" stroke="#a0522d" points="1181.8622,-752.9676 1183.9285,-742.5762 1175.833,-749.411 1181.8622,-752.9676"/>
</g>
<!-- Iron ore -->
<g id="node3" class="node">
<title>Iron ore</title>
<ellipse fill="none" stroke="#a0522d" cx="575.2964" cy="-903" rx="38.9931" ry="38.9931"/>
<polyline fill="none" stroke="#a0522d" points="601.0887,-932.2474 549.5041,-932.2474 "/>
<polyline fill="none" stroke="#a0522d" points="601.0887,-873.7526 549.5041,-873.7526 "/>
<text text-anchor="middle" x="575.2964" y="-899.3" font-family="Times,serif" font-size="14.00" fill="#000000">Iron ore</text>
</g>
<!-- Iron plate -->
<g id="node12" class="node">
<title>Iron plate</title>
<ellipse fill="none" stroke="#000000" cx="575.2964" cy="-602" rx="44.6926" ry="18"/>
<text text-anchor="middle" x="575.2964" y="-598.3" font-family="Times,serif" font-size="14.00" fill="#000000">Iron plate</text>
</g>
<!-- Iron ore&#45;&gt;Iron plate -->
<g id="edge4" class="edge">
<title>Iron ore&#45;&gt;Iron plate</title>
<path fill="none" stroke="#a0522d" d="M575.2964,-863.9581C575.2964,-802.4969 575.2964,-684.6148 575.2964,-630.4698"/>
<polygon fill="#a0522d" stroke="#a0522d" points="578.7965,-630.2259 575.2964,-620.226 571.7965,-630.226 578.7965,-630.2259"/>
</g>
<!-- Copper ore -->
<g id="node4" class="node">
<title>Copper ore</title>
<ellipse fill="none" stroke="#a0522d" cx="175.2964" cy="-903" rx="50.0912" ry="50.0912"/>
<polyline fill="none" stroke="#a0522d" points="208.3966,-940.5342 142.1963,-940.5342 "/>
<polyline fill="none" stroke="#a0522d" points="208.3966,-865.4658 142.1963,-865.4658 "/>
<text text-anchor="middle" x="175.2964" y="-899.3" font-family="Times,serif" font-size="14.00" fill="#000000">Copper ore</text>
</g>
<!-- Copper plate -->
<g id="node13" class="node">
<title>Copper plate</title>
<ellipse fill="none" stroke="#000000" cx="175.2964" cy="-725" rx="55.7903" ry="18"/>
<text text-anchor="middle" x="175.2964" y="-721.3" font-family="Times,serif" font-size="14.00" fill="#000000">Copper plate</text>
</g>
<!-- Copper ore&#45;&gt;Copper plate -->
<g id="edge5" class="edge">
<title>Copper ore&#45;&gt;Copper plate</title>
<path fill="none" stroke="#a0522d" d="M175.2964,-852.9434C175.2964,-820.7694 175.2964,-780.1376 175.2964,-753.401"/>
<polygon fill="#a0522d" stroke="#a0522d" points="178.7965,-753.1996 175.2964,-743.1997 171.7965,-753.1997 178.7965,-753.1996"/>
</g>
<!-- Automation science pack -->
<g id="node5" class="node">
<title>Automation science pack</title>
<polygon fill="none" stroke="#ff0000" points="523.7964,-209.5 368.7964,-209.5 368.7964,-54.5 523.7964,-54.5 523.7964,-209.5"/>
<polyline fill="none" stroke="#ff0000" points="380.7964,-209.5 368.7964,-197.5 "/>
<polyline fill="none" stroke="#ff0000" points="368.7964,-66.5 380.7964,-54.5 "/>
<polyline fill="none" stroke="#ff0000" points="511.7964,-54.5 523.7964,-66.5 "/>
<polyline fill="none" stroke="#ff0000" points="523.7964,-197.5 511.7964,-209.5 "/>
<text text-anchor="middle" x="446.2964" y="-128.3" font-family="Times,serif" font-size="14.00" fill="#000000">Automation science pack</text>
</g>
<!-- Logistics science pack -->
<g id="node6" class="node">
<title>Logistics science pack</title>
<polygon fill="none" stroke="#00ff00" points="819.7964,-201.5 680.7964,-201.5 680.7964,-62.5 819.7964,-62.5 819.7964,-201.5"/>
<polyline fill="none" stroke="#00ff00" points="692.7964,-201.5 680.7964,-189.5 "/>
<polyline fill="none" stroke="#00ff00" points="680.7964,-74.5 692.7964,-62.5 "/>
<polyline fill="none" stroke="#00ff00" points="807.7964,-62.5 819.7964,-74.5 "/>
<polyline fill="none" stroke="#00ff00" points="819.7964,-189.5 807.7964,-201.5 "/>
<text text-anchor="middle" x="750.2964" y="-128.3" font-family="Times,serif" font-size="14.00" fill="#000000">Logistics science pack</text>
</g>
<!-- Chemical science pack -->
<g id="node7" class="node">
<title>Chemical science pack</title>
<polygon fill="none" stroke="#0000ff" points="1025.2964,-203 883.2964,-203 883.2964,-61 1025.2964,-61 1025.2964,-203"/>
<polyline fill="none" stroke="#0000ff" points="895.2964,-203 883.2964,-191 "/>
<polyline fill="none" stroke="#0000ff" points="883.2964,-73 895.2964,-61 "/>
<polyline fill="none" stroke="#0000ff" points="1013.2964,-61 1025.2964,-73 "/>
<polyline fill="none" stroke="#0000ff" points="1025.2964,-191 1013.2964,-203 "/>
<text text-anchor="middle" x="954.2964" y="-128.3" font-family="Times,serif" font-size="14.00" fill="#000000">Chemical science pack</text>
</g>
<!-- Military science pack -->
<g id="node8" class="node">
<title>Military science pack</title>
<polygon fill="none" stroke="#9932cc" points="306.2964,-199 172.2964,-199 172.2964,-65 306.2964,-65 306.2964,-199"/>
<polyline fill="none" stroke="#9932cc" points="184.2964,-199 172.2964,-187 "/>
<polyline fill="none" stroke="#9932cc" points="172.2964,-77 184.2964,-65 "/>
<polyline fill="none" stroke="#9932cc" points="294.2964,-65 306.2964,-77 "/>
<polyline fill="none" stroke="#9932cc" points="306.2964,-187 294.2964,-199 "/>
<text text-anchor="middle" x="239.2964" y="-128.3" font-family="Times,serif" font-size="14.00" fill="#000000">Military science pack</text>
</g>
<!-- Petroleum gas&#45;&gt;Plastic bar -->
<g id="edge9" class="edge">
<title>Petroleum gas&#45;&gt;Plastic bar</title>
<path fill="none" stroke="#a0522d" d="M964.8866,-706.8509C965.5425,-686.6843 966.6098,-653.8643 967.3757,-630.3133"/>
<polygon fill="#a0522d" stroke="#a0522d" points="970.8768,-630.332 967.7038,-620.2235 963.8805,-630.1045 970.8768,-630.332"/>
</g>
<!-- Solid fuel -->
<g id="node16" class="node">
<title>Solid fuel</title>
<ellipse fill="none" stroke="#000000" cx="1086.2964" cy="-602" rx="45.4919" ry="18"/>
<text text-anchor="middle" x="1086.2964" y="-598.3" font-family="Times,serif" font-size="14.00" fill="#000000">Solid fuel</text>
</g>
<!-- Petroleum gas&#45;&gt;Solid fuel -->
<g id="edge10" class="edge">
<title>Petroleum gas&#45;&gt;Solid fuel</title>
<path fill="none" stroke="#a0522d" d="M981.5173,-707.638C1002.6167,-686.3656 1038.4859,-650.2025 1062.2857,-626.2076"/>
<polygon fill="#a0522d" stroke="#a0522d" points="1064.9976,-628.4435 1069.5548,-618.8789 1060.0276,-623.514 1064.9976,-628.4435"/>
</g>
<!-- Heavy oil&#45;&gt;Solid fuel -->
<g id="edge11" class="edge">
<title>Heavy oil&#45;&gt;Solid fuel</title>
<path fill="none" stroke="#a0522d" d="M1088.8538,-706.8509C1088.3619,-686.6843 1087.5614,-653.8643 1086.987,-630.3133"/>
<polygon fill="#a0522d" stroke="#a0522d" points="1090.4838,-630.1352 1086.7409,-620.2235 1083.4859,-630.3059 1090.4838,-630.1352"/>
</g>
<!-- Light oil&#45;&gt;Solid fuel -->
<g id="edge12" class="edge">
<title>Light oil&#45;&gt;Solid fuel</title>
<path fill="none" stroke="#a0522d" d="M1179.5059,-708.1553C1161.0284,-687.1114 1129.2621,-650.9331 1108.0206,-626.7414"/>
<polygon fill="#a0522d" stroke="#a0522d" points="1110.4829,-624.2411 1101.2549,-619.036 1105.2228,-628.8597 1110.4829,-624.2411"/>
</g>
<!-- Iron plate&#45;&gt;Grenade -->
<g id="edge7" class="edge">
<title>Iron plate&#45;&gt;Grenade</title>
<path fill="none" stroke="#000000" d="M535.9566,-592.9555C439.0395,-570.6736 189.1795,-513.2292 85.9566,-489.4976"/>
<polygon fill="#000000" stroke="#000000" points="86.6736,-486.0712 76.1436,-487.2415 85.1051,-492.8932 86.6736,-486.0712"/>
</g>
<!-- Firearm magazine -->
<g id="node17" class="node">
<title>Firearm magazine</title>
<ellipse fill="none" stroke="#000000" cx="287.2964" cy="-479" rx="75.2868" ry="18"/>
<text text-anchor="middle" x="287.2964" y="-475.3" font-family="Times,serif" font-size="14.00" fill="#000000">Firearm magazine</text>
</g>
<!-- Iron plate&#45;&gt;Firearm magazine -->
<g id="edge13" class="edge">
<title>Iron plate&#45;&gt;Firearm magazine</title>
<path fill="none" stroke="#000000" d="M544.4754,-588.8368C493.8911,-567.2331 392.9711,-524.1319 333.7057,-498.8206"/>
<polygon fill="#000000" stroke="#000000" points="334.7821,-495.4745 324.211,-494.7656 332.0327,-501.912 334.7821,-495.4745"/>
</g>
<!-- Pipe -->
<g id="node18" class="node">
<title>Pipe</title>
<ellipse fill="none" stroke="#000000" cx="663.2964" cy="-479" rx="27" ry="18"/>
<text text-anchor="middle" x="663.2964" y="-475.3" font-family="Times,serif" font-size="14.00" fill="#000000">Pipe</text>
</g>
<!-- Iron plate&#45;&gt;Pipe -->
<g id="edge14" class="edge">
<title>Iron plate&#45;&gt;Pipe</title>
<path fill="none" stroke="#000000" d="M587.718,-584.638C602.824,-563.5239 628.4256,-527.7399 645.5925,-503.7453"/>
<polygon fill="#000000" stroke="#000000" points="648.5283,-505.657 651.5004,-495.4876 642.8352,-501.5839 648.5283,-505.657"/>
</g>
<!-- Iron gear -->
<g id="node19" class="node">
<title>Iron gear</title>
<ellipse fill="none" stroke="#000000" cx="575.2964" cy="-479" rx="42.7926" ry="18"/>
<text text-anchor="middle" x="575.2964" y="-475.3" font-family="Times,serif" font-size="14.00" fill="#000000">Iron gear</text>
</g>
<!-- Iron plate&#45;&gt;Iron gear -->
<g id="edge15" class="edge">
<title>Iron plate&#45;&gt;Iron gear</title>
<path fill="none" stroke="#000000" d="M575.2964,-583.8509C575.2964,-563.6843 575.2964,-530.8643 575.2964,-507.3133"/>
<polygon fill="#000000" stroke="#000000" points="578.7965,-507.2235 575.2964,-497.2235 571.7965,-507.2236 578.7965,-507.2235"/>
</g>
<!-- Steel plate -->
<g id="node20" class="node">
<title>Steel plate</title>
<ellipse fill="none" stroke="#000000" cx="466.2964" cy="-479" rx="48.1917" ry="18"/>
<text text-anchor="middle" x="466.2964" y="-475.3" font-family="Times,serif" font-size="14.00" fill="#000000">Steel plate</text>
</g>
<!-- Iron plate&#45;&gt;Steel plate -->
<g id="edge16" class="edge">
<title>Iron plate&#45;&gt;Steel plate</title>
<path fill="none" stroke="#000000" d="M560.1404,-584.8974C541.5358,-563.9032 509.8333,-528.1288 488.4844,-504.0378"/>
<polygon fill="#000000" stroke="#000000" points="490.9269,-501.5168 481.6751,-496.3539 485.6879,-506.1594 490.9269,-501.5168"/>
</g>
<!-- Transport belt -->
<g id="node22" class="node">
<title>Transport belt</title>
<ellipse fill="none" stroke="#000000" cx="705.2964" cy="-357" rx="60.3893" ry="18"/>
<text text-anchor="middle" x="705.2964" y="-353.3" font-family="Times,serif" font-size="14.00" fill="#000000">Transport belt</text>
</g>
<!-- Iron plate&#45;&gt;Transport belt -->
<g id="edge18" class="edge">
<title>Iron plate&#45;&gt;Transport belt</title>
<path fill="none" stroke="#000000" d="M602.86,-587.7846C632.6737,-570.7176 678.6965,-539.0524 699.2964,-497 716.644,-461.5868 714.4289,-414.8912 710.4695,-385.3985"/>
<polygon fill="#000000" stroke="#000000" points="713.9091,-384.7342 708.9648,-375.3638 706.9865,-385.7723 713.9091,-384.7342"/>
</g>
<!-- Electronic circuit -->
<g id="node23" class="node">
<title>Electronic circuit</title>
<ellipse fill="none" stroke="#000000" cx="855.2964" cy="-479" rx="71.4873" ry="18"/>
<text text-anchor="middle" x="855.2964" y="-475.3" font-family="Times,serif" font-size="14.00" fill="#000000">Electronic circuit</text>
</g>
<!-- Iron plate&#45;&gt;Electronic circuit -->
<g id="edge20" class="edge">
<title>Iron plate&#45;&gt;Electronic circuit</title>
<path fill="none" stroke="#000000" d="M605.7943,-588.6027C655.2033,-566.898 752.9898,-523.9418 810.3747,-498.7335"/>
<polygon fill="#000000" stroke="#000000" points="811.8197,-501.9216 819.5676,-494.6951 809.0044,-495.5127 811.8197,-501.9216"/>
</g>
<!-- Inserter -->
<g id="node24" class="node">
<title>Inserter</title>
<ellipse fill="none" stroke="#000000" cx="821.2964" cy="-357" rx="37.8943" ry="18"/>
<text text-anchor="middle" x="821.2964" y="-353.3" font-family="Times,serif" font-size="14.00" fill="#000000">Inserter</text>
</g>
<!-- Iron plate&#45;&gt;Inserter -->
<g id="edge22" class="edge">
<title>Iron plate&#45;&gt;Inserter</title>
<path fill="none" stroke="#000000" d="M600.3271,-586.9416C630.349,-568.1668 681.2547,-534.0069 718.2964,-497 753.8924,-461.4375 786.817,-412.8044 805.4477,-383.2167"/>
<polygon fill="#000000" stroke="#000000" points="808.4472,-385.021 810.7579,-374.6812 802.5036,-381.3233 808.4472,-385.021"/>
</g>
<!-- Gun turret -->
<g id="node28" class="node">
<title>Gun turret</title>
<ellipse fill="none" stroke="#000000" cx="407.2964" cy="-357" rx="47.3916" ry="18"/>
<text text-anchor="middle" x="407.2964" y="-353.3" font-family="Times,serif" font-size="14.00" fill="#000000">Gun turret</text>
</g>
<!-- Iron plate&#45;&gt;Gun turret -->
<g id="edge34" class="edge">
<title>Iron plate&#45;&gt;Gun turret</title>
<path fill="none" stroke="#000000" d="M539.5038,-590.8978C499.6597,-576.4072 437.2076,-546.835 409.2964,-497 389.9369,-462.4338 394.4175,-415.1347 400.2293,-385.3265"/>
<polygon fill="#000000" stroke="#000000" points="403.7278,-385.7017 402.389,-375.1918 396.8815,-384.2427 403.7278,-385.7017"/>
</g>
<!-- Copper plate&#45;&gt;Automation science pack -->
<g id="edge37" class="edge">
<title>Copper plate&#45;&gt;Automation science pack</title>
<path fill="none" stroke="#ff0000" d="M166.0768,-707.0919C137.8323,-649.5405 58.4788,-465.6927 127.2964,-339 133.8856,-326.8694 268.0669,-242.2091 360.2822,-184.9845"/>
<polygon fill="#ff0000" stroke="#ff0000" points="362.1366,-187.9529 368.7908,-179.7084 358.4476,-182.0038 362.1366,-187.9529"/>
</g>
<!-- Copper cable -->
<g id="node21" class="node">
<title>Copper cable</title>
<ellipse fill="none" stroke="#000000" cx="844.2964" cy="-602" rx="57.6901" ry="18"/>
<text text-anchor="middle" x="844.2964" y="-598.3" font-family="Times,serif" font-size="14.00" fill="#000000">Copper cable</text>
</g>
<!-- Copper plate&#45;&gt;Copper cable -->
<g id="edge17" class="edge">
<title>Copper plate&#45;&gt;Copper cable</title>
<path fill="none" stroke="#000000" d="M223.9481,-716.0551C343.9505,-693.9919 653.8033,-637.0234 784.6154,-612.9727"/>
<polygon fill="#000000" stroke="#000000" points="785.2659,-616.4119 794.4682,-611.1613 784.0001,-609.5273 785.2659,-616.4119"/>
</g>
<!-- Piercing rounds magazine -->
<g id="node27" class="node">
<title>Piercing rounds magazine</title>
<ellipse fill="none" stroke="#000000" cx="239.2964" cy="-357" rx="102.8821" ry="18"/>
<text text-anchor="middle" x="239.2964" y="-353.3" font-family="Times,serif" font-size="14.00" fill="#000000">Piercing rounds magazine</text>
</g>
<!-- Copper plate&#45;&gt;Piercing rounds magazine -->
<g id="edge31" class="edge">
<title>Copper plate&#45;&gt;Piercing rounds magazine</title>
<path fill="none" stroke="#000000" d="M171.2209,-706.8738C162.2227,-663.3336 143.4947,-549.8759 170.2964,-461 179.2589,-431.28 199.799,-402.2539 216.1519,-382.4524"/>
<polygon fill="#000000" stroke="#000000" points="218.8307,-384.7051 222.6315,-374.8155 213.493,-380.1764 218.8307,-384.7051"/>
</g>
<!-- Copper plate&#45;&gt;Gun turret -->
<g id="edge35" class="edge">
<title>Copper plate&#45;&gt;Gun turret</title>
<path fill="none" stroke="#000000" d="M175.0303,-706.7333C174.5929,-653.7034 175.8055,-500.9685 203.2964,-461 222.9018,-432.4961 310.1454,-394.6778 363.9928,-373.3862"/>
<polygon fill="#000000" stroke="#000000" points="365.2754,-376.6428 373.3089,-369.7354 362.7213,-370.1254 365.2754,-376.6428"/>
</g>
<!-- Grenade&#45;&gt;Military science pack -->
<g id="edge44" class="edge">
<title>Grenade&#45;&gt;Military science pack</title>
<path fill="none" stroke="#9932cc" d="M45.635,-461.1577C54.1129,-433.9509 71.9999,-380.8429 94.2964,-339 118.659,-293.2799 151.3928,-245.7007 179.5938,-207.7028"/>
<polygon fill="#9932cc" stroke="#9932cc" points="182.7272,-209.3566 185.9089,-199.2508 177.1196,-205.1667 182.7272,-209.3566"/>
</g>
<!-- Advanced circuit -->
<g id="node26" class="node">
<title>Advanced circuit</title>
<ellipse fill="none" stroke="#000000" cx="954.2964" cy="-357" rx="71.4873" ry="18"/>
<text text-anchor="middle" x="954.2964" y="-353.3" font-family="Times,serif" font-size="14.00" fill="#000000">Advanced circuit</text>
</g>
<!-- Plastic bar&#45;&gt;Advanced circuit -->
<g id="edge28" class="edge">
<title>Plastic bar&#45;&gt;Advanced circuit</title>
<path fill="none" stroke="#000000" d="M969.0753,-583.7218C970.0455,-556.8118 971.2422,-504.9639 968.2964,-461 966.5747,-435.3042 962.4856,-406.2756 959.1687,-385.4297"/>
<polygon fill="#000000" stroke="#000000" points="962.5864,-384.6411 957.5211,-375.3355 955.6778,-385.7688 962.5864,-384.6411"/>
</g>
<!-- Solid fuel&#45;&gt;Chemical science pack -->
<g id="edge41" class="edge">
<title>Solid fuel&#45;&gt;Chemical science pack</title>
<path fill="none" stroke="#0000ff" d="M1083.8237,-583.8848C1077.7101,-540.8462 1060.4592,-429.3046 1034.2964,-339 1021.9912,-296.5267 1004.6394,-250.5302 989.2396,-212.7069"/>
<polygon fill="#0000ff" stroke="#0000ff" points="992.4036,-211.1978 985.3706,-203.274 985.9272,-213.8542 992.4036,-211.1978"/>
</g>
<!-- Firearm magazine&#45;&gt;Piercing rounds magazine -->
<g id="edge32" class="edge">
<title>Firearm magazine&#45;&gt;Piercing rounds magazine</title>
<path fill="none" stroke="#000000" d="M280.2139,-460.9985C272.2731,-440.8156 259.305,-407.8551 250.098,-384.454"/>
<polygon fill="#000000" stroke="#000000" points="253.3263,-383.0996 246.408,-375.0754 246.8124,-385.6625 253.3263,-383.0996"/>
</g>
<!-- Engine unit -->
<g id="node25" class="node">
<title>Engine unit</title>
<ellipse fill="none" stroke="#000000" cx="575.2964" cy="-357" rx="51.9908" ry="18"/>
<text text-anchor="middle" x="575.2964" y="-353.3" font-family="Times,serif" font-size="14.00" fill="#000000">Engine unit</text>
</g>
<!-- Pipe&#45;&gt;Engine unit -->
<g id="edge25" class="edge">
<title>Pipe&#45;&gt;Engine unit</title>
<path fill="none" stroke="#000000" d="M651.4284,-462.5465C636.7207,-442.1563 611.481,-407.165 594.1211,-383.0978"/>
<polygon fill="#000000" stroke="#000000" points="596.8046,-380.8353 588.1159,-374.7725 591.1274,-384.9303 596.8046,-380.8353"/>
</g>
<!-- Iron gear&#45;&gt;Automation science pack -->
<g id="edge38" class="edge">
<title>Iron gear&#45;&gt;Automation science pack</title>
<path fill="none" stroke="#ff0000" d="M563.2598,-461.6966C549.7574,-441.6289 527.9626,-407.1747 514.2964,-375 493.0706,-325.0275 476.4592,-266.4881 464.969,-219.3886"/>
<polygon fill="#ff0000" stroke="#ff0000" points="468.3367,-218.4231 462.5951,-209.5189 461.5308,-220.0602 468.3367,-218.4231"/>
</g>
<!-- Iron gear&#45;&gt;Transport belt -->
<g id="edge19" class="edge">
<title>Iron gear&#45;&gt;Transport belt</title>
<path fill="none" stroke="#000000" d="M592.8288,-462.5465C615.0629,-441.6807 653.5898,-405.5246 679.2625,-381.4318"/>
<polygon fill="#000000" stroke="#000000" points="681.8882,-383.7676 686.785,-374.3723 677.0979,-378.6633 681.8882,-383.7676"/>
</g>
<!-- Iron gear&#45;&gt;Inserter -->
<g id="edge23" class="edge">
<title>Iron gear&#45;&gt;Inserter</title>
<path fill="none" stroke="#000000" d="M603.0376,-465.2422C648.0134,-442.9371 736.7729,-398.9182 786.1184,-374.446"/>
<polygon fill="#000000" stroke="#000000" points="787.742,-377.5476 795.1458,-369.969 784.6319,-371.2765 787.742,-377.5476"/>
</g>
<!-- Iron gear&#45;&gt;Engine unit -->
<g id="edge26" class="edge">
<title>Iron gear&#45;&gt;Engine unit</title>
<path fill="none" stroke="#000000" d="M575.2964,-460.9985C575.2964,-440.9958 575.2964,-408.4427 575.2964,-385.0831"/>
<polygon fill="#000000" stroke="#000000" points="578.7965,-385.0753 575.2964,-375.0754 571.7965,-385.0754 578.7965,-385.0753"/>
</g>
<!-- Iron gear&#45;&gt;Gun turret -->
<g id="edge36" class="edge">
<title>Iron gear&#45;&gt;Gun turret</title>
<path fill="none" stroke="#000000" d="M553.6773,-463.3004C524.228,-441.9146 471.3439,-403.5106 437.8501,-379.1878"/>
<polygon fill="#000000" stroke="#000000" points="439.5142,-376.0707 429.3661,-373.0268 435.401,-381.7348 439.5142,-376.0707"/>
</g>
<!-- Steel plate&#45;&gt;Engine unit -->
<g id="edge27" class="edge">
<title>Steel plate&#45;&gt;Engine unit</title>
<path fill="none" stroke="#000000" d="M481.6823,-461.7791C500.2409,-441.0071 531.5891,-405.9201 552.8467,-382.1272"/>
<polygon fill="#000000" stroke="#000000" points="555.5833,-384.3175 559.6359,-374.5283 550.3632,-379.6536 555.5833,-384.3175"/>
</g>
<!-- Steel plate&#45;&gt;Piercing rounds magazine -->
<g id="edge33" class="edge">
<title>Steel plate&#45;&gt;Piercing rounds magazine</title>
<path fill="none" stroke="#000000" d="M438.4618,-464.0404C398.9208,-442.7893 326.2166,-403.7148 280.4413,-379.1131"/>
<polygon fill="#000000" stroke="#000000" points="281.8489,-375.8962 271.3835,-374.2451 278.5351,-382.0621 281.8489,-375.8962"/>
</g>
<!-- Copper cable&#45;&gt;Electronic circuit -->
<g id="edge21" class="edge">
<title>Copper cable&#45;&gt;Electronic circuit</title>
<path fill="none" stroke="#000000" d="M845.9195,-583.8509C847.723,-563.6843 850.6582,-530.8643 852.7643,-507.3133"/>
<polygon fill="#000000" stroke="#000000" points="856.2619,-507.4956 853.6667,-497.2235 849.2897,-506.872 856.2619,-507.4956"/>
</g>
<!-- Copper cable&#45;&gt;Advanced circuit -->
<g id="edge29" class="edge">
<title>Copper cable&#45;&gt;Advanced circuit</title>
<path fill="none" stroke="#000000" d="M864.7943,-585.032C886.2391,-566.0029 919.003,-533.0499 935.2964,-497 951.5996,-460.9286 954.8984,-414.6993 955.1098,-385.4542"/>
<polygon fill="#000000" stroke="#000000" points="958.6083,-385.1169 955.0603,-375.1339 951.6084,-385.1506 958.6083,-385.1169"/>
</g>
<!-- Transport belt&#45;&gt;Logistics science pack -->
<g id="edge39" class="edge">
<title>Transport belt&#45;&gt;Logistics science pack</title>
<path fill="none" stroke="#00ff00" d="M708.9029,-338.9676C714.392,-311.5222 725.1756,-257.6043 734.36,-211.6819"/>
<polygon fill="#00ff00" stroke="#00ff00" points="737.824,-212.2082 736.3532,-201.716 730.96,-210.8353 737.824,-212.2082"/>
</g>
<!-- Electronic circuit&#45;&gt;Inserter -->
<g id="edge24" class="edge">
<title>Electronic circuit&#45;&gt;Inserter</title>
<path fill="none" stroke="#000000" d="M850.2796,-460.9985C844.68,-440.9057 835.5511,-408.1491 829.035,-384.768"/>
<polygon fill="#000000" stroke="#000000" points="832.39,-383.7687 826.3338,-375.0754 825.647,-385.6479 832.39,-383.7687"/>
</g>
<!-- Electronic circuit&#45;&gt;Advanced circuit -->
<g id="edge30" class="edge">
<title>Electronic circuit&#45;&gt;Advanced circuit</title>
<path fill="none" stroke="#000000" d="M869.6919,-461.2602C886.482,-440.5693 914.3739,-406.1975 933.5119,-382.6133"/>
<polygon fill="#000000" stroke="#000000" points="936.3002,-384.7317 939.8836,-374.7613 930.8647,-380.3209 936.3002,-384.7317"/>
</g>
<!-- Inserter&#45;&gt;Logistics science pack -->
<g id="edge40" class="edge">
<title>Inserter&#45;&gt;Logistics science pack</title>
<path fill="none" stroke="#00ff00" d="M815.6062,-338.9676C806.9275,-311.4647 789.8602,-257.3781 775.3494,-211.3932"/>
<polygon fill="#00ff00" stroke="#00ff00" points="778.6428,-210.1992 772.2957,-201.716 771.9673,-212.3057 778.6428,-210.1992"/>
</g>
<!-- Engine unit&#45;&gt;Chemical science pack -->
<g id="edge42" class="edge">
<title>Engine unit&#45;&gt;Chemical science pack</title>
<path fill="none" stroke="#0000ff" d="M602.5129,-341.5381C649.1679,-314.9566 747.3161,-258.7033 829.2964,-209.5 843.9376,-200.7126 859.4596,-191.2275 874.4029,-182.009"/>
<polygon fill="#0000ff" stroke="#0000ff" points="876.4571,-184.854 883.1235,-176.6194 872.7769,-178.8995 876.4571,-184.854"/>
</g>
<!-- Advanced circuit&#45;&gt;Chemical science pack -->
<g id="edge43" class="edge">
<title>Advanced circuit&#45;&gt;Chemical science pack</title>
<path fill="none" stroke="#0000ff" d="M954.2964,-338.9676C954.2964,-311.8706 954.2964,-258.9689 954.2964,-213.4345"/>
<polygon fill="#0000ff" stroke="#0000ff" points="957.7965,-213.2439 954.2964,-203.2439 950.7965,-213.2439 957.7965,-213.2439"/>
</g>
<!-- Piercing rounds magazine&#45;&gt;Military science pack -->
<g id="edge45" class="edge">
<title>Piercing rounds magazine&#45;&gt;Military science pack</title>
<path fill="none" stroke="#9932cc" d="M239.2964,-338.9676C239.2964,-311.0364 239.2964,-255.6874 239.2964,-209.2513"/>
<polygon fill="#9932cc" stroke="#9932cc" points="242.7965,-209.1877 239.2964,-199.1878 235.7965,-209.1878 242.7965,-209.1877"/>
</g>
<!-- Gun turret&#45;&gt;Military science pack -->
<g id="edge46" class="edge">
<title>Gun turret&#45;&gt;Military science pack</title>
<path fill="none" stroke="#9932cc" d="M394.1137,-339.3446C373.0546,-311.1404 330.6174,-254.3049 295.4916,-207.2615"/>
<polygon fill="#9932cc" stroke="#9932cc" points="298.2618,-205.1214 289.4744,-199.2026 292.6528,-209.3095 298.2618,-205.1214"/>
</g>
</g>
</svg>
