<?xml version="1.0" encoding="UTF-8" standalone="no"?>
<!DOCTYPE svg PUBLIC "-//W3C//DTD SVG 1.1//EN"
 "http://www.w3.org/Graphics/SVG/1.1/DTD/svg11.dtd">
<!-- Generated by graphviz version 2.40.1 (20161225.0304)
 -->
<!-- Title: science_packs Pages: 1 -->
<svg width="1205pt" height="966pt"
 viewBox="0.00 0.00 1204.89 965.58" xmlns="http://www.w3.org/2000/svg" xmlns:xlink="http://www.w3.org/1999/xlink">
<g id="graph0" class="graph" transform="scale(1 1) rotate(0) translate(4 961.5773)">
<title>science_packs</title>
<polygon fill="#ffffff" stroke="transparent" points="-4,4 -4,-961.5773 1200.8927,-961.5773 1200.8927,4 -4,4"/>
<!-- Coal -->
<g id="node1" class="node">
<title>Coal</title>
<ellipse fill="none" stroke="#a0522d" cx="740.2964" cy="-859" rx="27.0966" ry="27.0966"/>
<polyline fill="none" stroke="#a0522d" points="758.351,-879.4732 722.2418,-879.4732 "/>
<polyline fill="none" stroke="#a0522d" points="758.351,-838.5268 722.2418,-838.5268 "/>
<text text-anchor="middle" x="740.2964" y="-855.3" font-family="Times,serif" font-size="14.00" fill="#000000">Coal</text>
</g>
<!-- Grenade -->
<g id="node13" class="node">
<title>Grenade</title>
<ellipse fill="none" stroke="#000000" cx="40.2964" cy="-447" rx="40.0939" ry="18"/>
<text text-anchor="middle" x="40.2964" y="-443.3" font-family="Times,serif" font-size="14.00" fill="#000000">Grenade</text>
</g>
<!-- Coal&#45;&gt;Grenade -->
<g id="edge3" class="edge">
<title>Coal&#45;&gt;Grenade</title>
<path fill="none" stroke="#a0522d" d="M717.0273,-844.1015C694.058,-830.0382 657.5088,-809.3541 623.2964,-797.2555 396.9622,-717.2164 264.5701,-861.2224 93.2964,-693 33.7892,-634.5529 33.5627,-526.4607 37.2933,-475.2798"/>
<polygon fill="#a0522d" stroke="#a0522d" points="40.7855,-475.517 38.1295,-465.2605 33.8098,-474.9347 40.7855,-475.517"/>
</g>
<!-- Plastic bar -->
<g id="node14" class="node">
<title>Plastic bar</title>
<ellipse fill="none" stroke="#000000" cx="925.2964" cy="-675" rx="48.1917" ry="18"/>
<text text-anchor="middle" x="925.2964" y="-671.3" font-family="Times,serif" font-size="14.00" fill="#000000">Plastic bar</text>
</g>
<!-- Coal&#45;&gt;Plastic bar -->
<g id="edge5" class="edge">
<title>Coal&#45;&gt;Plastic bar</title>
<path fill="none" stroke="#a0522d" d="M759.745,-839.6565C793.6958,-805.8893 863.6943,-736.2691 900.862,-699.3023"/>
<polygon fill="#a0522d" stroke="#a0522d" points="903.648,-701.4678 908.2701,-691.9343 898.7117,-696.5046 903.648,-701.4678"/>
</g>
<!-- Petroleum gas -->
<g id="node2" class="node">
<title>Petroleum gas</title>
<ellipse fill="none" stroke="#a0522d" cx="925.2964" cy="-859" rx="61.99" ry="61.99"/>
<polyline fill="none" stroke="#a0522d" points="966.1343,-905.3084 884.4586,-905.3084 "/>
<polyline fill="none" stroke="#a0522d" points="966.1343,-812.6916 884.4586,-812.6916 "/>
<text text-anchor="middle" x="925.2964" y="-855.3" font-family="Times,serif" font-size="14.00" fill="#000000">Petroleum gas</text>
</g>
<!-- Petroleum gas&#45;&gt;Plastic bar -->
<g id="edge6" class="edge">
<title>Petroleum gas&#45;&gt;Plastic bar</title>
<path fill="none" stroke="#a0522d" d="M925.2964,-797.2188C925.2964,-765.5702 925.2964,-728.5545 925.2964,-703.6214"/>
<polygon fill="#a0522d" stroke="#a0522d" points="928.7965,-703.4027 925.2964,-693.4028 921.7965,-703.4028 928.7965,-703.4027"/>
</g>
<!-- Solid fuel -->
<g id="node15" class="node">
<title>Solid fuel</title>
<ellipse fill="none" stroke="#000000" cx="1050.2964" cy="-675" rx="45.4919" ry="18"/>
<text text-anchor="middle" x="1050.2964" y="-671.3" font-family="Times,serif" font-size="14.00" fill="#000000">Solid fuel</text>
</g>
<!-- Petroleum gas&#45;&gt;Solid fuel -->
<g id="edge7" class="edge">
<title>Petroleum gas&#45;&gt;Solid fuel</title>
<path fill="none" stroke="#a0522d" d="M960.1159,-807.7457C983.7127,-773.0112 1013.9064,-728.5661 1032.6751,-700.9386"/>
<polygon fill="#a0522d" stroke="#a0522d" points="1035.6202,-702.8318 1038.3445,-692.5932 1029.83,-698.8982 1035.6202,-702.8318"/>
</g>
<!-- Heavy oil -->
<g id="node3" class="node">
<title>Heavy oil</title>
<ellipse fill="none" stroke="#a0522d" cx="1050.2964" cy="-859" rx="45.4919" ry="45.4919"/>
<polyline fill="none" stroke="#a0522d" points="1080.3875,-893.122 1020.2054,-893.122 "/>
<polyline fill="none" stroke="#a0522d" points="1080.3875,-824.878 1020.2054,-824.878 "/>
<text text-anchor="middle" x="1050.2964" y="-855.3" font-family="Times,serif" font-size="14.00" fill="#000000">Heavy oil</text>
</g>
<!-- Heavy oil&#45;&gt;Solid fuel -->
<g id="edge8" class="edge">
<title>Heavy oil&#45;&gt;Solid fuel</title>
<path fill="none" stroke="#a0522d" d="M1050.2964,-813.0437C1050.2964,-778.6871 1050.2964,-732.788 1050.2964,-703.5527"/>
<polygon fill="#a0522d" stroke="#a0522d" points="1053.7965,-703.2227 1050.2964,-693.2227 1046.7965,-703.2228 1053.7965,-703.2227"/>
</g>
<!-- Light oil -->
<g id="node4" class="node">
<title>Light oil</title>
<ellipse fill="none" stroke="#a0522d" cx="1155.2964" cy="-859" rx="41.6928" ry="41.6928"/>
<polyline fill="none" stroke="#a0522d" points="1182.8082,-890.1972 1127.7846,-890.1972 "/>
<polyline fill="none" stroke="#a0522d" points="1182.8082,-827.8028 1127.7846,-827.8028 "/>
<text text-anchor="middle" x="1155.2964" y="-855.3" font-family="Times,serif" font-size="14.00" fill="#000000">Light oil</text>
</g>
<!-- Light oil&#45;&gt;Solid fuel -->
<g id="edge9" class="edge">
<title>Light oil&#45;&gt;Solid fuel</title>
<path fill="none" stroke="#a0522d" d="M1134.5518,-822.6475C1114.2075,-786.9966 1083.6727,-733.4879 1065.4899,-701.6248"/>
<polygon fill="#a0522d" stroke="#a0522d" points="1068.4843,-699.8103 1060.4881,-692.8596 1062.4045,-703.2797 1068.4843,-699.8103"/>
</g>
<!-- Iron ore -->
<g id="node5" class="node">
<title>Iron ore</title>
<ellipse fill="none" stroke="#a0522d" cx="575.2964" cy="-859" rx="38.9931" ry="38.9931"/>
<polyline fill="none" stroke="#a0522d" points="601.0887,-888.2474 549.5041,-888.2474 "/>
<polyline fill="none" stroke="#a0522d" points="601.0887,-829.7526 549.5041,-829.7526 "/>
<text text-anchor="middle" x="575.2964" y="-855.3" font-family="Times,serif" font-size="14.00" fill="#000000">Iron ore</text>
</g>
<!-- Iron plate -->
<g id="node11" class="node">
<title>Iron plate</title>
<ellipse fill="none" stroke="#000000" cx="575.2964" cy="-561" rx="44.6926" ry="18"/>
<text text-anchor="middle" x="575.2964" y="-557.3" font-family="Times,serif" font-size="14.00" fill="#000000">Iron plate</text>
</g>
<!-- Iron ore&#45;&gt;Iron plate -->
<g id="edge1" class="edge">
<title>Iron ore&#45;&gt;Iron plate</title>
<path fill="none" stroke="#a0522d" d="M575.2964,-819.7353C575.2964,-758.8169 575.2964,-642.9838 575.2964,-589.4431"/>
<polygon fill="#a0522d" stroke="#a0522d" points="578.7965,-589.3026 575.2964,-579.3026 571.7965,-589.3026 578.7965,-589.3026"/>
</g>
<!-- Copper ore -->
<g id="node6" class="node">
<title>Copper ore</title>
<ellipse fill="none" stroke="#a0522d" cx="158.2964" cy="-859" rx="50.0912" ry="50.0912"/>
<polyline fill="none" stroke="#a0522d" points="191.3966,-896.5342 125.1963,-896.5342 "/>
<polyline fill="none" stroke="#a0522d" points="191.3966,-821.4658 125.1963,-821.4658 "/>
<text text-anchor="middle" x="158.2964" y="-855.3" font-family="Times,serif" font-size="14.00" fill="#000000">Copper ore</text>
</g>
<!-- Copper plate -->
<g id="node12" class="node">
<title>Copper plate</title>
<ellipse fill="none" stroke="#000000" cx="158.2964" cy="-675" rx="55.7903" ry="18"/>
<text text-anchor="middle" x="158.2964" y="-671.3" font-family="Times,serif" font-size="14.00" fill="#000000">Copper plate</text>
</g>
<!-- Copper ore&#45;&gt;Copper plate -->
<g id="edge2" class="edge">
<title>Copper ore&#45;&gt;Copper plate</title>
<path fill="none" stroke="#a0522d" d="M158.2964,-808.7212C158.2964,-774.9046 158.2964,-731.5466 158.2964,-703.5221"/>
<polygon fill="#a0522d" stroke="#a0522d" points="161.7965,-703.2306 158.2964,-693.2307 154.7965,-703.2307 161.7965,-703.2306"/>
</g>
<!-- Automation science pack -->
<g id="node7" class="node">
<title>Automation science pack</title>
<polygon fill="none" stroke="#ff0000" points="523.7964,-200.5 368.7964,-200.5 368.7964,-45.5 523.7964,-45.5 523.7964,-200.5"/>
<polyline fill="none" stroke="#ff0000" points="380.7964,-200.5 368.7964,-188.5 "/>
<polyline fill="none" stroke="#ff0000" points="368.7964,-57.5 380.7964,-45.5 "/>
<polyline fill="none" stroke="#ff0000" points="511.7964,-45.5 523.7964,-57.5 "/>
<polyline fill="none" stroke="#ff0000" points="523.7964,-188.5 511.7964,-200.5 "/>
<text text-anchor="middle" x="446.2964" y="-119.3" font-family="Times,serif" font-size="14.00" fill="#000000">Automation science pack</text>
</g>
<!-- Logistics science pack -->
<g id="node8" class="node">
<title>Logistics science pack</title>
<polygon fill="none" stroke="#00ff00" points="817.7964,-192.5 678.7964,-192.5 678.7964,-53.5 817.7964,-53.5 817.7964,-192.5"/>
<polyline fill="none" stroke="#00ff00" points="690.7964,-192.5 678.7964,-180.5 "/>
<polyline fill="none" stroke="#00ff00" points="678.7964,-65.5 690.7964,-53.5 "/>
<polyline fill="none" stroke="#00ff00" points="805.7964,-53.5 817.7964,-65.5 "/>
<polyline fill="none" stroke="#00ff00" points="817.7964,-180.5 805.7964,-192.5 "/>
<text text-anchor="middle" x="748.2964" y="-119.3" font-family="Times,serif" font-size="14.00" fill="#000000">Logistics science pack</text>
</g>
<!-- Chemical science pack -->
<g id="node9" class="node">
<title>Chemical science pack</title>
<polygon fill="none" stroke="#0000ff" points="1022.2964,-194 880.2964,-194 880.2964,-52 1022.2964,-52 1022.2964,-194"/>
<polyline fill="none" stroke="#0000ff" points="892.2964,-194 880.2964,-182 "/>
<polyline fill="none" stroke="#0000ff" points="880.2964,-64 892.2964,-52 "/>
<polyline fill="none" stroke="#0000ff" points="1010.2964,-52 1022.2964,-64 "/>
<polyline fill="none" stroke="#0000ff" points="1022.2964,-182 1010.2964,-194 "/>
<text text-anchor="middle" x="951.2964" y="-119.3" font-family="Times,serif" font-size="14.00" fill="#000000">Chemical science pack</text>
</g>
<!-- Military science pack -->
<g id="node10" class="node">
<title>Military science pack</title>
<polygon fill="none" stroke="#9932cc" points="306.2964,-190 172.2964,-190 172.2964,-56 306.2964,-56 306.2964,-190"/>
<polyline fill="none" stroke="#9932cc" points="184.2964,-190 172.2964,-178 "/>
<polyline fill="none" stroke="#9932cc" points="172.2964,-68 184.2964,-56 "/>
<polyline fill="none" stroke="#9932cc" points="294.2964,-56 306.2964,-68 "/>
<polyline fill="none" stroke="#9932cc" points="306.2964,-178 294.2964,-190 "/>
<text text-anchor="middle" x="239.2964" y="-119.3" font-family="Times,serif" font-size="14.00" fill="#000000">Military science pack</text>
</g>
<!-- Iron plate&#45;&gt;Grenade -->
<g id="edge4" class="edge">
<title>Iron plate&#45;&gt;Grenade</title>
<path fill="none" stroke="#000000" d="M535.5216,-552.5246C438.4969,-531.8502 190.0657,-478.9135 86.6042,-456.8675"/>
<polygon fill="#000000" stroke="#000000" points="87.2716,-453.4312 76.7617,-454.7702 85.8127,-460.2775 87.2716,-453.4312"/>
</g>
<!-- Firearm magazine -->
<g id="node16" class="node">
<title>Firearm magazine</title>
<ellipse fill="none" stroke="#000000" cx="287.2964" cy="-447" rx="75.2868" ry="18"/>
<text text-anchor="middle" x="287.2964" y="-443.3" font-family="Times,serif" font-size="14.00" fill="#000000">Firearm magazine</text>
</g>
<!-- Iron plate&#45;&gt;Firearm magazine -->
<g id="edge10" class="edge">
<title>Iron plate&#45;&gt;Firearm magazine</title>
<path fill="none" stroke="#000000" d="M543.0975,-548.2546C492.7643,-528.331 395.1099,-489.6762 336.0981,-466.3173"/>
<polygon fill="#000000" stroke="#000000" points="337.2029,-462.9905 326.6167,-462.5643 334.6266,-469.4991 337.2029,-462.9905"/>
</g>
<!-- Pipe -->
<g id="node17" class="node">
<title>Pipe</title>
<ellipse fill="none" stroke="#000000" cx="663.2964" cy="-447" rx="27" ry="18"/>
<text text-anchor="middle" x="663.2964" y="-443.3" font-family="Times,serif" font-size="14.00" fill="#000000">Pipe</text>
</g>
<!-- Iron plate&#45;&gt;Pipe -->
<g id="edge11" class="edge">
<title>Iron plate&#45;&gt;Pipe</title>
<path fill="none" stroke="#000000" d="M588.6617,-543.6859C603.5182,-524.44 627.6249,-493.2109 644.4064,-471.4712"/>
<polygon fill="#000000" stroke="#000000" points="647.3233,-473.4203 650.6633,-463.3656 641.7822,-469.1429 647.3233,-473.4203"/>
</g>
<!-- Iron gear -->
<g id="node18" class="node">
<title>Iron gear</title>
<ellipse fill="none" stroke="#000000" cx="575.2964" cy="-447" rx="42.7926" ry="18"/>
<text text-anchor="middle" x="575.2964" y="-443.3" font-family="Times,serif" font-size="14.00" fill="#000000">Iron gear</text>
</g>
<!-- Iron plate&#45;&gt;Iron gear -->
<g id="edge12" class="edge">
<title>Iron plate&#45;&gt;Iron gear</title>
<path fill="none" stroke="#000000" d="M575.2964,-542.9364C575.2964,-524.7827 575.2964,-496.536 575.2964,-475.3859"/>
<polygon fill="#000000" stroke="#000000" points="578.7965,-475.3566 575.2964,-465.3566 571.7965,-475.3567 578.7965,-475.3566"/>
</g>
<!-- Steel plate -->
<g id="node19" class="node">
<title>Steel plate</title>
<ellipse fill="none" stroke="#000000" cx="466.2964" cy="-447" rx="48.1917" ry="18"/>
<text text-anchor="middle" x="466.2964" y="-443.3" font-family="Times,serif" font-size="14.00" fill="#000000">Steel plate</text>
</g>
<!-- Iron plate&#45;&gt;Steel plate -->
<g id="edge13" class="edge">
<title>Iron plate&#45;&gt;Steel plate</title>
<path fill="none" stroke="#000000" d="M559.2131,-544.1789C540.8843,-525.0094 510.7608,-493.5041 489.8005,-471.5822"/>
<polygon fill="#000000" stroke="#000000" points="492.2436,-469.0729 482.8031,-464.2638 487.1841,-473.9104 492.2436,-469.0729"/>
</g>
<!-- Transport belt -->
<g id="node21" class="node">
<title>Transport belt</title>
<ellipse fill="none" stroke="#000000" cx="705.2964" cy="-332" rx="60.3893" ry="18"/>
<text text-anchor="middle" x="705.2964" y="-328.3" font-family="Times,serif" font-size="14.00" fill="#000000">Transport belt</text>
</g>
<!-- Iron plate&#45;&gt;Transport belt -->
<g id="edge15" class="edge">
<title>Iron plate&#45;&gt;Transport belt</title>
<path fill="none" stroke="#000000" d="M605.2355,-547.3687C634.9986,-532.0215 679.0495,-504.03 699.2964,-465 716.3787,-432.0704 714.4002,-388.1546 710.5466,-359.971"/>
<polygon fill="#000000" stroke="#000000" points="713.992,-359.3477 709.0137,-349.9953 707.0732,-360.4109 713.992,-359.3477"/>
</g>
<!-- Electronic circuit -->
<g id="node22" class="node">
<title>Electronic circuit</title>
<ellipse fill="none" stroke="#000000" cx="855.2964" cy="-447" rx="71.4873" ry="18"/>
<text text-anchor="middle" x="855.2964" y="-443.3" font-family="Times,serif" font-size="14.00" fill="#000000">Electronic circuit</text>
</g>
<!-- Iron plate&#45;&gt;Electronic circuit -->
<g id="edge17" class="edge">
<title>Iron plate&#45;&gt;Electronic circuit</title>
<path fill="none" stroke="#000000" d="M606.8717,-548.1444C655.9494,-528.1627 750.8306,-489.5325 808.0742,-466.2262"/>
<polygon fill="#000000" stroke="#000000" points="809.6731,-469.3543 817.615,-462.3417 807.0334,-462.871 809.6731,-469.3543"/>
</g>
<!-- Inserter -->
<g id="node23" class="node">
<title>Inserter</title>
<ellipse fill="none" stroke="#000000" cx="821.2964" cy="-332" rx="37.8943" ry="18"/>
<text text-anchor="middle" x="821.2964" y="-328.3" font-family="Times,serif" font-size="14.00" fill="#000000">Inserter</text>
</g>
<!-- Iron plate&#45;&gt;Inserter -->
<g id="edge19" class="edge">
<title>Iron plate&#45;&gt;Inserter</title>
<path fill="none" stroke="#000000" d="M602.1719,-546.4675C632.3712,-529.3768 681.92,-498.9923 718.2964,-465 753.5323,-432.0735 786.1666,-386.2872 804.895,-357.9308"/>
<polygon fill="#000000" stroke="#000000" points="807.9434,-359.6636 810.4727,-349.3751 802.0795,-355.8407 807.9434,-359.6636"/>
</g>
<!-- Gun turret -->
<g id="node27" class="node">
<title>Gun turret</title>
<ellipse fill="none" stroke="#000000" cx="407.2964" cy="-332" rx="47.3916" ry="18"/>
<text text-anchor="middle" x="407.2964" y="-328.3" font-family="Times,serif" font-size="14.00" fill="#000000">Gun turret</text>
</g>
<!-- Iron plate&#45;&gt;Gun turret -->
<g id="edge31" class="edge">
<title>Iron plate&#45;&gt;Gun turret</title>
<path fill="none" stroke="#000000" d="M537.4603,-551.0759C497.6552,-538.4015 437.0176,-512.2306 409.2964,-465 390.5356,-433.0358 394.5124,-388.8749 400.0906,-360.3741"/>
<polygon fill="#000000" stroke="#000000" points="403.5816,-360.7881 402.2629,-350.2757 396.7381,-359.316 403.5816,-360.7881"/>
</g>
<!-- Copper plate&#45;&gt;Automation science pack -->
<g id="edge34" class="edge">
<title>Copper plate&#45;&gt;Automation science pack</title>
<path fill="none" stroke="#ff0000" d="M150.0362,-656.9547C125.9515,-601.4514 61.538,-430.017 127.2964,-314 128.1332,-312.5237 265.6571,-230.4885 359.8405,-174.4214"/>
<polygon fill="#ff0000" stroke="#ff0000" points="361.7264,-177.372 368.5291,-169.2495 358.1459,-171.3569 361.7264,-177.372"/>
</g>
<!-- Copper cable -->
<g id="node20" class="node">
<title>Copper cable</title>
<ellipse fill="none" stroke="#000000" cx="855.2964" cy="-561" rx="57.6901" ry="18"/>
<text text-anchor="middle" x="855.2964" y="-557.3" font-family="Times,serif" font-size="14.00" fill="#000000">Copper cable</text>
</g>
<!-- Copper plate&#45;&gt;Copper cable -->
<g id="edge14" class="edge">
<title>Copper plate&#45;&gt;Copper cable</title>
<path fill="none" stroke="#000000" d="M208.1432,-666.8472C332.6454,-646.4838 656.9937,-593.434 793.4145,-571.1213"/>
<polygon fill="#000000" stroke="#000000" points="794.3832,-574.5094 803.6871,-569.4411 793.2533,-567.6012 794.3832,-574.5094"/>
</g>
<!-- Piercing rounds magazine -->
<g id="node26" class="node">
<title>Piercing rounds magazine</title>
<ellipse fill="none" stroke="#000000" cx="239.2964" cy="-332" rx="102.8821" ry="18"/>
<text text-anchor="middle" x="239.2964" y="-328.3" font-family="Times,serif" font-size="14.00" fill="#000000">Piercing rounds magazine</text>
</g>
<!-- Copper plate&#45;&gt;Piercing rounds magazine -->
<g id="edge28" class="edge">
<title>Copper plate&#45;&gt;Piercing rounds magazine</title>
<path fill="none" stroke="#000000" d="M155.7865,-656.749C150.7662,-615.0227 142.2303,-510.0079 170.2964,-429 179.6249,-402.0749 198.9212,-376.0146 214.7418,-357.6983"/>
<polygon fill="#000000" stroke="#000000" points="217.6888,-359.6512 221.7178,-349.8524 212.4575,-355 217.6888,-359.6512"/>
</g>
<!-- Copper plate&#45;&gt;Gun turret -->
<g id="edge32" class="edge">
<title>Copper plate&#45;&gt;Gun turret</title>
<path fill="none" stroke="#000000" d="M159.499,-656.8105C163.1688,-606.1863 175.6966,-465.0106 203.2964,-429 223.8457,-402.1885 309.1234,-367.5344 362.7043,-347.7353"/>
<polygon fill="#000000" stroke="#000000" points="364.1299,-350.9407 372.3174,-344.2165 361.7237,-344.3673 364.1299,-350.9407"/>
</g>
<!-- Grenade&#45;&gt;Military science pack -->
<g id="edge41" class="edge">
<title>Grenade&#45;&gt;Military science pack</title>
<path fill="none" stroke="#9932cc" d="M45.8808,-429.1016C54.4232,-402.8997 72.1046,-352.9837 94.2964,-314 117.2731,-273.6377 147.7594,-232.1829 174.8472,-198.2522"/>
<polygon fill="#9932cc" stroke="#9932cc" points="177.7505,-200.2271 181.2909,-190.2412 172.296,-195.8397 177.7505,-200.2271"/>
</g>
<!-- Advanced circuit -->
<g id="node25" class="node">
<title>Advanced circuit</title>
<ellipse fill="none" stroke="#000000" cx="951.2964" cy="-332" rx="71.4873" ry="18"/>
<text text-anchor="middle" x="951.2964" y="-328.3" font-family="Times,serif" font-size="14.00" fill="#000000">Advanced circuit</text>
</g>
<!-- Plastic bar&#45;&gt;Advanced circuit -->
<g id="edge25" class="edge">
<title>Plastic bar&#45;&gt;Advanced circuit</title>
<path fill="none" stroke="#000000" d="M928.6635,-656.829C935.1983,-620.5343 949.3886,-536.416 954.2964,-465 955.3934,-449.0376 954.5438,-444.9981 954.2964,-429 953.9399,-405.9383 953.1068,-379.8035 952.4088,-360.4768"/>
<polygon fill="#000000" stroke="#000000" points="955.8971,-360.0947 952.0284,-350.2314 948.9019,-360.3544 955.8971,-360.0947"/>
</g>
<!-- Solid fuel&#45;&gt;Chemical science pack -->
<g id="edge38" class="edge">
<title>Solid fuel&#45;&gt;Chemical science pack</title>
<path fill="none" stroke="#0000ff" d="M1051.5199,-656.6669C1054.6313,-603.0961 1060.6518,-442.486 1031.2964,-314 1022.6963,-276.3578 1007.2312,-236.6818 992.1752,-203.304"/>
<polygon fill="#0000ff" stroke="#0000ff" points="995.2901,-201.6996 987.9455,-194.0637 988.9252,-204.6131 995.2901,-201.6996"/>
</g>
<!-- Firearm magazine&#45;&gt;Piercing rounds magazine -->
<g id="edge29" class="edge">
<title>Firearm magazine&#45;&gt;Piercing rounds magazine</title>
<path fill="none" stroke="#000000" d="M279.7964,-429.0313C272.0222,-410.4056 259.7711,-381.054 250.7774,-359.5065"/>
<polygon fill="#000000" stroke="#000000" points="253.984,-358.1023 246.9022,-350.2221 247.5241,-360.7987 253.984,-358.1023"/>
</g>
<!-- Engine unit -->
<g id="node24" class="node">
<title>Engine unit</title>
<ellipse fill="none" stroke="#000000" cx="575.2964" cy="-332" rx="51.9908" ry="18"/>
<text text-anchor="middle" x="575.2964" y="-328.3" font-family="Times,serif" font-size="14.00" fill="#000000">Engine unit</text>
</g>
<!-- Pipe&#45;&gt;Engine unit -->
<g id="edge22" class="edge">
<title>Pipe&#45;&gt;Engine unit</title>
<path fill="none" stroke="#000000" d="M650.6882,-430.5233C636.1073,-411.4687 611.9297,-379.8731 594.8923,-357.6082"/>
<polygon fill="#000000" stroke="#000000" points="597.6037,-355.3922 588.747,-349.5775 592.0446,-359.6461 597.6037,-355.3922"/>
</g>
<!-- Iron gear&#45;&gt;Automation science pack -->
<g id="edge35" class="edge">
<title>Iron gear&#45;&gt;Automation science pack</title>
<path fill="none" stroke="#ff0000" d="M562.3021,-429.5865C548.7667,-410.7769 527.7023,-379.5254 514.2964,-350 494.099,-305.5168 478.0077,-253.458 466.559,-210.4233"/>
<polygon fill="#ff0000" stroke="#ff0000" points="469.8894,-209.3248 463.9684,-200.5389 463.1181,-211.0995 469.8894,-209.3248"/>
</g>
<!-- Iron gear&#45;&gt;Transport belt -->
<g id="edge16" class="edge">
<title>Iron gear&#45;&gt;Transport belt</title>
<path fill="none" stroke="#000000" d="M593.9223,-430.5233C615.9685,-411.0209 652.8658,-378.3809 678.1048,-356.0541"/>
<polygon fill="#000000" stroke="#000000" points="680.6851,-358.4445 685.8561,-349.1972 676.0471,-353.2015 680.6851,-358.4445"/>
</g>
<!-- Iron gear&#45;&gt;Inserter -->
<g id="edge20" class="edge">
<title>Iron gear&#45;&gt;Inserter</title>
<path fill="none" stroke="#000000" d="M603.9972,-433.583C648.9115,-412.5864 735.7505,-371.991 784.9622,-348.9855"/>
<polygon fill="#000000" stroke="#000000" points="786.7025,-352.0356 794.2793,-344.6299 783.7381,-345.6942 786.7025,-352.0356"/>
</g>
<!-- Iron gear&#45;&gt;Engine unit -->
<g id="edge23" class="edge">
<title>Iron gear&#45;&gt;Engine unit</title>
<path fill="none" stroke="#000000" d="M575.2964,-428.7779C575.2964,-410.3567 575.2964,-381.6329 575.2964,-360.2569"/>
<polygon fill="#000000" stroke="#000000" points="578.7965,-360.1368 575.2964,-350.1368 571.7965,-360.1369 578.7965,-360.1368"/>
</g>
<!-- Iron gear&#45;&gt;Gun turret -->
<g id="edge33" class="edge">
<title>Iron gear&#45;&gt;Gun turret</title>
<path fill="none" stroke="#000000" d="M552.6392,-431.4906C523.2877,-411.3988 471.9651,-376.2672 438.8223,-353.5802"/>
<polygon fill="#000000" stroke="#000000" points="440.6302,-350.5763 430.4013,-347.8159 436.6762,-356.3527 440.6302,-350.5763"/>
</g>
<!-- Steel plate&#45;&gt;Engine unit -->
<g id="edge24" class="edge">
<title>Steel plate&#45;&gt;Engine unit</title>
<path fill="none" stroke="#000000" d="M482.3797,-430.0314C500.7085,-410.6937 530.832,-378.912 551.7924,-356.7979"/>
<polygon fill="#000000" stroke="#000000" points="554.4508,-359.0809 558.7898,-349.4153 549.3703,-354.2654 554.4508,-359.0809"/>
</g>
<!-- Steel plate&#45;&gt;Piercing rounds magazine -->
<g id="edge30" class="edge">
<title>Steel plate&#45;&gt;Piercing rounds magazine</title>
<path fill="none" stroke="#000000" d="M437.5467,-432.4352C398.2591,-412.5318 327.4958,-376.6825 281.9992,-353.6336"/>
<polygon fill="#000000" stroke="#000000" points="283.4767,-350.4586 272.9743,-349.0615 280.3132,-356.703 283.4767,-350.4586"/>
</g>
<!-- Copper cable&#45;&gt;Electronic circuit -->
<g id="edge18" class="edge">
<title>Copper cable&#45;&gt;Electronic circuit</title>
<path fill="none" stroke="#000000" d="M855.2964,-542.9364C855.2964,-524.7827 855.2964,-496.536 855.2964,-475.3859"/>
<polygon fill="#000000" stroke="#000000" points="858.7965,-475.3566 855.2964,-465.3566 851.7965,-475.3567 858.7965,-475.3566"/>
</g>
<!-- Copper cable&#45;&gt;Advanced circuit -->
<g id="edge26" class="edge">
<title>Copper cable&#45;&gt;Advanced circuit</title>
<path fill="none" stroke="#000000" d="M875.1647,-543.739C894.0822,-526.0359 921.6339,-496.6743 935.2964,-465 949.9337,-431.0658 952.5643,-388.0141 952.4542,-360.2389"/>
<polygon fill="#000000" stroke="#000000" points="955.9506,-359.9838 952.2871,-350.0425 948.9515,-360.0985 955.9506,-359.9838"/>
</g>
<!-- Transport belt&#45;&gt;Logistics science pack -->
<g id="edge36" class="edge">
<title>Transport belt&#45;&gt;Logistics science pack</title>
<path fill="none" stroke="#00ff00" d="M709.0372,-313.8182C714.1338,-289.0462 723.5823,-243.1221 731.9328,-202.5348"/>
<polygon fill="#00ff00" stroke="#00ff00" points="735.3858,-203.1191 733.9729,-192.6189 728.5294,-201.7084 735.3858,-203.1191"/>
</g>
<!-- Electronic circuit&#45;&gt;Inserter -->
<g id="edge21" class="edge">
<title>Electronic circuit&#45;&gt;Inserter</title>
<path fill="none" stroke="#000000" d="M849.9839,-429.0313C844.4947,-410.4648 835.8545,-381.2405 829.4896,-359.7123"/>
<polygon fill="#000000" stroke="#000000" points="832.7633,-358.4399 826.5716,-349.8426 826.0505,-360.4246 832.7633,-358.4399"/>
</g>
<!-- Electronic circuit&#45;&gt;Advanced circuit -->
<g id="edge27" class="edge">
<title>Electronic circuit&#45;&gt;Advanced circuit</title>
<path fill="none" stroke="#000000" d="M870.2964,-429.0313C886.2885,-409.874 911.7528,-379.37 929.8581,-357.6813"/>
<polygon fill="#000000" stroke="#000000" points="932.6802,-359.7623 936.4018,-349.8426 927.3064,-355.2764 932.6802,-359.7623"/>
</g>
<!-- Inserter&#45;&gt;Logistics science pack -->
<g id="edge37" class="edge">
<title>Inserter&#45;&gt;Logistics science pack</title>
<path fill="none" stroke="#00ff00" d="M815.0725,-314.1808C806.454,-289.5059 790.335,-243.357 776.0932,-202.5827"/>
<polygon fill="#00ff00" stroke="#00ff00" points="779.3108,-201.1802 772.709,-192.8936 772.7023,-203.4885 779.3108,-201.1802"/>
</g>
<!-- Engine unit&#45;&gt;Chemical science pack -->
<g id="edge39" class="edge">
<title>Engine unit&#45;&gt;Chemical science pack</title>
<path fill="none" stroke="#0000ff" d="M605.5719,-317.1553C653.3028,-293.5397 748.7016,-245.4771 827.2964,-200.5 841.7552,-192.2257 856.9491,-183.1011 871.5511,-174.1058"/>
<polygon fill="#0000ff" stroke="#0000ff" points="873.41,-177.0716 880.0702,-168.8319 869.7253,-171.1198 873.41,-177.0716"/>
</g>
<!-- Advanced circuit&#45;&gt;Chemical science pack -->
<g id="edge40" class="edge">
<title>Advanced circuit&#45;&gt;Chemical science pack</title>
<path fill="none" stroke="#0000ff" d="M951.2964,-313.8182C951.2964,-289.3732 951.2964,-244.3309 951.2964,-204.145"/>
<polygon fill="#0000ff" stroke="#0000ff" points="954.7965,-204.0483 951.2964,-194.0484 947.7965,-204.0484 954.7965,-204.0483"/>
</g>
<!-- Piercing rounds magazine&#45;&gt;Military science pack -->
<g id="edge42" class="edge">
<title>Piercing rounds magazine&#45;&gt;Military science pack</title>
<path fill="none" stroke="#9932cc" d="M239.2964,-313.8182C239.2964,-288.5874 239.2964,-241.4139 239.2964,-200.2856"/>
<polygon fill="#9932cc" stroke="#9932cc" points="242.7965,-200.2512 239.2964,-190.2512 235.7965,-200.2512 242.7965,-200.2512"/>
</g>
<!-- Gun turret&#45;&gt;Military science pack -->
<g id="edge43" class="edge">
<title>Gun turret&#45;&gt;Military science pack</title>
<path fill="none" stroke="#9932cc" d="M393.2618,-314.5403C372.8139,-289.1021 333.5898,-240.3055 299.8512,-198.333"/>
<polygon fill="#9932cc" stroke="#9932cc" points="302.3959,-195.9122 293.4028,-190.3109 296.94,-200.2978 302.3959,-195.9122"/>
</g>
</g>
</svg>
