<?xml version="1.0" encoding="UTF-8" standalone="no"?>
<!DOCTYPE svg PUBLIC "-//W3C//DTD SVG 1.1//EN"
 "http://www.w3.org/Graphics/SVG/1.1/DTD/svg11.dtd">
<!-- Generated by graphviz version 2.40.1 (20161225.0304)
 -->
<!-- Title: science_packs Pages: 1 -->
<svg width="1887pt" height="1499pt"
 viewBox="0.00 0.00 1887.24 1499.46" xmlns="http://www.w3.org/2000/svg" xmlns:xlink="http://www.w3.org/1999/xlink">
<g id="graph0" class="graph" transform="scale(1 1) rotate(0) translate(4 1495.4554)">
<title>science_packs</title>
<polygon fill="#ffffff" stroke="transparent" points="-4,4 -4,-1495.4554 1883.2357,-1495.4554 1883.2357,4 -4,4"/>
<!-- Coal -->
<g id="node1" class="node">
<title>Coal</title>
<ellipse fill="#a0522d" stroke="#a0522d" cx="763" cy="-1351" rx="27.0966" ry="27.0966"/>
<polyline fill="none" stroke="#a0522d" points="781.0546,-1371.4732 744.9454,-1371.4732 "/>
<polyline fill="none" stroke="#a0522d" points="781.0546,-1330.5268 744.9454,-1330.5268 "/>
<text text-anchor="middle" x="763" y="-1347.3" font-family="Times,serif" font-size="14.00" fill="#ffffff">Coal</text>
</g>
<!-- Grenade -->
<g id="node21" class="node">
<title>Grenade</title>
<ellipse fill="none" stroke="#000000" cx="235" cy="-858" rx="40.0939" ry="18"/>
<text text-anchor="middle" x="235" y="-854.3" font-family="Times,serif" font-size="14.00" fill="#000000">Grenade</text>
</g>
<!-- Coal&#45;&gt;Grenade -->
<g id="edge15" class="edge">
<title>Coal&#45;&gt;Grenade</title>
<path fill="none" stroke="#a0522d" d="M742.9465,-1332.2758C660.8551,-1255.6261 350.5098,-965.8529 259.9499,-881.2961"/>
<polygon fill="#a0522d" stroke="#a0522d" points="262.3007,-878.7025 252.6028,-874.436 257.5234,-883.8189 262.3007,-878.7025"/>
</g>
<!-- Plastic bar -->
<g id="node22" class="node">
<title>Plastic bar</title>
<ellipse fill="none" stroke="#000000" cx="1607" cy="-858" rx="48.1917" ry="18"/>
<text text-anchor="middle" x="1607" y="-854.3" font-family="Times,serif" font-size="14.00" fill="#000000">Plastic bar</text>
</g>
<!-- Coal&#45;&gt;Plastic bar -->
<g id="edge17" class="edge">
<title>Coal&#45;&gt;Plastic bar</title>
<path fill="none" stroke="#a0522d" d="M782.8605,-1332.1278C793.7034,-1322.2804 807.6156,-1310.36 821,-1300.9544 1091.4559,-1110.8992 1450.1436,-933.1753 1567.8031,-876.6061"/>
<polygon fill="#a0522d" stroke="#a0522d" points="1569.3223,-879.7592 1576.8253,-872.2789 1566.2951,-873.4476 1569.3223,-879.7592"/>
</g>
<!-- Crude oil -->
<g id="node2" class="node">
<title>Crude oil</title>
<ellipse fill="#a0522d" stroke="#a0522d" cx="1615" cy="-1351" rx="44.393" ry="44.393"/>
<polyline fill="none" stroke="#a0522d" points="1644.2313,-1384.1471 1585.7687,-1384.1471 "/>
<polyline fill="none" stroke="#a0522d" points="1644.2313,-1317.8529 1585.7687,-1317.8529 "/>
<text text-anchor="middle" x="1615" y="-1347.3" font-family="Times,serif" font-size="14.00" fill="#ffffff">Crude oil</text>
</g>
<!-- Petroleum gas -->
<g id="node14" class="node">
<title>Petroleum gas</title>
<ellipse fill="none" stroke="#000000" cx="1736" cy="-1060" rx="61.99" ry="18"/>
<text text-anchor="middle" x="1736" y="-1056.3" font-family="Times,serif" font-size="14.00" fill="#000000">Petroleum gas</text>
</g>
<!-- Crude oil&#45;&gt;Petroleum gas -->
<g id="edge7" class="edge">
<title>Crude oil&#45;&gt;Petroleum gas</title>
<path fill="none" stroke="#a0522d" d="M1632.0797,-1309.924C1657.1194,-1249.7045 1703.1323,-1139.0455 1724.5155,-1087.6198"/>
<polygon fill="#a0522d" stroke="#a0522d" points="1727.8425,-1088.7343 1728.4502,-1078.1569 1721.379,-1086.0467 1727.8425,-1088.7343"/>
</g>
<!-- Heavy oil -->
<g id="node18" class="node">
<title>Heavy oil</title>
<ellipse fill="none" stroke="#000000" cx="1510" cy="-1060" rx="45.4919" ry="18"/>
<text text-anchor="middle" x="1510" y="-1056.3" font-family="Times,serif" font-size="14.00" fill="#000000">Heavy oil</text>
</g>
<!-- Crude oil&#45;&gt;Heavy oil -->
<g id="edge8" class="edge">
<title>Crude oil&#45;&gt;Heavy oil</title>
<path fill="none" stroke="#a0522d" d="M1599.9561,-1309.3068C1578.1597,-1248.8998 1538.3907,-1138.6827 1519.9187,-1087.4889"/>
<polygon fill="#a0522d" stroke="#a0522d" points="1523.2063,-1086.2879 1516.5199,-1078.0694 1516.6218,-1088.6637 1523.2063,-1086.2879"/>
</g>
<!-- Light oil -->
<g id="node19" class="node">
<title>Light oil</title>
<ellipse fill="none" stroke="#000000" cx="1615" cy="-1060" rx="41.6928" ry="18"/>
<text text-anchor="middle" x="1615" y="-1056.3" font-family="Times,serif" font-size="14.00" fill="#000000">Light oil</text>
</g>
<!-- Crude oil&#45;&gt;Light oil -->
<g id="edge9" class="edge">
<title>Crude oil&#45;&gt;Light oil</title>
<path fill="none" stroke="#a0522d" d="M1615,-1306.8034C1615,-1246.2191 1615,-1139.1153 1615,-1088.2891"/>
<polygon fill="#a0522d" stroke="#a0522d" points="1618.5001,-1088.0505 1615,-1078.0505 1611.5001,-1088.0506 1618.5001,-1088.0505"/>
</g>
<!-- Iron ore -->
<g id="node3" class="node">
<title>Iron ore</title>
<ellipse fill="#a0522d" stroke="#a0522d" cx="635" cy="-1351" rx="38.9931" ry="38.9931"/>
<polyline fill="none" stroke="#a0522d" points="660.7923,-1380.2474 609.2077,-1380.2474 "/>
<polyline fill="none" stroke="#a0522d" points="660.7923,-1321.7526 609.2077,-1321.7526 "/>
<text text-anchor="middle" x="635" y="-1347.3" font-family="Times,serif" font-size="14.00" fill="#ffffff">Iron ore</text>
</g>
<!-- Iron plate -->
<g id="node15" class="node">
<title>Iron plate</title>
<ellipse fill="none" stroke="#000000" cx="635" cy="-1060" rx="44.6926" ry="18"/>
<text text-anchor="middle" x="635" y="-1056.3" font-family="Times,serif" font-size="14.00" fill="#000000">Iron plate</text>
</g>
<!-- Iron ore&#45;&gt;Iron plate -->
<g id="edge13" class="edge">
<title>Iron ore&#45;&gt;Iron plate</title>
<path fill="none" stroke="#a0522d" d="M635,-1311.7544C635,-1252.227 635,-1140.5267 635,-1088.2863"/>
<polygon fill="#a0522d" stroke="#a0522d" points="638.5001,-1088.0814 635,-1078.0814 631.5001,-1088.0814 638.5001,-1088.0814"/>
</g>
<!-- Copper ore -->
<g id="node4" class="node">
<title>Copper ore</title>
<ellipse fill="#a0522d" stroke="#a0522d" cx="1060" cy="-1351" rx="50.0912" ry="50.0912"/>
<polyline fill="none" stroke="#a0522d" points="1093.1001,-1388.5342 1026.8999,-1388.5342 "/>
<polyline fill="none" stroke="#a0522d" points="1093.1001,-1313.4658 1026.8999,-1313.4658 "/>
<text text-anchor="middle" x="1060" y="-1347.3" font-family="Times,serif" font-size="14.00" fill="#ffffff">Copper ore</text>
</g>
<!-- Copper plate -->
<g id="node20" class="node">
<title>Copper plate</title>
<ellipse fill="none" stroke="#000000" cx="1060" cy="-1060" rx="55.7903" ry="18"/>
<text text-anchor="middle" x="1060" y="-1056.3" font-family="Times,serif" font-size="14.00" fill="#000000">Copper plate</text>
</g>
<!-- Copper ore&#45;&gt;Copper plate -->
<g id="edge14" class="edge">
<title>Copper ore&#45;&gt;Copper plate</title>
<path fill="none" stroke="#a0522d" d="M1060,-1300.6439C1060,-1239.2429 1060,-1137.5872 1060,-1088.3998"/>
<polygon fill="#a0522d" stroke="#a0522d" points="1063.5001,-1088.1801 1060,-1078.1801 1056.5001,-1088.1802 1063.5001,-1088.1801"/>
</g>
<!-- Water -->
<g id="node5" class="node">
<title>Water</title>
<ellipse fill="#a0522d" stroke="#a0522d" cx="1736" cy="-1351" rx="32.4942" ry="32.4942"/>
<polyline fill="none" stroke="#a0522d" points="1757.4936,-1375.3728 1714.5064,-1375.3728 "/>
<polyline fill="none" stroke="#a0522d" points="1757.4936,-1326.6272 1714.5064,-1326.6272 "/>
<text text-anchor="middle" x="1736" y="-1347.3" font-family="Times,serif" font-size="14.00" fill="#ffffff">Water</text>
</g>
<!-- Sulfur -->
<g id="node13" class="node">
<title>Sulfur</title>
<ellipse fill="none" stroke="#000000" cx="1815" cy="-858" rx="32.4942" ry="18"/>
<text text-anchor="middle" x="1815" y="-854.3" font-family="Times,serif" font-size="14.00" fill="#000000">Sulfur</text>
</g>
<!-- Water&#45;&gt;Sulfur -->
<g id="edge1" class="edge">
<title>Water&#45;&gt;Sulfur</title>
<path fill="none" stroke="#a0522d" d="M1746.4582,-1319.9298C1762.8094,-1269.7386 1793.9094,-1167.4009 1807,-1078 1817.0095,-1009.6412 1816.8721,-928.1297 1815.9268,-886.1233"/>
<polygon fill="#a0522d" stroke="#a0522d" points="1819.4247,-885.9926 1815.6677,-876.0862 1812.427,-886.1732 1819.4247,-885.9926"/>
</g>
<!-- Water&#45;&gt;Petroleum gas -->
<g id="edge10" class="edge">
<title>Water&#45;&gt;Petroleum gas</title>
<path fill="none" stroke="#a0522d" d="M1736,-1318.4656C1736,-1261.0222 1736,-1142.5791 1736,-1088.2985"/>
<polygon fill="#a0522d" stroke="#a0522d" points="1739.5001,-1088.0342 1736,-1078.0343 1732.5001,-1088.0343 1739.5001,-1088.0342"/>
</g>
<!-- Sulfuric acid -->
<g id="node16" class="node">
<title>Sulfuric acid</title>
<ellipse fill="none" stroke="#000000" cx="1809" cy="-656" rx="55.7903" ry="18"/>
<text text-anchor="middle" x="1809" y="-652.3" font-family="Times,serif" font-size="14.00" fill="#000000">Sulfuric acid</text>
</g>
<!-- Water&#45;&gt;Sulfuric acid -->
<g id="edge5" class="edge">
<title>Water&#45;&gt;Sulfuric acid</title>
<path fill="none" stroke="#a0522d" d="M1750.4903,-1321.7335C1787.2195,-1244.1689 1879.4411,-1026.4853 1856,-840 1848.8892,-783.43 1829.9386,-719.326 1818.3887,-683.6798"/>
<polygon fill="#a0522d" stroke="#a0522d" points="1821.6513,-682.3969 1815.2032,-673.9902 1815.0015,-684.5831 1821.6513,-682.3969"/>
</g>
<!-- Water&#45;&gt;Heavy oil -->
<g id="edge11" class="edge">
<title>Water&#45;&gt;Heavy oil</title>
<path fill="none" stroke="#a0522d" d="M1715.944,-1325.1757C1672.9786,-1269.8529 1572.4934,-1140.4671 1529.7776,-1085.4659"/>
<polygon fill="#a0522d" stroke="#a0522d" points="1532.3338,-1083.051 1523.4357,-1077.2999 1526.8052,-1087.3447 1532.3338,-1083.051"/>
</g>
<!-- Water&#45;&gt;Light oil -->
<g id="edge12" class="edge">
<title>Water&#45;&gt;Light oil</title>
<path fill="none" stroke="#a0522d" d="M1723.5066,-1320.9539C1699.9166,-1264.2209 1649.1494,-1142.1278 1626.4156,-1087.4541"/>
<polygon fill="#a0522d" stroke="#a0522d" points="1629.581,-1085.9506 1622.5098,-1078.0608 1623.1175,-1088.6382 1629.581,-1085.9506"/>
</g>
<!-- Stone -->
<g id="node6" class="node">
<title>Stone</title>
<ellipse fill="#a0522d" stroke="#a0522d" cx="861" cy="-1351" rx="30.5947" ry="30.5947"/>
<polyline fill="none" stroke="#a0522d" points="881.204,-1373.9105 840.796,-1373.9105 "/>
<polyline fill="none" stroke="#a0522d" points="881.204,-1328.0895 840.796,-1328.0895 "/>
<text text-anchor="middle" x="861" y="-1347.3" font-family="Times,serif" font-size="14.00" fill="#ffffff">Stone</text>
</g>
<!-- Stone brick -->
<g id="node17" class="node">
<title>Stone brick</title>
<ellipse fill="none" stroke="#000000" cx="872" cy="-454" rx="51.1914" ry="18"/>
<text text-anchor="middle" x="872" y="-450.3" font-family="Times,serif" font-size="14.00" fill="#000000">Stone brick</text>
</g>
<!-- Stone&#45;&gt;Stone brick -->
<g id="edge6" class="edge">
<title>Stone&#45;&gt;Stone brick</title>
<path fill="none" stroke="#a0522d" d="M861.3755,-1320.3827C863.073,-1181.9568 870.0185,-615.5847 871.6539,-482.2204"/>
<polygon fill="#a0522d" stroke="#a0522d" points="875.1561,-482.0607 871.779,-472.0185 868.1566,-481.9748 875.1561,-482.0607"/>
</g>
<!-- Rail -->
<g id="node24" class="node">
<title>Rail</title>
<ellipse fill="none" stroke="#000000" cx="808" cy="-656" rx="27" ry="18"/>
<text text-anchor="middle" x="808" y="-652.3" font-family="Times,serif" font-size="14.00" fill="#000000">Rail</text>
</g>
<!-- Stone&#45;&gt;Rail -->
<g id="edge22" class="edge">
<title>Stone&#45;&gt;Rail</title>
<path fill="none" stroke="#a0522d" d="M858.6543,-1320.24C849.8231,-1204.4355 818.6497,-795.6512 810.1528,-684.2295"/>
<polygon fill="#a0522d" stroke="#a0522d" points="813.6314,-683.8145 809.381,-674.1096 806.6516,-684.3468 813.6314,-683.8145"/>
</g>
<!-- Automation science pack -->
<g id="node7" class="node">
<title>Automation science pack</title>
<polygon fill="#ff0000" stroke="#ff0000" points="748,-68 532,-68 532,-32 748,-32 748,-68"/>
<text text-anchor="middle" x="640" y="-46.3" font-family="Times,serif" font-size="14.00" fill="#000000">Automation science pack</text>
</g>
<!-- Logistics science pack -->
<g id="node8" class="node">
<title>Logistics science pack</title>
<polygon fill="#00ff00" stroke="#00ff00" points="216,-68 0,-68 0,-32 216,-32 216,-68"/>
<text text-anchor="middle" x="108" y="-46.3" font-family="Times,serif" font-size="14.00" fill="#000000">Logistics science pack</text>
</g>
<!-- Chemical science pack -->
<g id="node9" class="node">
<title>Chemical science pack</title>
<polygon fill="#0000ff" stroke="#0000ff" points="1399,-68 1183,-68 1183,-32 1399,-32 1399,-68"/>
<text text-anchor="middle" x="1291" y="-46.3" font-family="Times,serif" font-size="14.00" fill="#000000">Chemical science pack</text>
</g>
<!-- Military science pack -->
<g id="node10" class="node">
<title>Military science pack</title>
<polygon fill="#d3d3d3" stroke="#d3d3d3" points="511,-68 295,-68 295,-32 511,-32 511,-68"/>
<text text-anchor="middle" x="403" y="-46.3" font-family="Times,serif" font-size="14.00" fill="#000000">Military science pack</text>
</g>
<!-- Production science pack -->
<g id="node11" class="node">
<title>Production science pack</title>
<polygon fill="#9932cc" stroke="#9932cc" points="984,-68 768,-68 768,-32 984,-32 984,-68"/>
<text text-anchor="middle" x="876" y="-46.3" font-family="Times,serif" font-size="14.00" fill="#000000">Production science pack</text>
</g>
<!-- Utility science pack -->
<g id="node12" class="node">
<title>Utility science pack</title>
<polygon fill="#ffff00" stroke="#ffff00" points="1633,-68 1417,-68 1417,-32 1633,-32 1633,-68"/>
<text text-anchor="middle" x="1525" y="-46.3" font-family="Times,serif" font-size="14.00" fill="#000000">Utility science pack</text>
</g>
<!-- Sulfur&#45;&gt;Sulfuric acid -->
<g id="edge3" class="edge">
<title>Sulfur&#45;&gt;Sulfuric acid</title>
<path fill="none" stroke="#000000" d="M1814.457,-839.7176C1813.4061,-804.3388 1811.0881,-726.2998 1809.8381,-684.2163"/>
<polygon fill="#000000" stroke="#000000" points="1813.3329,-683.9872 1809.5375,-674.0956 1806.336,-684.1951 1813.3329,-683.9872"/>
</g>
<!-- Petroleum gas&#45;&gt;Sulfur -->
<g id="edge2" class="edge">
<title>Petroleum gas&#45;&gt;Sulfur</title>
<path fill="none" stroke="#000000" d="M1743.0107,-1042.0738C1756.8953,-1006.5716 1787.9638,-927.1306 1804.3751,-885.1674"/>
<polygon fill="#000000" stroke="#000000" points="1807.7351,-886.1855 1808.1178,-875.5976 1801.2159,-883.6359 1807.7351,-886.1855"/>
</g>
<!-- Petroleum gas&#45;&gt;Plastic bar -->
<g id="edge18" class="edge">
<title>Petroleum gas&#45;&gt;Plastic bar</title>
<path fill="none" stroke="#a0522d" d="M1724.5521,-1042.0738C1701.6881,-1006.2713 1650.2877,-925.7838 1623.6748,-884.1109"/>
<polygon fill="#a0522d" stroke="#a0522d" points="1626.5701,-882.1418 1618.238,-875.5976 1620.6705,-885.9094 1626.5701,-882.1418"/>
</g>
<!-- Solid fuel -->
<g id="node23" class="node">
<title>Solid fuel</title>
<ellipse fill="none" stroke="#000000" cx="1719" cy="-858" rx="45.4919" ry="18"/>
<text text-anchor="middle" x="1719" y="-854.3" font-family="Times,serif" font-size="14.00" fill="#000000">Solid fuel</text>
</g>
<!-- Petroleum gas&#45;&gt;Solid fuel -->
<g id="edge19" class="edge">
<title>Petroleum gas&#45;&gt;Solid fuel</title>
<path fill="none" stroke="#a0522d" d="M1734.4614,-1041.7176C1731.484,-1006.3388 1724.9163,-928.2998 1721.3746,-886.2163"/>
<polygon fill="#a0522d" stroke="#a0522d" points="1724.8493,-885.7668 1720.5229,-876.0956 1717.8739,-886.3539 1724.8493,-885.7668"/>
</g>
<!-- Iron plate&#45;&gt;Sulfuric acid -->
<g id="edge4" class="edge">
<title>Iron plate&#45;&gt;Sulfuric acid</title>
<path fill="none" stroke="#000000" d="M676.0332,-1052.7156C788.0776,-1032.1656 1107.7701,-969.1106 1361,-876 1520.1014,-817.4997 1697.6615,-719.933 1772.5552,-677.1716"/>
<polygon fill="#000000" stroke="#000000" points="1774.6558,-680.0019 1781.5919,-671.993 1771.1753,-673.9284 1774.6558,-680.0019"/>
</g>
<!-- Iron plate&#45;&gt;Grenade -->
<g id="edge16" class="edge">
<title>Iron plate&#45;&gt;Grenade</title>
<path fill="none" stroke="#000000" d="M606.8728,-1045.7958C535.871,-1009.9399 349.462,-915.8033 270.8182,-876.0882"/>
<polygon fill="#000000" stroke="#000000" points="272.2808,-872.9059 261.7767,-871.5222 269.1253,-879.1543 272.2808,-872.9059"/>
</g>
<!-- Iron stick -->
<g id="node25" class="node">
<title>Iron stick</title>
<ellipse fill="none" stroke="#000000" cx="762" cy="-858" rx="44.393" ry="18"/>
<text text-anchor="middle" x="762" y="-854.3" font-family="Times,serif" font-size="14.00" fill="#000000">Iron stick</text>
</g>
<!-- Iron plate&#45;&gt;Iron stick -->
<g id="edge26" class="edge">
<title>Iron plate&#45;&gt;Iron stick</title>
<path fill="none" stroke="#000000" d="M646.0483,-1042.4272C668.425,-1006.8359 719.2046,-926.0683 745.5121,-884.2249"/>
<polygon fill="#000000" stroke="#000000" points="748.5273,-886.0048 750.8869,-875.676 742.6012,-882.2789 748.5273,-886.0048"/>
</g>
<!-- Steel plate -->
<g id="node26" class="node">
<title>Steel plate</title>
<ellipse fill="none" stroke="#000000" cx="1024" cy="-858" rx="48.1917" ry="18"/>
<text text-anchor="middle" x="1024" y="-854.3" font-family="Times,serif" font-size="14.00" fill="#000000">Steel plate</text>
</g>
<!-- Iron plate&#45;&gt;Steel plate -->
<g id="edge29" class="edge">
<title>Iron plate&#45;&gt;Steel plate</title>
<path fill="none" stroke="#000000" d="M662.6641,-1045.6346C731.2168,-1010.0365 909.0128,-917.7106 986.7259,-877.3557"/>
<polygon fill="#000000" stroke="#000000" points="988.4311,-880.414 995.6929,-872.6993 985.2052,-874.2017 988.4311,-880.414"/>
</g>
<!-- Firearm magazine -->
<g id="node27" class="node">
<title>Firearm magazine</title>
<ellipse fill="none" stroke="#000000" cx="624" cy="-858" rx="75.2868" ry="18"/>
<text text-anchor="middle" x="624" y="-854.3" font-family="Times,serif" font-size="14.00" fill="#000000">Firearm magazine</text>
</g>
<!-- Iron plate&#45;&gt;Firearm magazine -->
<g id="edge25" class="edge">
<title>Iron plate&#45;&gt;Firearm magazine</title>
<path fill="none" stroke="#000000" d="M634.0044,-1041.7176C632.0779,-1006.3388 627.8282,-928.2998 625.5365,-886.2163"/>
<polygon fill="#000000" stroke="#000000" points="629.0241,-885.8904 624.9854,-876.0956 622.0344,-886.2711 629.0241,-885.8904"/>
</g>
<!-- Pipe -->
<g id="node28" class="node">
<title>Pipe</title>
<ellipse fill="none" stroke="#000000" cx="1289" cy="-858" rx="27" ry="18"/>
<text text-anchor="middle" x="1289" y="-854.3" font-family="Times,serif" font-size="14.00" fill="#000000">Pipe</text>
</g>
<!-- Iron plate&#45;&gt;Pipe -->
<g id="edge27" class="edge">
<title>Iron plate&#45;&gt;Pipe</title>
<path fill="none" stroke="#000000" d="M673.1961,-1050.2772C770.3855,-1025.1641 1034.4935,-954.5772 1248,-876 1251.0641,-874.8723 1254.2263,-873.6302 1257.3721,-872.3414"/>
<polygon fill="#000000" stroke="#000000" points="1258.8088,-875.5339 1266.6451,-868.4035 1256.0726,-869.0908 1258.8088,-875.5339"/>
</g>
<!-- Iron gear -->
<g id="node29" class="node">
<title>Iron gear</title>
<ellipse fill="none" stroke="#000000" cx="412" cy="-858" rx="42.7926" ry="18"/>
<text text-anchor="middle" x="412" y="-854.3" font-family="Times,serif" font-size="14.00" fill="#000000">Iron gear</text>
</g>
<!-- Iron plate&#45;&gt;Iron gear -->
<g id="edge28" class="edge">
<title>Iron plate&#45;&gt;Iron gear</title>
<path fill="none" stroke="#000000" d="M616.751,-1043.4695C577.2048,-1007.6474 483.4981,-922.7651 437.8659,-881.4301"/>
<polygon fill="#000000" stroke="#000000" points="439.9496,-878.5951 430.1884,-874.4756 435.2501,-883.7831 439.9496,-878.5951"/>
</g>
<!-- Transport belt -->
<g id="node31" class="node">
<title>Transport belt</title>
<ellipse fill="none" stroke="#000000" cx="253" cy="-656" rx="60.3893" ry="18"/>
<text text-anchor="middle" x="253" y="-652.3" font-family="Times,serif" font-size="14.00" fill="#000000">Transport belt</text>
</g>
<!-- Iron plate&#45;&gt;Transport belt -->
<g id="edge31" class="edge">
<title>Iron plate&#45;&gt;Transport belt</title>
<path fill="none" stroke="#000000" d="M599.9535,-1048.3519C536.3618,-1025.4623 401.6571,-968.628 327,-876 280.2949,-818.0525 262.4642,-729.2079 256.1547,-684.21"/>
<polygon fill="#000000" stroke="#000000" points="259.6219,-683.7311 254.8504,-674.2716 252.6815,-684.6421 259.6219,-683.7311"/>
</g>
<!-- Electronic circuit -->
<g id="node32" class="node">
<title>Electronic circuit</title>
<ellipse fill="none" stroke="#000000" cx="1088" cy="-656" rx="71.4873" ry="18"/>
<text text-anchor="middle" x="1088" y="-652.3" font-family="Times,serif" font-size="14.00" fill="#000000">Electronic circuit</text>
</g>
<!-- Iron plate&#45;&gt;Electronic circuit -->
<g id="edge33" class="edge">
<title>Iron plate&#45;&gt;Electronic circuit</title>
<path fill="none" stroke="#000000" d="M676.7951,-1053.2057C798.6763,-1032.4582 1149.2558,-965.83 1215,-876 1264.3237,-808.6062 1171.1824,-720.536 1119.356,-679.2563"/>
<polygon fill="#000000" stroke="#000000" points="1121.4524,-676.4525 1111.4211,-673.0432 1117.1369,-681.964 1121.4524,-676.4525"/>
</g>
<!-- Inserter -->
<g id="node33" class="node">
<title>Inserter</title>
<ellipse fill="none" stroke="#000000" cx="337" cy="-454" rx="37.8943" ry="18"/>
<text text-anchor="middle" x="337" y="-450.3" font-family="Times,serif" font-size="14.00" fill="#000000">Inserter</text>
</g>
<!-- Iron plate&#45;&gt;Inserter -->
<g id="edge35" class="edge">
<title>Iron plate&#45;&gt;Inserter</title>
<path fill="none" stroke="#000000" d="M600.3613,-1048.5269C539.3364,-1026.2555 414.0214,-970.8374 360,-876 321.6819,-808.7305 330.9079,-565.6149 335.3322,-482.269"/>
<polygon fill="#000000" stroke="#000000" points="338.8403,-482.2164 335.8944,-472.0394 331.8509,-481.8323 338.8403,-482.2164"/>
</g>
<!-- Gun turret -->
<g id="node37" class="node">
<title>Gun turret</title>
<ellipse fill="none" stroke="#000000" cx="492" cy="-656" rx="47.3916" ry="18"/>
<text text-anchor="middle" x="492" y="-652.3" font-family="Times,serif" font-size="14.00" fill="#000000">Gun turret</text>
</g>
<!-- Iron plate&#45;&gt;Gun turret -->
<g id="edge47" class="edge">
<title>Iron plate&#45;&gt;Gun turret</title>
<path fill="none" stroke="#000000" d="M618.2972,-1043.0453C589.5311,-1012.6107 531.384,-945.387 507,-876 483.9396,-810.3795 486.0562,-727.0915 489.2283,-684.2652"/>
<polygon fill="#000000" stroke="#000000" points="492.7378,-684.2915 490.0648,-674.0395 485.7611,-683.7208 492.7378,-684.2915"/>
</g>
<!-- Battery -->
<g id="node40" class="node">
<title>Battery</title>
<ellipse fill="none" stroke="#000000" cx="1543" cy="-454" rx="36.2938" ry="18"/>
<text text-anchor="middle" x="1543" y="-450.3" font-family="Times,serif" font-size="14.00" fill="#000000">Battery</text>
</g>
<!-- Iron plate&#45;&gt;Battery -->
<g id="edge55" class="edge">
<title>Iron plate&#45;&gt;Battery</title>
<path fill="none" stroke="#000000" d="M677.8751,-1054.6116C814.4565,-1036.5633 1235.6174,-973.8128 1325,-876 1397.4065,-796.7644 1317.5516,-733.7796 1366,-638 1401.6761,-567.4705 1473.5287,-505.9223 1513.8512,-475.0631"/>
<polygon fill="#000000" stroke="#000000" points="1516.0771,-477.7682 1521.9526,-468.9517 1511.8615,-472.1799 1516.0771,-477.7682"/>
</g>
<!-- Sulfuric acid&#45;&gt;Battery -->
<g id="edge56" class="edge">
<title>Sulfuric acid&#45;&gt;Battery</title>
<path fill="none" stroke="#000000" d="M1786.7785,-639.125C1738.5395,-602.4924 1624.3025,-515.741 1571.1306,-475.3624"/>
<polygon fill="#000000" stroke="#000000" points="1573.2214,-472.5552 1563.1407,-469.2948 1568.9879,-478.13 1573.2214,-472.5552"/>
</g>
<!-- Processing unit -->
<g id="node42" class="node">
<title>Processing unit</title>
<ellipse fill="none" stroke="#000000" cx="1248" cy="-252" rx="64.9885" ry="18"/>
<text text-anchor="middle" x="1248" y="-248.3" font-family="Times,serif" font-size="14.00" fill="#000000">Processing unit</text>
</g>
<!-- Sulfuric acid&#45;&gt;Processing unit -->
<g id="edge61" class="edge">
<title>Sulfuric acid&#45;&gt;Processing unit</title>
<path fill="none" stroke="#000000" d="M1794.6224,-638.5981C1761.3253,-599.0411 1675.0916,-500.7876 1588,-436 1490.3509,-363.3586 1360.4492,-301.307 1292.9791,-271.2894"/>
<polygon fill="#000000" stroke="#000000" points="1294.0502,-267.9362 1283.4888,-267.0955 1291.2208,-274.3389 1294.0502,-267.9362"/>
</g>
<!-- Electric furnace -->
<g id="node38" class="node">
<title>Electric furnace</title>
<ellipse fill="none" stroke="#000000" cx="876" cy="-252" rx="66.8882" ry="18"/>
<text text-anchor="middle" x="876" y="-248.3" font-family="Times,serif" font-size="14.00" fill="#000000">Electric furnace</text>
</g>
<!-- Stone brick&#45;&gt;Electric furnace -->
<g id="edge50" class="edge">
<title>Stone brick&#45;&gt;Electric furnace</title>
<path fill="none" stroke="#000000" d="M872.362,-435.7176C873.0626,-400.3388 874.6079,-322.2998 875.4413,-280.2163"/>
<polygon fill="#000000" stroke="#000000" points="878.9429,-280.1629 875.6417,-270.0956 871.9443,-280.0243 878.9429,-280.1629"/>
</g>
<!-- Heavy oil&#45;&gt;Solid fuel -->
<g id="edge20" class="edge">
<title>Heavy oil&#45;&gt;Solid fuel</title>
<path fill="none" stroke="#a0522d" d="M1527.4597,-1043.125C1564.6651,-1007.1658 1651.8372,-922.9134 1694.5454,-881.6355"/>
<polygon fill="#a0522d" stroke="#a0522d" points="1696.9788,-884.1512 1701.7369,-874.6849 1692.1141,-879.1179 1696.9788,-884.1512"/>
</g>
<!-- Lubricant -->
<g id="node43" class="node">
<title>Lubricant</title>
<ellipse fill="none" stroke="#000000" cx="1420" cy="-656" rx="44.6926" ry="18"/>
<text text-anchor="middle" x="1420" y="-652.3" font-family="Times,serif" font-size="14.00" fill="#000000">Lubricant</text>
</g>
<!-- Heavy oil&#45;&gt;Lubricant -->
<g id="edge64" class="edge">
<title>Heavy oil&#45;&gt;Lubricant</title>
<path fill="none" stroke="#000000" d="M1505.958,-1041.8561C1491.6824,-977.7741 1443.5611,-761.7633 1426.2607,-684.1036"/>
<polygon fill="#000000" stroke="#000000" points="1429.6216,-683.0935 1424.0308,-674.0939 1422.7891,-684.6157 1429.6216,-683.0935"/>
</g>
<!-- Light oil&#45;&gt;Solid fuel -->
<g id="edge21" class="edge">
<title>Light oil&#45;&gt;Solid fuel</title>
<path fill="none" stroke="#a0522d" d="M1624.0474,-1042.4272C1642.2948,-1006.9851 1683.6066,-926.7448 1705.226,-884.7533"/>
<polygon fill="#a0522d" stroke="#a0522d" points="1708.4338,-886.169 1709.8995,-875.676 1702.2102,-882.9647 1708.4338,-886.169"/>
</g>
<!-- Copper plate&#45;&gt;Automation science pack -->
<g id="edge72" class="edge">
<title>Copper plate&#45;&gt;Automation science pack</title>
<path fill="none" stroke="#ff0000" d="M1050.3415,-1042.2415C1032.8045,-1009.7132 994.957,-938.1906 967,-876 828.6901,-568.3286 688.025,-183.4565 649.9863,-77.8786"/>
<polygon fill="#ff0000" stroke="#ff0000" points="653.2096,-76.499 646.5315,-68.2738 646.6228,-78.8682 653.2096,-76.499"/>
</g>
<!-- Copper cable -->
<g id="node30" class="node">
<title>Copper cable</title>
<ellipse fill="none" stroke="#000000" cx="1148" cy="-858" rx="57.6901" ry="18"/>
<text text-anchor="middle" x="1148" y="-854.3" font-family="Times,serif" font-size="14.00" fill="#000000">Copper cable</text>
</g>
<!-- Copper plate&#45;&gt;Copper cable -->
<g id="edge30" class="edge">
<title>Copper plate&#45;&gt;Copper cable</title>
<path fill="none" stroke="#000000" d="M1067.8094,-1042.0738C1083.2695,-1006.5859 1117.8558,-927.1947 1136.1425,-885.2183"/>
<polygon fill="#000000" stroke="#000000" points="1139.4229,-886.4517 1140.2081,-875.886 1133.0054,-883.6559 1139.4229,-886.4517"/>
</g>
<!-- Piercing rounds magazine -->
<g id="node36" class="node">
<title>Piercing rounds magazine</title>
<ellipse fill="none" stroke="#000000" cx="660" cy="-656" rx="102.8821" ry="18"/>
<text text-anchor="middle" x="660" y="-652.3" font-family="Times,serif" font-size="14.00" fill="#000000">Piercing rounds magazine</text>
</g>
<!-- Copper plate&#45;&gt;Piercing rounds magazine -->
<g id="edge44" class="edge">
<title>Copper plate&#45;&gt;Piercing rounds magazine</title>
<path fill="none" stroke="#000000" d="M1042.8125,-1042.6406C979.4904,-978.6853 759.0538,-756.0443 684.7049,-680.952"/>
<polygon fill="#000000" stroke="#000000" points="687.0969,-678.3933 677.574,-673.7497 682.1226,-683.3184 687.0969,-678.3933"/>
</g>
<!-- Copper plate&#45;&gt;Gun turret -->
<g id="edge48" class="edge">
<title>Copper plate&#45;&gt;Gun turret</title>
<path fill="none" stroke="#000000" d="M1004.4823,-1057.3358C897.5418,-1049.0691 662.7267,-1015.1526 540,-876 492.0022,-821.5781 488.3732,-730.4147 490.0056,-684.4019"/>
<polygon fill="#000000" stroke="#000000" points="493.5094,-684.4007 490.4795,-674.2483 486.517,-684.0742 493.5094,-684.4007"/>
</g>
<!-- Copper plate&#45;&gt;Battery -->
<g id="edge57" class="edge">
<title>Copper plate&#45;&gt;Battery</title>
<path fill="none" stroke="#000000" d="M1095.0492,-1045.7219C1155.5936,-1019.6352 1280.9563,-959.1985 1361,-876 1475.1482,-757.3528 1523.5272,-555.7916 1537.999,-482.0729"/>
<polygon fill="#000000" stroke="#000000" points="1541.4562,-482.6278 1539.8919,-472.1491 1534.5801,-481.3162 1541.4562,-482.6278"/>
</g>
<!-- Low density structure -->
<g id="node41" class="node">
<title>Low density structure</title>
<ellipse fill="none" stroke="#000000" cx="1609" cy="-656" rx="87.9851" ry="18"/>
<text text-anchor="middle" x="1609" y="-652.3" font-family="Times,serif" font-size="14.00" fill="#000000">Low density structure</text>
</g>
<!-- Copper plate&#45;&gt;Low density structure -->
<g id="edge58" class="edge">
<title>Copper plate&#45;&gt;Low density structure</title>
<path fill="none" stroke="#000000" d="M1109.7779,-1051.8072C1199.878,-1034.5865 1391.363,-986.6974 1507,-876 1563.7098,-821.7126 1591.9232,-729.7829 1603.0649,-683.8539"/>
<polygon fill="#000000" stroke="#000000" points="1606.5007,-684.5315 1605.3632,-673.9979 1599.6836,-682.9417 1606.5007,-684.5315"/>
</g>
<!-- Grenade&#45;&gt;Military science pack -->
<g id="edge79" class="edge">
<title>Grenade&#45;&gt;Military science pack</title>
<path fill="none" stroke="#d3d3d3" d="M225.9395,-840.4425C207.888,-803.3171 170.3038,-714.0143 184,-638 224.7435,-411.8716 347.0176,-159.2017 388.8124,-77.2361"/>
<polygon fill="#d3d3d3" stroke="#d3d3d3" points="392.049,-78.5949 393.4994,-68.0998 385.8207,-75.3997 392.049,-78.5949"/>
</g>
<!-- Advanced circuit -->
<g id="node35" class="node">
<title>Advanced circuit</title>
<ellipse fill="none" stroke="#000000" cx="1088" cy="-454" rx="71.4873" ry="18"/>
<text text-anchor="middle" x="1088" y="-450.3" font-family="Times,serif" font-size="14.00" fill="#000000">Advanced circuit</text>
</g>
<!-- Plastic bar&#45;&gt;Advanced circuit -->
<g id="edge41" class="edge">
<title>Plastic bar&#45;&gt;Advanced circuit</title>
<path fill="none" stroke="#000000" d="M1625.7138,-841.2447C1666.5927,-802.6228 1756.3233,-705.4894 1706,-638 1639.9723,-549.4492 1308.508,-488.0813 1160.0726,-464.6071"/>
<polygon fill="#000000" stroke="#000000" points="1160.5576,-461.1405 1150.1361,-463.0492 1159.4733,-468.056 1160.5576,-461.1405"/>
</g>
<!-- Plastic bar&#45;&gt;Low density structure -->
<g id="edge59" class="edge">
<title>Plastic bar&#45;&gt;Low density structure</title>
<path fill="none" stroke="#000000" d="M1607.181,-839.7176C1607.5313,-804.3388 1608.304,-726.2998 1608.7206,-684.2163"/>
<polygon fill="#000000" stroke="#000000" points="1612.2216,-684.1298 1608.8208,-674.0956 1605.2219,-684.0604 1612.2216,-684.1298"/>
</g>
<!-- Solid fuel&#45;&gt;Chemical science pack -->
<g id="edge76" class="edge">
<title>Solid fuel&#45;&gt;Chemical science pack</title>
<path fill="none" stroke="#0000ff" d="M1743.8216,-842.7357C1794.6904,-809.32 1903.5994,-725.6465 1874,-638 1801.7579,-424.0845 1730.5022,-388.6538 1566,-234 1492.8537,-165.2329 1391.4102,-104.6021 1334.398,-73.049"/>
<polygon fill="#0000ff" stroke="#0000ff" points="1335.752,-69.7995 1325.302,-68.0533 1332.3822,-75.9351 1335.752,-69.7995"/>
</g>
<!-- Rail&#45;&gt;Production science pack -->
<g id="edge82" class="edge">
<title>Rail&#45;&gt;Production science pack</title>
<path fill="none" stroke="#9932cc" d="M804.9605,-638.0713C795.5773,-579.3606 769.4842,-387.815 800,-234 811.6193,-175.4327 842.167,-112.1179 860.8045,-77.1348"/>
<polygon fill="#9932cc" stroke="#9932cc" points="864.0411,-78.5076 865.7198,-68.0466 857.8839,-75.1775 864.0411,-78.5076"/>
</g>
<!-- Iron stick&#45;&gt;Rail -->
<g id="edge23" class="edge">
<title>Iron stick&#45;&gt;Rail</title>
<path fill="none" stroke="#000000" d="M766.0822,-840.0738C774.1295,-804.7356 792.0904,-725.8639 801.6803,-683.7516"/>
<polygon fill="#000000" stroke="#000000" points="805.1191,-684.4135 803.927,-673.886 798.2939,-682.8592 805.1191,-684.4135"/>
</g>
<!-- Steel plate&#45;&gt;Rail -->
<g id="edge24" class="edge">
<title>Steel plate&#45;&gt;Rail</title>
<path fill="none" stroke="#000000" d="M1005.9555,-841.125C966.9155,-804.6154 874.6422,-718.3228 831.2794,-677.7706"/>
<polygon fill="#000000" stroke="#000000" points="833.4702,-675.0273 823.7757,-670.7532 828.6889,-680.14 833.4702,-675.0273"/>
</g>
<!-- Engine unit -->
<g id="node34" class="node">
<title>Engine unit</title>
<ellipse fill="none" stroke="#000000" cx="1229" cy="-656" rx="51.9908" ry="18"/>
<text text-anchor="middle" x="1229" y="-652.3" font-family="Times,serif" font-size="14.00" fill="#000000">Engine unit</text>
</g>
<!-- Steel plate&#45;&gt;Engine unit -->
<g id="edge38" class="edge">
<title>Steel plate&#45;&gt;Engine unit</title>
<path fill="none" stroke="#000000" d="M1041.1256,-841.125C1077.3621,-805.4188 1161.9219,-722.0964 1204.1229,-680.513"/>
<polygon fill="#000000" stroke="#000000" points="1206.8222,-682.767 1211.4886,-673.2551 1201.909,-677.7809 1206.8222,-682.767"/>
</g>
<!-- Steel plate&#45;&gt;Piercing rounds magazine -->
<g id="edge45" class="edge">
<title>Steel plate&#45;&gt;Piercing rounds magazine</title>
<path fill="none" stroke="#000000" d="M996.9382,-842.9822C933.4997,-807.7773 774.9267,-719.778 700.1808,-678.2981"/>
<polygon fill="#000000" stroke="#000000" points="701.5064,-675.031 691.0642,-673.2389 698.1097,-681.1517 701.5064,-675.031"/>
</g>
<!-- Steel plate&#45;&gt;Electric furnace -->
<g id="edge51" class="edge">
<title>Steel plate&#45;&gt;Electric furnace</title>
<path fill="none" stroke="#000000" d="M1020.5746,-839.7781C1009.3994,-780.9498 972.3897,-590.9137 932,-436 917.432,-380.1247 896.9922,-315.7768 885.2611,-279.8993"/>
<polygon fill="#000000" stroke="#000000" points="888.502,-278.5504 882.0556,-270.1424 881.8517,-280.7353 888.502,-278.5504"/>
</g>
<!-- Steel plate&#45;&gt;Low density structure -->
<g id="edge60" class="edge">
<title>Steel plate&#45;&gt;Low density structure</title>
<path fill="none" stroke="#000000" d="M1059.7138,-845.6681C1158.5209,-811.55 1436.0156,-715.7314 1554.3869,-674.8579"/>
<polygon fill="#000000" stroke="#000000" points="1555.6752,-678.1159 1563.9852,-671.5436 1553.3905,-671.4992 1555.6752,-678.1159"/>
</g>
<!-- Flying robot frame -->
<g id="node45" class="node">
<title>Flying robot frame</title>
<ellipse fill="none" stroke="#000000" cx="1479" cy="-252" rx="77.9862" ry="18"/>
<text text-anchor="middle" x="1479" y="-248.3" font-family="Times,serif" font-size="14.00" fill="#000000">Flying robot frame</text>
</g>
<!-- Steel plate&#45;&gt;Flying robot frame -->
<g id="edge68" class="edge">
<title>Steel plate&#45;&gt;Flying robot frame</title>
<path fill="none" stroke="#000000" d="M1050.6097,-842.8535C1100.5008,-813.7759 1210.2517,-746.5518 1290,-674 1376.7957,-595.0368 1415.0775,-580.4005 1460,-472 1486.7221,-407.5181 1485.0447,-323.4758 1481.8472,-280.3127"/>
<polygon fill="#000000" stroke="#000000" points="1485.3281,-279.9351 1481.0179,-270.2566 1478.3518,-280.5105 1485.3281,-279.9351"/>
</g>
<!-- Firearm magazine&#45;&gt;Piercing rounds magazine -->
<g id="edge46" class="edge">
<title>Firearm magazine&#45;&gt;Piercing rounds magazine</title>
<path fill="none" stroke="#000000" d="M627.2583,-839.7176C633.5768,-804.2636 647.5304,-725.9683 655.019,-683.9488"/>
<polygon fill="#000000" stroke="#000000" points="658.4661,-684.5546 656.775,-674.0956 651.5747,-683.3263 658.4661,-684.5546"/>
</g>
<!-- Pipe&#45;&gt;Engine unit -->
<g id="edge39" class="edge">
<title>Pipe&#45;&gt;Engine unit</title>
<path fill="none" stroke="#000000" d="M1283.6754,-840.0738C1273.1832,-804.75 1249.7706,-725.9278 1237.2583,-683.8029"/>
<polygon fill="#000000" stroke="#000000" points="1240.6015,-682.7658 1234.3989,-674.1764 1233.8912,-684.759 1240.6015,-682.7658"/>
</g>
<!-- Iron gear&#45;&gt;Automation science pack -->
<g id="edge73" class="edge">
<title>Iron gear&#45;&gt;Automation science pack</title>
<path fill="none" stroke="#ff0000" d="M412.6012,-839.8079C414.1565,-801.8574 419.4282,-711.6561 436,-638 486.0266,-415.6476 592.1037,-160.5314 627.907,-77.5873"/>
<polygon fill="#ff0000" stroke="#ff0000" points="631.1498,-78.9065 631.9164,-68.3395 624.7274,-76.1221 631.1498,-78.9065"/>
</g>
<!-- Iron gear&#45;&gt;Transport belt -->
<g id="edge32" class="edge">
<title>Iron gear&#45;&gt;Transport belt</title>
<path fill="none" stroke="#000000" d="M398.4437,-840.7776C370.4808,-805.2524 306.2672,-723.6728 273.3179,-681.8127"/>
<polygon fill="#000000" stroke="#000000" points="275.9105,-679.4476 266.9752,-673.7546 270.4101,-683.7772 275.9105,-679.4476"/>
</g>
<!-- Iron gear&#45;&gt;Inserter -->
<g id="edge36" class="edge">
<title>Iron gear&#45;&gt;Inserter</title>
<path fill="none" stroke="#000000" d="M408.6317,-839.8561C396.7353,-775.7741 356.6343,-559.7633 342.2173,-482.1036"/>
<polygon fill="#000000" stroke="#000000" points="345.6255,-481.287 340.359,-472.0939 338.7431,-482.5648 345.6255,-481.287"/>
</g>
<!-- Iron gear&#45;&gt;Engine unit -->
<g id="edge40" class="edge">
<title>Iron gear&#45;&gt;Engine unit</title>
<path fill="none" stroke="#000000" d="M449.9226,-849.4515C560.835,-824.3037 894.0714,-747.705 1168,-674 1171.8485,-672.9645 1175.8244,-671.8632 1179.8152,-670.7352"/>
<polygon fill="#000000" stroke="#000000" points="1181.0552,-674.0207 1189.7022,-667.8986 1179.1247,-667.2922 1181.0552,-674.0207"/>
</g>
<!-- Iron gear&#45;&gt;Gun turret -->
<g id="edge49" class="edge">
<title>Iron gear&#45;&gt;Gun turret</title>
<path fill="none" stroke="#000000" d="M419.0995,-840.0738C433.1541,-804.5859 464.5962,-725.1947 481.2205,-683.2183"/>
<polygon fill="#000000" stroke="#000000" points="484.4883,-684.4722 484.9164,-673.886 477.9801,-681.8946 484.4883,-684.4722"/>
</g>
<!-- Copper cable&#45;&gt;Electronic circuit -->
<g id="edge34" class="edge">
<title>Copper cable&#45;&gt;Electronic circuit</title>
<path fill="none" stroke="#000000" d="M1142.6754,-840.0738C1132.1832,-804.75 1108.7706,-725.9278 1096.2583,-683.8029"/>
<polygon fill="#000000" stroke="#000000" points="1099.6015,-682.7658 1093.3989,-674.1764 1092.8912,-684.759 1099.6015,-682.7658"/>
</g>
<!-- Copper cable&#45;&gt;Advanced circuit -->
<g id="edge42" class="edge">
<title>Copper cable&#45;&gt;Advanced circuit</title>
<path fill="none" stroke="#000000" d="M1128.4582,-840.8466C1095.9707,-810.8712 1032.0469,-745.3172 1008,-674 984.1784,-603.351 1035.5802,-520.9817 1066.6272,-479.9697"/>
<polygon fill="#000000" stroke="#000000" points="1069.5492,-481.913 1072.909,-471.865 1064.0165,-477.6248 1069.5492,-481.913"/>
</g>
<!-- Transport belt&#45;&gt;Logistics science pack -->
<g id="edge74" class="edge">
<title>Transport belt&#45;&gt;Logistics science pack</title>
<path fill="none" stroke="#00ff00" d="M248.6604,-637.8636C228.0231,-551.614 139.7719,-182.7845 114.6792,-77.9143"/>
<polygon fill="#00ff00" stroke="#00ff00" points="118.0537,-76.9766 112.3226,-68.0656 111.2458,-78.6056 118.0537,-76.9766"/>
</g>
<!-- Electronic circuit&#45;&gt;Inserter -->
<g id="edge37" class="edge">
<title>Electronic circuit&#45;&gt;Inserter</title>
<path fill="none" stroke="#000000" d="M1039.0145,-642.8241C901.0792,-605.723 510.977,-500.7954 380.282,-465.6418"/>
<polygon fill="#000000" stroke="#000000" points="380.8106,-462.1596 370.2447,-462.942 378.9924,-468.9194 380.8106,-462.1596"/>
</g>
<!-- Electronic circuit&#45;&gt;Advanced circuit -->
<g id="edge43" class="edge">
<title>Electronic circuit&#45;&gt;Advanced circuit</title>
<path fill="none" stroke="#000000" d="M1088,-637.7176C1088,-602.3388 1088,-524.2998 1088,-482.2163"/>
<polygon fill="#000000" stroke="#000000" points="1091.5001,-482.0955 1088,-472.0956 1084.5001,-482.0956 1091.5001,-482.0955"/>
</g>
<!-- Productivity module -->
<g id="node39" class="node">
<title>Productivity module</title>
<ellipse fill="none" stroke="#000000" cx="1044" cy="-252" rx="83.3857" ry="18"/>
<text text-anchor="middle" x="1044" y="-248.3" font-family="Times,serif" font-size="14.00" fill="#000000">Productivity module</text>
</g>
<!-- Electronic circuit&#45;&gt;Productivity module -->
<g id="edge53" class="edge">
<title>Electronic circuit&#45;&gt;Productivity module</title>
<path fill="none" stroke="#000000" d="M1077.1839,-638.0318C1058.6219,-606.0292 1021.4059,-536.4553 1008,-472 993.6935,-403.2146 1017.7789,-321.3579 1033.0019,-279.5557"/>
<polygon fill="#000000" stroke="#000000" points="1036.3277,-280.6546 1036.5602,-270.0623 1029.773,-278.1977 1036.3277,-280.6546"/>
</g>
<!-- Electronic circuit&#45;&gt;Processing unit -->
<g id="edge62" class="edge">
<title>Electronic circuit&#45;&gt;Processing unit</title>
<path fill="none" stroke="#000000" d="M1096.3221,-637.8744C1111.2922,-605.0532 1143.4852,-533.4753 1168,-472 1195.3277,-403.4708 1224.1257,-321.5069 1238.5674,-279.6207"/>
<polygon fill="#000000" stroke="#000000" points="1241.8967,-280.7019 1241.838,-270.1072 1235.2769,-278.4261 1241.8967,-280.7019"/>
</g>
<!-- Electric engine unit -->
<g id="node44" class="node">
<title>Electric engine unit</title>
<ellipse fill="none" stroke="#000000" cx="1371" cy="-454" rx="79.8859" ry="18"/>
<text text-anchor="middle" x="1371" y="-450.3" font-family="Times,serif" font-size="14.00" fill="#000000">Electric engine unit</text>
</g>
<!-- Electronic circuit&#45;&gt;Electric engine unit -->
<g id="edge65" class="edge">
<title>Electronic circuit&#45;&gt;Electric engine unit</title>
<path fill="none" stroke="#000000" d="M1112.1284,-638.7776C1162.9844,-602.4776 1281.2073,-518.0923 1338.5933,-477.1313"/>
<polygon fill="#000000" stroke="#000000" points="1340.8268,-479.8373 1346.9327,-471.1788 1336.76,-474.1398 1340.8268,-479.8373"/>
</g>
<!-- Electronic circuit&#45;&gt;Flying robot frame -->
<g id="edge69" class="edge">
<title>Electronic circuit&#45;&gt;Flying robot frame</title>
<path fill="none" stroke="#000000" d="M1102.5412,-638.3738C1134.1074,-600.3703 1211.7308,-508.3091 1282,-436 1340.0063,-376.3098 1412.4964,-310.7499 1451.3494,-276.2849"/>
<polygon fill="#000000" stroke="#000000" points="1453.9427,-278.6638 1459.1124,-269.4158 1449.3039,-273.4214 1453.9427,-278.6638"/>
</g>
<!-- Inserter&#45;&gt;Logistics science pack -->
<g id="edge75" class="edge">
<title>Inserter&#45;&gt;Logistics science pack</title>
<path fill="none" stroke="#00ff00" d="M327.0129,-436.3808C290.9364,-372.735 167.1888,-154.4204 123.4588,-77.2723"/>
<polygon fill="#00ff00" stroke="#00ff00" points="126.2762,-75.1449 118.3,-68.1712 120.1864,-78.5968 126.2762,-75.1449"/>
</g>
<!-- Engine unit&#45;&gt;Chemical science pack -->
<g id="edge77" class="edge">
<title>Engine unit&#45;&gt;Chemical science pack</title>
<path fill="none" stroke="#0000ff" d="M1233.3608,-637.9001C1251.7473,-561.5865 1322,-270 1322,-270 1323.8872,-254.1117 1323.3337,-249.9443 1322,-234 1317.3503,-178.4146 1304.931,-114.3618 1297.2974,-78.3789"/>
<polygon fill="#0000ff" stroke="#0000ff" points="1300.6224,-77.1927 1295.0959,-68.1534 1293.7792,-78.6661 1300.6224,-77.1927"/>
</g>
<!-- Engine unit&#45;&gt;Electric engine unit -->
<g id="edge66" class="edge">
<title>Engine unit&#45;&gt;Electric engine unit</title>
<path fill="none" stroke="#000000" d="M1241.3532,-638.4272C1266.3623,-602.8509 1323.1022,-522.1364 1352.5275,-480.2778"/>
<polygon fill="#000000" stroke="#000000" points="1355.483,-482.1594 1358.3707,-471.9657 1349.7564,-478.1337 1355.483,-482.1594"/>
</g>
<!-- Advanced circuit&#45;&gt;Chemical science pack -->
<g id="edge78" class="edge">
<title>Advanced circuit&#45;&gt;Chemical science pack</title>
<path fill="none" stroke="#0000ff" d="M1093.7738,-435.8101C1106.2243,-397.4878 1137.4476,-306.0456 1174,-234 1203.8425,-175.1798 1247.26,-111.1935 1271.9505,-76.3199"/>
<polygon fill="#0000ff" stroke="#0000ff" points="1274.8533,-78.2773 1277.8046,-68.1018 1269.1519,-74.2159 1274.8533,-78.2773"/>
</g>
<!-- Advanced circuit&#45;&gt;Electric furnace -->
<g id="edge52" class="edge">
<title>Advanced circuit&#45;&gt;Electric furnace</title>
<path fill="none" stroke="#000000" d="M1069.5573,-436.4272C1031.6391,-400.2976 944.8634,-317.6151 901.5592,-276.3535"/>
<polygon fill="#000000" stroke="#000000" points="903.9033,-273.7527 894.2492,-269.3883 899.0745,-278.8206 903.9033,-273.7527"/>
</g>
<!-- Advanced circuit&#45;&gt;Productivity module -->
<g id="edge54" class="edge">
<title>Advanced circuit&#45;&gt;Productivity module</title>
<path fill="none" stroke="#000000" d="M1084.0177,-435.7176C1076.2951,-400.2636 1059.2406,-321.9683 1050.0878,-279.9488"/>
<polygon fill="#000000" stroke="#000000" points="1053.4898,-279.1215 1047.9416,-270.0956 1046.6502,-280.6114 1053.4898,-279.1215"/>
</g>
<!-- Advanced circuit&#45;&gt;Processing unit -->
<g id="edge63" class="edge">
<title>Advanced circuit&#45;&gt;Processing unit</title>
<path fill="none" stroke="#000000" d="M1102.1989,-436.0738C1130.6763,-400.1212 1194.8451,-319.1081 1227.7317,-277.5888"/>
<polygon fill="#000000" stroke="#000000" points="1230.5959,-279.6096 1234.0613,-269.5976 1225.1087,-275.2633 1230.5959,-279.6096"/>
</g>
<!-- Piercing rounds magazine&#45;&gt;Military science pack -->
<g id="edge80" class="edge">
<title>Piercing rounds magazine&#45;&gt;Military science pack</title>
<path fill="none" stroke="#d3d3d3" d="M652.3085,-637.8636C615.6568,-551.4397 458.6804,-181.2931 414.5701,-77.282"/>
<polygon fill="#d3d3d3" stroke="#d3d3d3" points="417.7881,-75.9054 410.6615,-68.0656 411.3437,-78.6385 417.7881,-75.9054"/>
</g>
<!-- Gun turret&#45;&gt;Military science pack -->
<g id="edge81" class="edge">
<title>Gun turret&#45;&gt;Military science pack</title>
<path fill="none" stroke="#d3d3d3" d="M483.7939,-638.2004C469.34,-605.8961 439.6744,-535.1101 427,-472 397.7181,-326.1961 399.7569,-146.7782 401.8778,-78.3392"/>
<polygon fill="#d3d3d3" stroke="#d3d3d3" points="405.3762,-78.4421 402.2141,-68.3301 398.3802,-78.2069 405.3762,-78.4421"/>
</g>
<!-- Electric furnace&#45;&gt;Production science pack -->
<g id="edge83" class="edge">
<title>Electric furnace&#45;&gt;Production science pack</title>
<path fill="none" stroke="#9932cc" d="M876,-233.7176C876,-198.3388 876,-120.2998 876,-78.2163"/>
<polygon fill="#9932cc" stroke="#9932cc" points="879.5001,-78.0955 876,-68.0956 872.5001,-78.0956 879.5001,-78.0955"/>
</g>
<!-- Productivity module&#45;&gt;Production science pack -->
<g id="edge84" class="edge">
<title>Productivity module&#45;&gt;Production science pack</title>
<path fill="none" stroke="#9932cc" d="M1029.0911,-234.0738C999.2781,-198.2272 932.2096,-117.5853 897.588,-75.957"/>
<polygon fill="#9932cc" stroke="#9932cc" points="900.2023,-73.6268 891.117,-68.1764 894.8204,-78.1029 900.2023,-73.6268"/>
</g>
<!-- Battery&#45;&gt;Flying robot frame -->
<g id="edge70" class="edge">
<title>Battery&#45;&gt;Flying robot frame</title>
<path fill="none" stroke="#000000" d="M1537.3204,-436.0738C1526.1287,-400.75 1501.1554,-321.9278 1487.8088,-279.8029"/>
<polygon fill="#000000" stroke="#000000" points="1491.1158,-278.6522 1484.7588,-270.1764 1484.4427,-280.7665 1491.1158,-278.6522"/>
</g>
<!-- Low density structure&#45;&gt;Utility science pack -->
<g id="edge85" class="edge">
<title>Low density structure&#45;&gt;Utility science pack</title>
<path fill="none" stroke="#ffff00" d="M1607.9588,-637.7954C1604.424,-579.019 1591.6489,-389.1222 1566,-234 1556.7674,-178.1619 1541.2995,-113.8009 1532.2332,-77.911"/>
<polygon fill="#ffff00" stroke="#ffff00" points="1535.6072,-76.9775 1529.7476,-68.1506 1528.8237,-78.705 1535.6072,-76.9775"/>
</g>
<!-- Processing unit&#45;&gt;Utility science pack -->
<g id="edge86" class="edge">
<title>Processing unit&#45;&gt;Utility science pack</title>
<path fill="none" stroke="#ffff00" d="M1271.1404,-235.125C1320.2408,-199.319 1435.0022,-115.6302 1491.8625,-74.1653"/>
<polygon fill="#ffff00" stroke="#ffff00" points="1494.1272,-76.8456 1500.1447,-68.1255 1490.0027,-71.1897 1494.1272,-76.8456"/>
</g>
<!-- Lubricant&#45;&gt;Electric engine unit -->
<g id="edge67" class="edge">
<title>Lubricant&#45;&gt;Electric engine unit</title>
<path fill="none" stroke="#000000" d="M1415.6516,-638.0738C1407.101,-602.8247 1388.0435,-524.2609 1377.8092,-482.0705"/>
<polygon fill="#000000" stroke="#000000" points="1381.1679,-481.0694 1375.4091,-472.1764 1374.3652,-482.7196 1381.1679,-481.0694"/>
</g>
<!-- Electric engine unit&#45;&gt;Flying robot frame -->
<g id="edge71" class="edge">
<title>Electric engine unit&#45;&gt;Flying robot frame</title>
<path fill="none" stroke="#000000" d="M1380.5843,-436.0738C1399.5981,-400.511 1442.184,-320.8595 1464.5894,-278.9531"/>
<polygon fill="#000000" stroke="#000000" points="1467.8088,-280.3549 1469.4372,-269.886 1461.6357,-277.0544 1467.8088,-280.3549"/>
</g>
<!-- Flying robot frame&#45;&gt;Utility science pack -->
<g id="edge87" class="edge">
<title>Flying robot frame&#45;&gt;Utility science pack</title>
<path fill="none" stroke="#ffff00" d="M1483.1633,-233.7176C1491.237,-198.2636 1509.0666,-119.9683 1518.6354,-77.9488"/>
<polygon fill="#ffff00" stroke="#ffff00" points="1522.0714,-78.6231 1520.8792,-68.0956 1515.2461,-77.0688 1522.0714,-78.6231"/>
</g>
</g>
</svg>
