<?xml version="1.0" encoding="UTF-8" standalone="no"?>
<!DOCTYPE svg PUBLIC "-//W3C//DTD SVG 1.1//EN"
 "http://www.w3.org/Graphics/SVG/1.1/DTD/svg11.dtd">
<!-- Generated by graphviz version 2.38.0 (20140413.2041)
 -->
<!-- Title: science_packs Pages: 1 -->
<svg width="1188pt" height="953pt"
 viewBox="0.00 0.00 1188.39 952.79" xmlns="http://www.w3.org/2000/svg" xmlns:xlink="http://www.w3.org/1999/xlink">
<g id="graph0" class="graph" transform="scale(1 1) rotate(0) translate(4 948.795)">
<title>science_packs</title>
<polygon fill="white" stroke="none" points="-4,4 -4,-948.795 1184.39,-948.795 1184.39,4 -4,4"/>
<!-- Coal -->
<g id="node1" class="node"><title>Coal</title>
<ellipse fill="none" stroke="#a0522d" cx="85.5963" cy="-844" rx="27.8951" ry="27.8951"/>
<polyline fill="none" stroke="#a0522d" points="104.081,-864.961 67.1118,-864.961 "/>
<polyline fill="none" stroke="#a0522d" points="104.081,-823.039 67.1118,-823.039 "/>
<text text-anchor="middle" x="85.5963" y="-840.3" font-family="Times New Roman,serif" font-size="14.00">Coal</text>
</g>
<!-- Plastic bar -->
<g id="node20" class="node"><title>Plastic bar</title>
<ellipse fill="none" stroke="black" cx="909.596" cy="-656" rx="48.9926" ry="18"/>
<text text-anchor="middle" x="909.596" y="-652.3" font-family="Times New Roman,serif" font-size="14.00">Plastic bar</text>
</g>
<!-- Coal&#45;&gt;Plastic bar -->
<g id="edge20" class="edge"><title>Coal&#45;&gt;Plastic bar</title>
<path fill="none" stroke="#a0522d" d="M96.448,-817.972C103.26,-805.258 113.295,-790.741 126.596,-782.255 247.687,-705.007 691.603,-670.47 851.614,-660.34"/>
<polygon fill="#a0522d" stroke="#a0522d" points="851.974,-663.824 861.737,-659.708 851.538,-656.838 851.974,-663.824"/>
</g>
<!-- Grenade -->
<g id="node22" class="node"><title>Grenade</title>
<ellipse fill="none" stroke="black" cx="41.5963" cy="-422" rx="41.6928" ry="18"/>
<text text-anchor="middle" x="41.5963" y="-418.3" font-family="Times New Roman,serif" font-size="14.00">Grenade</text>
</g>
<!-- Coal&#45;&gt;Grenade -->
<g id="edge25" class="edge"><title>Coal&#45;&gt;Grenade</title>
<path fill="none" stroke="#a0522d" d="M82.777,-816.088C74.8587,-740.505 52.4751,-526.843 44.4796,-450.522"/>
<polygon fill="#a0522d" stroke="#a0522d" points="47.9307,-449.872 43.4077,-440.291 40.9688,-450.601 47.9307,-449.872"/>
</g>
<!-- Petroleum gas -->
<g id="node2" class="node"><title>Petroleum gas</title>
<ellipse fill="none" stroke="#a0522d" cx="909.596" cy="-844" rx="61.99" ry="61.99"/>
<polyline fill="none" stroke="#a0522d" points="950.434,-890.308 868.758,-890.308 "/>
<polyline fill="none" stroke="#a0522d" points="950.434,-797.692 868.758,-797.692 "/>
<text text-anchor="middle" x="909.596" y="-840.3" font-family="Times New Roman,serif" font-size="14.00">Petroleum gas</text>
</g>
<!-- Petroleum gas&#45;&gt;Plastic bar -->
<g id="edge21" class="edge"><title>Petroleum gas&#45;&gt;Plastic bar</title>
<path fill="none" stroke="#a0522d" d="M909.596,-782.097C909.596,-749.094 909.596,-709.944 909.596,-684.343"/>
<polygon fill="#a0522d" stroke="#a0522d" points="913.096,-684.259 909.596,-674.259 906.096,-684.259 913.096,-684.259"/>
</g>
<!-- Iron ore -->
<g id="node3" class="node"><title>Iron ore</title>
<ellipse fill="none" stroke="#a0522d" cx="612.596" cy="-844" rx="40.0939" ry="40.0939"/>
<polyline fill="none" stroke="#a0522d" points="639.248,-874.222 585.944,-874.222 "/>
<polyline fill="none" stroke="#a0522d" points="639.248,-813.778 585.944,-813.778 "/>
<text text-anchor="middle" x="612.596" y="-840.3" font-family="Times New Roman,serif" font-size="14.00">Iron ore</text>
</g>
<!-- Iron plate -->
<g id="node9" class="node"><title>Iron plate</title>
<ellipse fill="none" stroke="black" cx="612.596" cy="-539" rx="45.4919" ry="18"/>
<text text-anchor="middle" x="612.596" y="-535.3" font-family="Times New Roman,serif" font-size="14.00">Iron plate</text>
</g>
<!-- Iron ore&#45;&gt;Iron plate -->
<g id="edge1" class="edge"><title>Iron ore&#45;&gt;Iron plate</title>
<path fill="none" stroke="#a0522d" d="M612.596,-803.699C612.596,-741.38 612.596,-621.437 612.596,-567.481"/>
<polygon fill="#a0522d" stroke="#a0522d" points="616.096,-567.31 612.596,-557.31 609.096,-567.31 616.096,-567.31"/>
</g>
<!-- Copper ore -->
<g id="node4" class="node"><title>Copper ore</title>
<ellipse fill="none" stroke="#a0522d" cx="188.596" cy="-844" rx="52.7911" ry="52.7911"/>
<polyline fill="none" stroke="#a0522d" points="223.416,-883.484 153.777,-883.484 "/>
<polyline fill="none" stroke="#a0522d" points="223.416,-804.516 153.777,-804.516 "/>
<text text-anchor="middle" x="188.596" y="-840.3" font-family="Times New Roman,serif" font-size="14.00">Copper ore</text>
</g>
<!-- Copper plate -->
<g id="node13" class="node"><title>Copper plate</title>
<ellipse fill="none" stroke="black" cx="188.596" cy="-656" rx="57.6901" ry="18"/>
<text text-anchor="middle" x="188.596" y="-652.3" font-family="Times New Roman,serif" font-size="14.00">Copper plate</text>
</g>
<!-- Copper ore&#45;&gt;Copper plate -->
<g id="edge5" class="edge"><title>Copper ore&#45;&gt;Copper plate</title>
<path fill="none" stroke="#a0522d" d="M188.596,-791.189C188.596,-756.647 188.596,-712.605 188.596,-684.594"/>
<polygon fill="#a0522d" stroke="#a0522d" points="192.096,-684.347 188.596,-674.347 185.096,-684.347 192.096,-684.347"/>
</g>
<!-- Science pack 1 -->
<g id="node5" class="node"><title>Science pack 1</title>
<polygon fill="none" stroke="#ff0000" points="571.096,-159.5 470.096,-159.5 470.096,-58.5 571.096,-58.5 571.096,-159.5"/>
<polyline fill="none" stroke="#ff0000" points="482.096,-159.5 470.096,-147.5 "/>
<polyline fill="none" stroke="#ff0000" points="470.096,-70.5 482.096,-58.5 "/>
<polyline fill="none" stroke="#ff0000" points="559.096,-58.5 571.096,-70.5 "/>
<polyline fill="none" stroke="#ff0000" points="571.096,-147.5 559.096,-159.5 "/>
<text text-anchor="middle" x="520.596" y="-105.3" font-family="Times New Roman,serif" font-size="14.00">Science pack 1</text>
</g>
<!-- Science pack 2 -->
<g id="node6" class="node"><title>Science pack 2</title>
<polygon fill="none" stroke="#00ff00" points="790.096,-159.5 689.096,-159.5 689.096,-58.5 790.096,-58.5 790.096,-159.5"/>
<polyline fill="none" stroke="#00ff00" points="701.096,-159.5 689.096,-147.5 "/>
<polyline fill="none" stroke="#00ff00" points="689.096,-70.5 701.096,-58.5 "/>
<polyline fill="none" stroke="#00ff00" points="778.096,-58.5 790.096,-70.5 "/>
<polyline fill="none" stroke="#00ff00" points="790.096,-147.5 778.096,-159.5 "/>
<text text-anchor="middle" x="739.596" y="-105.3" font-family="Times New Roman,serif" font-size="14.00">Science pack 2</text>
</g>
<!-- Science pack 3 -->
<g id="node7" class="node"><title>Science pack 3</title>
<polygon fill="none" stroke="#0000ff" points="987.096,-159.5 886.096,-159.5 886.096,-58.5 987.096,-58.5 987.096,-159.5"/>
<polyline fill="none" stroke="#0000ff" points="898.096,-159.5 886.096,-147.5 "/>
<polyline fill="none" stroke="#0000ff" points="886.096,-70.5 898.096,-58.5 "/>
<polyline fill="none" stroke="#0000ff" points="975.096,-58.5 987.096,-70.5 "/>
<polyline fill="none" stroke="#0000ff" points="987.096,-147.5 975.096,-159.5 "/>
<text text-anchor="middle" x="936.596" y="-105.3" font-family="Times New Roman,serif" font-size="14.00">Science pack 3</text>
</g>
<!-- Military science pack -->
<g id="node8" class="node"><title>Military science pack</title>
<polygon fill="none" stroke="#9932cc" points="292.596,-176 158.596,-176 158.596,-42 292.596,-42 292.596,-176"/>
<polyline fill="none" stroke="#9932cc" points="170.596,-176 158.596,-164 "/>
<polyline fill="none" stroke="#9932cc" points="158.596,-54 170.596,-42 "/>
<polyline fill="none" stroke="#9932cc" points="280.596,-42 292.596,-54 "/>
<polyline fill="none" stroke="#9932cc" points="292.596,-164 280.596,-176 "/>
<text text-anchor="middle" x="225.596" y="-105.3" font-family="Times New Roman,serif" font-size="14.00">Military science pack</text>
</g>
<!-- Pipe -->
<g id="node10" class="node"><title>Pipe</title>
<ellipse fill="none" stroke="black" cx="568.596" cy="-422" rx="27" ry="18"/>
<text text-anchor="middle" x="568.596" y="-418.3" font-family="Times New Roman,serif" font-size="14.00">Pipe</text>
</g>
<!-- Iron plate&#45;&gt;Pipe -->
<g id="edge2" class="edge"><title>Iron plate&#45;&gt;Pipe</title>
<path fill="none" stroke="black" d="M606.104,-521.031C598.848,-502.068 587.014,-471.138 578.58,-449.093"/>
<polygon fill="black" stroke="black" points="581.815,-447.753 574.972,-439.664 575.277,-450.255 581.815,-447.753"/>
</g>
<!-- Iron gear -->
<g id="node11" class="node"><title>Iron gear</title>
<ellipse fill="none" stroke="black" cx="657.596" cy="-422" rx="43.5923" ry="18"/>
<text text-anchor="middle" x="657.596" y="-418.3" font-family="Times New Roman,serif" font-size="14.00">Iron gear</text>
</g>
<!-- Iron plate&#45;&gt;Iron gear -->
<g id="edge3" class="edge"><title>Iron plate&#45;&gt;Iron gear</title>
<path fill="none" stroke="black" d="M619.236,-521.031C626.614,-502.176 638.622,-471.491 647.238,-449.472"/>
<polygon fill="black" stroke="black" points="650.544,-450.626 650.929,-440.038 644.026,-448.075 650.544,-450.626"/>
</g>
<!-- Steel plate -->
<g id="node12" class="node"><title>Steel plate</title>
<ellipse fill="none" stroke="black" cx="475.596" cy="-422" rx="48.1917" ry="18"/>
<text text-anchor="middle" x="475.596" y="-418.3" font-family="Times New Roman,serif" font-size="14.00">Steel plate</text>
</g>
<!-- Iron plate&#45;&gt;Steel plate -->
<g id="edge4" class="edge"><title>Iron plate&#45;&gt;Steel plate</title>
<path fill="none" stroke="black" d="M594.12,-522.491C570.424,-502.6 529.167,-467.968 502.12,-445.265"/>
<polygon fill="black" stroke="black" points="504.127,-442.38 494.218,-438.631 499.627,-447.741 504.127,-442.38"/>
</g>
<!-- Transport belt -->
<g id="node15" class="node"><title>Transport belt</title>
<ellipse fill="none" stroke="black" cx="680.596" cy="-305" rx="62.2891" ry="18"/>
<text text-anchor="middle" x="680.596" y="-301.3" font-family="Times New Roman,serif" font-size="14.00">Transport belt</text>
</g>
<!-- Iron plate&#45;&gt;Transport belt -->
<g id="edge7" class="edge"><title>Iron plate&#45;&gt;Transport belt</title>
<path fill="none" stroke="black" d="M635.619,-523.252C659.523,-506.423 695.495,-476.457 710.596,-440 725.449,-404.142 709.277,-359.697 695.534,-332.09"/>
<polygon fill="black" stroke="black" points="698.557,-330.317 690.829,-323.069 692.35,-333.554 698.557,-330.317"/>
</g>
<!-- Electronic circuit -->
<g id="node16" class="node"><title>Electronic circuit</title>
<ellipse fill="none" stroke="black" cx="919.596" cy="-422" rx="72.2875" ry="18"/>
<text text-anchor="middle" x="919.596" y="-418.3" font-family="Times New Roman,serif" font-size="14.00">Electronic circuit</text>
</g>
<!-- Iron plate&#45;&gt;Electronic circuit -->
<g id="edge9" class="edge"><title>Iron plate&#45;&gt;Electronic circuit</title>
<path fill="none" stroke="black" d="M644.582,-526.018C698.63,-505.772 808.314,-464.685 871.613,-440.974"/>
<polygon fill="black" stroke="black" points="872.844,-444.251 880.981,-437.465 870.388,-437.696 872.844,-444.251"/>
</g>
<!-- Inserter -->
<g id="node17" class="node"><title>Inserter</title>
<ellipse fill="none" stroke="black" cx="799.596" cy="-305" rx="38.1938" ry="18"/>
<text text-anchor="middle" x="799.596" y="-301.3" font-family="Times New Roman,serif" font-size="14.00">Inserter</text>
</g>
<!-- Iron plate&#45;&gt;Inserter -->
<g id="edge11" class="edge"><title>Iron plate&#45;&gt;Inserter</title>
<path fill="none" stroke="black" d="M634.654,-523.062C659.528,-505.407 700.084,-474.089 727.596,-440 754.897,-406.174 776.855,-360.452 789.055,-332.114"/>
<polygon fill="black" stroke="black" points="792.295,-333.437 792.956,-322.863 785.846,-330.717 792.295,-333.437"/>
</g>
<!-- Electric mining drill -->
<g id="node19" class="node"><title>Electric mining drill</title>
<ellipse fill="none" stroke="black" cx="936.596" cy="-305" rx="80.6858" ry="18"/>
<text text-anchor="middle" x="936.596" y="-301.3" font-family="Times New Roman,serif" font-size="14.00">Electric mining drill</text>
</g>
<!-- Iron plate&#45;&gt;Electric mining drill -->
<g id="edge17" class="edge"><title>Iron plate&#45;&gt;Electric mining drill</title>
<path fill="none" stroke="black" d="M634.695,-522.89C662.555,-503.782 711.856,-469.781 753.596,-440 807.755,-401.359 870.137,-355.356 906.297,-328.539"/>
<polygon fill="black" stroke="black" points="908.526,-331.243 914.47,-322.473 904.354,-325.622 908.526,-331.243"/>
</g>
<!-- Iron plate&#45;&gt;Grenade -->
<g id="edge26" class="edge"><title>Iron plate&#45;&gt;Grenade</title>
<path fill="none" stroke="black" d="M572.898,-530.005C470.608,-509.403 198.384,-454.577 88.5347,-432.453"/>
<polygon fill="black" stroke="black" points="88.9164,-428.96 78.4222,-430.417 87.5343,-435.822 88.9164,-428.96"/>
</g>
<!-- Firearm magazine -->
<g id="node23" class="node"><title>Firearm magazine</title>
<ellipse fill="none" stroke="black" cx="297.596" cy="-422" rx="74.187" ry="18"/>
<text text-anchor="middle" x="297.596" y="-418.3" font-family="Times New Roman,serif" font-size="14.00">Firearm magazine</text>
</g>
<!-- Iron plate&#45;&gt;Firearm magazine -->
<g id="edge27" class="edge"><title>Iron plate&#45;&gt;Firearm magazine</title>
<path fill="none" stroke="black" d="M580.366,-526.233C525.033,-506.032 411.648,-464.638 346.519,-440.861"/>
<polygon fill="black" stroke="black" points="347.479,-437.485 336.885,-437.343 345.078,-444.061 347.479,-437.485"/>
</g>
<!-- Gun turret -->
<g id="node25" class="node"><title>Gun turret</title>
<ellipse fill="none" stroke="black" cx="394.596" cy="-305" rx="48.1917" ry="18"/>
<text text-anchor="middle" x="394.596" y="-301.3" font-family="Times New Roman,serif" font-size="14.00">Gun turret</text>
</g>
<!-- Iron plate&#45;&gt;Gun turret -->
<g id="edge31" class="edge"><title>Iron plate&#45;&gt;Gun turret</title>
<path fill="none" stroke="black" d="M573.805,-529.459C529.032,-517.472 456.686,-491.145 418.596,-440 395.439,-408.906 392.105,-362.639 392.698,-333.412"/>
<polygon fill="black" stroke="black" points="396.207,-333.237 393.084,-323.112 389.212,-332.974 396.207,-333.237"/>
</g>
<!-- Engine unit -->
<g id="node18" class="node"><title>Engine unit</title>
<ellipse fill="none" stroke="black" cx="511.596" cy="-305" rx="50.8918" ry="18"/>
<text text-anchor="middle" x="511.596" y="-301.3" font-family="Times New Roman,serif" font-size="14.00">Engine unit</text>
</g>
<!-- Pipe&#45;&gt;Engine unit -->
<g id="edge14" class="edge"><title>Pipe&#45;&gt;Engine unit</title>
<path fill="none" stroke="black" d="M560.43,-404.523C551.044,-385.588 535.521,-354.268 524.497,-332.028"/>
<polygon fill="black" stroke="black" points="527.51,-330.226 519.933,-322.82 521.238,-333.334 527.51,-330.226"/>
</g>
<!-- Iron gear&#45;&gt;Science pack 1 -->
<g id="edge34" class="edge"><title>Iron gear&#45;&gt;Science pack 1</title>
<path fill="none" stroke="#ff0000" d="M648.962,-404.15C639.106,-384.74 622.659,-351.816 609.596,-323 586.29,-271.588 561.688,-212.272 544.272,-169.312"/>
<polygon fill="#ff0000" stroke="#ff0000" points="547.441,-167.814 540.447,-159.856 540.952,-170.439 547.441,-167.814"/>
</g>
<!-- Iron gear&#45;&gt;Transport belt -->
<g id="edge8" class="edge"><title>Iron gear&#45;&gt;Transport belt</title>
<path fill="none" stroke="black" d="M660.99,-404.031C664.727,-385.346 670.788,-355.043 675.183,-333.069"/>
<polygon fill="black" stroke="black" points="678.659,-333.531 677.189,-323.038 671.795,-332.158 678.659,-333.531"/>
</g>
<!-- Iron gear&#45;&gt;Inserter -->
<g id="edge12" class="edge"><title>Iron gear&#45;&gt;Inserter</title>
<path fill="none" stroke="black" d="M676.453,-405.729C701.309,-385.598 745.169,-350.078 773.282,-327.311"/>
<polygon fill="black" stroke="black" points="775.545,-329.982 781.113,-320.969 771.139,-324.542 775.545,-329.982"/>
</g>
<!-- Iron gear&#45;&gt;Engine unit -->
<g id="edge15" class="edge"><title>Iron gear&#45;&gt;Engine unit</title>
<path fill="none" stroke="black" d="M638.209,-405.729C612.934,-385.821 568.551,-350.861 539.616,-328.07"/>
<polygon fill="black" stroke="black" points="541.554,-325.141 531.532,-321.703 537.222,-330.64 541.554,-325.141"/>
</g>
<!-- Iron gear&#45;&gt;Electric mining drill -->
<g id="edge18" class="edge"><title>Iron gear&#45;&gt;Electric mining drill</title>
<path fill="none" stroke="black" d="M687.454,-408.693C736.091,-388.646 832.763,-348.799 890.341,-325.066"/>
<polygon fill="black" stroke="black" points="892.013,-328.162 899.925,-321.116 889.346,-321.69 892.013,-328.162"/>
</g>
<!-- Iron gear&#45;&gt;Gun turret -->
<g id="edge32" class="edge"><title>Iron gear&#45;&gt;Gun turret</title>
<path fill="none" stroke="black" d="M628.698,-408.364C581.466,-387.711 487.65,-346.689 434.237,-323.333"/>
<polygon fill="black" stroke="black" points="435.318,-319.986 424.754,-319.187 432.514,-326.4 435.318,-319.986"/>
</g>
<!-- Steel plate&#45;&gt;Engine unit -->
<g id="edge16" class="edge"><title>Steel plate&#45;&gt;Engine unit</title>
<path fill="none" stroke="black" d="M480.908,-404.031C486.784,-385.261 496.33,-354.767 503.216,-332.77"/>
<polygon fill="black" stroke="black" points="506.615,-333.627 506.263,-323.038 499.935,-331.536 506.615,-333.627"/>
</g>
<!-- Piercing rounds magazine -->
<g id="node24" class="node"><title>Piercing rounds magazine</title>
<ellipse fill="none" stroke="black" cx="225.596" cy="-305" rx="103.182" ry="18"/>
<text text-anchor="middle" x="225.596" y="-301.3" font-family="Times New Roman,serif" font-size="14.00">Piercing rounds magazine</text>
</g>
<!-- Steel plate&#45;&gt;Piercing rounds magazine -->
<g id="edge28" class="edge"><title>Steel plate&#45;&gt;Piercing rounds magazine</title>
<path fill="none" stroke="black" d="M446.429,-407.583C402.898,-387.559 320.615,-349.709 269.707,-326.291"/>
<polygon fill="black" stroke="black" points="271.13,-323.093 260.583,-322.094 268.205,-329.453 271.13,-323.093"/>
</g>
<!-- Copper plate&#45;&gt;Science pack 1 -->
<g id="edge35" class="edge"><title>Copper plate&#45;&gt;Science pack 1</title>
<path fill="none" stroke="#ff0000" d="M181.896,-637.902C157.168,-573.572 74.4521,-346.709 113.596,-287 153.601,-225.979 357.171,-158.371 460.398,-127.32"/>
<polygon fill="#ff0000" stroke="#ff0000" points="461.486,-130.647 470.065,-124.43 459.482,-123.941 461.486,-130.647"/>
</g>
<!-- Copper cable -->
<g id="node14" class="node"><title>Copper cable</title>
<ellipse fill="none" stroke="black" cx="919.596" cy="-539" rx="59.5901" ry="18"/>
<text text-anchor="middle" x="919.596" y="-535.3" font-family="Times New Roman,serif" font-size="14.00">Copper cable</text>
</g>
<!-- Copper plate&#45;&gt;Copper cable -->
<g id="edge6" class="edge"><title>Copper plate&#45;&gt;Copper cable</title>
<path fill="none" stroke="black" d="M239.129,-647.05C369.184,-626.59 715.178,-572.159 857.311,-549.799"/>
<polygon fill="black" stroke="black" points="858.258,-553.193 867.592,-548.181 857.17,-546.278 858.258,-553.193"/>
</g>
<!-- Copper plate&#45;&gt;Piercing rounds magazine -->
<g id="edge29" class="edge"><title>Copper plate&#45;&gt;Piercing rounds magazine</title>
<path fill="none" stroke="black" d="M185.384,-638.005C178.249,-597.131 163.108,-490.319 181.596,-404 187.11,-378.259 199.92,-351.11 210.304,-331.932"/>
<polygon fill="black" stroke="black" points="213.505,-333.379 215.313,-322.939 207.389,-329.973 213.505,-333.379"/>
</g>
<!-- Copper plate&#45;&gt;Gun turret -->
<g id="edge33" class="edge"><title>Copper plate&#45;&gt;Gun turret</title>
<path fill="none" stroke="black" d="M188.345,-637.668C187.929,-587.347 189.03,-442.373 214.596,-404 231.485,-378.652 306.29,-343.377 353.992,-322.79"/>
<polygon fill="black" stroke="black" points="355.618,-325.901 363.438,-318.752 352.867,-319.465 355.618,-325.901"/>
</g>
<!-- Copper cable&#45;&gt;Electronic circuit -->
<g id="edge10" class="edge"><title>Copper cable&#45;&gt;Electronic circuit</title>
<path fill="none" stroke="black" d="M919.596,-520.534C919.596,-501.936 919.596,-472.244 919.596,-450.501"/>
<polygon fill="black" stroke="black" points="923.096,-450.254 919.596,-440.254 916.096,-450.254 923.096,-450.254"/>
</g>
<!-- Advanced circuit -->
<g id="node21" class="node"><title>Advanced circuit</title>
<ellipse fill="none" stroke="black" cx="1107.6" cy="-305" rx="72.5877" ry="18"/>
<text text-anchor="middle" x="1107.6" y="-301.3" font-family="Times New Roman,serif" font-size="14.00">Advanced circuit</text>
</g>
<!-- Copper cable&#45;&gt;Advanced circuit -->
<g id="edge22" class="edge"><title>Copper cable&#45;&gt;Advanced circuit</title>
<path fill="none" stroke="black" d="M933.441,-521.424C949.637,-501.993 977.213,-468.782 1000.6,-440 1031.26,-402.262 1066.35,-358.135 1087.73,-331.132"/>
<polygon fill="black" stroke="black" points="1090.71,-333.009 1094.17,-322.996 1085.22,-328.665 1090.71,-333.009"/>
</g>
<!-- Transport belt&#45;&gt;Science pack 2 -->
<g id="edge36" class="edge"><title>Transport belt&#45;&gt;Science pack 2</title>
<path fill="none" stroke="#00ff00" d="M685.832,-286.784C693.753,-260.74 709.16,-210.078 721.458,-169.64"/>
<polygon fill="#00ff00" stroke="#00ff00" points="724.87,-170.451 724.431,-159.865 718.173,-168.414 724.87,-170.451"/>
</g>
<!-- Electronic circuit&#45;&gt;Inserter -->
<g id="edge13" class="edge"><title>Electronic circuit&#45;&gt;Inserter</title>
<path fill="none" stroke="black" d="M902.147,-404.278C881.356,-384.353 846.522,-350.97 823.303,-328.719"/>
<polygon fill="black" stroke="black" points="825.552,-326.027 815.911,-321.635 820.709,-331.081 825.552,-326.027"/>
</g>
<!-- Electronic circuit&#45;&gt;Electric mining drill -->
<g id="edge19" class="edge"><title>Electronic circuit&#45;&gt;Electric mining drill</title>
<path fill="none" stroke="black" d="M922.178,-403.534C924.94,-384.851 929.357,-354.973 932.575,-333.204"/>
<polygon fill="black" stroke="black" points="936.046,-333.658 934.046,-323.254 929.121,-332.634 936.046,-333.658"/>
</g>
<!-- Electronic circuit&#45;&gt;Advanced circuit -->
<g id="edge23" class="edge"><title>Electronic circuit&#45;&gt;Advanced circuit</title>
<path fill="none" stroke="black" d="M945.737,-405.01C978.849,-384.755 1036.01,-349.786 1072.79,-327.289"/>
<polygon fill="black" stroke="black" points="1074.97,-330.058 1081.68,-321.854 1071.32,-324.087 1074.97,-330.058"/>
</g>
<!-- Inserter&#45;&gt;Science pack 2 -->
<g id="edge37" class="edge"><title>Inserter&#45;&gt;Science pack 2</title>
<path fill="none" stroke="#00ff00" d="M794.377,-287.123C786.326,-261.093 770.494,-209.903 757.912,-169.221"/>
<polygon fill="#00ff00" stroke="#00ff00" points="761.253,-168.177 754.954,-159.658 754.565,-170.245 761.253,-168.177"/>
</g>
<!-- Engine unit&#45;&gt;Science pack 3 -->
<g id="edge38" class="edge"><title>Engine unit&#45;&gt;Science pack 3</title>
<path fill="none" stroke="#0000ff" d="M542.299,-290.627C594.942,-267.625 705.734,-218.905 798.596,-176 824.356,-164.098 852.653,-150.634 876.882,-138.985"/>
<polygon fill="#0000ff" stroke="#0000ff" points="878.464,-142.108 885.955,-134.616 875.427,-135.801 878.464,-142.108"/>
</g>
<!-- Electric mining drill&#45;&gt;Science pack 3 -->
<g id="edge39" class="edge"><title>Electric mining drill&#45;&gt;Science pack 3</title>
<path fill="none" stroke="#0000ff" d="M936.596,-286.784C936.596,-260.795 936.596,-210.292 936.596,-169.896"/>
<polygon fill="#0000ff" stroke="#0000ff" points="940.096,-169.865 936.596,-159.865 933.096,-169.865 940.096,-169.865"/>
</g>
<!-- Plastic bar&#45;&gt;Advanced circuit -->
<g id="edge24" class="edge"><title>Plastic bar&#45;&gt;Advanced circuit</title>
<path fill="none" stroke="black" d="M924.871,-638.572C941.817,-619.809 969.308,-587.725 988.596,-557 1037.09,-479.754 1078.88,-379.653 1097.4,-332.624"/>
<polygon fill="black" stroke="black" points="1100.72,-333.747 1101.1,-323.159 1094.2,-331.201 1100.72,-333.747"/>
</g>
<!-- Advanced circuit&#45;&gt;Science pack 3 -->
<g id="edge40" class="edge"><title>Advanced circuit&#45;&gt;Science pack 3</title>
<path fill="none" stroke="#0000ff" d="M1092.72,-287.123C1069.39,-260.654 1023.13,-208.168 986.989,-167.17"/>
<polygon fill="#0000ff" stroke="#0000ff" points="989.605,-164.845 980.367,-159.658 984.354,-169.474 989.605,-164.845"/>
</g>
<!-- Grenade&#45;&gt;Military science pack -->
<g id="edge41" class="edge"><title>Grenade&#45;&gt;Military science pack</title>
<path fill="none" stroke="#9932cc" d="M44.3373,-403.663C49.004,-377.284 60.0464,-326.016 80.5963,-287 99.8839,-250.381 127.49,-214.25 153.448,-184.277"/>
<polygon fill="#9932cc" stroke="#9932cc" points="156.4,-186.219 160.36,-176.393 151.136,-181.604 156.4,-186.219"/>
</g>
<!-- Firearm magazine&#45;&gt;Piercing rounds magazine -->
<g id="edge30" class="edge"><title>Firearm magazine&#45;&gt;Piercing rounds magazine</title>
<path fill="none" stroke="black" d="M286.972,-404.031C275.008,-384.922 255.435,-353.66 241.614,-331.584"/>
<polygon fill="black" stroke="black" points="244.537,-329.657 236.264,-323.038 238.604,-333.371 244.537,-329.657"/>
</g>
<!-- Piercing rounds magazine&#45;&gt;Military science pack -->
<g id="edge42" class="edge"><title>Piercing rounds magazine&#45;&gt;Military science pack</title>
<path fill="none" stroke="#9932cc" d="M225.596,-286.784C225.596,-264.237 225.596,-223.237 225.596,-186.395"/>
<polygon fill="#9932cc" stroke="#9932cc" points="229.096,-186.132 225.596,-176.132 222.096,-186.132 229.096,-186.132"/>
</g>
<!-- Gun turret&#45;&gt;Military science pack -->
<g id="edge43" class="edge"><title>Gun turret&#45;&gt;Military science pack</title>
<path fill="none" stroke="#9932cc" d="M380.187,-287.46C360.29,-264.619 323.125,-221.956 290.222,-184.185"/>
<polygon fill="#9932cc" stroke="#9932cc" points="292.48,-181.45 283.273,-176.208 287.202,-186.048 292.48,-181.45"/>
</g>
</g>
</svg>
