<?xml version="1.0" encoding="UTF-8" standalone="no"?>
<!DOCTYPE svg PUBLIC "-//W3C//DTD SVG 1.1//EN"
 "http://www.w3.org/Graphics/SVG/1.1/DTD/svg11.dtd">
<!-- Generated by graphviz version 2.40.1 (20161225.0304)
 -->
<!-- Title: science_packs Pages: 1 -->
<svg width="1887pt" height="1522pt"
 viewBox="0.00 0.00 1887.24 1522.46" xmlns="http://www.w3.org/2000/svg" xmlns:xlink="http://www.w3.org/1999/xlink">
<g id="graph0" class="graph" transform="scale(1 1) rotate(0) translate(4 1518.4554)">
<title>science_packs</title>
<polygon fill="#ffffff" stroke="transparent" points="-4,4 -4,-1518.4554 1883.2357,-1518.4554 1883.2357,4 -4,4"/>
<text text-anchor="middle" x="939.6178" y="-7.8" font-family="Times,serif" font-size="14.00" fill="#000000">Science pack dependencies; factorio 0.17; Visualization by Jonathon Ball (jonathon.ball@gmail.com)</text>
<!-- Coal -->
<g id="node1" class="node">
<title>Coal</title>
<ellipse fill="#a0522d" stroke="#a0522d" cx="763" cy="-1374" rx="27.0966" ry="27.0966"/>
<polyline fill="none" stroke="#a0522d" points="781.0546,-1394.4732 744.9454,-1394.4732 "/>
<polyline fill="none" stroke="#a0522d" points="781.0546,-1353.5268 744.9454,-1353.5268 "/>
<text text-anchor="middle" x="763" y="-1370.3" font-family="Times,serif" font-size="14.00" fill="#ffffff">Coal</text>
</g>
<!-- Grenade -->
<g id="node21" class="node">
<title>Grenade</title>
<ellipse fill="none" stroke="#000000" cx="235" cy="-881" rx="40.0939" ry="18"/>
<text text-anchor="middle" x="235" y="-877.3" font-family="Times,serif" font-size="14.00" fill="#000000">Grenade</text>
</g>
<!-- Coal&#45;&gt;Grenade -->
<g id="edge15" class="edge">
<title>Coal&#45;&gt;Grenade</title>
<path fill="none" stroke="#a0522d" d="M742.9465,-1355.2758C660.8551,-1278.6261 350.5098,-988.8529 259.9499,-904.2961"/>
<polygon fill="#a0522d" stroke="#a0522d" points="262.3007,-901.7025 252.6028,-897.436 257.5234,-906.8189 262.3007,-901.7025"/>
</g>
<!-- Plastic bar -->
<g id="node22" class="node">
<title>Plastic bar</title>
<ellipse fill="none" stroke="#000000" cx="1607" cy="-881" rx="48.1917" ry="18"/>
<text text-anchor="middle" x="1607" y="-877.3" font-family="Times,serif" font-size="14.00" fill="#000000">Plastic bar</text>
</g>
<!-- Coal&#45;&gt;Plastic bar -->
<g id="edge17" class="edge">
<title>Coal&#45;&gt;Plastic bar</title>
<path fill="none" stroke="#a0522d" d="M782.8605,-1355.1278C793.7034,-1345.2804 807.6156,-1333.36 821,-1323.9544 1091.4559,-1133.8992 1450.1436,-956.1753 1567.8031,-899.6061"/>
<polygon fill="#a0522d" stroke="#a0522d" points="1569.3223,-902.7592 1576.8253,-895.2789 1566.2951,-896.4476 1569.3223,-902.7592"/>
</g>
<!-- Crude oil -->
<g id="node2" class="node">
<title>Crude oil</title>
<ellipse fill="#a0522d" stroke="#a0522d" cx="1615" cy="-1374" rx="44.393" ry="44.393"/>
<polyline fill="none" stroke="#a0522d" points="1644.2313,-1407.1471 1585.7687,-1407.1471 "/>
<polyline fill="none" stroke="#a0522d" points="1644.2313,-1340.8529 1585.7687,-1340.8529 "/>
<text text-anchor="middle" x="1615" y="-1370.3" font-family="Times,serif" font-size="14.00" fill="#ffffff">Crude oil</text>
</g>
<!-- Petroleum gas -->
<g id="node14" class="node">
<title>Petroleum gas</title>
<ellipse fill="none" stroke="#000000" cx="1736" cy="-1083" rx="61.99" ry="18"/>
<text text-anchor="middle" x="1736" y="-1079.3" font-family="Times,serif" font-size="14.00" fill="#000000">Petroleum gas</text>
</g>
<!-- Crude oil&#45;&gt;Petroleum gas -->
<g id="edge7" class="edge">
<title>Crude oil&#45;&gt;Petroleum gas</title>
<path fill="none" stroke="#a0522d" d="M1632.0797,-1332.924C1657.1194,-1272.7045 1703.1323,-1162.0455 1724.5155,-1110.6198"/>
<polygon fill="#a0522d" stroke="#a0522d" points="1727.8425,-1111.7343 1728.4502,-1101.1569 1721.379,-1109.0467 1727.8425,-1111.7343"/>
</g>
<!-- Heavy oil -->
<g id="node18" class="node">
<title>Heavy oil</title>
<ellipse fill="none" stroke="#000000" cx="1510" cy="-1083" rx="45.4919" ry="18"/>
<text text-anchor="middle" x="1510" y="-1079.3" font-family="Times,serif" font-size="14.00" fill="#000000">Heavy oil</text>
</g>
<!-- Crude oil&#45;&gt;Heavy oil -->
<g id="edge8" class="edge">
<title>Crude oil&#45;&gt;Heavy oil</title>
<path fill="none" stroke="#a0522d" d="M1599.9561,-1332.3068C1578.1597,-1271.8998 1538.3907,-1161.6827 1519.9187,-1110.4889"/>
<polygon fill="#a0522d" stroke="#a0522d" points="1523.2063,-1109.2879 1516.5199,-1101.0694 1516.6218,-1111.6637 1523.2063,-1109.2879"/>
</g>
<!-- Light oil -->
<g id="node19" class="node">
<title>Light oil</title>
<ellipse fill="none" stroke="#000000" cx="1615" cy="-1083" rx="41.6928" ry="18"/>
<text text-anchor="middle" x="1615" y="-1079.3" font-family="Times,serif" font-size="14.00" fill="#000000">Light oil</text>
</g>
<!-- Crude oil&#45;&gt;Light oil -->
<g id="edge9" class="edge">
<title>Crude oil&#45;&gt;Light oil</title>
<path fill="none" stroke="#a0522d" d="M1615,-1329.8034C1615,-1269.2191 1615,-1162.1153 1615,-1111.2891"/>
<polygon fill="#a0522d" stroke="#a0522d" points="1618.5001,-1111.0505 1615,-1101.0505 1611.5001,-1111.0506 1618.5001,-1111.0505"/>
</g>
<!-- Iron ore -->
<g id="node3" class="node">
<title>Iron ore</title>
<ellipse fill="#a0522d" stroke="#a0522d" cx="635" cy="-1374" rx="38.9931" ry="38.9931"/>
<polyline fill="none" stroke="#a0522d" points="660.7923,-1403.2474 609.2077,-1403.2474 "/>
<polyline fill="none" stroke="#a0522d" points="660.7923,-1344.7526 609.2077,-1344.7526 "/>
<text text-anchor="middle" x="635" y="-1370.3" font-family="Times,serif" font-size="14.00" fill="#ffffff">Iron ore</text>
</g>
<!-- Iron plate -->
<g id="node15" class="node">
<title>Iron plate</title>
<ellipse fill="none" stroke="#000000" cx="635" cy="-1083" rx="44.6926" ry="18"/>
<text text-anchor="middle" x="635" y="-1079.3" font-family="Times,serif" font-size="14.00" fill="#000000">Iron plate</text>
</g>
<!-- Iron ore&#45;&gt;Iron plate -->
<g id="edge13" class="edge">
<title>Iron ore&#45;&gt;Iron plate</title>
<path fill="none" stroke="#a0522d" d="M635,-1334.7544C635,-1275.227 635,-1163.5267 635,-1111.2863"/>
<polygon fill="#a0522d" stroke="#a0522d" points="638.5001,-1111.0814 635,-1101.0814 631.5001,-1111.0814 638.5001,-1111.0814"/>
</g>
<!-- Copper ore -->
<g id="node4" class="node">
<title>Copper ore</title>
<ellipse fill="#a0522d" stroke="#a0522d" cx="1060" cy="-1374" rx="50.0912" ry="50.0912"/>
<polyline fill="none" stroke="#a0522d" points="1093.1001,-1411.5342 1026.8999,-1411.5342 "/>
<polyline fill="none" stroke="#a0522d" points="1093.1001,-1336.4658 1026.8999,-1336.4658 "/>
<text text-anchor="middle" x="1060" y="-1370.3" font-family="Times,serif" font-size="14.00" fill="#ffffff">Copper ore</text>
</g>
<!-- Copper plate -->
<g id="node20" class="node">
<title>Copper plate</title>
<ellipse fill="none" stroke="#000000" cx="1060" cy="-1083" rx="55.7903" ry="18"/>
<text text-anchor="middle" x="1060" y="-1079.3" font-family="Times,serif" font-size="14.00" fill="#000000">Copper plate</text>
</g>
<!-- Copper ore&#45;&gt;Copper plate -->
<g id="edge14" class="edge">
<title>Copper ore&#45;&gt;Copper plate</title>
<path fill="none" stroke="#a0522d" d="M1060,-1323.6439C1060,-1262.2429 1060,-1160.5872 1060,-1111.3998"/>
<polygon fill="#a0522d" stroke="#a0522d" points="1063.5001,-1111.1801 1060,-1101.1801 1056.5001,-1111.1802 1063.5001,-1111.1801"/>
</g>
<!-- Water -->
<g id="node5" class="node">
<title>Water</title>
<ellipse fill="#a0522d" stroke="#a0522d" cx="1736" cy="-1374" rx="32.4942" ry="32.4942"/>
<polyline fill="none" stroke="#a0522d" points="1757.4936,-1398.3728 1714.5064,-1398.3728 "/>
<polyline fill="none" stroke="#a0522d" points="1757.4936,-1349.6272 1714.5064,-1349.6272 "/>
<text text-anchor="middle" x="1736" y="-1370.3" font-family="Times,serif" font-size="14.00" fill="#ffffff">Water</text>
</g>
<!-- Sulfur -->
<g id="node13" class="node">
<title>Sulfur</title>
<ellipse fill="none" stroke="#000000" cx="1815" cy="-881" rx="32.4942" ry="18"/>
<text text-anchor="middle" x="1815" y="-877.3" font-family="Times,serif" font-size="14.00" fill="#000000">Sulfur</text>
</g>
<!-- Water&#45;&gt;Sulfur -->
<g id="edge1" class="edge">
<title>Water&#45;&gt;Sulfur</title>
<path fill="none" stroke="#a0522d" d="M1746.4582,-1342.9298C1762.8094,-1292.7386 1793.9094,-1190.4009 1807,-1101 1817.0095,-1032.6412 1816.8721,-951.1297 1815.9268,-909.1233"/>
<polygon fill="#a0522d" stroke="#a0522d" points="1819.4247,-908.9926 1815.6677,-899.0862 1812.427,-909.1732 1819.4247,-908.9926"/>
</g>
<!-- Water&#45;&gt;Petroleum gas -->
<g id="edge10" class="edge">
<title>Water&#45;&gt;Petroleum gas</title>
<path fill="none" stroke="#a0522d" d="M1736,-1341.4656C1736,-1284.0222 1736,-1165.5791 1736,-1111.2985"/>
<polygon fill="#a0522d" stroke="#a0522d" points="1739.5001,-1111.0342 1736,-1101.0343 1732.5001,-1111.0343 1739.5001,-1111.0342"/>
</g>
<!-- Sulfuric acid -->
<g id="node16" class="node">
<title>Sulfuric acid</title>
<ellipse fill="none" stroke="#000000" cx="1809" cy="-679" rx="55.7903" ry="18"/>
<text text-anchor="middle" x="1809" y="-675.3" font-family="Times,serif" font-size="14.00" fill="#000000">Sulfuric acid</text>
</g>
<!-- Water&#45;&gt;Sulfuric acid -->
<g id="edge5" class="edge">
<title>Water&#45;&gt;Sulfuric acid</title>
<path fill="none" stroke="#a0522d" d="M1750.4903,-1344.7335C1787.2195,-1267.1689 1879.4411,-1049.4853 1856,-863 1848.8892,-806.43 1829.9386,-742.326 1818.3887,-706.6798"/>
<polygon fill="#a0522d" stroke="#a0522d" points="1821.6513,-705.3969 1815.2032,-696.9902 1815.0015,-707.5831 1821.6513,-705.3969"/>
</g>
<!-- Water&#45;&gt;Heavy oil -->
<g id="edge11" class="edge">
<title>Water&#45;&gt;Heavy oil</title>
<path fill="none" stroke="#a0522d" d="M1715.944,-1348.1757C1672.9786,-1292.8529 1572.4934,-1163.4671 1529.7776,-1108.4659"/>
<polygon fill="#a0522d" stroke="#a0522d" points="1532.3338,-1106.051 1523.4357,-1100.2999 1526.8052,-1110.3447 1532.3338,-1106.051"/>
</g>
<!-- Water&#45;&gt;Light oil -->
<g id="edge12" class="edge">
<title>Water&#45;&gt;Light oil</title>
<path fill="none" stroke="#a0522d" d="M1723.5066,-1343.9539C1699.9166,-1287.2209 1649.1494,-1165.1278 1626.4156,-1110.4541"/>
<polygon fill="#a0522d" stroke="#a0522d" points="1629.581,-1108.9506 1622.5098,-1101.0608 1623.1175,-1111.6382 1629.581,-1108.9506"/>
</g>
<!-- Stone -->
<g id="node6" class="node">
<title>Stone</title>
<ellipse fill="#a0522d" stroke="#a0522d" cx="861" cy="-1374" rx="30.5947" ry="30.5947"/>
<polyline fill="none" stroke="#a0522d" points="881.204,-1396.9105 840.796,-1396.9105 "/>
<polyline fill="none" stroke="#a0522d" points="881.204,-1351.0895 840.796,-1351.0895 "/>
<text text-anchor="middle" x="861" y="-1370.3" font-family="Times,serif" font-size="14.00" fill="#ffffff">Stone</text>
</g>
<!-- Stone brick -->
<g id="node17" class="node">
<title>Stone brick</title>
<ellipse fill="none" stroke="#000000" cx="872" cy="-477" rx="51.1914" ry="18"/>
<text text-anchor="middle" x="872" y="-473.3" font-family="Times,serif" font-size="14.00" fill="#000000">Stone brick</text>
</g>
<!-- Stone&#45;&gt;Stone brick -->
<g id="edge6" class="edge">
<title>Stone&#45;&gt;Stone brick</title>
<path fill="none" stroke="#a0522d" d="M861.3755,-1343.3827C863.073,-1204.9568 870.0185,-638.5847 871.6539,-505.2204"/>
<polygon fill="#a0522d" stroke="#a0522d" points="875.1561,-505.0607 871.779,-495.0185 868.1566,-504.9748 875.1561,-505.0607"/>
</g>
<!-- Rail -->
<g id="node24" class="node">
<title>Rail</title>
<ellipse fill="none" stroke="#000000" cx="808" cy="-679" rx="27" ry="18"/>
<text text-anchor="middle" x="808" y="-675.3" font-family="Times,serif" font-size="14.00" fill="#000000">Rail</text>
</g>
<!-- Stone&#45;&gt;Rail -->
<g id="edge22" class="edge">
<title>Stone&#45;&gt;Rail</title>
<path fill="none" stroke="#a0522d" d="M858.6543,-1343.24C849.8231,-1227.4355 818.6497,-818.6512 810.1528,-707.2295"/>
<polygon fill="#a0522d" stroke="#a0522d" points="813.6314,-706.8145 809.381,-697.1096 806.6516,-707.3468 813.6314,-706.8145"/>
</g>
<!-- Automation science pack -->
<g id="node7" class="node">
<title>Automation science pack</title>
<polygon fill="#ff0000" stroke="#ff0000" points="748,-91 532,-91 532,-55 748,-55 748,-91"/>
<text text-anchor="middle" x="640" y="-69.3" font-family="Times,serif" font-size="14.00" fill="#000000">Automation science pack</text>
</g>
<!-- Logistics science pack -->
<g id="node8" class="node">
<title>Logistics science pack</title>
<polygon fill="#00ff00" stroke="#00ff00" points="216,-91 0,-91 0,-55 216,-55 216,-91"/>
<text text-anchor="middle" x="108" y="-69.3" font-family="Times,serif" font-size="14.00" fill="#000000">Logistics science pack</text>
</g>
<!-- Chemical science pack -->
<g id="node9" class="node">
<title>Chemical science pack</title>
<polygon fill="#0000ff" stroke="#0000ff" points="1399,-91 1183,-91 1183,-55 1399,-55 1399,-91"/>
<text text-anchor="middle" x="1291" y="-69.3" font-family="Times,serif" font-size="14.00" fill="#000000">Chemical science pack</text>
</g>
<!-- Military science pack -->
<g id="node10" class="node">
<title>Military science pack</title>
<polygon fill="#d3d3d3" stroke="#d3d3d3" points="511,-91 295,-91 295,-55 511,-55 511,-91"/>
<text text-anchor="middle" x="403" y="-69.3" font-family="Times,serif" font-size="14.00" fill="#000000">Military science pack</text>
</g>
<!-- Production science pack -->
<g id="node11" class="node">
<title>Production science pack</title>
<polygon fill="#9932cc" stroke="#9932cc" points="984,-91 768,-91 768,-55 984,-55 984,-91"/>
<text text-anchor="middle" x="876" y="-69.3" font-family="Times,serif" font-size="14.00" fill="#000000">Production science pack</text>
</g>
<!-- Utility science pack -->
<g id="node12" class="node">
<title>Utility science pack</title>
<polygon fill="#ffff00" stroke="#ffff00" points="1633,-91 1417,-91 1417,-55 1633,-55 1633,-91"/>
<text text-anchor="middle" x="1525" y="-69.3" font-family="Times,serif" font-size="14.00" fill="#000000">Utility science pack</text>
</g>
<!-- Sulfur&#45;&gt;Sulfuric acid -->
<g id="edge3" class="edge">
<title>Sulfur&#45;&gt;Sulfuric acid</title>
<path fill="none" stroke="#000000" d="M1814.457,-862.7176C1813.4061,-827.3388 1811.0881,-749.2998 1809.8381,-707.2163"/>
<polygon fill="#000000" stroke="#000000" points="1813.3329,-706.9872 1809.5375,-697.0956 1806.336,-707.1951 1813.3329,-706.9872"/>
</g>
<!-- Petroleum gas&#45;&gt;Sulfur -->
<g id="edge2" class="edge">
<title>Petroleum gas&#45;&gt;Sulfur</title>
<path fill="none" stroke="#000000" d="M1743.0107,-1065.0738C1756.8953,-1029.5716 1787.9638,-950.1306 1804.3751,-908.1674"/>
<polygon fill="#000000" stroke="#000000" points="1807.7351,-909.1855 1808.1178,-898.5976 1801.2159,-906.6359 1807.7351,-909.1855"/>
</g>
<!-- Petroleum gas&#45;&gt;Plastic bar -->
<g id="edge18" class="edge">
<title>Petroleum gas&#45;&gt;Plastic bar</title>
<path fill="none" stroke="#a0522d" d="M1724.5521,-1065.0738C1701.6881,-1029.2713 1650.2877,-948.7838 1623.6748,-907.1109"/>
<polygon fill="#a0522d" stroke="#a0522d" points="1626.5701,-905.1418 1618.238,-898.5976 1620.6705,-908.9094 1626.5701,-905.1418"/>
</g>
<!-- Solid fuel -->
<g id="node23" class="node">
<title>Solid fuel</title>
<ellipse fill="none" stroke="#000000" cx="1719" cy="-881" rx="45.4919" ry="18"/>
<text text-anchor="middle" x="1719" y="-877.3" font-family="Times,serif" font-size="14.00" fill="#000000">Solid fuel</text>
</g>
<!-- Petroleum gas&#45;&gt;Solid fuel -->
<g id="edge19" class="edge">
<title>Petroleum gas&#45;&gt;Solid fuel</title>
<path fill="none" stroke="#a0522d" d="M1734.4614,-1064.7176C1731.484,-1029.3388 1724.9163,-951.2998 1721.3746,-909.2163"/>
<polygon fill="#a0522d" stroke="#a0522d" points="1724.8493,-908.7668 1720.5229,-899.0956 1717.8739,-909.3539 1724.8493,-908.7668"/>
</g>
<!-- Iron plate&#45;&gt;Sulfuric acid -->
<g id="edge4" class="edge">
<title>Iron plate&#45;&gt;Sulfuric acid</title>
<path fill="none" stroke="#000000" d="M676.0332,-1075.7156C788.0776,-1055.1656 1107.7701,-992.1106 1361,-899 1520.1014,-840.4997 1697.6615,-742.933 1772.5552,-700.1716"/>
<polygon fill="#000000" stroke="#000000" points="1774.6558,-703.0019 1781.5919,-694.993 1771.1753,-696.9284 1774.6558,-703.0019"/>
</g>
<!-- Iron plate&#45;&gt;Grenade -->
<g id="edge16" class="edge">
<title>Iron plate&#45;&gt;Grenade</title>
<path fill="none" stroke="#000000" d="M606.8728,-1068.7958C535.871,-1032.9399 349.462,-938.8033 270.8182,-899.0882"/>
<polygon fill="#000000" stroke="#000000" points="272.2808,-895.9059 261.7767,-894.5222 269.1253,-902.1543 272.2808,-895.9059"/>
</g>
<!-- Iron stick -->
<g id="node25" class="node">
<title>Iron stick</title>
<ellipse fill="none" stroke="#000000" cx="762" cy="-881" rx="44.393" ry="18"/>
<text text-anchor="middle" x="762" y="-877.3" font-family="Times,serif" font-size="14.00" fill="#000000">Iron stick</text>
</g>
<!-- Iron plate&#45;&gt;Iron stick -->
<g id="edge26" class="edge">
<title>Iron plate&#45;&gt;Iron stick</title>
<path fill="none" stroke="#000000" d="M646.0483,-1065.4272C668.425,-1029.8359 719.2046,-949.0683 745.5121,-907.2249"/>
<polygon fill="#000000" stroke="#000000" points="748.5273,-909.0048 750.8869,-898.676 742.6012,-905.2789 748.5273,-909.0048"/>
</g>
<!-- Steel plate -->
<g id="node26" class="node">
<title>Steel plate</title>
<ellipse fill="none" stroke="#000000" cx="1024" cy="-881" rx="48.1917" ry="18"/>
<text text-anchor="middle" x="1024" y="-877.3" font-family="Times,serif" font-size="14.00" fill="#000000">Steel plate</text>
</g>
<!-- Iron plate&#45;&gt;Steel plate -->
<g id="edge29" class="edge">
<title>Iron plate&#45;&gt;Steel plate</title>
<path fill="none" stroke="#000000" d="M662.6641,-1068.6346C731.2168,-1033.0365 909.0128,-940.7106 986.7259,-900.3557"/>
<polygon fill="#000000" stroke="#000000" points="988.4311,-903.414 995.6929,-895.6993 985.2052,-897.2017 988.4311,-903.414"/>
</g>
<!-- Firearm magazine -->
<g id="node27" class="node">
<title>Firearm magazine</title>
<ellipse fill="none" stroke="#000000" cx="624" cy="-881" rx="75.2868" ry="18"/>
<text text-anchor="middle" x="624" y="-877.3" font-family="Times,serif" font-size="14.00" fill="#000000">Firearm magazine</text>
</g>
<!-- Iron plate&#45;&gt;Firearm magazine -->
<g id="edge25" class="edge">
<title>Iron plate&#45;&gt;Firearm magazine</title>
<path fill="none" stroke="#000000" d="M634.0044,-1064.7176C632.0779,-1029.3388 627.8282,-951.2998 625.5365,-909.2163"/>
<polygon fill="#000000" stroke="#000000" points="629.0241,-908.8904 624.9854,-899.0956 622.0344,-909.2711 629.0241,-908.8904"/>
</g>
<!-- Pipe -->
<g id="node28" class="node">
<title>Pipe</title>
<ellipse fill="none" stroke="#000000" cx="1289" cy="-881" rx="27" ry="18"/>
<text text-anchor="middle" x="1289" y="-877.3" font-family="Times,serif" font-size="14.00" fill="#000000">Pipe</text>
</g>
<!-- Iron plate&#45;&gt;Pipe -->
<g id="edge27" class="edge">
<title>Iron plate&#45;&gt;Pipe</title>
<path fill="none" stroke="#000000" d="M673.1961,-1073.2772C770.3855,-1048.1641 1034.4935,-977.5772 1248,-899 1251.0641,-897.8723 1254.2263,-896.6302 1257.3721,-895.3414"/>
<polygon fill="#000000" stroke="#000000" points="1258.8088,-898.5339 1266.6451,-891.4035 1256.0726,-892.0908 1258.8088,-898.5339"/>
</g>
<!-- Iron gear -->
<g id="node29" class="node">
<title>Iron gear</title>
<ellipse fill="none" stroke="#000000" cx="412" cy="-881" rx="42.7926" ry="18"/>
<text text-anchor="middle" x="412" y="-877.3" font-family="Times,serif" font-size="14.00" fill="#000000">Iron gear</text>
</g>
<!-- Iron plate&#45;&gt;Iron gear -->
<g id="edge28" class="edge">
<title>Iron plate&#45;&gt;Iron gear</title>
<path fill="none" stroke="#000000" d="M616.751,-1066.4695C577.2048,-1030.6474 483.4981,-945.7651 437.8659,-904.4301"/>
<polygon fill="#000000" stroke="#000000" points="439.9496,-901.5951 430.1884,-897.4756 435.2501,-906.7831 439.9496,-901.5951"/>
</g>
<!-- Transport belt -->
<g id="node31" class="node">
<title>Transport belt</title>
<ellipse fill="none" stroke="#000000" cx="253" cy="-679" rx="60.3893" ry="18"/>
<text text-anchor="middle" x="253" y="-675.3" font-family="Times,serif" font-size="14.00" fill="#000000">Transport belt</text>
</g>
<!-- Iron plate&#45;&gt;Transport belt -->
<g id="edge31" class="edge">
<title>Iron plate&#45;&gt;Transport belt</title>
<path fill="none" stroke="#000000" d="M599.9535,-1071.3519C536.3618,-1048.4623 401.6571,-991.628 327,-899 280.2949,-841.0525 262.4642,-752.2079 256.1547,-707.21"/>
<polygon fill="#000000" stroke="#000000" points="259.6219,-706.7311 254.8504,-697.2716 252.6815,-707.6421 259.6219,-706.7311"/>
</g>
<!-- Electronic circuit -->
<g id="node32" class="node">
<title>Electronic circuit</title>
<ellipse fill="none" stroke="#000000" cx="1088" cy="-679" rx="71.4873" ry="18"/>
<text text-anchor="middle" x="1088" y="-675.3" font-family="Times,serif" font-size="14.00" fill="#000000">Electronic circuit</text>
</g>
<!-- Iron plate&#45;&gt;Electronic circuit -->
<g id="edge33" class="edge">
<title>Iron plate&#45;&gt;Electronic circuit</title>
<path fill="none" stroke="#000000" d="M676.7951,-1076.2057C798.6763,-1055.4582 1149.2558,-988.83 1215,-899 1264.3237,-831.6062 1171.1824,-743.536 1119.356,-702.2563"/>
<polygon fill="#000000" stroke="#000000" points="1121.4524,-699.4525 1111.4211,-696.0432 1117.1369,-704.964 1121.4524,-699.4525"/>
</g>
<!-- Inserter -->
<g id="node33" class="node">
<title>Inserter</title>
<ellipse fill="none" stroke="#000000" cx="337" cy="-477" rx="37.8943" ry="18"/>
<text text-anchor="middle" x="337" y="-473.3" font-family="Times,serif" font-size="14.00" fill="#000000">Inserter</text>
</g>
<!-- Iron plate&#45;&gt;Inserter -->
<g id="edge35" class="edge">
<title>Iron plate&#45;&gt;Inserter</title>
<path fill="none" stroke="#000000" d="M600.3613,-1071.5269C539.3364,-1049.2555 414.0214,-993.8374 360,-899 321.6819,-831.7305 330.9079,-588.6149 335.3322,-505.269"/>
<polygon fill="#000000" stroke="#000000" points="338.8403,-505.2164 335.8944,-495.0394 331.8509,-504.8323 338.8403,-505.2164"/>
</g>
<!-- Gun turret -->
<g id="node37" class="node">
<title>Gun turret</title>
<ellipse fill="none" stroke="#000000" cx="492" cy="-679" rx="47.3916" ry="18"/>
<text text-anchor="middle" x="492" y="-675.3" font-family="Times,serif" font-size="14.00" fill="#000000">Gun turret</text>
</g>
<!-- Iron plate&#45;&gt;Gun turret -->
<g id="edge47" class="edge">
<title>Iron plate&#45;&gt;Gun turret</title>
<path fill="none" stroke="#000000" d="M618.2972,-1066.0453C589.5311,-1035.6107 531.384,-968.387 507,-899 483.9396,-833.3795 486.0562,-750.0915 489.2283,-707.2652"/>
<polygon fill="#000000" stroke="#000000" points="492.7378,-707.2915 490.0648,-697.0395 485.7611,-706.7208 492.7378,-707.2915"/>
</g>
<!-- Battery -->
<g id="node40" class="node">
<title>Battery</title>
<ellipse fill="none" stroke="#000000" cx="1543" cy="-477" rx="36.2938" ry="18"/>
<text text-anchor="middle" x="1543" y="-473.3" font-family="Times,serif" font-size="14.00" fill="#000000">Battery</text>
</g>
<!-- Iron plate&#45;&gt;Battery -->
<g id="edge55" class="edge">
<title>Iron plate&#45;&gt;Battery</title>
<path fill="none" stroke="#000000" d="M677.8751,-1077.6116C814.4565,-1059.5633 1235.6174,-996.8128 1325,-899 1397.4065,-819.7644 1317.5516,-756.7796 1366,-661 1401.6761,-590.4705 1473.5287,-528.9223 1513.8512,-498.0631"/>
<polygon fill="#000000" stroke="#000000" points="1516.0771,-500.7682 1521.9526,-491.9517 1511.8615,-495.1799 1516.0771,-500.7682"/>
</g>
<!-- Sulfuric acid&#45;&gt;Battery -->
<g id="edge56" class="edge">
<title>Sulfuric acid&#45;&gt;Battery</title>
<path fill="none" stroke="#000000" d="M1786.7785,-662.125C1738.5395,-625.4924 1624.3025,-538.741 1571.1306,-498.3624"/>
<polygon fill="#000000" stroke="#000000" points="1573.2214,-495.5552 1563.1407,-492.2948 1568.9879,-501.13 1573.2214,-495.5552"/>
</g>
<!-- Processing unit -->
<g id="node42" class="node">
<title>Processing unit</title>
<ellipse fill="none" stroke="#000000" cx="1248" cy="-275" rx="64.9885" ry="18"/>
<text text-anchor="middle" x="1248" y="-271.3" font-family="Times,serif" font-size="14.00" fill="#000000">Processing unit</text>
</g>
<!-- Sulfuric acid&#45;&gt;Processing unit -->
<g id="edge61" class="edge">
<title>Sulfuric acid&#45;&gt;Processing unit</title>
<path fill="none" stroke="#000000" d="M1794.6224,-661.5981C1761.3253,-622.0411 1675.0916,-523.7876 1588,-459 1490.3509,-386.3586 1360.4492,-324.307 1292.9791,-294.2894"/>
<polygon fill="#000000" stroke="#000000" points="1294.0502,-290.9362 1283.4888,-290.0955 1291.2208,-297.3389 1294.0502,-290.9362"/>
</g>
<!-- Electric furnace -->
<g id="node38" class="node">
<title>Electric furnace</title>
<ellipse fill="none" stroke="#000000" cx="876" cy="-275" rx="66.8882" ry="18"/>
<text text-anchor="middle" x="876" y="-271.3" font-family="Times,serif" font-size="14.00" fill="#000000">Electric furnace</text>
</g>
<!-- Stone brick&#45;&gt;Electric furnace -->
<g id="edge50" class="edge">
<title>Stone brick&#45;&gt;Electric furnace</title>
<path fill="none" stroke="#000000" d="M872.362,-458.7176C873.0626,-423.3388 874.6079,-345.2998 875.4413,-303.2163"/>
<polygon fill="#000000" stroke="#000000" points="878.9429,-303.1629 875.6417,-293.0956 871.9443,-303.0243 878.9429,-303.1629"/>
</g>
<!-- Heavy oil&#45;&gt;Solid fuel -->
<g id="edge20" class="edge">
<title>Heavy oil&#45;&gt;Solid fuel</title>
<path fill="none" stroke="#a0522d" d="M1527.4597,-1066.125C1564.6651,-1030.1658 1651.8372,-945.9134 1694.5454,-904.6355"/>
<polygon fill="#a0522d" stroke="#a0522d" points="1696.9788,-907.1512 1701.7369,-897.6849 1692.1141,-902.1179 1696.9788,-907.1512"/>
</g>
<!-- Lubricant -->
<g id="node43" class="node">
<title>Lubricant</title>
<ellipse fill="none" stroke="#000000" cx="1420" cy="-679" rx="44.6926" ry="18"/>
<text text-anchor="middle" x="1420" y="-675.3" font-family="Times,serif" font-size="14.00" fill="#000000">Lubricant</text>
</g>
<!-- Heavy oil&#45;&gt;Lubricant -->
<g id="edge64" class="edge">
<title>Heavy oil&#45;&gt;Lubricant</title>
<path fill="none" stroke="#000000" d="M1505.958,-1064.8561C1491.6824,-1000.7741 1443.5611,-784.7633 1426.2607,-707.1036"/>
<polygon fill="#000000" stroke="#000000" points="1429.6216,-706.0935 1424.0308,-697.0939 1422.7891,-707.6157 1429.6216,-706.0935"/>
</g>
<!-- Light oil&#45;&gt;Solid fuel -->
<g id="edge21" class="edge">
<title>Light oil&#45;&gt;Solid fuel</title>
<path fill="none" stroke="#a0522d" d="M1624.0474,-1065.4272C1642.2948,-1029.9851 1683.6066,-949.7448 1705.226,-907.7533"/>
<polygon fill="#a0522d" stroke="#a0522d" points="1708.4338,-909.169 1709.8995,-898.676 1702.2102,-905.9647 1708.4338,-909.169"/>
</g>
<!-- Copper plate&#45;&gt;Automation science pack -->
<g id="edge72" class="edge">
<title>Copper plate&#45;&gt;Automation science pack</title>
<path fill="none" stroke="#ff0000" d="M1050.3415,-1065.2415C1032.8045,-1032.7132 994.957,-961.1906 967,-899 828.6901,-591.3286 688.025,-206.4565 649.9863,-100.8786"/>
<polygon fill="#ff0000" stroke="#ff0000" points="653.2096,-99.499 646.5315,-91.2738 646.6228,-101.8682 653.2096,-99.499"/>
</g>
<!-- Copper cable -->
<g id="node30" class="node">
<title>Copper cable</title>
<ellipse fill="none" stroke="#000000" cx="1148" cy="-881" rx="57.6901" ry="18"/>
<text text-anchor="middle" x="1148" y="-877.3" font-family="Times,serif" font-size="14.00" fill="#000000">Copper cable</text>
</g>
<!-- Copper plate&#45;&gt;Copper cable -->
<g id="edge30" class="edge">
<title>Copper plate&#45;&gt;Copper cable</title>
<path fill="none" stroke="#000000" d="M1067.8094,-1065.0738C1083.2695,-1029.5859 1117.8558,-950.1947 1136.1425,-908.2183"/>
<polygon fill="#000000" stroke="#000000" points="1139.4229,-909.4517 1140.2081,-898.886 1133.0054,-906.6559 1139.4229,-909.4517"/>
</g>
<!-- Piercing rounds magazine -->
<g id="node36" class="node">
<title>Piercing rounds magazine</title>
<ellipse fill="none" stroke="#000000" cx="660" cy="-679" rx="102.8821" ry="18"/>
<text text-anchor="middle" x="660" y="-675.3" font-family="Times,serif" font-size="14.00" fill="#000000">Piercing rounds magazine</text>
</g>
<!-- Copper plate&#45;&gt;Piercing rounds magazine -->
<g id="edge44" class="edge">
<title>Copper plate&#45;&gt;Piercing rounds magazine</title>
<path fill="none" stroke="#000000" d="M1042.8125,-1065.6406C979.4904,-1001.6853 759.0538,-779.0443 684.7049,-703.952"/>
<polygon fill="#000000" stroke="#000000" points="687.0969,-701.3933 677.574,-696.7497 682.1226,-706.3184 687.0969,-701.3933"/>
</g>
<!-- Copper plate&#45;&gt;Gun turret -->
<g id="edge48" class="edge">
<title>Copper plate&#45;&gt;Gun turret</title>
<path fill="none" stroke="#000000" d="M1004.4823,-1080.3358C897.5418,-1072.0691 662.7267,-1038.1526 540,-899 492.0022,-844.5781 488.3732,-753.4147 490.0056,-707.4019"/>
<polygon fill="#000000" stroke="#000000" points="493.5094,-707.4007 490.4795,-697.2483 486.517,-707.0742 493.5094,-707.4007"/>
</g>
<!-- Copper plate&#45;&gt;Battery -->
<g id="edge57" class="edge">
<title>Copper plate&#45;&gt;Battery</title>
<path fill="none" stroke="#000000" d="M1095.0492,-1068.7219C1155.5936,-1042.6352 1280.9563,-982.1985 1361,-899 1475.1482,-780.3528 1523.5272,-578.7916 1537.999,-505.0729"/>
<polygon fill="#000000" stroke="#000000" points="1541.4562,-505.6278 1539.8919,-495.1491 1534.5801,-504.3162 1541.4562,-505.6278"/>
</g>
<!-- Low density structure -->
<g id="node41" class="node">
<title>Low density structure</title>
<ellipse fill="none" stroke="#000000" cx="1609" cy="-679" rx="87.9851" ry="18"/>
<text text-anchor="middle" x="1609" y="-675.3" font-family="Times,serif" font-size="14.00" fill="#000000">Low density structure</text>
</g>
<!-- Copper plate&#45;&gt;Low density structure -->
<g id="edge58" class="edge">
<title>Copper plate&#45;&gt;Low density structure</title>
<path fill="none" stroke="#000000" d="M1109.7779,-1074.8072C1199.878,-1057.5865 1391.363,-1009.6974 1507,-899 1563.7098,-844.7126 1591.9232,-752.7829 1603.0649,-706.8539"/>
<polygon fill="#000000" stroke="#000000" points="1606.5007,-707.5315 1605.3632,-696.9979 1599.6836,-705.9417 1606.5007,-707.5315"/>
</g>
<!-- Grenade&#45;&gt;Military science pack -->
<g id="edge79" class="edge">
<title>Grenade&#45;&gt;Military science pack</title>
<path fill="none" stroke="#d3d3d3" d="M225.9395,-863.4425C207.888,-826.3171 170.3038,-737.0143 184,-661 224.7435,-434.8716 347.0176,-182.2017 388.8124,-100.2361"/>
<polygon fill="#d3d3d3" stroke="#d3d3d3" points="392.049,-101.5949 393.4994,-91.0998 385.8207,-98.3997 392.049,-101.5949"/>
</g>
<!-- Advanced circuit -->
<g id="node35" class="node">
<title>Advanced circuit</title>
<ellipse fill="none" stroke="#000000" cx="1088" cy="-477" rx="71.4873" ry="18"/>
<text text-anchor="middle" x="1088" y="-473.3" font-family="Times,serif" font-size="14.00" fill="#000000">Advanced circuit</text>
</g>
<!-- Plastic bar&#45;&gt;Advanced circuit -->
<g id="edge41" class="edge">
<title>Plastic bar&#45;&gt;Advanced circuit</title>
<path fill="none" stroke="#000000" d="M1625.7138,-864.2447C1666.5927,-825.6228 1756.3233,-728.4894 1706,-661 1639.9723,-572.4492 1308.508,-511.0813 1160.0726,-487.6071"/>
<polygon fill="#000000" stroke="#000000" points="1160.5576,-484.1405 1150.1361,-486.0492 1159.4733,-491.056 1160.5576,-484.1405"/>
</g>
<!-- Plastic bar&#45;&gt;Low density structure -->
<g id="edge59" class="edge">
<title>Plastic bar&#45;&gt;Low density structure</title>
<path fill="none" stroke="#000000" d="M1607.181,-862.7176C1607.5313,-827.3388 1608.304,-749.2998 1608.7206,-707.2163"/>
<polygon fill="#000000" stroke="#000000" points="1612.2216,-707.1298 1608.8208,-697.0956 1605.2219,-707.0604 1612.2216,-707.1298"/>
</g>
<!-- Solid fuel&#45;&gt;Chemical science pack -->
<g id="edge76" class="edge">
<title>Solid fuel&#45;&gt;Chemical science pack</title>
<path fill="none" stroke="#0000ff" d="M1743.8216,-865.7357C1794.6904,-832.32 1903.5994,-748.6465 1874,-661 1801.7579,-447.0845 1730.5022,-411.6538 1566,-257 1492.8537,-188.2329 1391.4102,-127.6021 1334.398,-96.049"/>
<polygon fill="#0000ff" stroke="#0000ff" points="1335.752,-92.7995 1325.302,-91.0533 1332.3822,-98.9351 1335.752,-92.7995"/>
</g>
<!-- Rail&#45;&gt;Production science pack -->
<g id="edge82" class="edge">
<title>Rail&#45;&gt;Production science pack</title>
<path fill="none" stroke="#9932cc" d="M804.9605,-661.0713C795.5773,-602.3606 769.4842,-410.815 800,-257 811.6193,-198.4327 842.167,-135.1179 860.8045,-100.1348"/>
<polygon fill="#9932cc" stroke="#9932cc" points="864.0411,-101.5076 865.7198,-91.0466 857.8839,-98.1775 864.0411,-101.5076"/>
</g>
<!-- Iron stick&#45;&gt;Rail -->
<g id="edge23" class="edge">
<title>Iron stick&#45;&gt;Rail</title>
<path fill="none" stroke="#000000" d="M766.0822,-863.0738C774.1295,-827.7356 792.0904,-748.8639 801.6803,-706.7516"/>
<polygon fill="#000000" stroke="#000000" points="805.1191,-707.4135 803.927,-696.886 798.2939,-705.8592 805.1191,-707.4135"/>
</g>
<!-- Steel plate&#45;&gt;Rail -->
<g id="edge24" class="edge">
<title>Steel plate&#45;&gt;Rail</title>
<path fill="none" stroke="#000000" d="M1005.9555,-864.125C966.9155,-827.6154 874.6422,-741.3228 831.2794,-700.7706"/>
<polygon fill="#000000" stroke="#000000" points="833.4702,-698.0273 823.7757,-693.7532 828.6889,-703.14 833.4702,-698.0273"/>
</g>
<!-- Engine unit -->
<g id="node34" class="node">
<title>Engine unit</title>
<ellipse fill="none" stroke="#000000" cx="1229" cy="-679" rx="51.9908" ry="18"/>
<text text-anchor="middle" x="1229" y="-675.3" font-family="Times,serif" font-size="14.00" fill="#000000">Engine unit</text>
</g>
<!-- Steel plate&#45;&gt;Engine unit -->
<g id="edge38" class="edge">
<title>Steel plate&#45;&gt;Engine unit</title>
<path fill="none" stroke="#000000" d="M1041.1256,-864.125C1077.3621,-828.4188 1161.9219,-745.0964 1204.1229,-703.513"/>
<polygon fill="#000000" stroke="#000000" points="1206.8222,-705.767 1211.4886,-696.2551 1201.909,-700.7809 1206.8222,-705.767"/>
</g>
<!-- Steel plate&#45;&gt;Piercing rounds magazine -->
<g id="edge45" class="edge">
<title>Steel plate&#45;&gt;Piercing rounds magazine</title>
<path fill="none" stroke="#000000" d="M996.9382,-865.9822C933.4997,-830.7773 774.9267,-742.778 700.1808,-701.2981"/>
<polygon fill="#000000" stroke="#000000" points="701.5064,-698.031 691.0642,-696.2389 698.1097,-704.1517 701.5064,-698.031"/>
</g>
<!-- Steel plate&#45;&gt;Electric furnace -->
<g id="edge51" class="edge">
<title>Steel plate&#45;&gt;Electric furnace</title>
<path fill="none" stroke="#000000" d="M1020.5746,-862.7781C1009.3994,-803.9498 972.3897,-613.9137 932,-459 917.432,-403.1247 896.9922,-338.7768 885.2611,-302.8993"/>
<polygon fill="#000000" stroke="#000000" points="888.502,-301.5504 882.0556,-293.1424 881.8517,-303.7353 888.502,-301.5504"/>
</g>
<!-- Steel plate&#45;&gt;Low density structure -->
<g id="edge60" class="edge">
<title>Steel plate&#45;&gt;Low density structure</title>
<path fill="none" stroke="#000000" d="M1059.7138,-868.6681C1158.5209,-834.55 1436.0156,-738.7314 1554.3869,-697.8579"/>
<polygon fill="#000000" stroke="#000000" points="1555.6752,-701.1159 1563.9852,-694.5436 1553.3905,-694.4992 1555.6752,-701.1159"/>
</g>
<!-- Flying robot frame -->
<g id="node45" class="node">
<title>Flying robot frame</title>
<ellipse fill="none" stroke="#000000" cx="1479" cy="-275" rx="77.9862" ry="18"/>
<text text-anchor="middle" x="1479" y="-271.3" font-family="Times,serif" font-size="14.00" fill="#000000">Flying robot frame</text>
</g>
<!-- Steel plate&#45;&gt;Flying robot frame -->
<g id="edge68" class="edge">
<title>Steel plate&#45;&gt;Flying robot frame</title>
<path fill="none" stroke="#000000" d="M1050.6097,-865.8535C1100.5008,-836.7759 1210.2517,-769.5518 1290,-697 1376.7957,-618.0368 1415.0775,-603.4005 1460,-495 1486.7221,-430.5181 1485.0447,-346.4758 1481.8472,-303.3127"/>
<polygon fill="#000000" stroke="#000000" points="1485.3281,-302.9351 1481.0179,-293.2566 1478.3518,-303.5105 1485.3281,-302.9351"/>
</g>
<!-- Firearm magazine&#45;&gt;Piercing rounds magazine -->
<g id="edge46" class="edge">
<title>Firearm magazine&#45;&gt;Piercing rounds magazine</title>
<path fill="none" stroke="#000000" d="M627.2583,-862.7176C633.5768,-827.2636 647.5304,-748.9683 655.019,-706.9488"/>
<polygon fill="#000000" stroke="#000000" points="658.4661,-707.5546 656.775,-697.0956 651.5747,-706.3263 658.4661,-707.5546"/>
</g>
<!-- Pipe&#45;&gt;Engine unit -->
<g id="edge39" class="edge">
<title>Pipe&#45;&gt;Engine unit</title>
<path fill="none" stroke="#000000" d="M1283.6754,-863.0738C1273.1832,-827.75 1249.7706,-748.9278 1237.2583,-706.8029"/>
<polygon fill="#000000" stroke="#000000" points="1240.6015,-705.7658 1234.3989,-697.1764 1233.8912,-707.759 1240.6015,-705.7658"/>
</g>
<!-- Iron gear&#45;&gt;Automation science pack -->
<g id="edge73" class="edge">
<title>Iron gear&#45;&gt;Automation science pack</title>
<path fill="none" stroke="#ff0000" d="M412.6012,-862.8079C414.1565,-824.8574 419.4282,-734.6561 436,-661 486.0266,-438.6476 592.1037,-183.5314 627.907,-100.5873"/>
<polygon fill="#ff0000" stroke="#ff0000" points="631.1498,-101.9065 631.9164,-91.3395 624.7274,-99.1221 631.1498,-101.9065"/>
</g>
<!-- Iron gear&#45;&gt;Transport belt -->
<g id="edge32" class="edge">
<title>Iron gear&#45;&gt;Transport belt</title>
<path fill="none" stroke="#000000" d="M398.4437,-863.7776C370.4808,-828.2524 306.2672,-746.6728 273.3179,-704.8127"/>
<polygon fill="#000000" stroke="#000000" points="275.9105,-702.4476 266.9752,-696.7546 270.4101,-706.7772 275.9105,-702.4476"/>
</g>
<!-- Iron gear&#45;&gt;Inserter -->
<g id="edge36" class="edge">
<title>Iron gear&#45;&gt;Inserter</title>
<path fill="none" stroke="#000000" d="M408.6317,-862.8561C396.7353,-798.7741 356.6343,-582.7633 342.2173,-505.1036"/>
<polygon fill="#000000" stroke="#000000" points="345.6255,-504.287 340.359,-495.0939 338.7431,-505.5648 345.6255,-504.287"/>
</g>
<!-- Iron gear&#45;&gt;Engine unit -->
<g id="edge40" class="edge">
<title>Iron gear&#45;&gt;Engine unit</title>
<path fill="none" stroke="#000000" d="M449.9226,-872.4515C560.835,-847.3037 894.0714,-770.705 1168,-697 1171.8485,-695.9645 1175.8244,-694.8632 1179.8152,-693.7352"/>
<polygon fill="#000000" stroke="#000000" points="1181.0552,-697.0207 1189.7022,-690.8986 1179.1247,-690.2922 1181.0552,-697.0207"/>
</g>
<!-- Iron gear&#45;&gt;Gun turret -->
<g id="edge49" class="edge">
<title>Iron gear&#45;&gt;Gun turret</title>
<path fill="none" stroke="#000000" d="M419.0995,-863.0738C433.1541,-827.5859 464.5962,-748.1947 481.2205,-706.2183"/>
<polygon fill="#000000" stroke="#000000" points="484.4883,-707.4722 484.9164,-696.886 477.9801,-704.8946 484.4883,-707.4722"/>
</g>
<!-- Copper cable&#45;&gt;Electronic circuit -->
<g id="edge34" class="edge">
<title>Copper cable&#45;&gt;Electronic circuit</title>
<path fill="none" stroke="#000000" d="M1142.6754,-863.0738C1132.1832,-827.75 1108.7706,-748.9278 1096.2583,-706.8029"/>
<polygon fill="#000000" stroke="#000000" points="1099.6015,-705.7658 1093.3989,-697.1764 1092.8912,-707.759 1099.6015,-705.7658"/>
</g>
<!-- Copper cable&#45;&gt;Advanced circuit -->
<g id="edge42" class="edge">
<title>Copper cable&#45;&gt;Advanced circuit</title>
<path fill="none" stroke="#000000" d="M1128.4582,-863.8466C1095.9707,-833.8712 1032.0469,-768.3172 1008,-697 984.1784,-626.351 1035.5802,-543.9817 1066.6272,-502.9697"/>
<polygon fill="#000000" stroke="#000000" points="1069.5492,-504.913 1072.909,-494.865 1064.0165,-500.6248 1069.5492,-504.913"/>
</g>
<!-- Transport belt&#45;&gt;Logistics science pack -->
<g id="edge74" class="edge">
<title>Transport belt&#45;&gt;Logistics science pack</title>
<path fill="none" stroke="#00ff00" d="M248.6604,-660.8636C228.0231,-574.614 139.7719,-205.7845 114.6792,-100.9143"/>
<polygon fill="#00ff00" stroke="#00ff00" points="118.0537,-99.9766 112.3226,-91.0656 111.2458,-101.6056 118.0537,-99.9766"/>
</g>
<!-- Electronic circuit&#45;&gt;Inserter -->
<g id="edge37" class="edge">
<title>Electronic circuit&#45;&gt;Inserter</title>
<path fill="none" stroke="#000000" d="M1039.0145,-665.8241C901.0792,-628.723 510.977,-523.7954 380.282,-488.6418"/>
<polygon fill="#000000" stroke="#000000" points="380.8106,-485.1596 370.2447,-485.942 378.9924,-491.9194 380.8106,-485.1596"/>
</g>
<!-- Electronic circuit&#45;&gt;Advanced circuit -->
<g id="edge43" class="edge">
<title>Electronic circuit&#45;&gt;Advanced circuit</title>
<path fill="none" stroke="#000000" d="M1088,-660.7176C1088,-625.3388 1088,-547.2998 1088,-505.2163"/>
<polygon fill="#000000" stroke="#000000" points="1091.5001,-505.0955 1088,-495.0956 1084.5001,-505.0956 1091.5001,-505.0955"/>
</g>
<!-- Productivity module -->
<g id="node39" class="node">
<title>Productivity module</title>
<ellipse fill="none" stroke="#000000" cx="1044" cy="-275" rx="83.3857" ry="18"/>
<text text-anchor="middle" x="1044" y="-271.3" font-family="Times,serif" font-size="14.00" fill="#000000">Productivity module</text>
</g>
<!-- Electronic circuit&#45;&gt;Productivity module -->
<g id="edge53" class="edge">
<title>Electronic circuit&#45;&gt;Productivity module</title>
<path fill="none" stroke="#000000" d="M1077.1839,-661.0318C1058.6219,-629.0292 1021.4059,-559.4553 1008,-495 993.6935,-426.2146 1017.7789,-344.3579 1033.0019,-302.5557"/>
<polygon fill="#000000" stroke="#000000" points="1036.3277,-303.6546 1036.5602,-293.0623 1029.773,-301.1977 1036.3277,-303.6546"/>
</g>
<!-- Electronic circuit&#45;&gt;Processing unit -->
<g id="edge62" class="edge">
<title>Electronic circuit&#45;&gt;Processing unit</title>
<path fill="none" stroke="#000000" d="M1096.3221,-660.8744C1111.2922,-628.0532 1143.4852,-556.4753 1168,-495 1195.3277,-426.4708 1224.1257,-344.5069 1238.5674,-302.6207"/>
<polygon fill="#000000" stroke="#000000" points="1241.8967,-303.7019 1241.838,-293.1072 1235.2769,-301.4261 1241.8967,-303.7019"/>
</g>
<!-- Electric engine unit -->
<g id="node44" class="node">
<title>Electric engine unit</title>
<ellipse fill="none" stroke="#000000" cx="1371" cy="-477" rx="79.8859" ry="18"/>
<text text-anchor="middle" x="1371" y="-473.3" font-family="Times,serif" font-size="14.00" fill="#000000">Electric engine unit</text>
</g>
<!-- Electronic circuit&#45;&gt;Electric engine unit -->
<g id="edge65" class="edge">
<title>Electronic circuit&#45;&gt;Electric engine unit</title>
<path fill="none" stroke="#000000" d="M1112.1284,-661.7776C1162.9844,-625.4776 1281.2073,-541.0923 1338.5933,-500.1313"/>
<polygon fill="#000000" stroke="#000000" points="1340.8268,-502.8373 1346.9327,-494.1788 1336.76,-497.1398 1340.8268,-502.8373"/>
</g>
<!-- Electronic circuit&#45;&gt;Flying robot frame -->
<g id="edge69" class="edge">
<title>Electronic circuit&#45;&gt;Flying robot frame</title>
<path fill="none" stroke="#000000" d="M1102.5412,-661.3738C1134.1074,-623.3703 1211.7308,-531.3091 1282,-459 1340.0063,-399.3098 1412.4964,-333.7499 1451.3494,-299.2849"/>
<polygon fill="#000000" stroke="#000000" points="1453.9427,-301.6638 1459.1124,-292.4158 1449.3039,-296.4214 1453.9427,-301.6638"/>
</g>
<!-- Inserter&#45;&gt;Logistics science pack -->
<g id="edge75" class="edge">
<title>Inserter&#45;&gt;Logistics science pack</title>
<path fill="none" stroke="#00ff00" d="M327.0129,-459.3808C290.9364,-395.735 167.1888,-177.4204 123.4588,-100.2723"/>
<polygon fill="#00ff00" stroke="#00ff00" points="126.2762,-98.1449 118.3,-91.1712 120.1864,-101.5968 126.2762,-98.1449"/>
</g>
<!-- Engine unit&#45;&gt;Chemical science pack -->
<g id="edge77" class="edge">
<title>Engine unit&#45;&gt;Chemical science pack</title>
<path fill="none" stroke="#0000ff" d="M1233.3608,-660.9001C1251.7473,-584.5865 1322,-293 1322,-293 1323.8872,-277.1117 1323.3337,-272.9443 1322,-257 1317.3503,-201.4146 1304.931,-137.3618 1297.2974,-101.3789"/>
<polygon fill="#0000ff" stroke="#0000ff" points="1300.6224,-100.1927 1295.0959,-91.1534 1293.7792,-101.6661 1300.6224,-100.1927"/>
</g>
<!-- Engine unit&#45;&gt;Electric engine unit -->
<g id="edge66" class="edge">
<title>Engine unit&#45;&gt;Electric engine unit</title>
<path fill="none" stroke="#000000" d="M1241.3532,-661.4272C1266.3623,-625.8509 1323.1022,-545.1364 1352.5275,-503.2778"/>
<polygon fill="#000000" stroke="#000000" points="1355.483,-505.1594 1358.3707,-494.9657 1349.7564,-501.1337 1355.483,-505.1594"/>
</g>
<!-- Advanced circuit&#45;&gt;Chemical science pack -->
<g id="edge78" class="edge">
<title>Advanced circuit&#45;&gt;Chemical science pack</title>
<path fill="none" stroke="#0000ff" d="M1093.7738,-458.8101C1106.2243,-420.4878 1137.4476,-329.0456 1174,-257 1203.8425,-198.1798 1247.26,-134.1935 1271.9505,-99.3199"/>
<polygon fill="#0000ff" stroke="#0000ff" points="1274.8533,-101.2773 1277.8046,-91.1018 1269.1519,-97.2159 1274.8533,-101.2773"/>
</g>
<!-- Advanced circuit&#45;&gt;Electric furnace -->
<g id="edge52" class="edge">
<title>Advanced circuit&#45;&gt;Electric furnace</title>
<path fill="none" stroke="#000000" d="M1069.5573,-459.4272C1031.6391,-423.2976 944.8634,-340.6151 901.5592,-299.3535"/>
<polygon fill="#000000" stroke="#000000" points="903.9033,-296.7527 894.2492,-292.3883 899.0745,-301.8206 903.9033,-296.7527"/>
</g>
<!-- Advanced circuit&#45;&gt;Productivity module -->
<g id="edge54" class="edge">
<title>Advanced circuit&#45;&gt;Productivity module</title>
<path fill="none" stroke="#000000" d="M1084.0177,-458.7176C1076.2951,-423.2636 1059.2406,-344.9683 1050.0878,-302.9488"/>
<polygon fill="#000000" stroke="#000000" points="1053.4898,-302.1215 1047.9416,-293.0956 1046.6502,-303.6114 1053.4898,-302.1215"/>
</g>
<!-- Advanced circuit&#45;&gt;Processing unit -->
<g id="edge63" class="edge">
<title>Advanced circuit&#45;&gt;Processing unit</title>
<path fill="none" stroke="#000000" d="M1102.1989,-459.0738C1130.6763,-423.1212 1194.8451,-342.1081 1227.7317,-300.5888"/>
<polygon fill="#000000" stroke="#000000" points="1230.5959,-302.6096 1234.0613,-292.5976 1225.1087,-298.2633 1230.5959,-302.6096"/>
</g>
<!-- Piercing rounds magazine&#45;&gt;Military science pack -->
<g id="edge80" class="edge">
<title>Piercing rounds magazine&#45;&gt;Military science pack</title>
<path fill="none" stroke="#d3d3d3" d="M652.3085,-660.8636C615.6568,-574.4397 458.6804,-204.2931 414.5701,-100.282"/>
<polygon fill="#d3d3d3" stroke="#d3d3d3" points="417.7881,-98.9054 410.6615,-91.0656 411.3437,-101.6385 417.7881,-98.9054"/>
</g>
<!-- Gun turret&#45;&gt;Military science pack -->
<g id="edge81" class="edge">
<title>Gun turret&#45;&gt;Military science pack</title>
<path fill="none" stroke="#d3d3d3" d="M483.7939,-661.2004C469.34,-628.8961 439.6744,-558.1101 427,-495 397.7181,-349.1961 399.7569,-169.7782 401.8778,-101.3392"/>
<polygon fill="#d3d3d3" stroke="#d3d3d3" points="405.3762,-101.4421 402.2141,-91.3301 398.3802,-101.2069 405.3762,-101.4421"/>
</g>
<!-- Electric furnace&#45;&gt;Production science pack -->
<g id="edge83" class="edge">
<title>Electric furnace&#45;&gt;Production science pack</title>
<path fill="none" stroke="#9932cc" d="M876,-256.7176C876,-221.3388 876,-143.2998 876,-101.2163"/>
<polygon fill="#9932cc" stroke="#9932cc" points="879.5001,-101.0955 876,-91.0956 872.5001,-101.0956 879.5001,-101.0955"/>
</g>
<!-- Productivity module&#45;&gt;Production science pack -->
<g id="edge84" class="edge">
<title>Productivity module&#45;&gt;Production science pack</title>
<path fill="none" stroke="#9932cc" d="M1029.0911,-257.0738C999.2781,-221.2272 932.2096,-140.5853 897.588,-98.957"/>
<polygon fill="#9932cc" stroke="#9932cc" points="900.2023,-96.6268 891.117,-91.1764 894.8204,-101.1029 900.2023,-96.6268"/>
</g>
<!-- Battery&#45;&gt;Flying robot frame -->
<g id="edge70" class="edge">
<title>Battery&#45;&gt;Flying robot frame</title>
<path fill="none" stroke="#000000" d="M1537.3204,-459.0738C1526.1287,-423.75 1501.1554,-344.9278 1487.8088,-302.8029"/>
<polygon fill="#000000" stroke="#000000" points="1491.1158,-301.6522 1484.7588,-293.1764 1484.4427,-303.7665 1491.1158,-301.6522"/>
</g>
<!-- Low density structure&#45;&gt;Utility science pack -->
<g id="edge85" class="edge">
<title>Low density structure&#45;&gt;Utility science pack</title>
<path fill="none" stroke="#ffff00" d="M1607.9588,-660.7954C1604.424,-602.019 1591.6489,-412.1222 1566,-257 1556.7674,-201.1619 1541.2995,-136.8009 1532.2332,-100.911"/>
<polygon fill="#ffff00" stroke="#ffff00" points="1535.6072,-99.9775 1529.7476,-91.1506 1528.8237,-101.705 1535.6072,-99.9775"/>
</g>
<!-- Processing unit&#45;&gt;Utility science pack -->
<g id="edge86" class="edge">
<title>Processing unit&#45;&gt;Utility science pack</title>
<path fill="none" stroke="#ffff00" d="M1271.1404,-258.125C1320.2408,-222.319 1435.0022,-138.6302 1491.8625,-97.1653"/>
<polygon fill="#ffff00" stroke="#ffff00" points="1494.1272,-99.8456 1500.1447,-91.1255 1490.0027,-94.1897 1494.1272,-99.8456"/>
</g>
<!-- Lubricant&#45;&gt;Electric engine unit -->
<g id="edge67" class="edge">
<title>Lubricant&#45;&gt;Electric engine unit</title>
<path fill="none" stroke="#000000" d="M1415.6516,-661.0738C1407.101,-625.8247 1388.0435,-547.2609 1377.8092,-505.0705"/>
<polygon fill="#000000" stroke="#000000" points="1381.1679,-504.0694 1375.4091,-495.1764 1374.3652,-505.7196 1381.1679,-504.0694"/>
</g>
<!-- Electric engine unit&#45;&gt;Flying robot frame -->
<g id="edge71" class="edge">
<title>Electric engine unit&#45;&gt;Flying robot frame</title>
<path fill="none" stroke="#000000" d="M1380.5843,-459.0738C1399.5981,-423.511 1442.184,-343.8595 1464.5894,-301.9531"/>
<polygon fill="#000000" stroke="#000000" points="1467.8088,-303.3549 1469.4372,-292.886 1461.6357,-300.0544 1467.8088,-303.3549"/>
</g>
<!-- Flying robot frame&#45;&gt;Utility science pack -->
<g id="edge87" class="edge">
<title>Flying robot frame&#45;&gt;Utility science pack</title>
<path fill="none" stroke="#ffff00" d="M1483.1633,-256.7176C1491.237,-221.2636 1509.0666,-142.9683 1518.6354,-100.9488"/>
<polygon fill="#ffff00" stroke="#ffff00" points="1522.0714,-101.6231 1520.8792,-91.0956 1515.2461,-100.0688 1522.0714,-101.6231"/>
</g>
</g>
</svg>
