<?xml version="1.0" encoding="UTF-8" standalone="no"?>
<!DOCTYPE svg PUBLIC "-//W3C//DTD SVG 1.1//EN"
 "http://www.w3.org/Graphics/SVG/1.1/DTD/svg11.dtd">
<!-- Generated by graphviz version 2.40.1 (20161225.0304)
 -->
<!-- Title: science_packs Pages: 1 -->
<svg width="606pt" height="491pt"
 viewBox="0.00 0.00 606.00 491.09" xmlns="http://www.w3.org/2000/svg" xmlns:xlink="http://www.w3.org/1999/xlink">
<g id="graph0" class="graph" transform="scale(1 1) rotate(0) translate(4 487.0911)">
<title>science_packs</title>
<polygon fill="#ffffff" stroke="transparent" points="-4,4 -4,-487.0911 602,-487.0911 602,4 -4,4"/>
<text text-anchor="middle" x="299" y="-7.8" font-family="Times,serif" font-size="14.00" fill="#000000">Logistics pack dependencies; factorio 0.17.79; Visualization by Jonathon Ball (jonathon.ball@gmail.com)</text>
<!-- Iron ore -->
<g id="node1" class="node">
<title>Iron ore</title>
<ellipse fill="#a0522d" stroke="#a0522d" cx="227.8957" cy="-433" rx="38.9931" ry="38.9931"/>
<polyline fill="none" stroke="#a0522d" points="253.688,-462.2474 202.1034,-462.2474 "/>
<polyline fill="none" stroke="#a0522d" points="253.688,-403.7526 202.1034,-403.7526 "/>
<text text-anchor="middle" x="227.8957" y="-429.3" font-family="Times,serif" font-size="14.00" fill="#ffffff">Iron ore</text>
</g>
<!-- Iron plate -->
<g id="node4" class="node">
<title>Iron plate</title>
<ellipse fill="none" stroke="#000000" cx="227.8957" cy="-257" rx="44.6926" ry="18"/>
<text text-anchor="middle" x="227.8957" y="-253.3" font-family="Times,serif" font-size="14.00" fill="#000000">Iron plate</text>
</g>
<!-- Iron ore&#45;&gt;Iron plate -->
<g id="edge1" class="edge">
<title>Iron ore&#45;&gt;Iron plate</title>
<path fill="none" stroke="#a0522d" d="M227.8957,-393.9399C227.8957,-360.9285 227.8957,-314.4448 227.8957,-285.0238"/>
<polygon fill="#a0522d" stroke="#a0522d" points="231.3958,-285.0131 227.8957,-275.0131 224.3958,-285.0131 231.3958,-285.0131"/>
</g>
<!-- Copper ore -->
<g id="node2" class="node">
<title>Copper ore</title>
<ellipse fill="#a0522d" stroke="#a0522d" cx="468.8957" cy="-433" rx="50.0912" ry="50.0912"/>
<polyline fill="none" stroke="#a0522d" points="501.9958,-470.5342 435.7956,-470.5342 "/>
<polyline fill="none" stroke="#a0522d" points="501.9958,-395.4658 435.7956,-395.4658 "/>
<text text-anchor="middle" x="468.8957" y="-429.3" font-family="Times,serif" font-size="14.00" fill="#ffffff">Copper ore</text>
</g>
<!-- Copper plate -->
<g id="node5" class="node">
<title>Copper plate</title>
<ellipse fill="none" stroke="#000000" cx="468.8957" cy="-329" rx="55.7903" ry="18"/>
<text text-anchor="middle" x="468.8957" y="-325.3" font-family="Times,serif" font-size="14.00" fill="#000000">Copper plate</text>
</g>
<!-- Copper ore&#45;&gt;Copper plate -->
<g id="edge2" class="edge">
<title>Copper ore&#45;&gt;Copper plate</title>
<path fill="none" stroke="#a0522d" d="M468.8957,-382.8278C468.8957,-374.1144 468.8957,-365.3324 468.8957,-357.4622"/>
<polygon fill="#a0522d" stroke="#a0522d" points="472.3958,-357.3873 468.8957,-347.3873 465.3958,-357.3873 472.3958,-357.3873"/>
</g>
<!-- Logistics science pack -->
<g id="node3" class="node">
<title>Logistics science pack</title>
<polygon fill="#00ff00" stroke="#00ff00" points="315.8957,-59 99.8957,-59 99.8957,-23 315.8957,-23 315.8957,-59"/>
<text text-anchor="middle" x="207.8957" y="-37.3" font-family="Times,serif" font-size="14.00" fill="#000000">Logistics science pack</text>
</g>
<!-- Iron gear -->
<g id="node6" class="node">
<title>Iron gear</title>
<ellipse fill="none" stroke="#000000" cx="185.8957" cy="-185" rx="42.7926" ry="18"/>
<text text-anchor="middle" x="185.8957" y="-181.3" font-family="Times,serif" font-size="14.00" fill="#000000">Iron gear</text>
</g>
<!-- Iron plate&#45;&gt;Iron gear -->
<g id="edge3" class="edge">
<title>Iron plate&#45;&gt;Iron gear</title>
<path fill="none" stroke="#000000" d="M217.5137,-239.2022C212.631,-230.832 206.7091,-220.6802 201.3164,-211.4356"/>
<polygon fill="#000000" stroke="#000000" points="204.2203,-209.4673 196.1583,-202.593 198.1738,-212.9944 204.2203,-209.4673"/>
</g>
<!-- Transport belt -->
<g id="node8" class="node">
<title>Transport belt</title>
<ellipse fill="none" stroke="#000000" cx="110.8957" cy="-113" rx="60.3893" ry="18"/>
<text text-anchor="middle" x="110.8957" y="-109.3" font-family="Times,serif" font-size="14.00" fill="#000000">Transport belt</text>
</g>
<!-- Iron plate&#45;&gt;Transport belt -->
<g id="edge5" class="edge">
<title>Iron plate&#45;&gt;Transport belt</title>
<path fill="none" stroke="#000000" d="M193.6774,-245.1879C173.4481,-236.5193 148.9261,-222.7805 133.8957,-203 120.3748,-185.2061 114.7525,-160.305 112.4395,-141.2049"/>
<polygon fill="#000000" stroke="#000000" points="115.8986,-140.6137 111.4454,-131.0002 108.9315,-141.2925 115.8986,-140.6137"/>
</g>
<!-- Electronic circuit -->
<g id="node9" class="node">
<title>Electronic circuit</title>
<ellipse fill="none" stroke="#000000" cx="468.8957" cy="-185" rx="71.4873" ry="18"/>
<text text-anchor="middle" x="468.8957" y="-181.3" font-family="Times,serif" font-size="14.00" fill="#000000">Electronic circuit</text>
</g>
<!-- Iron plate&#45;&gt;Electronic circuit -->
<g id="edge7" class="edge">
<title>Iron plate&#45;&gt;Electronic circuit</title>
<path fill="none" stroke="#000000" d="M263.9758,-246.2209C303.3674,-234.4524 366.9469,-215.4577 412.8473,-201.7447"/>
<polygon fill="#000000" stroke="#000000" points="414.0694,-205.0326 422.6491,-198.8164 412.0656,-198.3255 414.0694,-205.0326"/>
</g>
<!-- Inserter -->
<g id="node10" class="node">
<title>Inserter</title>
<ellipse fill="none" stroke="#000000" cx="303.8957" cy="-113" rx="37.8943" ry="18"/>
<text text-anchor="middle" x="303.8957" y="-109.3" font-family="Times,serif" font-size="14.00" fill="#000000">Inserter</text>
</g>
<!-- Iron plate&#45;&gt;Inserter -->
<g id="edge9" class="edge">
<title>Iron plate&#45;&gt;Inserter</title>
<path fill="none" stroke="#000000" d="M237.2148,-239.3428C250.3198,-214.5122 274.3053,-169.066 289.6543,-139.9836"/>
<polygon fill="#000000" stroke="#000000" points="292.9281,-141.2792 294.5004,-130.8017 286.7374,-138.0118 292.9281,-141.2792"/>
</g>
<!-- Copper cable -->
<g id="node7" class="node">
<title>Copper cable</title>
<ellipse fill="none" stroke="#000000" cx="468.8957" cy="-257" rx="57.6901" ry="18"/>
<text text-anchor="middle" x="468.8957" y="-253.3" font-family="Times,serif" font-size="14.00" fill="#000000">Copper cable</text>
</g>
<!-- Copper plate&#45;&gt;Copper cable -->
<g id="edge4" class="edge">
<title>Copper plate&#45;&gt;Copper cable</title>
<path fill="none" stroke="#000000" d="M468.8957,-310.8314C468.8957,-303.131 468.8957,-293.9743 468.8957,-285.4166"/>
<polygon fill="#000000" stroke="#000000" points="472.3958,-285.4132 468.8957,-275.4133 465.3958,-285.4133 472.3958,-285.4132"/>
</g>
<!-- Iron gear&#45;&gt;Transport belt -->
<g id="edge6" class="edge">
<title>Iron gear&#45;&gt;Transport belt</title>
<path fill="none" stroke="#000000" d="M168.5007,-168.3008C158.9597,-159.1414 146.9534,-147.6154 136.3745,-137.4597"/>
<polygon fill="#000000" stroke="#000000" points="138.6172,-134.7608 128.9794,-130.3603 133.7694,-139.8106 138.6172,-134.7608"/>
</g>
<!-- Iron gear&#45;&gt;Inserter -->
<g id="edge10" class="edge">
<title>Iron gear&#45;&gt;Inserter</title>
<path fill="none" stroke="#000000" d="M210.3454,-170.0816C228.0614,-159.2718 252.1945,-144.5465 271.5117,-132.7597"/>
<polygon fill="#000000" stroke="#000000" points="273.5692,-135.6045 280.2825,-127.408 269.9231,-129.629 273.5692,-135.6045"/>
</g>
<!-- Copper cable&#45;&gt;Electronic circuit -->
<g id="edge8" class="edge">
<title>Copper cable&#45;&gt;Electronic circuit</title>
<path fill="none" stroke="#000000" d="M468.8957,-238.8314C468.8957,-231.131 468.8957,-221.9743 468.8957,-213.4166"/>
<polygon fill="#000000" stroke="#000000" points="472.3958,-213.4132 468.8957,-203.4133 465.3958,-213.4133 472.3958,-213.4132"/>
</g>
<!-- Transport belt&#45;&gt;Logistics science pack -->
<g id="edge12" class="edge">
<title>Transport belt&#45;&gt;Logistics science pack</title>
<path fill="none" stroke="#00ff00" d="M133.8833,-95.937C146.2243,-86.7767 161.6462,-75.3295 175.2135,-65.2589"/>
<polygon fill="#00ff00" stroke="#00ff00" points="177.4337,-67.9698 183.3774,-59.1992 173.2616,-62.349 177.4337,-67.9698"/>
</g>
<!-- Electronic circuit&#45;&gt;Inserter -->
<g id="edge11" class="edge">
<title>Electronic circuit&#45;&gt;Inserter</title>
<path fill="none" stroke="#000000" d="M433.0931,-169.3771C405.9621,-157.5381 368.7844,-141.3151 341.2743,-129.3107"/>
<polygon fill="#000000" stroke="#000000" points="342.5444,-126.0462 331.9791,-125.2546 339.7447,-132.462 342.5444,-126.0462"/>
</g>
<!-- Inserter&#45;&gt;Logistics science pack -->
<g id="edge13" class="edge">
<title>Inserter&#45;&gt;Logistics science pack</title>
<path fill="none" stroke="#00ff00" d="M283.5366,-97.7307C270.9301,-88.2758 254.4649,-75.9269 240.1164,-65.1655"/>
<polygon fill="#00ff00" stroke="#00ff00" points="242.058,-62.2467 231.9579,-59.0467 237.8579,-67.8467 242.058,-62.2467"/>
</g>
</g>
</svg>
