<?xml version="1.0" encoding="UTF-8" standalone="no"?>
<!DOCTYPE svg PUBLIC "-//W3C//DTD SVG 1.1//EN"
 "http://www.w3.org/Graphics/SVG/1.1/DTD/svg11.dtd">
<!-- Generated by graphviz version 2.40.1 (20161225.0304)
 -->
<!-- Title: science_packs Pages: 1 -->
<svg width="1714pt" height="1384pt"
 viewBox="0.00 0.00 1713.90 1384.03" xmlns="http://www.w3.org/2000/svg" xmlns:xlink="http://www.w3.org/1999/xlink">
<g id="graph0" class="graph" transform="scale(1 1) rotate(0) translate(4 1380.0317)">
<title>science_packs</title>
<polygon fill="#ffffff" stroke="transparent" points="-4,4 -4,-1380.0317 1709.8996,-1380.0317 1709.8996,4 -4,4"/>
<text text-anchor="middle" x="852.9498" y="-7.8" font-family="Times,serif" font-size="14.00" fill="#000000">Science pack dependencies; factorio 0.17; Visualization by Jonathon Ball (jonathon.ball@gmail.com)</text>
<!-- Coal -->
<g id="node1" class="node">
<title>Coal</title>
<ellipse fill="#a0522d" stroke="#a0522d" cx="805.8996" cy="-1249" rx="27.0966" ry="27.0966"/>
<polyline fill="none" stroke="#a0522d" points="823.9542,-1269.4732 787.845,-1269.4732 "/>
<polyline fill="none" stroke="#a0522d" points="823.9542,-1228.5268 787.845,-1228.5268 "/>
<text text-anchor="middle" x="805.8996" y="-1245.3" font-family="Times,serif" font-size="14.00" fill="#ffffff">Coal</text>
</g>
<!-- Grenade -->
<g id="node20" class="node">
<title>Grenade</title>
<ellipse fill="none" stroke="#000000" cx="1488.8996" cy="-801" rx="40.0939" ry="18"/>
<text text-anchor="middle" x="1488.8996" y="-797.3" font-family="Times,serif" font-size="14.00" fill="#000000">Grenade</text>
</g>
<!-- Coal&#45;&gt;Grenade -->
<g id="edge13" class="edge">
<title>Coal&#45;&gt;Grenade</title>
<path fill="none" stroke="#a0522d" d="M829.0156,-1233.8375C930.9857,-1166.9523 1340.6891,-898.2157 1457.6066,-821.526"/>
<polygon fill="#a0522d" stroke="#a0522d" points="1459.6956,-824.3416 1466.1376,-815.9302 1455.8563,-818.4884 1459.6956,-824.3416"/>
</g>
<!-- Plastic bar -->
<g id="node21" class="node">
<title>Plastic bar</title>
<ellipse fill="none" stroke="#000000" cx="317.8996" cy="-801" rx="48.1917" ry="18"/>
<text text-anchor="middle" x="317.8996" y="-797.3" font-family="Times,serif" font-size="14.00" fill="#000000">Plastic bar</text>
</g>
<!-- Coal&#45;&gt;Plastic bar -->
<g id="edge15" class="edge">
<title>Coal&#45;&gt;Plastic bar</title>
<path fill="none" stroke="#a0522d" d="M782.2504,-1235.2627C724.2685,-1200.8802 572.1145,-1106.3522 466.8996,-1002 410.6754,-946.2368 358.969,-867.9657 333.8572,-827.5202"/>
<polygon fill="#a0522d" stroke="#a0522d" points="336.7046,-825.469 328.4836,-818.7858 330.7426,-829.137 336.7046,-825.469"/>
</g>
<!-- Crude oil -->
<g id="node2" class="node">
<title>Crude oil</title>
<ellipse fill="#a0522d" stroke="#a0522d" cx="280.8996" cy="-1249" rx="44.393" ry="44.393"/>
<polyline fill="none" stroke="#a0522d" points="310.1309,-1282.1471 251.6683,-1282.1471 "/>
<polyline fill="none" stroke="#a0522d" points="310.1309,-1215.8529 251.6683,-1215.8529 "/>
<text text-anchor="middle" x="280.8996" y="-1245.3" font-family="Times,serif" font-size="14.00" fill="#ffffff">Crude oil</text>
</g>
<!-- Petroleum gas -->
<g id="node14" class="node">
<title>Petroleum gas</title>
<ellipse fill="none" stroke="#000000" cx="313.8996" cy="-984" rx="61.99" ry="18"/>
<text text-anchor="middle" x="313.8996" y="-980.3" font-family="Times,serif" font-size="14.00" fill="#000000">Petroleum gas</text>
</g>
<!-- Crude oil&#45;&gt;Petroleum gas -->
<g id="edge7" class="edge">
<title>Crude oil&#45;&gt;Petroleum gas</title>
<path fill="none" stroke="#a0522d" d="M286.3859,-1204.9432C293.2068,-1150.1697 304.6488,-1058.2868 310.39,-1012.1829"/>
<polygon fill="#a0522d" stroke="#a0522d" points="313.8929,-1012.3759 311.6556,-1002.02 306.9466,-1011.5108 313.8929,-1012.3759"/>
</g>
<!-- Heavy oil -->
<g id="node18" class="node">
<title>Heavy oil</title>
<ellipse fill="none" stroke="#000000" cx="188.8996" cy="-984" rx="45.4919" ry="18"/>
<text text-anchor="middle" x="188.8996" y="-980.3" font-family="Times,serif" font-size="14.00" fill="#000000">Heavy oil</text>
</g>
<!-- Crude oil&#45;&gt;Heavy oil -->
<g id="edge8" class="edge">
<title>Crude oil&#45;&gt;Heavy oil</title>
<path fill="none" stroke="#a0522d" d="M266.3219,-1207.01C247.3388,-1152.3304 214.6799,-1058.2585 198.5252,-1011.726"/>
<polygon fill="#a0522d" stroke="#a0522d" points="201.7423,-1010.3206 195.1562,-1002.0216 195.1295,-1012.6164 201.7423,-1010.3206"/>
</g>
<!-- Iron ore -->
<g id="node3" class="node">
<title>Iron ore</title>
<ellipse fill="#a0522d" stroke="#a0522d" cx="1068.8996" cy="-1249" rx="38.9931" ry="38.9931"/>
<polyline fill="none" stroke="#a0522d" points="1094.6919,-1278.2474 1043.1073,-1278.2474 "/>
<polyline fill="none" stroke="#a0522d" points="1094.6919,-1219.7526 1043.1073,-1219.7526 "/>
<text text-anchor="middle" x="1068.8996" y="-1245.3" font-family="Times,serif" font-size="14.00" fill="#ffffff">Iron ore</text>
</g>
<!-- Iron plate -->
<g id="node15" class="node">
<title>Iron plate</title>
<ellipse fill="none" stroke="#000000" cx="1068.8996" cy="-984" rx="44.6926" ry="18"/>
<text text-anchor="middle" x="1068.8996" y="-980.3" font-family="Times,serif" font-size="14.00" fill="#000000">Iron plate</text>
</g>
<!-- Iron ore&#45;&gt;Iron plate -->
<g id="edge11" class="edge">
<title>Iron ore&#45;&gt;Iron plate</title>
<path fill="none" stroke="#a0522d" d="M1068.8996,-1209.8983C1068.8996,-1155.9366 1068.8996,-1059.9241 1068.8996,-1012.3437"/>
<polygon fill="#a0522d" stroke="#a0522d" points="1072.3997,-1012.1493 1068.8996,-1002.1493 1065.3997,-1012.1493 1072.3997,-1012.1493"/>
</g>
<!-- Copper ore -->
<g id="node4" class="node">
<title>Copper ore</title>
<ellipse fill="#a0522d" stroke="#a0522d" cx="531.8996" cy="-1249" rx="50.0912" ry="50.0912"/>
<polyline fill="none" stroke="#a0522d" points="564.9997,-1286.5342 498.7995,-1286.5342 "/>
<polyline fill="none" stroke="#a0522d" points="564.9997,-1211.4658 498.7995,-1211.4658 "/>
<text text-anchor="middle" x="531.8996" y="-1245.3" font-family="Times,serif" font-size="14.00" fill="#ffffff">Copper ore</text>
</g>
<!-- Copper plate -->
<g id="node19" class="node">
<title>Copper plate</title>
<ellipse fill="none" stroke="#000000" cx="531.8996" cy="-984" rx="55.7903" ry="18"/>
<text text-anchor="middle" x="531.8996" y="-980.3" font-family="Times,serif" font-size="14.00" fill="#000000">Copper plate</text>
</g>
<!-- Copper ore&#45;&gt;Copper plate -->
<g id="edge12" class="edge">
<title>Copper ore&#45;&gt;Copper plate</title>
<path fill="none" stroke="#a0522d" d="M531.8996,-1198.844C531.8996,-1143.534 531.8996,-1056.5079 531.8996,-1012.1005"/>
<polygon fill="#a0522d" stroke="#a0522d" points="535.3997,-1012.0269 531.8996,-1002.0269 528.3997,-1012.0269 535.3997,-1012.0269"/>
</g>
<!-- Water -->
<g id="node5" class="node">
<title>Water</title>
<ellipse fill="#a0522d" stroke="#a0522d" cx="152.8996" cy="-1249" rx="32.4942" ry="32.4942"/>
<polyline fill="none" stroke="#a0522d" points="174.3932,-1273.3728 131.406,-1273.3728 "/>
<polyline fill="none" stroke="#a0522d" points="174.3932,-1224.6272 131.406,-1224.6272 "/>
<text text-anchor="middle" x="152.8996" y="-1245.3" font-family="Times,serif" font-size="14.00" fill="#ffffff">Water</text>
</g>
<!-- Sulfur -->
<g id="node13" class="node">
<title>Sulfur</title>
<ellipse fill="none" stroke="#000000" cx="55.8996" cy="-801" rx="32.4942" ry="18"/>
<text text-anchor="middle" x="55.8996" y="-797.3" font-family="Times,serif" font-size="14.00" fill="#000000">Sulfur</text>
</g>
<!-- Water&#45;&gt;Sulfur -->
<g id="edge1" class="edge">
<title>Water&#45;&gt;Sulfur</title>
<path fill="none" stroke="#a0522d" d="M146.0014,-1217.1401C127.8953,-1133.5164 79.2282,-908.7446 62.026,-829.2952"/>
<polygon fill="#a0522d" stroke="#a0522d" points="65.3509,-828.1117 59.814,-819.0788 58.5095,-829.593 65.3509,-828.1117"/>
</g>
<!-- Water&#45;&gt;Petroleum gas -->
<g id="edge9" class="edge">
<title>Water&#45;&gt;Petroleum gas</title>
<path fill="none" stroke="#a0522d" d="M169.8251,-1221.1412C200.9868,-1169.8503 267.0437,-1061.1231 297.6742,-1010.7064"/>
<polygon fill="#a0522d" stroke="#a0522d" points="300.7638,-1012.3617 302.9649,-1001.9981 294.7813,-1008.7271 300.7638,-1012.3617"/>
</g>
<!-- Sulfuric acid -->
<g id="node16" class="node">
<title>Sulfuric acid</title>
<ellipse fill="none" stroke="#000000" cx="69.8996" cy="-618" rx="55.7903" ry="18"/>
<text text-anchor="middle" x="69.8996" y="-614.3" font-family="Times,serif" font-size="14.00" fill="#000000">Sulfuric acid</text>
</g>
<!-- Water&#45;&gt;Sulfuric acid -->
<g id="edge5" class="edge">
<title>Water&#45;&gt;Sulfuric acid</title>
<path fill="none" stroke="#a0522d" d="M149.471,-1216.4526C141.3583,-1140.4385 119.9289,-945.3632 96.8996,-783 90.0877,-734.9741 80.664,-679.3399 74.941,-646.4947"/>
<polygon fill="#a0522d" stroke="#a0522d" points="78.3236,-645.5198 73.1511,-636.2734 71.4286,-646.7272 78.3236,-645.5198"/>
</g>
<!-- Water&#45;&gt;Heavy oil -->
<g id="edge10" class="edge">
<title>Water&#45;&gt;Heavy oil</title>
<path fill="none" stroke="#a0522d" d="M157.2779,-1216.7707C164.3831,-1164.4687 178.3076,-1061.9688 185.054,-1012.3079"/>
<polygon fill="#a0522d" stroke="#a0522d" points="188.5395,-1012.6506 186.4176,-1002.2704 181.6032,-1011.7083 188.5395,-1012.6506"/>
</g>
<!-- Stone -->
<g id="node6" class="node">
<title>Stone</title>
<ellipse fill="#a0522d" stroke="#a0522d" cx="1595.8996" cy="-1249" rx="30.5947" ry="30.5947"/>
<polyline fill="none" stroke="#a0522d" points="1616.1036,-1271.9105 1575.6956,-1271.9105 "/>
<polyline fill="none" stroke="#a0522d" points="1616.1036,-1226.0895 1575.6956,-1226.0895 "/>
<text text-anchor="middle" x="1595.8996" y="-1245.3" font-family="Times,serif" font-size="14.00" fill="#ffffff">Stone</text>
</g>
<!-- Stone brick -->
<g id="node17" class="node">
<title>Stone brick</title>
<ellipse fill="none" stroke="#000000" cx="1633.8996" cy="-435" rx="51.1914" ry="18"/>
<text text-anchor="middle" x="1633.8996" y="-431.3" font-family="Times,serif" font-size="14.00" fill="#000000">Stone brick</text>
</g>
<!-- Stone&#45;&gt;Stone brick -->
<g id="edge6" class="edge">
<title>Stone&#45;&gt;Stone brick</title>
<path fill="none" stroke="#a0522d" d="M1597.9693,-1218.2054C1601.0644,-1171.482 1606.9559,-1079.8743 1610.8996,-1002 1621.3667,-795.3088 1630.1427,-546.0408 1632.9549,-463.247"/>
<polygon fill="#a0522d" stroke="#a0522d" points="1636.4573,-463.2335 1633.2973,-453.1209 1629.4613,-462.9969 1636.4573,-463.2335"/>
</g>
<!-- Rail -->
<g id="node22" class="node">
<title>Rail</title>
<ellipse fill="none" stroke="#000000" cx="1285.8996" cy="-618" rx="27" ry="18"/>
<text text-anchor="middle" x="1285.8996" y="-614.3" font-family="Times,serif" font-size="14.00" fill="#000000">Rail</text>
</g>
<!-- Stone&#45;&gt;Rail -->
<g id="edge17" class="edge">
<title>Stone&#45;&gt;Rail</title>
<path fill="none" stroke="#a0522d" d="M1600.3301,-1218.6381C1610.2021,-1139.8954 1626.6396,-925.3465 1537.8996,-783 1486.2257,-700.1107 1375.8029,-650.3391 1319.8701,-629.4848"/>
<polygon fill="#a0522d" stroke="#a0522d" points="1321.0031,-626.1726 1310.4091,-626.0402 1318.6083,-632.7502 1321.0031,-626.1726"/>
</g>
<!-- Automation science pack -->
<g id="node7" class="node">
<title>Automation science pack</title>
<polygon fill="#ff0000" stroke="#ff0000" points="952.8996,-87 736.8996,-87 736.8996,-51 952.8996,-51 952.8996,-87"/>
<text text-anchor="middle" x="844.8996" y="-65.3" font-family="Times,serif" font-size="14.00" fill="#000000">Automation science pack</text>
</g>
<!-- Logistics science pack -->
<g id="node8" class="node">
<title>Logistics science pack</title>
<polygon fill="#00ff00" stroke="#00ff00" points="1471.8996,-87 1255.8996,-87 1255.8996,-51 1471.8996,-51 1471.8996,-87"/>
<text text-anchor="middle" x="1363.8996" y="-65.3" font-family="Times,serif" font-size="14.00" fill="#000000">Logistics science pack</text>
</g>
<!-- Chemical science pack -->
<g id="node9" class="node">
<title>Chemical science pack</title>
<polygon fill="#0000ff" stroke="#0000ff" points="418.8996,-87 202.8996,-87 202.8996,-51 418.8996,-51 418.8996,-87"/>
<text text-anchor="middle" x="310.8996" y="-65.3" font-family="Times,serif" font-size="14.00" fill="#000000">Chemical science pack</text>
</g>
<!-- Military science pack -->
<g id="node10" class="node">
<title>Military science pack</title>
<polygon fill="#d3d3d3" stroke="#d3d3d3" points="1705.8996,-87 1489.8996,-87 1489.8996,-51 1705.8996,-51 1705.8996,-87"/>
<text text-anchor="middle" x="1597.8996" y="-65.3" font-family="Times,serif" font-size="14.00" fill="#000000">Military science pack</text>
</g>
<!-- Production science pack -->
<g id="node11" class="node">
<title>Production science pack</title>
<polygon fill="#9932cc" stroke="#9932cc" points="1237.8996,-87 1021.8996,-87 1021.8996,-51 1237.8996,-51 1237.8996,-87"/>
<text text-anchor="middle" x="1129.8996" y="-65.3" font-family="Times,serif" font-size="14.00" fill="#000000">Production science pack</text>
</g>
<!-- Utility science pack -->
<g id="node12" class="node">
<title>Utility science pack</title>
<polygon fill="#ffff00" stroke="#ffff00" points="652.8996,-87 436.8996,-87 436.8996,-51 652.8996,-51 652.8996,-87"/>
<text text-anchor="middle" x="544.8996" y="-65.3" font-family="Times,serif" font-size="14.00" fill="#000000">Utility science pack</text>
</g>
<!-- Sulfur&#45;&gt;Chemical science pack -->
<g id="edge68" class="edge">
<title>Sulfur&#45;&gt;Chemical science pack</title>
<path fill="none" stroke="#0000ff" d="M45.5023,-783.7534C25.8446,-748.943 -13.2429,-667.8184 4.8996,-600 62.2205,-385.7286 229.1,-168.3132 289.0962,-94.9611"/>
<polygon fill="#0000ff" stroke="#0000ff" points="291.8893,-97.0751 295.5442,-87.1306 286.4856,-92.6254 291.8893,-97.0751"/>
</g>
<!-- Sulfur&#45;&gt;Sulfuric acid -->
<g id="edge3" class="edge">
<title>Sulfur&#45;&gt;Sulfuric acid</title>
<path fill="none" stroke="#000000" d="M57.2931,-782.7842C59.7356,-750.8583 64.806,-684.5809 67.7173,-646.5263"/>
<polygon fill="#000000" stroke="#000000" points="71.2386,-646.38 68.5117,-636.1421 64.259,-645.846 71.2386,-646.38"/>
</g>
<!-- Petroleum gas&#45;&gt;Sulfur -->
<g id="edge2" class="edge">
<title>Petroleum gas&#45;&gt;Sulfur</title>
<path fill="none" stroke="#000000" d="M290.09,-967.1118C242.4486,-933.3197 135.5802,-857.5176 84.3477,-821.1783"/>
<polygon fill="#000000" stroke="#000000" points="86.2184,-818.2142 76.037,-815.2835 82.1686,-823.9237 86.2184,-818.2142"/>
</g>
<!-- Petroleum gas&#45;&gt;Plastic bar -->
<g id="edge16" class="edge">
<title>Petroleum gas&#45;&gt;Plastic bar</title>
<path fill="none" stroke="#a0522d" d="M314.2978,-965.7842C314.9956,-933.8583 316.4443,-867.5809 317.2761,-829.5263"/>
<polygon fill="#a0522d" stroke="#a0522d" points="320.7836,-829.2162 317.503,-819.1421 313.7853,-829.0632 320.7836,-829.2162"/>
</g>
<!-- Iron plate&#45;&gt;Sulfuric acid -->
<g id="edge4" class="edge">
<title>Iron plate&#45;&gt;Sulfuric acid</title>
<path fill="none" stroke="#000000" d="M1032.4831,-973.3942C948.0053,-948.5513 732.4381,-883.7765 555.8996,-819 389.3806,-757.8999 195.7266,-673.7866 112.008,-636.7707"/>
<polygon fill="#000000" stroke="#000000" points="113.3871,-633.5536 102.8263,-632.7048 110.5527,-639.9541 113.3871,-633.5536"/>
</g>
<!-- Iron plate&#45;&gt;Grenade -->
<g id="edge14" class="edge">
<title>Iron plate&#45;&gt;Grenade</title>
<path fill="none" stroke="#000000" d="M1099.4433,-970.6917C1174.526,-937.9771 1367.9918,-853.6813 1450.5938,-817.6904"/>
<polygon fill="#000000" stroke="#000000" points="1452.1003,-820.8519 1459.8698,-813.6487 1449.3041,-814.4345 1452.1003,-820.8519"/>
</g>
<!-- Iron stick -->
<g id="node23" class="node">
<title>Iron stick</title>
<ellipse fill="none" stroke="#000000" cx="1206.8996" cy="-801" rx="44.393" ry="18"/>
<text text-anchor="middle" x="1206.8996" y="-797.3" font-family="Times,serif" font-size="14.00" fill="#000000">Iron stick</text>
</g>
<!-- Iron plate&#45;&gt;Iron stick -->
<g id="edge21" class="edge">
<title>Iron plate&#45;&gt;Iron stick</title>
<path fill="none" stroke="#000000" d="M1082.1316,-966.4532C1106.6138,-933.9877 1159.0733,-864.4218 1187.5496,-826.6598"/>
<polygon fill="#000000" stroke="#000000" points="1190.6827,-828.3181 1193.9091,-818.2265 1185.0937,-824.1034 1190.6827,-828.3181"/>
</g>
<!-- Steel plate -->
<g id="node24" class="node">
<title>Steel plate</title>
<ellipse fill="none" stroke="#000000" cx="889.8996" cy="-801" rx="48.1917" ry="18"/>
<text text-anchor="middle" x="889.8996" y="-797.3" font-family="Times,serif" font-size="14.00" fill="#000000">Steel plate</text>
</g>
<!-- Iron plate&#45;&gt;Steel plate -->
<g id="edge24" class="edge">
<title>Iron plate&#45;&gt;Steel plate</title>
<path fill="none" stroke="#000000" d="M1052.3806,-967.1118C1020.6256,-934.6472 950.9443,-863.4088 914.0001,-825.6391"/>
<polygon fill="#000000" stroke="#000000" points="916.1336,-822.8148 906.6389,-818.1134 911.1294,-827.7096 916.1336,-822.8148"/>
</g>
<!-- Firearm magazine -->
<g id="node25" class="node">
<title>Firearm magazine</title>
<ellipse fill="none" stroke="#000000" cx="1068.8996" cy="-801" rx="75.2868" ry="18"/>
<text text-anchor="middle" x="1068.8996" y="-797.3" font-family="Times,serif" font-size="14.00" fill="#000000">Firearm magazine</text>
</g>
<!-- Iron plate&#45;&gt;Firearm magazine -->
<g id="edge20" class="edge">
<title>Iron plate&#45;&gt;Firearm magazine</title>
<path fill="none" stroke="#000000" d="M1068.8996,-965.7842C1068.8996,-933.8583 1068.8996,-867.5809 1068.8996,-829.5263"/>
<polygon fill="#000000" stroke="#000000" points="1072.3997,-829.1421 1068.8996,-819.1421 1065.3997,-829.1421 1072.3997,-829.1421"/>
</g>
<!-- Pipe -->
<g id="node26" class="node">
<title>Pipe</title>
<ellipse fill="none" stroke="#000000" cx="796.8996" cy="-801" rx="27" ry="18"/>
<text text-anchor="middle" x="796.8996" y="-797.3" font-family="Times,serif" font-size="14.00" fill="#000000">Pipe</text>
</g>
<!-- Iron plate&#45;&gt;Pipe -->
<g id="edge22" class="edge">
<title>Iron plate&#45;&gt;Pipe</title>
<path fill="none" stroke="#000000" d="M1045.709,-968.3975C995.6919,-934.7463 877.8764,-855.4807 824.2912,-819.4289"/>
<polygon fill="#000000" stroke="#000000" points="826.2126,-816.5032 815.9619,-813.825 822.3051,-822.3111 826.2126,-816.5032"/>
</g>
<!-- Iron gear -->
<g id="node27" class="node">
<title>Iron gear</title>
<ellipse fill="none" stroke="#000000" cx="1311.8996" cy="-801" rx="42.7926" ry="18"/>
<text text-anchor="middle" x="1311.8996" y="-797.3" font-family="Times,serif" font-size="14.00" fill="#000000">Iron gear</text>
</g>
<!-- Iron plate&#45;&gt;Iron gear -->
<g id="edge23" class="edge">
<title>Iron plate&#45;&gt;Iron gear</title>
<path fill="none" stroke="#000000" d="M1090.0392,-968.0801C1133.5919,-935.2811 1233.3787,-860.1331 1282.9107,-822.8312"/>
<polygon fill="#000000" stroke="#000000" points="1285.0993,-825.5645 1290.9819,-816.7528 1280.8882,-819.9728 1285.0993,-825.5645"/>
</g>
<!-- Transport belt -->
<g id="node29" class="node">
<title>Transport belt</title>
<ellipse fill="none" stroke="#000000" cx="1466.8996" cy="-618" rx="60.3893" ry="18"/>
<text text-anchor="middle" x="1466.8996" y="-614.3" font-family="Times,serif" font-size="14.00" fill="#000000">Transport belt</text>
</g>
<!-- Iron plate&#45;&gt;Transport belt -->
<g id="edge26" class="edge">
<title>Iron plate&#45;&gt;Transport belt</title>
<path fill="none" stroke="#000000" d="M1107.677,-974.7679C1175.7963,-956.5953 1317.2572,-909.8203 1396.8996,-819 1441.1633,-768.5238 1457.8563,-688.4541 1463.818,-646.2201"/>
<polygon fill="#000000" stroke="#000000" points="1467.3157,-646.4648 1465.142,-636.0954 1460.3748,-645.5571 1467.3157,-646.4648"/>
</g>
<!-- Electronic circuit -->
<g id="node30" class="node">
<title>Electronic circuit</title>
<ellipse fill="none" stroke="#000000" cx="709.8996" cy="-618" rx="71.4873" ry="18"/>
<text text-anchor="middle" x="709.8996" y="-614.3" font-family="Times,serif" font-size="14.00" fill="#000000">Electronic circuit</text>
</g>
<!-- Iron plate&#45;&gt;Electronic circuit -->
<g id="edge28" class="edge">
<title>Iron plate&#45;&gt;Electronic circuit</title>
<path fill="none" stroke="#000000" d="M1030.6452,-974.4215C965.0398,-955.958 831.3452,-909.0711 760.8996,-819 720.7052,-767.6078 711.8609,-688.2495 710.1234,-646.2744"/>
<polygon fill="#000000" stroke="#000000" points="713.6196,-646.0939 709.8153,-636.2057 706.6229,-646.3081 713.6196,-646.0939"/>
</g>
<!-- Inserter -->
<g id="node31" class="node">
<title>Inserter</title>
<ellipse fill="none" stroke="#000000" cx="1345.8996" cy="-435" rx="37.8943" ry="18"/>
<text text-anchor="middle" x="1345.8996" y="-431.3" font-family="Times,serif" font-size="14.00" fill="#000000">Inserter</text>
</g>
<!-- Iron plate&#45;&gt;Inserter -->
<g id="edge30" class="edge">
<title>Iron plate&#45;&gt;Inserter</title>
<path fill="none" stroke="#000000" d="M1108.4712,-975.4025C1175.1546,-958.5414 1308.0887,-914.1639 1363.8996,-819 1432.4638,-702.0902 1380.9224,-529.0228 1356.6809,-462.4605"/>
<polygon fill="#000000" stroke="#000000" points="1359.9546,-461.2223 1353.1833,-453.0737 1353.3952,-463.6664 1359.9546,-461.2223"/>
</g>
<!-- Battery -->
<g id="node37" class="node">
<title>Battery</title>
<ellipse fill="none" stroke="#000000" cx="446.8996" cy="-435" rx="36.2938" ry="18"/>
<text text-anchor="middle" x="446.8996" y="-431.3" font-family="Times,serif" font-size="14.00" fill="#000000">Battery</text>
</g>
<!-- Iron plate&#45;&gt;Battery -->
<g id="edge47" class="edge">
<title>Iron plate&#45;&gt;Battery</title>
<path fill="none" stroke="#000000" d="M1024.34,-981.8402C930.0606,-974.8245 709.202,-945.0655 588.8996,-819 518.8923,-745.639 560.9022,-694.7981 524.8996,-600 505.8351,-549.8015 477.8298,-493.7571 461.0757,-461.6049"/>
<polygon fill="#000000" stroke="#000000" points="464.0054,-459.6554 456.2597,-452.4266 457.8068,-462.9079 464.0054,-459.6554"/>
</g>
<!-- Sulfuric acid&#45;&gt;Battery -->
<g id="edge48" class="edge">
<title>Sulfuric acid&#45;&gt;Battery</title>
<path fill="none" stroke="#000000" d="M101.0718,-602.8687C170.6317,-569.1035 338.1543,-487.7862 411.5014,-452.1827"/>
<polygon fill="#000000" stroke="#000000" points="413.3261,-455.1875 420.7939,-447.672 410.2693,-448.8902 413.3261,-455.1875"/>
</g>
<!-- Processing unit -->
<g id="node39" class="node">
<title>Processing unit</title>
<ellipse fill="none" stroke="#000000" cx="526.8996" cy="-252" rx="64.9885" ry="18"/>
<text text-anchor="middle" x="526.8996" y="-248.3" font-family="Times,serif" font-size="14.00" fill="#000000">Processing unit</text>
</g>
<!-- Sulfuric acid&#45;&gt;Processing unit -->
<g id="edge53" class="edge">
<title>Sulfuric acid&#45;&gt;Processing unit</title>
<path fill="none" stroke="#000000" d="M91.0251,-601.0811C164.9254,-541.8962 411.9775,-344.0382 497.4793,-275.562"/>
<polygon fill="#000000" stroke="#000000" points="499.8536,-278.1446 505.4711,-269.1616 495.4778,-272.6808 499.8536,-278.1446"/>
</g>
<!-- Stone brick&#45;&gt;Military science pack -->
<g id="edge71" class="edge">
<title>Stone brick&#45;&gt;Military science pack</title>
<path fill="none" stroke="#d3d3d3" d="M1632.1143,-416.85C1626.2846,-357.5806 1607.7749,-169.3985 1600.6927,-97.3965"/>
<polygon fill="#d3d3d3" stroke="#d3d3d3" points="1604.1578,-96.8689 1599.6956,-87.2595 1597.1914,-97.5542 1604.1578,-96.8689"/>
</g>
<!-- Electric furnace -->
<g id="node35" class="node">
<title>Electric furnace</title>
<ellipse fill="none" stroke="#000000" cx="1134.8996" cy="-252" rx="66.8882" ry="18"/>
<text text-anchor="middle" x="1134.8996" y="-248.3" font-family="Times,serif" font-size="14.00" fill="#000000">Electric furnace</text>
</g>
<!-- Stone brick&#45;&gt;Electric furnace -->
<g id="edge42" class="edge">
<title>Stone brick&#45;&gt;Electric furnace</title>
<path fill="none" stroke="#000000" d="M1598.4128,-421.9858C1510.9268,-389.9018 1284.7425,-306.9524 1184.2607,-270.1024"/>
<polygon fill="#000000" stroke="#000000" points="1185.2442,-266.7352 1174.6505,-266.578 1182.834,-273.3072 1185.2442,-266.7352"/>
</g>
<!-- Lubricant -->
<g id="node40" class="node">
<title>Lubricant</title>
<ellipse fill="none" stroke="#000000" cx="188.8996" cy="-618" rx="44.6926" ry="18"/>
<text text-anchor="middle" x="188.8996" y="-614.3" font-family="Times,serif" font-size="14.00" fill="#000000">Lubricant</text>
</g>
<!-- Heavy oil&#45;&gt;Lubricant -->
<g id="edge56" class="edge">
<title>Heavy oil&#45;&gt;Lubricant</title>
<path fill="none" stroke="#000000" d="M188.8996,-965.85C188.8996,-906.5806 188.8996,-718.3985 188.8996,-646.3965"/>
<polygon fill="#000000" stroke="#000000" points="192.3997,-646.2595 188.8996,-636.2595 185.3997,-646.2596 192.3997,-646.2595"/>
</g>
<!-- Copper plate&#45;&gt;Automation science pack -->
<g id="edge64" class="edge">
<title>Copper plate&#45;&gt;Automation science pack</title>
<path fill="none" stroke="#ff0000" d="M531.219,-965.9496C528.6986,-910.2052 517.6891,-736.3242 474.8996,-600 448.6759,-516.4532 390.0364,-503.7584 401.8996,-417 413.3384,-333.3457 397.0934,-297.3605 452.8996,-234 524.166,-153.0864 641.6755,-110.795 729.4846,-89.3914"/>
<polygon fill="#ff0000" stroke="#ff0000" points="730.3129,-92.7921 739.2305,-87.0714 728.6918,-85.9824 730.3129,-92.7921"/>
</g>
<!-- Copper cable -->
<g id="node28" class="node">
<title>Copper cable</title>
<ellipse fill="none" stroke="#000000" cx="655.8996" cy="-801" rx="57.6901" ry="18"/>
<text text-anchor="middle" x="655.8996" y="-797.3" font-family="Times,serif" font-size="14.00" fill="#000000">Copper cable</text>
</g>
<!-- Copper plate&#45;&gt;Copper cable -->
<g id="edge25" class="edge">
<title>Copper plate&#45;&gt;Copper cable</title>
<path fill="none" stroke="#000000" d="M544.015,-966.12C566.0179,-933.648 612.6272,-864.8617 638.197,-827.1255"/>
<polygon fill="#000000" stroke="#000000" points="641.2055,-828.925 643.9176,-818.6832 635.4106,-824.9984 641.2055,-828.925"/>
</g>
<!-- Piercing rounds magazine -->
<g id="node34" class="node">
<title>Piercing rounds magazine</title>
<ellipse fill="none" stroke="#000000" cx="1099.8996" cy="-618" rx="102.8821" ry="18"/>
<text text-anchor="middle" x="1099.8996" y="-614.3" font-family="Times,serif" font-size="14.00" fill="#000000">Piercing rounds magazine</text>
</g>
<!-- Copper plate&#45;&gt;Piercing rounds magazine -->
<g id="edge39" class="edge">
<title>Copper plate&#45;&gt;Piercing rounds magazine</title>
<path fill="none" stroke="#000000" d="M578.9608,-974.0662C660.5064,-955.0598 830.488,-907.3678 946.8996,-819 980.4416,-793.5383 1049.7629,-693.1608 1082.3048,-644.5978"/>
<polygon fill="#000000" stroke="#000000" points="1085.2945,-646.423 1087.9361,-636.1627 1079.4727,-642.5362 1085.2945,-646.423"/>
</g>
<!-- Copper plate&#45;&gt;Battery -->
<g id="edge49" class="edge">
<title>Copper plate&#45;&gt;Battery</title>
<path fill="none" stroke="#000000" d="M532.624,-965.7544C534.4363,-910.1569 537.1102,-738.2223 507.8996,-600 497.2553,-549.6322 474.1817,-494.0573 459.6618,-461.9695"/>
<polygon fill="#000000" stroke="#000000" points="462.8047,-460.4266 455.4534,-452.7971 456.4424,-463.3457 462.8047,-460.4266"/>
</g>
<!-- Low density structure -->
<g id="node38" class="node">
<title>Low density structure</title>
<ellipse fill="none" stroke="#000000" cx="377.8996" cy="-618" rx="87.9851" ry="18"/>
<text text-anchor="middle" x="377.8996" y="-614.3" font-family="Times,serif" font-size="14.00" fill="#000000">Low density structure</text>
</g>
<!-- Copper plate&#45;&gt;Low density structure -->
<g id="edge50" class="edge">
<title>Copper plate&#45;&gt;Low density structure</title>
<path fill="none" stroke="#000000" d="M524.3676,-966.0993C499.452,-906.8843 419.5779,-717.0537 389.5016,-645.5735"/>
<polygon fill="#000000" stroke="#000000" points="392.7035,-644.1586 385.5991,-636.2987 386.2514,-646.8735 392.7035,-644.1586"/>
</g>
<!-- Grenade&#45;&gt;Military science pack -->
<g id="edge72" class="edge">
<title>Grenade&#45;&gt;Military science pack</title>
<path fill="none" stroke="#d3d3d3" d="M1495.1341,-782.9318C1505.2713,-752.8359 1525.2623,-690.3699 1535.8996,-636 1575.8406,-431.8519 1591.9798,-180.9534 1596.4855,-97.4926"/>
<polygon fill="#d3d3d3" stroke="#d3d3d3" points="1599.9923,-97.4532 1597.0231,-87.283 1593.002,-97.085 1599.9923,-97.4532"/>
</g>
<!-- Advanced circuit -->
<g id="node33" class="node">
<title>Advanced circuit</title>
<ellipse fill="none" stroke="#000000" cx="572.8996" cy="-435" rx="71.4873" ry="18"/>
<text text-anchor="middle" x="572.8996" y="-431.3" font-family="Times,serif" font-size="14.00" fill="#000000">Advanced circuit</text>
</g>
<!-- Plastic bar&#45;&gt;Advanced circuit -->
<g id="edge36" class="edge">
<title>Plastic bar&#45;&gt;Advanced circuit</title>
<path fill="none" stroke="#000000" d="M307.1376,-783.2324C286.3643,-746.417 245.7592,-660.2193 280.8996,-600 330.1295,-515.6357 440.2213,-470.9866 510.274,-450.2286"/>
<polygon fill="#000000" stroke="#000000" points="511.6673,-453.4696 520.3071,-447.3374 509.729,-446.7433 511.6673,-453.4696"/>
</g>
<!-- Plastic bar&#45;&gt;Low density structure -->
<g id="edge51" class="edge">
<title>Plastic bar&#45;&gt;Low density structure</title>
<path fill="none" stroke="#000000" d="M323.7619,-783.12C334.2198,-751.2234 356.1657,-684.2883 368.6666,-646.1607"/>
<polygon fill="#000000" stroke="#000000" points="372.1349,-646.8164 371.9246,-636.2237 365.4832,-644.6355 372.1349,-646.8164"/>
</g>
<!-- Rail&#45;&gt;Production science pack -->
<g id="edge74" class="edge">
<title>Rail&#45;&gt;Production science pack</title>
<path fill="none" stroke="#9932cc" d="M1284.0849,-599.9637C1278.1221,-544.2598 1256.8289,-370.483 1210.8996,-234 1193.762,-183.0742 1164.1269,-127.7588 1145.8482,-95.8591"/>
<polygon fill="#9932cc" stroke="#9932cc" points="1148.8299,-94.0238 1140.7901,-87.1236 1142.7721,-97.5314 1148.8299,-94.0238"/>
</g>
<!-- Iron stick&#45;&gt;Rail -->
<g id="edge18" class="edge">
<title>Iron stick&#45;&gt;Rail</title>
<path fill="none" stroke="#000000" d="M1214.6183,-783.12C1228.5536,-750.8394 1257.9813,-682.6716 1274.3318,-644.7963"/>
<polygon fill="#000000" stroke="#000000" points="1277.6314,-645.9837 1278.3815,-635.4154 1271.2046,-643.2093 1277.6314,-645.9837"/>
</g>
<!-- Steel plate&#45;&gt;Rail -->
<g id="edge19" class="edge">
<title>Steel plate&#45;&gt;Rail</title>
<path fill="none" stroke="#000000" d="M920.3155,-786.9442C993.6332,-753.0625 1179.5599,-667.1418 1254.1865,-632.6553"/>
<polygon fill="#000000" stroke="#000000" points="1255.9355,-635.7028 1263.5448,-628.3306 1252.999,-629.3484 1255.9355,-635.7028"/>
</g>
<!-- Engine unit -->
<g id="node32" class="node">
<title>Engine unit</title>
<ellipse fill="none" stroke="#000000" cx="888.8996" cy="-618" rx="51.9908" ry="18"/>
<text text-anchor="middle" x="888.8996" y="-614.3" font-family="Times,serif" font-size="14.00" fill="#000000">Engine unit</text>
</g>
<!-- Steel plate&#45;&gt;Engine unit -->
<g id="edge33" class="edge">
<title>Steel plate&#45;&gt;Engine unit</title>
<path fill="none" stroke="#000000" d="M889.8001,-782.7842C889.6256,-750.8583 889.2634,-684.5809 889.0555,-646.5263"/>
<polygon fill="#000000" stroke="#000000" points="892.5534,-646.1228 888.9987,-636.1421 885.5535,-646.1611 892.5534,-646.1228"/>
</g>
<!-- Steel plate&#45;&gt;Piercing rounds magazine -->
<g id="edge40" class="edge">
<title>Steel plate&#45;&gt;Piercing rounds magazine</title>
<path fill="none" stroke="#000000" d="M908.9061,-784.4372C946.0698,-752.0517 1028.5133,-680.208 1071.9229,-642.3797"/>
<polygon fill="#000000" stroke="#000000" points="1074.3147,-644.9379 1079.5544,-635.7294 1069.7159,-639.6605 1074.3147,-644.9379"/>
</g>
<!-- Steel plate&#45;&gt;Electric furnace -->
<g id="edge43" class="edge">
<title>Steel plate&#45;&gt;Electric furnace</title>
<path fill="none" stroke="#000000" d="M897.9119,-783.0459C933.7509,-702.7373 1079.4834,-376.1775 1122.7393,-279.2491"/>
<polygon fill="#000000" stroke="#000000" points="1125.9456,-280.6526 1126.8247,-270.0943 1119.5532,-277.7999 1125.9456,-280.6526"/>
</g>
<!-- Steel plate&#45;&gt;Low density structure -->
<g id="edge52" class="edge">
<title>Steel plate&#45;&gt;Low density structure</title>
<path fill="none" stroke="#000000" d="M855.1103,-788.5655C767.2608,-757.1662 536.0202,-674.5158 431.0663,-637.0029"/>
<polygon fill="#000000" stroke="#000000" points="432.2088,-633.6945 421.6142,-633.6246 429.8528,-640.2861 432.2088,-633.6945"/>
</g>
<!-- Flying robot frame -->
<g id="node42" class="node">
<title>Flying robot frame</title>
<ellipse fill="none" stroke="#000000" cx="871.8996" cy="-252" rx="77.9862" ry="18"/>
<text text-anchor="middle" x="871.8996" y="-248.3" font-family="Times,serif" font-size="14.00" fill="#000000">Flying robot frame</text>
</g>
<!-- Steel plate&#45;&gt;Flying robot frame -->
<g id="edge60" class="edge">
<title>Steel plate&#45;&gt;Flying robot frame</title>
<path fill="none" stroke="#000000" d="M877.0158,-783.6524C852.6797,-748.6605 804.4122,-667.2256 827.8996,-600 859.7399,-508.8666 964.8598,-511.4495 944.8996,-417 933.9941,-365.3964 905.8539,-310.2948 887.8684,-278.6209"/>
<polygon fill="#000000" stroke="#000000" points="890.8953,-276.8635 882.8654,-269.9518 884.8324,-280.3625 890.8953,-276.8635"/>
</g>
<!-- Firearm magazine&#45;&gt;Piercing rounds magazine -->
<g id="edge41" class="edge">
<title>Firearm magazine&#45;&gt;Piercing rounds magazine</title>
<path fill="none" stroke="#000000" d="M1071.9853,-782.7842C1077.4168,-750.7213 1088.7173,-684.0114 1095.15,-646.0379"/>
<polygon fill="#000000" stroke="#000000" points="1098.6069,-646.5862 1096.8263,-636.1421 1091.7052,-645.417 1098.6069,-646.5862"/>
</g>
<!-- Pipe&#45;&gt;Engine unit -->
<g id="edge34" class="edge">
<title>Pipe&#45;&gt;Engine unit</title>
<path fill="none" stroke="#000000" d="M805.5547,-783.7838C821.6368,-751.7944 856.2301,-682.9838 875.4071,-644.8384"/>
<polygon fill="#000000" stroke="#000000" points="878.5651,-646.3487 879.9298,-635.8421 872.311,-643.2045 878.5651,-646.3487"/>
</g>
<!-- Iron gear&#45;&gt;Automation science pack -->
<g id="edge65" class="edge">
<title>Iron gear&#45;&gt;Automation science pack</title>
<path fill="none" stroke="#ff0000" d="M1303.7705,-783.2255C1287.417,-747.8078 1248.9321,-666.1475 1211.8996,-600 1118.1641,-432.5699 1095.6063,-389.2944 982.8996,-234 945.4903,-182.4552 896.6778,-126.3581 868.2587,-94.6509"/>
<polygon fill="#ff0000" stroke="#ff0000" points="870.7836,-92.2243 861.4923,-87.1328 865.5805,-96.9071 870.7836,-92.2243"/>
</g>
<!-- Iron gear&#45;&gt;Transport belt -->
<g id="edge27" class="edge">
<title>Iron gear&#45;&gt;Transport belt</title>
<path fill="none" stroke="#000000" d="M1326.4816,-783.7838C1353.8761,-751.4406 1413.1517,-681.4572 1445.2301,-643.584"/>
<polygon fill="#000000" stroke="#000000" points="1448.2237,-645.4649 1452.0161,-635.5721 1442.8822,-640.9407 1448.2237,-645.4649"/>
</g>
<!-- Iron gear&#45;&gt;Inserter -->
<g id="edge31" class="edge">
<title>Iron gear&#45;&gt;Inserter</title>
<path fill="none" stroke="#000000" d="M1313.5857,-782.85C1319.0916,-723.5806 1336.573,-535.3985 1343.2617,-463.3965"/>
<polygon fill="#000000" stroke="#000000" points="1346.7633,-463.5404 1344.2034,-453.2595 1339.7933,-462.8929 1346.7633,-463.5404"/>
</g>
<!-- Iron gear&#45;&gt;Engine unit -->
<g id="edge35" class="edge">
<title>Iron gear&#45;&gt;Engine unit</title>
<path fill="none" stroke="#000000" d="M1281.8176,-787.9858C1207.6668,-755.9064 1015.976,-672.9763 930.7796,-636.1183"/>
<polygon fill="#000000" stroke="#000000" points="931.9843,-632.826 921.4166,-632.0677 929.2048,-639.2506 931.9843,-632.826"/>
</g>
<!-- Copper cable&#45;&gt;Electronic circuit -->
<g id="edge29" class="edge">
<title>Copper cable&#45;&gt;Electronic circuit</title>
<path fill="none" stroke="#000000" d="M661.2747,-782.7842C670.7359,-750.7213 690.4208,-684.0114 701.6261,-646.0379"/>
<polygon fill="#000000" stroke="#000000" points="705.0728,-646.7238 704.5462,-636.1421 698.359,-644.7427 705.0728,-646.7238"/>
</g>
<!-- Copper cable&#45;&gt;Advanced circuit -->
<g id="edge37" class="edge">
<title>Copper cable&#45;&gt;Advanced circuit</title>
<path fill="none" stroke="#000000" d="M651.7836,-782.85C638.3427,-723.5806 595.6676,-535.3985 579.3392,-463.3965"/>
<polygon fill="#000000" stroke="#000000" points="582.6654,-462.2378 577.0404,-453.2595 575.8388,-463.786 582.6654,-462.2378"/>
</g>
<!-- Transport belt&#45;&gt;Logistics science pack -->
<g id="edge66" class="edge">
<title>Transport belt&#45;&gt;Logistics science pack</title>
<path fill="none" stroke="#00ff00" d="M1463.4726,-599.7338C1448.3491,-519.1241 1387.5199,-194.8984 1369.1674,-97.078"/>
<polygon fill="#00ff00" stroke="#00ff00" points="1372.5712,-96.2393 1367.2872,-87.0562 1365.6913,-97.5302 1372.5712,-96.2393"/>
</g>
<!-- Electronic circuit&#45;&gt;Inserter -->
<g id="edge32" class="edge">
<title>Electronic circuit&#45;&gt;Inserter</title>
<path fill="none" stroke="#000000" d="M757.1834,-604.3948C876.7862,-569.9807 1189.9244,-479.8797 1303.7585,-447.1255"/>
<polygon fill="#000000" stroke="#000000" points="1304.8677,-450.4484 1313.5099,-444.3197 1302.932,-443.7214 1304.8677,-450.4484"/>
</g>
<!-- Electronic circuit&#45;&gt;Advanced circuit -->
<g id="edge38" class="edge">
<title>Electronic circuit&#45;&gt;Advanced circuit</title>
<path fill="none" stroke="#000000" d="M696.514,-600.12C672.2667,-567.7312 620.9725,-499.2142 592.6758,-461.4164"/>
<polygon fill="#000000" stroke="#000000" points="595.1344,-458.8603 586.3395,-452.9526 589.5307,-463.0554 595.1344,-458.8603"/>
</g>
<!-- Productivity module -->
<g id="node36" class="node">
<title>Productivity module</title>
<ellipse fill="none" stroke="#000000" cx="692.8996" cy="-252" rx="83.3857" ry="18"/>
<text text-anchor="middle" x="692.8996" y="-248.3" font-family="Times,serif" font-size="14.00" fill="#000000">Productivity module</text>
</g>
<!-- Electronic circuit&#45;&gt;Productivity module -->
<g id="edge45" class="edge">
<title>Electronic circuit&#45;&gt;Productivity module</title>
<path fill="none" stroke="#000000" d="M709.0566,-599.85C706.3036,-540.5806 697.5629,-352.3985 694.2186,-280.3965"/>
<polygon fill="#000000" stroke="#000000" points="697.708,-280.0863 693.7477,-270.2595 690.7156,-280.4112 697.708,-280.0863"/>
</g>
<!-- Electronic circuit&#45;&gt;Processing unit -->
<g id="edge54" class="edge">
<title>Electronic circuit&#45;&gt;Processing unit</title>
<path fill="none" stroke="#000000" d="M707.1273,-599.9742C701.0644,-563.763 684.5691,-480.2439 652.8996,-417 625.641,-362.5646 579.5016,-308.1328 551.2624,-277.3968"/>
<polygon fill="#000000" stroke="#000000" points="553.5187,-274.6833 544.147,-269.7415 548.3915,-279.449 553.5187,-274.6833"/>
</g>
<!-- Electric engine unit -->
<g id="node41" class="node">
<title>Electric engine unit</title>
<ellipse fill="none" stroke="#000000" cx="855.8996" cy="-435" rx="79.8859" ry="18"/>
<text text-anchor="middle" x="855.8996" y="-431.3" font-family="Times,serif" font-size="14.00" fill="#000000">Electric engine unit</text>
</g>
<!-- Electronic circuit&#45;&gt;Electric engine unit -->
<g id="edge57" class="edge">
<title>Electronic circuit&#45;&gt;Electric engine unit</title>
<path fill="none" stroke="#000000" d="M724.1645,-600.12C750.1138,-567.5946 805.1304,-498.6353 835.2046,-460.9396"/>
<polygon fill="#000000" stroke="#000000" points="838.0762,-462.9524 841.5768,-452.9526 832.6042,-458.5868 838.0762,-462.9524"/>
</g>
<!-- Electronic circuit&#45;&gt;Flying robot frame -->
<g id="edge61" class="edge">
<title>Electronic circuit&#45;&gt;Flying robot frame</title>
<path fill="none" stroke="#000000" d="M713.1902,-599.9183C720.1278,-563.9553 738.0342,-481.3732 766.8996,-417 790.3921,-364.609 828.6632,-309.4376 851.9383,-278.0187"/>
<polygon fill="#000000" stroke="#000000" points="854.8924,-279.9127 858.0807,-269.8089 849.2875,-275.7192 854.8924,-279.9127"/>
</g>
<!-- Inserter&#45;&gt;Logistics science pack -->
<g id="edge67" class="edge">
<title>Inserter&#45;&gt;Logistics science pack</title>
<path fill="none" stroke="#00ff00" d="M1346.7922,-416.85C1349.7071,-357.5806 1358.962,-169.3985 1362.503,-97.3965"/>
<polygon fill="#00ff00" stroke="#00ff00" points="1366.0061,-97.4194 1363.0016,-87.2595 1359.0145,-97.0755 1366.0061,-97.4194"/>
</g>
<!-- Engine unit&#45;&gt;Chemical science pack -->
<g id="edge69" class="edge">
<title>Engine unit&#45;&gt;Chemical science pack</title>
<path fill="none" stroke="#0000ff" d="M900.6395,-600.4202C938.3668,-541.539 1048.9394,-348.5425 958.8996,-234 925.2724,-191.2218 593.3398,-122.603 418.0748,-88.9375"/>
<polygon fill="#0000ff" stroke="#0000ff" points="418.5281,-85.4608 408.0482,-87.0169 417.2111,-92.3358 418.5281,-85.4608"/>
</g>
<!-- Engine unit&#45;&gt;Electric engine unit -->
<g id="edge58" class="edge">
<title>Engine unit&#45;&gt;Electric engine unit</title>
<path fill="none" stroke="#000000" d="M885.6148,-599.7842C879.8329,-567.7213 867.8033,-501.0114 860.9556,-463.0379"/>
<polygon fill="#000000" stroke="#000000" points="864.3903,-462.3622 859.1711,-453.1421 857.5014,-463.6045 864.3903,-462.3622"/>
</g>
<!-- Advanced circuit&#45;&gt;Chemical science pack -->
<g id="edge70" class="edge">
<title>Advanced circuit&#45;&gt;Chemical science pack</title>
<path fill="none" stroke="#0000ff" d="M559.8562,-417.234C537.7318,-387.0614 491.4889,-323.8341 452.8996,-270 408.3084,-207.793 356.5912,-134.2234 329.5556,-95.654"/>
<polygon fill="#0000ff" stroke="#0000ff" points="332.1504,-93.2579 323.5457,-87.0765 326.4176,-97.2747 332.1504,-93.2579"/>
</g>
<!-- Advanced circuit&#45;&gt;Electric furnace -->
<g id="edge44" class="edge">
<title>Advanced circuit&#45;&gt;Electric furnace</title>
<path fill="none" stroke="#000000" d="M616.9988,-420.6403C719.3552,-387.3107 972.6798,-304.8225 1082.6076,-269.0275"/>
<polygon fill="#000000" stroke="#000000" points="1083.7359,-272.341 1092.1608,-265.9167 1081.5685,-265.685 1083.7359,-272.341"/>
</g>
<!-- Advanced circuit&#45;&gt;Productivity module -->
<g id="edge46" class="edge">
<title>Advanced circuit&#45;&gt;Productivity module</title>
<path fill="none" stroke="#000000" d="M584.6242,-417.12C605.8627,-384.7312 650.7919,-316.2142 675.5773,-278.4164"/>
<polygon fill="#000000" stroke="#000000" points="678.5707,-280.2343 681.1274,-269.9526 672.7169,-276.3958 678.5707,-280.2343"/>
</g>
<!-- Advanced circuit&#45;&gt;Processing unit -->
<g id="edge55" class="edge">
<title>Advanced circuit&#45;&gt;Processing unit</title>
<path fill="none" stroke="#000000" d="M568.3208,-416.7842C560.2612,-384.7213 543.4926,-318.0114 533.9474,-280.0379"/>
<polygon fill="#000000" stroke="#000000" points="537.2922,-278.9871 531.4599,-270.1421 530.5034,-280.6937 537.2922,-278.9871"/>
</g>
<!-- Piercing rounds magazine&#45;&gt;Military science pack -->
<g id="edge73" class="edge">
<title>Piercing rounds magazine&#45;&gt;Military science pack</title>
<path fill="none" stroke="#d3d3d3" d="M1116.1858,-600.0459C1189.4755,-519.2506 1488.8565,-189.2102 1574.7574,-94.5121"/>
<polygon fill="#d3d3d3" stroke="#d3d3d3" points="1577.3598,-96.8526 1581.4862,-87.0943 1572.1751,-92.1495 1577.3598,-96.8526"/>
</g>
<!-- Electric furnace&#45;&gt;Production science pack -->
<g id="edge75" class="edge">
<title>Electric furnace&#45;&gt;Production science pack</title>
<path fill="none" stroke="#9932cc" d="M1134.4019,-233.7842C1133.5296,-201.8583 1131.7187,-135.5809 1130.679,-97.5263"/>
<polygon fill="#9932cc" stroke="#9932cc" points="1134.1672,-97.0428 1130.3953,-87.1421 1127.1698,-97.234 1134.1672,-97.0428"/>
</g>
<!-- Productivity module&#45;&gt;Production science pack -->
<g id="edge76" class="edge">
<title>Productivity module&#45;&gt;Production science pack</title>
<path fill="none" stroke="#9932cc" d="M731.2974,-235.9204C809.6685,-203.1014 988.143,-128.3626 1077.25,-91.0478"/>
<polygon fill="#9932cc" stroke="#9932cc" points="1078.7533,-94.2128 1086.6253,-87.1217 1076.0494,-87.7561 1078.7533,-94.2128"/>
</g>
<!-- Battery&#45;&gt;Flying robot frame -->
<g id="edge62" class="edge">
<title>Battery&#45;&gt;Flying robot frame</title>
<path fill="none" stroke="#000000" d="M474.4576,-423.1339C545.8022,-392.4137 737.1388,-310.0264 825.7231,-271.8831"/>
<polygon fill="#000000" stroke="#000000" points="827.1858,-275.064 834.9864,-267.8944 824.4174,-268.6346 827.1858,-275.064"/>
</g>
<!-- Low density structure&#45;&gt;Utility science pack -->
<g id="edge77" class="edge">
<title>Low density structure&#45;&gt;Utility science pack</title>
<path fill="none" stroke="#ffff00" d="M372.3288,-599.7688C355.9567,-542.7765 312.5675,-364.0275 368.8996,-234 396.4705,-170.36 462.0127,-120.0132 504.8675,-92.3898"/>
<polygon fill="#ffff00" stroke="#ffff00" points="506.7995,-95.3092 513.3819,-87.0072 503.059,-89.3923 506.7995,-95.3092"/>
</g>
<!-- Processing unit&#45;&gt;Utility science pack -->
<g id="edge78" class="edge">
<title>Processing unit&#45;&gt;Utility science pack</title>
<path fill="none" stroke="#ffff00" d="M528.6913,-233.7842C531.8316,-201.8583 538.3507,-135.5809 542.0937,-97.5263"/>
<polygon fill="#ffff00" stroke="#ffff00" points="545.6193,-97.4367 543.1151,-87.1421 538.653,-96.7514 545.6193,-97.4367"/>
</g>
<!-- Lubricant&#45;&gt;Electric engine unit -->
<g id="edge59" class="edge">
<title>Lubricant&#45;&gt;Electric engine unit</title>
<path fill="none" stroke="#000000" d="M226.1896,-607.769C336.0602,-577.6246 659.3165,-488.9351 794.9248,-451.7292"/>
<polygon fill="#000000" stroke="#000000" points="796.0292,-455.0556 804.7468,-449.0344 794.1771,-448.3051 796.0292,-455.0556"/>
</g>
<!-- Electric engine unit&#45;&gt;Flying robot frame -->
<g id="edge63" class="edge">
<title>Electric engine unit&#45;&gt;Flying robot frame</title>
<path fill="none" stroke="#000000" d="M857.4922,-416.7842C860.2836,-384.8583 866.0783,-318.5809 869.4055,-280.5263"/>
<polygon fill="#000000" stroke="#000000" points="872.929,-280.409 870.3134,-270.1421 865.9556,-279.7992 872.929,-280.409"/>
</g>
<!-- Flying robot frame&#45;&gt;Utility science pack -->
<g id="edge79" class="edge">
<title>Flying robot frame&#45;&gt;Utility science pack</title>
<path fill="none" stroke="#ffff00" d="M842.0137,-235.2748C783.4376,-202.4938 653.4268,-129.7354 586.4955,-92.2784"/>
<polygon fill="#ffff00" stroke="#ffff00" points="587.9195,-89.0646 577.4838,-87.2352 584.501,-95.1731 587.9195,-89.0646"/>
</g>
</g>
</svg>
