<?xml version="1.0" encoding="UTF-8" standalone="no"?>
<!DOCTYPE svg PUBLIC "-//W3C//DTD SVG 1.1//EN"
 "http://www.w3.org/Graphics/SVG/1.1/DTD/svg11.dtd">
<!-- Generated by graphviz version 2.40.1 (20161225.0304)
 -->
<!-- Title: science_packs Pages: 1 -->
<svg width="663pt" height="419pt"
 viewBox="0.00 0.00 663.24 419.09" xmlns="http://www.w3.org/2000/svg" xmlns:xlink="http://www.w3.org/1999/xlink">
<g id="graph0" class="graph" transform="scale(1 1) rotate(0) translate(4 415.0911)">
<title>science_packs</title>
<polygon fill="#ffffff" stroke="transparent" points="-4,4 -4,-415.0911 659.2405,-415.0911 659.2405,4 -4,4"/>
<text text-anchor="middle" x="327.6202" y="-7.8" font-family="Times,serif" font-size="14.00" fill="#000000">Military pack dependencies; factorio 0.17.79; Visualization by Jonathon Ball (jonathon.ball@gmail.com)</text>
<!-- Coal -->
<g id="node1" class="node">
<title>Coal</title>
<ellipse fill="#a0522d" stroke="#a0522d" cx="511.895" cy="-361.0456" rx="27.0966" ry="27.0966"/>
<polyline fill="none" stroke="#a0522d" points="529.9497,-381.5187 493.8404,-381.5187 "/>
<polyline fill="none" stroke="#a0522d" points="529.9497,-340.5724 493.8404,-340.5724 "/>
<text text-anchor="middle" x="511.895" y="-357.3456" font-family="Times,serif" font-size="14.00" fill="#ffffff">Coal</text>
</g>
<!-- Grenade -->
<g id="node9" class="node">
<title>Grenade</title>
<ellipse fill="none" stroke="#000000" cx="511.895" cy="-185" rx="40.0939" ry="18"/>
<text text-anchor="middle" x="511.895" y="-181.3" font-family="Times,serif" font-size="14.00" fill="#000000">Grenade</text>
</g>
<!-- Coal&#45;&gt;Grenade -->
<g id="edge4" class="edge">
<title>Coal&#45;&gt;Grenade</title>
<path fill="none" stroke="#a0522d" d="M511.895,-333.5384C511.895,-300.8704 511.895,-246.6483 511.895,-213.5355"/>
<polygon fill="#a0522d" stroke="#a0522d" points="515.3951,-213.1769 511.895,-203.1769 508.3951,-213.1769 515.3951,-213.1769"/>
</g>
<!-- Iron ore -->
<g id="node2" class="node">
<title>Iron ore</title>
<ellipse fill="#a0522d" stroke="#a0522d" cx="354.895" cy="-361.0456" rx="38.9931" ry="38.9931"/>
<polyline fill="none" stroke="#a0522d" points="380.6874,-390.293 329.1027,-390.293 "/>
<polyline fill="none" stroke="#a0522d" points="380.6874,-331.7982 329.1027,-331.7982 "/>
<text text-anchor="middle" x="354.895" y="-357.3456" font-family="Times,serif" font-size="14.00" fill="#ffffff">Iron ore</text>
</g>
<!-- Iron plate -->
<g id="node7" class="node">
<title>Iron plate</title>
<ellipse fill="none" stroke="#000000" cx="354.895" cy="-257" rx="44.6926" ry="18"/>
<text text-anchor="middle" x="354.895" y="-253.3" font-family="Times,serif" font-size="14.00" fill="#000000">Iron plate</text>
</g>
<!-- Iron ore&#45;&gt;Iron plate -->
<g id="edge2" class="edge">
<title>Iron ore&#45;&gt;Iron plate</title>
<path fill="none" stroke="#a0522d" d="M354.895,-322.0068C354.895,-309.7715 354.895,-296.5125 354.895,-285.1798"/>
<polygon fill="#a0522d" stroke="#a0522d" points="358.3951,-285.0008 354.895,-275.0009 351.3951,-285.0009 358.3951,-285.0008"/>
</g>
<!-- Copper ore -->
<g id="node3" class="node">
<title>Copper ore</title>
<ellipse fill="#a0522d" stroke="#a0522d" cx="55.895" cy="-361.0456" rx="50.0912" ry="50.0912"/>
<polyline fill="none" stroke="#a0522d" points="88.9952,-398.5797 22.7949,-398.5797 "/>
<polyline fill="none" stroke="#a0522d" points="88.9952,-323.5114 22.7949,-323.5114 "/>
<text text-anchor="middle" x="55.895" y="-357.3456" font-family="Times,serif" font-size="14.00" fill="#ffffff">Copper ore</text>
</g>
<!-- Copper plate -->
<g id="node8" class="node">
<title>Copper plate</title>
<ellipse fill="none" stroke="#000000" cx="55.895" cy="-257" rx="55.7903" ry="18"/>
<text text-anchor="middle" x="55.895" y="-253.3" font-family="Times,serif" font-size="14.00" fill="#000000">Copper plate</text>
</g>
<!-- Copper ore&#45;&gt;Copper plate -->
<g id="edge3" class="edge">
<title>Copper ore&#45;&gt;Copper plate</title>
<path fill="none" stroke="#a0522d" d="M55.895,-310.8514C55.895,-302.1341 55.895,-293.3484 55.895,-285.4747"/>
<polygon fill="#a0522d" stroke="#a0522d" points="59.3951,-285.3953 55.895,-275.3954 52.3951,-285.3954 59.3951,-285.3953"/>
</g>
<!-- Stone -->
<g id="node4" class="node">
<title>Stone</title>
<ellipse fill="#a0522d" stroke="#a0522d" cx="602.895" cy="-361.0456" rx="30.5947" ry="30.5947"/>
<polyline fill="none" stroke="#a0522d" points="623.099,-383.956 582.6911,-383.956 "/>
<polyline fill="none" stroke="#a0522d" points="623.099,-338.1351 582.6911,-338.1351 "/>
<text text-anchor="middle" x="602.895" y="-357.3456" font-family="Times,serif" font-size="14.00" fill="#ffffff">Stone</text>
</g>
<!-- Stone brick -->
<g id="node6" class="node">
<title>Stone brick</title>
<ellipse fill="none" stroke="#000000" cx="603.895" cy="-113" rx="51.1914" ry="18"/>
<text text-anchor="middle" x="603.895" y="-109.3" font-family="Times,serif" font-size="14.00" fill="#000000">Stone brick</text>
</g>
<!-- Stone&#45;&gt;Stone brick -->
<g id="edge1" class="edge">
<title>Stone&#45;&gt;Stone brick</title>
<path fill="none" stroke="#a0522d" d="M603.0187,-330.3815C603.214,-281.9201 603.5914,-188.3194 603.7808,-141.3446"/>
<polygon fill="#a0522d" stroke="#a0522d" points="607.281,-141.2735 603.8214,-131.2594 600.281,-141.2452 607.281,-141.2735"/>
</g>
<!-- Rail -->
<g id="node10" class="node">
<title>Rail</title>
<ellipse fill="none" stroke="#000000" cx="409.895" cy="-113" rx="27" ry="18"/>
<text text-anchor="middle" x="409.895" y="-109.3" font-family="Times,serif" font-size="14.00" fill="#000000">Rail</text>
</g>
<!-- Stone&#45;&gt;Rail -->
<g id="edge6" class="edge">
<title>Stone&#45;&gt;Rail</title>
<path fill="none" stroke="#a0522d" d="M599.8912,-330.469C594.5615,-282.1203 581.9814,-191.0296 560.895,-167 532.0215,-134.0964 481.6531,-121.2405 447.0862,-116.2184"/>
<polygon fill="#a0522d" stroke="#a0522d" points="447.2744,-112.7135 436.9072,-114.8977 446.3737,-119.6553 447.2744,-112.7135"/>
</g>
<!-- Military science pack -->
<g id="node5" class="node">
<title>Military science pack</title>
<polygon fill="#d3d3d3" stroke="#d3d3d3" points="619.895,-59 403.895,-59 403.895,-23 619.895,-23 619.895,-59"/>
<text text-anchor="middle" x="511.895" y="-37.3" font-family="Times,serif" font-size="14.00" fill="#000000">Military science pack</text>
</g>
<!-- Stone brick&#45;&gt;Military science pack -->
<g id="edge15" class="edge">
<title>Stone brick&#45;&gt;Military science pack</title>
<path fill="none" stroke="#d3d3d3" d="M582.5571,-96.3008C570.8875,-87.168 556.2114,-75.6824 543.2623,-65.5483"/>
<polygon fill="#d3d3d3" stroke="#d3d3d3" points="545.0833,-62.529 535.0511,-59.1222 540.7691,-68.0415 545.0833,-62.529"/>
</g>
<!-- Iron plate&#45;&gt;Grenade -->
<g id="edge5" class="edge">
<title>Iron plate&#45;&gt;Grenade</title>
<path fill="none" stroke="#000000" d="M384.7951,-243.2879C410.2625,-231.6086 446.9811,-214.7694 474.4099,-202.1907"/>
<polygon fill="#000000" stroke="#000000" points="476.0599,-205.2845 483.6906,-197.9345 473.1419,-198.9217 476.0599,-205.2845"/>
</g>
<!-- Iron stick -->
<g id="node11" class="node">
<title>Iron stick</title>
<ellipse fill="none" stroke="#000000" cx="409.895" cy="-185" rx="44.393" ry="18"/>
<text text-anchor="middle" x="409.895" y="-181.3" font-family="Times,serif" font-size="14.00" fill="#000000">Iron stick</text>
</g>
<!-- Iron plate&#45;&gt;Iron stick -->
<g id="edge10" class="edge">
<title>Iron plate&#45;&gt;Iron stick</title>
<path fill="none" stroke="#000000" d="M368.209,-239.5708C374.8972,-230.8153 383.127,-220.0418 390.5024,-210.3867"/>
<polygon fill="#000000" stroke="#000000" points="393.4146,-212.3401 396.7037,-202.2687 387.8519,-208.0908 393.4146,-212.3401"/>
</g>
<!-- Steel plate -->
<g id="node12" class="node">
<title>Steel plate</title>
<ellipse fill="none" stroke="#000000" cx="299.895" cy="-185" rx="48.1917" ry="18"/>
<text text-anchor="middle" x="299.895" y="-181.3" font-family="Times,serif" font-size="14.00" fill="#000000">Steel plate</text>
</g>
<!-- Iron plate&#45;&gt;Steel plate -->
<g id="edge11" class="edge">
<title>Iron plate&#45;&gt;Steel plate</title>
<path fill="none" stroke="#000000" d="M341.5811,-239.5708C334.9421,-230.8797 326.784,-220.2001 319.4505,-210.5998"/>
<polygon fill="#000000" stroke="#000000" points="322.1288,-208.3403 313.277,-202.5182 316.5661,-212.5896 322.1288,-208.3403"/>
</g>
<!-- Firearm magazine -->
<g id="node13" class="node">
<title>Firearm magazine</title>
<ellipse fill="none" stroke="#000000" cx="158.895" cy="-185" rx="75.2868" ry="18"/>
<text text-anchor="middle" x="158.895" y="-181.3" font-family="Times,serif" font-size="14.00" fill="#000000">Firearm magazine</text>
</g>
<!-- Iron plate&#45;&gt;Firearm magazine -->
<g id="edge9" class="edge">
<title>Iron plate&#45;&gt;Firearm magazine</title>
<path fill="none" stroke="#000000" d="M321.6463,-244.7862C290.9978,-233.5276 245.0558,-216.6509 209.791,-203.6965"/>
<polygon fill="#000000" stroke="#000000" points="210.7428,-200.3175 200.1492,-200.1546 208.329,-206.8882 210.7428,-200.3175"/>
</g>
<!-- Piercing rounds magazine -->
<g id="node14" class="node">
<title>Piercing rounds magazine</title>
<ellipse fill="none" stroke="#000000" cx="210.895" cy="-113" rx="102.8821" ry="18"/>
<text text-anchor="middle" x="210.895" y="-109.3" font-family="Times,serif" font-size="14.00" fill="#000000">Piercing rounds magazine</text>
</g>
<!-- Copper plate&#45;&gt;Piercing rounds magazine -->
<g id="edge12" class="edge">
<title>Copper plate&#45;&gt;Piercing rounds magazine</title>
<path fill="none" stroke="#000000" d="M54.9533,-238.9654C54.892,-219.0932 57.8084,-187.2678 74.895,-167 89.5207,-149.6513 110.4966,-137.835 131.6108,-129.8025"/>
<polygon fill="#000000" stroke="#000000" points="133.0412,-133.0091 141.2994,-126.3719 130.7046,-126.4105 133.0412,-133.0091"/>
</g>
<!-- Grenade&#45;&gt;Military science pack -->
<g id="edge16" class="edge">
<title>Grenade&#45;&gt;Military science pack</title>
<path fill="none" stroke="#d3d3d3" d="M511.895,-166.7623C511.895,-142.201 511.895,-98.2474 511.895,-69.3541"/>
<polygon fill="#d3d3d3" stroke="#d3d3d3" points="515.3951,-69.0896 511.895,-59.0896 508.3951,-69.0897 515.3951,-69.0896"/>
</g>
<!-- Iron stick&#45;&gt;Rail -->
<g id="edge7" class="edge">
<title>Iron stick&#45;&gt;Rail</title>
<path fill="none" stroke="#000000" d="M409.895,-166.8314C409.895,-159.131 409.895,-149.9743 409.895,-141.4166"/>
<polygon fill="#000000" stroke="#000000" points="413.3951,-141.4132 409.895,-131.4133 406.3951,-141.4133 413.3951,-141.4132"/>
</g>
<!-- Steel plate&#45;&gt;Rail -->
<g id="edge8" class="edge">
<title>Steel plate&#45;&gt;Rail</title>
<path fill="none" stroke="#000000" d="M324.035,-169.1993C341.0532,-158.0601 363.8997,-143.106 381.7472,-131.424"/>
<polygon fill="#000000" stroke="#000000" points="384.1171,-134.056 390.5673,-125.6509 380.2834,-128.1991 384.1171,-134.056"/>
</g>
<!-- Steel plate&#45;&gt;Piercing rounds magazine -->
<g id="edge13" class="edge">
<title>Steel plate&#45;&gt;Piercing rounds magazine</title>
<path fill="none" stroke="#000000" d="M279.6996,-168.6621C268.2562,-159.4046 253.7198,-147.6447 240.9594,-137.3217"/>
<polygon fill="#000000" stroke="#000000" points="242.8566,-134.3546 232.8808,-130.7862 238.4539,-139.7968 242.8566,-134.3546"/>
</g>
<!-- Firearm magazine&#45;&gt;Piercing rounds magazine -->
<g id="edge14" class="edge">
<title>Firearm magazine&#45;&gt;Piercing rounds magazine</title>
<path fill="none" stroke="#000000" d="M171.749,-167.2022C177.828,-158.7851 185.2081,-148.5665 191.9147,-139.2805"/>
<polygon fill="#000000" stroke="#000000" points="194.8102,-141.2492 197.8278,-131.0931 189.1355,-137.1507 194.8102,-141.2492"/>
</g>
<!-- Piercing rounds magazine&#45;&gt;Military science pack -->
<g id="edge17" class="edge">
<title>Piercing rounds magazine&#45;&gt;Military science pack</title>
<path fill="none" stroke="#d3d3d3" d="M271.8069,-98.4297C316.2436,-87.8003 377.0633,-73.2521 426.3688,-61.4581"/>
<polygon fill="#d3d3d3" stroke="#d3d3d3" points="427.4748,-64.7924 436.3862,-59.0619 425.8463,-57.9844 427.4748,-64.7924"/>
</g>
</g>
</svg>
