<?xml version="1.0" encoding="UTF-8" standalone="no"?>
<!DOCTYPE svg PUBLIC "-//W3C//DTD SVG 1.1//EN"
 "http://www.w3.org/Graphics/SVG/1.1/DTD/svg11.dtd">
<!-- Generated by graphviz version 2.40.1 (20161225.0304)
 -->
<!-- Title: science_packs Pages: 1 -->
<svg width="697pt" height="582pt"
 viewBox="0.00 0.00 697.50 582.31" xmlns="http://www.w3.org/2000/svg" xmlns:xlink="http://www.w3.org/1999/xlink">
<g id="graph0" class="graph" transform="scale(1 1) rotate(0) translate(4 578.3092)">
<title>science_packs</title>
<polygon fill="#ffffff" stroke="transparent" points="-4,4 -4,-578.3092 693.4971,-578.3092 693.4971,4 -4,4"/>
<text text-anchor="middle" x="344.7486" y="-7.8" font-family="Times,serif" font-size="14.00" fill="#000000">Chemical pack dependencies; factorio 0.17.79; Visualization by Jonathon Ball (jonathon.ball@gmail.com)</text>
<!-- Coal -->
<g id="node1" class="node">
<title>Coal</title>
<ellipse fill="#a0522d" stroke="#a0522d" cx="216.4971" cy="-514" rx="27.0966" ry="27.0966"/>
<polyline fill="none" stroke="#a0522d" points="234.5517,-534.4732 198.4425,-534.4732 "/>
<polyline fill="none" stroke="#a0522d" points="234.5517,-493.5268 198.4425,-493.5268 "/>
<text text-anchor="middle" x="216.4971" y="-510.3" font-family="Times,serif" font-size="14.00" fill="#ffffff">Coal</text>
</g>
<!-- Plastic bar -->
<g id="node11" class="node">
<title>Plastic bar</title>
<ellipse fill="none" stroke="#000000" cx="195.4971" cy="-303" rx="48.1917" ry="18"/>
<text text-anchor="middle" x="195.4971" y="-299.3" font-family="Times,serif" font-size="14.00" fill="#000000">Plastic bar</text>
</g>
<!-- Coal&#45;&gt;Plastic bar -->
<g id="edge7" class="edge">
<title>Coal&#45;&gt;Plastic bar</title>
<path fill="none" stroke="#a0522d" d="M213.7517,-486.4154C209.7409,-446.1158 202.3192,-371.5455 198.2846,-331.0076"/>
<polygon fill="#a0522d" stroke="#a0522d" points="201.7622,-330.6082 197.289,-321.004 194.7966,-331.3015 201.7622,-330.6082"/>
</g>
<!-- Crude oil -->
<g id="node2" class="node">
<title>Crude oil</title>
<ellipse fill="#a0522d" stroke="#a0522d" cx="127.4971" cy="-514" rx="44.393" ry="44.393"/>
<polyline fill="none" stroke="#a0522d" points="156.7284,-547.1471 98.2658,-547.1471 "/>
<polyline fill="none" stroke="#a0522d" points="156.7284,-480.8529 98.2658,-480.8529 "/>
<text text-anchor="middle" x="127.4971" y="-510.3" font-family="Times,serif" font-size="14.00" fill="#ffffff">Crude oil</text>
</g>
<!-- Petroleum gas -->
<g id="node8" class="node">
<title>Petroleum gas</title>
<ellipse fill="none" stroke="#000000" cx="125.4971" cy="-390" rx="61.99" ry="18"/>
<text text-anchor="middle" x="125.4971" y="-386.3" font-family="Times,serif" font-size="14.00" fill="#000000">Petroleum gas</text>
</g>
<!-- Crude oil&#45;&gt;Petroleum gas -->
<g id="edge3" class="edge">
<title>Crude oil&#45;&gt;Petroleum gas</title>
<path fill="none" stroke="#a0522d" d="M126.7807,-469.5834C126.5065,-452.5836 126.2013,-433.6612 125.9573,-418.5341"/>
<polygon fill="#a0522d" stroke="#a0522d" points="129.4527,-418.2139 125.7918,-408.2716 122.4536,-418.3268 129.4527,-418.2139"/>
</g>
<!-- Iron ore -->
<g id="node3" class="node">
<title>Iron ore</title>
<ellipse fill="#a0522d" stroke="#a0522d" cx="514.4971" cy="-514" rx="38.9931" ry="38.9931"/>
<polyline fill="none" stroke="#a0522d" points="540.2894,-543.2474 488.7048,-543.2474 "/>
<polyline fill="none" stroke="#a0522d" points="540.2894,-484.7526 488.7048,-484.7526 "/>
<text text-anchor="middle" x="514.4971" y="-510.3" font-family="Times,serif" font-size="14.00" fill="#ffffff">Iron ore</text>
</g>
<!-- Iron plate -->
<g id="node9" class="node">
<title>Iron plate</title>
<ellipse fill="none" stroke="#000000" cx="514.4971" cy="-303" rx="44.6926" ry="18"/>
<text text-anchor="middle" x="514.4971" y="-299.3" font-family="Times,serif" font-size="14.00" fill="#000000">Iron plate</text>
</g>
<!-- Iron ore&#45;&gt;Iron plate -->
<g id="edge5" class="edge">
<title>Iron ore&#45;&gt;Iron plate</title>
<path fill="none" stroke="#a0522d" d="M514.4971,-474.807C514.4971,-433.154 514.4971,-368.3108 514.4971,-331.3464"/>
<polygon fill="#a0522d" stroke="#a0522d" points="517.9972,-331.2639 514.4971,-321.264 510.9972,-331.264 517.9972,-331.2639"/>
</g>
<!-- Copper ore -->
<g id="node4" class="node">
<title>Copper ore</title>
<ellipse fill="#a0522d" stroke="#a0522d" cx="325.4971" cy="-514" rx="50.0912" ry="50.0912"/>
<polyline fill="none" stroke="#a0522d" points="358.5972,-551.5342 292.397,-551.5342 "/>
<polyline fill="none" stroke="#a0522d" points="358.5972,-476.4658 292.397,-476.4658 "/>
<text text-anchor="middle" x="325.4971" y="-510.3" font-family="Times,serif" font-size="14.00" fill="#ffffff">Copper ore</text>
</g>
<!-- Copper plate -->
<g id="node10" class="node">
<title>Copper plate</title>
<ellipse fill="none" stroke="#000000" cx="325.4971" cy="-390" rx="55.7903" ry="18"/>
<text text-anchor="middle" x="325.4971" y="-386.3" font-family="Times,serif" font-size="14.00" fill="#000000">Copper plate</text>
</g>
<!-- Copper ore&#45;&gt;Copper plate -->
<g id="edge6" class="edge">
<title>Copper ore&#45;&gt;Copper plate</title>
<path fill="none" stroke="#a0522d" d="M325.4971,-463.9219C325.4971,-448.3288 325.4971,-431.6903 325.4971,-418.1548"/>
<polygon fill="#a0522d" stroke="#a0522d" points="328.9972,-418.0441 325.4971,-408.0441 321.9972,-418.0442 328.9972,-418.0441"/>
</g>
<!-- Water -->
<g id="node5" class="node">
<title>Water</title>
<ellipse fill="#a0522d" stroke="#a0522d" cx="32.4971" cy="-514" rx="32.4942" ry="32.4942"/>
<polyline fill="none" stroke="#a0522d" points="53.9907,-538.3728 11.0035,-538.3728 "/>
<polyline fill="none" stroke="#a0522d" points="53.9907,-489.6272 11.0035,-489.6272 "/>
<text text-anchor="middle" x="32.4971" y="-510.3" font-family="Times,serif" font-size="14.00" fill="#ffffff">Water</text>
</g>
<!-- Sulfur -->
<g id="node7" class="node">
<title>Sulfur</title>
<ellipse fill="none" stroke="#000000" cx="96.4971" cy="-303" rx="32.4942" ry="18"/>
<text text-anchor="middle" x="96.4971" y="-299.3" font-family="Times,serif" font-size="14.00" fill="#000000">Sulfur</text>
</g>
<!-- Water&#45;&gt;Sulfur -->
<g id="edge1" class="edge">
<title>Water&#45;&gt;Sulfur</title>
<path fill="none" stroke="#a0522d" d="M33.9134,-481.5214C36.031,-452.1424 41.3146,-408.0858 54.4971,-372 60.1505,-356.5244 69.4606,-340.7209 77.8804,-328.1498"/>
<polygon fill="#a0522d" stroke="#a0522d" points="80.9728,-329.832 83.789,-319.6183 75.2181,-325.8465 80.9728,-329.832"/>
</g>
<!-- Water&#45;&gt;Petroleum gas -->
<g id="edge4" class="edge">
<title>Water&#45;&gt;Petroleum gas</title>
<path fill="none" stroke="#a0522d" d="M52.22,-487.7028C68.0595,-466.5835 90.1871,-437.08 105.9735,-416.0315"/>
<polygon fill="#a0522d" stroke="#a0522d" points="108.9044,-417.957 112.1044,-407.8569 103.3044,-413.7569 108.9044,-417.957"/>
</g>
<!-- Chemical science pack -->
<g id="node6" class="node">
<title>Chemical science pack</title>
<polygon fill="#0000ff" stroke="#0000ff" points="337.4971,-63 121.4971,-63 121.4971,-27 337.4971,-27 337.4971,-63"/>
<text text-anchor="middle" x="229.4971" y="-41.3" font-family="Times,serif" font-size="14.00" fill="#000000">Chemical science pack</text>
</g>
<!-- Sulfur&#45;&gt;Chemical science pack -->
<g id="edge21" class="edge">
<title>Sulfur&#45;&gt;Chemical science pack</title>
<path fill="none" stroke="#0000ff" d="M98.0171,-284.8122C101.7175,-249.22 113.6926,-168.9625 149.4971,-113 160.4384,-95.8988 177.0016,-80.8068 192.224,-69.2127"/>
<polygon fill="#0000ff" stroke="#0000ff" points="194.507,-71.8787 200.4987,-63.1409 190.3658,-66.2351 194.507,-71.8787"/>
</g>
<!-- Petroleum gas&#45;&gt;Sulfur -->
<g id="edge2" class="edge">
<title>Petroleum gas&#45;&gt;Sulfur</title>
<path fill="none" stroke="#000000" d="M119.4883,-371.9735C115.4957,-359.9958 110.177,-344.0396 105.6608,-330.4912"/>
<polygon fill="#000000" stroke="#000000" points="108.8818,-329.0857 102.399,-320.7057 102.241,-331.2994 108.8818,-329.0857"/>
</g>
<!-- Petroleum gas&#45;&gt;Plastic bar -->
<g id="edge8" class="edge">
<title>Petroleum gas&#45;&gt;Plastic bar</title>
<path fill="none" stroke="#a0522d" d="M139.6627,-372.3943C149.8816,-359.6935 163.8262,-342.3624 175.2231,-328.1977"/>
<polygon fill="#a0522d" stroke="#a0522d" points="178.0496,-330.2679 181.5915,-320.2827 172.5958,-325.8798 178.0496,-330.2679"/>
</g>
<!-- Pipe -->
<g id="node12" class="node">
<title>Pipe</title>
<ellipse fill="none" stroke="#000000" cx="662.4971" cy="-217" rx="27" ry="18"/>
<text text-anchor="middle" x="662.4971" y="-213.3" font-family="Times,serif" font-size="14.00" fill="#000000">Pipe</text>
</g>
<!-- Iron plate&#45;&gt;Pipe -->
<g id="edge9" class="edge">
<title>Iron plate&#45;&gt;Pipe</title>
<path fill="none" stroke="#000000" d="M540.2767,-288.0199C566.1704,-272.9736 606.016,-249.8201 633.118,-234.0716"/>
<polygon fill="#000000" stroke="#000000" points="634.8942,-237.0876 641.782,-229.0372 631.3773,-231.0352 634.8942,-237.0876"/>
</g>
<!-- Iron gear -->
<g id="node13" class="node">
<title>Iron gear</title>
<ellipse fill="none" stroke="#000000" cx="460.4971" cy="-217" rx="42.7926" ry="18"/>
<text text-anchor="middle" x="460.4971" y="-213.3" font-family="Times,serif" font-size="14.00" fill="#000000">Iron gear</text>
</g>
<!-- Iron plate&#45;&gt;Iron gear -->
<g id="edge10" class="edge">
<title>Iron plate&#45;&gt;Iron gear</title>
<path fill="none" stroke="#000000" d="M503.3083,-285.1807C495.6552,-272.9924 485.3852,-256.6367 476.8226,-242.9998"/>
<polygon fill="#000000" stroke="#000000" points="479.7687,-241.1099 471.4869,-234.5022 473.8405,-244.8323 479.7687,-241.1099"/>
</g>
<!-- Steel plate -->
<g id="node14" class="node">
<title>Steel plate</title>
<ellipse fill="none" stroke="#000000" cx="569.4971" cy="-217" rx="48.1917" ry="18"/>
<text text-anchor="middle" x="569.4971" y="-213.3" font-family="Times,serif" font-size="14.00" fill="#000000">Steel plate</text>
</g>
<!-- Iron plate&#45;&gt;Steel plate -->
<g id="edge11" class="edge">
<title>Iron plate&#45;&gt;Steel plate</title>
<path fill="none" stroke="#000000" d="M525.8932,-285.1807C533.6364,-273.0732 544.0097,-256.8531 552.6958,-243.2711"/>
<polygon fill="#000000" stroke="#000000" points="555.6765,-245.1067 558.1157,-234.7964 549.7793,-241.3352 555.6765,-245.1067"/>
</g>
<!-- Electronic circuit -->
<g id="node16" class="node">
<title>Electronic circuit</title>
<ellipse fill="none" stroke="#000000" cx="328.4971" cy="-217" rx="71.4873" ry="18"/>
<text text-anchor="middle" x="328.4971" y="-213.3" font-family="Times,serif" font-size="14.00" fill="#000000">Electronic circuit</text>
</g>
<!-- Iron plate&#45;&gt;Electronic circuit -->
<g id="edge13" class="edge">
<title>Iron plate&#45;&gt;Electronic circuit</title>
<path fill="none" stroke="#000000" d="M485.0249,-289.373C454.688,-275.3463 407.0753,-253.3319 372.3227,-237.2635"/>
<polygon fill="#000000" stroke="#000000" points="373.4324,-233.9206 362.8868,-232.9006 370.4947,-240.2743 373.4324,-233.9206"/>
</g>
<!-- Copper cable -->
<g id="node15" class="node">
<title>Copper cable</title>
<ellipse fill="none" stroke="#000000" cx="325.4971" cy="-303" rx="57.6901" ry="18"/>
<text text-anchor="middle" x="325.4971" y="-299.3" font-family="Times,serif" font-size="14.00" fill="#000000">Copper cable</text>
</g>
<!-- Copper plate&#45;&gt;Copper cable -->
<g id="edge12" class="edge">
<title>Copper plate&#45;&gt;Copper cable</title>
<path fill="none" stroke="#000000" d="M325.4971,-371.9735C325.4971,-360.1918 325.4971,-344.5607 325.4971,-331.1581"/>
<polygon fill="#000000" stroke="#000000" points="328.9972,-331.0033 325.4971,-321.0034 321.9972,-331.0034 328.9972,-331.0033"/>
</g>
<!-- Advanced circuit -->
<g id="node18" class="node">
<title>Advanced circuit</title>
<ellipse fill="none" stroke="#000000" cx="229.4971" cy="-131" rx="71.4873" ry="18"/>
<text text-anchor="middle" x="229.4971" y="-127.3" font-family="Times,serif" font-size="14.00" fill="#000000">Advanced circuit</text>
</g>
<!-- Plastic bar&#45;&gt;Advanced circuit -->
<g id="edge18" class="edge">
<title>Plastic bar&#45;&gt;Advanced circuit</title>
<path fill="none" stroke="#000000" d="M198.8944,-284.9495C202.8174,-264.1963 209.5018,-229.1143 215.4971,-199 218.1,-185.9256 221.067,-171.4558 223.5977,-159.2368"/>
<polygon fill="#000000" stroke="#000000" points="227.0817,-159.6728 225.6891,-149.1699 220.2281,-158.2489 227.0817,-159.6728"/>
</g>
<!-- Engine unit -->
<g id="node17" class="node">
<title>Engine unit</title>
<ellipse fill="none" stroke="#000000" cx="514.4971" cy="-131" rx="51.9908" ry="18"/>
<text text-anchor="middle" x="514.4971" y="-127.3" font-family="Times,serif" font-size="14.00" fill="#000000">Engine unit</text>
</g>
<!-- Pipe&#45;&gt;Engine unit -->
<g id="edge15" class="edge">
<title>Pipe&#45;&gt;Engine unit</title>
<path fill="none" stroke="#000000" d="M641.9184,-205.0421C618.1956,-191.2572 578.789,-168.3588 550.0697,-151.6706"/>
<polygon fill="#000000" stroke="#000000" points="551.559,-148.488 541.1542,-146.4899 548.042,-154.5404 551.559,-148.488"/>
</g>
<!-- Iron gear&#45;&gt;Engine unit -->
<g id="edge16" class="edge">
<title>Iron gear&#45;&gt;Engine unit</title>
<path fill="none" stroke="#000000" d="M471.686,-199.1807C479.2884,-187.0732 489.4731,-170.8531 498.0013,-157.2711"/>
<polygon fill="#000000" stroke="#000000" points="500.969,-159.1265 503.3226,-148.7964 495.0408,-155.4041 500.969,-159.1265"/>
</g>
<!-- Steel plate&#45;&gt;Engine unit -->
<g id="edge17" class="edge">
<title>Steel plate&#45;&gt;Engine unit</title>
<path fill="none" stroke="#000000" d="M558.1011,-199.1807C550.3579,-187.0732 539.9846,-170.8531 531.2984,-157.2711"/>
<polygon fill="#000000" stroke="#000000" points="534.2149,-155.3352 525.8786,-148.7964 528.3178,-159.1067 534.2149,-155.3352"/>
</g>
<!-- Copper cable&#45;&gt;Electronic circuit -->
<g id="edge14" class="edge">
<title>Copper cable&#45;&gt;Electronic circuit</title>
<path fill="none" stroke="#000000" d="M326.1333,-284.7616C326.5311,-273.3597 327.0517,-258.4342 327.5031,-245.494"/>
<polygon fill="#000000" stroke="#000000" points="331.011,-245.3281 327.8618,-235.2121 324.0152,-245.084 331.011,-245.3281"/>
</g>
<!-- Copper cable&#45;&gt;Advanced circuit -->
<g id="edge19" class="edge">
<title>Copper cable&#45;&gt;Advanced circuit</title>
<path fill="none" stroke="#000000" d="M299.5861,-286.8988C282.3398,-274.7788 260.6865,-256.5864 248.4971,-235 235.3123,-211.6508 230.9883,-181.0813 229.7056,-159.1366"/>
<polygon fill="#000000" stroke="#000000" points="233.202,-158.9741 229.2948,-149.1261 226.2079,-159.2612 233.202,-158.9741"/>
</g>
<!-- Electronic circuit&#45;&gt;Advanced circuit -->
<g id="edge20" class="edge">
<title>Electronic circuit&#45;&gt;Advanced circuit</title>
<path fill="none" stroke="#000000" d="M308.463,-199.5966C293.7023,-186.7742 273.4455,-169.1774 257.1446,-155.017"/>
<polygon fill="#000000" stroke="#000000" points="259.3461,-152.2933 249.5014,-148.3775 254.7555,-157.5778 259.3461,-152.2933"/>
</g>
<!-- Engine unit&#45;&gt;Chemical science pack -->
<g id="edge22" class="edge">
<title>Engine unit&#45;&gt;Chemical science pack</title>
<path fill="none" stroke="#0000ff" d="M475.1683,-119.1324C429.7919,-105.4398 354.3331,-82.6698 298.9958,-65.9715"/>
<polygon fill="#0000ff" stroke="#0000ff" points="299.8415,-62.5709 289.2567,-63.0327 297.8192,-69.2724 299.8415,-62.5709"/>
</g>
<!-- Advanced circuit&#45;&gt;Chemical science pack -->
<g id="edge23" class="edge">
<title>Advanced circuit&#45;&gt;Chemical science pack</title>
<path fill="none" stroke="#0000ff" d="M229.4971,-112.7616C229.4971,-101.3597 229.4971,-86.4342 229.4971,-73.494"/>
<polygon fill="#0000ff" stroke="#0000ff" points="232.9972,-73.2121 229.4971,-63.2121 225.9972,-73.2121 232.9972,-73.2121"/>
</g>
</g>
</svg>
