<?xml version="1.0" encoding="UTF-8" standalone="no"?>
<!DOCTYPE svg PUBLIC "-//W3C//DTD SVG 1.1//EN"
 "http://www.w3.org/Graphics/SVG/1.1/DTD/svg11.dtd">
<!-- Generated by graphviz version 2.40.1 (20161225.0304)
 -->
<!-- Title: science_packs Pages: 1 -->
<svg width="953pt" height="775pt"
 viewBox="0.00 0.00 953.05 775.13" xmlns="http://www.w3.org/2000/svg" xmlns:xlink="http://www.w3.org/1999/xlink">
<g id="graph0" class="graph" transform="scale(1 1) rotate(0) translate(4 771.1274)">
<title>science_packs</title>
<polygon fill="#ffffff" stroke="transparent" points="-4,4 -4,-771.1274 949.0538,-771.1274 949.0538,4 -4,4"/>
<text text-anchor="middle" x="472.5269" y="-7.8" font-family="Times,serif" font-size="14.00" fill="#000000">Utility pack dependencies; factorio 0.17.79; Visualization by Jonathon Ball (jonathon.ball@gmail.com)</text>
<!-- Coal -->
<g id="node1" class="node">
<title>Coal</title>
<ellipse fill="#a0522d" stroke="#a0522d" cx="160.1576" cy="-697" rx="27.0966" ry="27.0966"/>
<polyline fill="none" stroke="#a0522d" points="178.2122,-717.4732 142.103,-717.4732 "/>
<polyline fill="none" stroke="#a0522d" points="178.2122,-676.5268 142.103,-676.5268 "/>
<text text-anchor="middle" x="160.1576" y="-693.3" font-family="Times,serif" font-size="14.00" fill="#ffffff">Coal</text>
</g>
<!-- Plastic bar -->
<g id="node13" class="node">
<title>Plastic bar</title>
<ellipse fill="none" stroke="#000000" cx="156.1576" cy="-451" rx="48.1917" ry="18"/>
<text text-anchor="middle" x="156.1576" y="-447.3" font-family="Times,serif" font-size="14.00" fill="#000000">Plastic bar</text>
</g>
<!-- Coal&#45;&gt;Plastic bar -->
<g id="edge12" class="edge">
<title>Coal&#45;&gt;Plastic bar</title>
<path fill="none" stroke="#a0522d" d="M159.7065,-669.2589C158.9407,-622.1629 157.3943,-527.058 156.6206,-479.471"/>
<polygon fill="#a0522d" stroke="#a0522d" points="160.1167,-479.2026 156.4545,-469.2608 153.1177,-479.3164 160.1167,-479.2026"/>
</g>
<!-- Crude oil -->
<g id="node2" class="node">
<title>Crude oil</title>
<ellipse fill="#a0522d" stroke="#a0522d" cx="582.1576" cy="-697" rx="44.393" ry="44.393"/>
<polyline fill="none" stroke="#a0522d" points="611.3889,-730.1471 552.9263,-730.1471 "/>
<polyline fill="none" stroke="#a0522d" points="611.3889,-663.8529 552.9263,-663.8529 "/>
<text text-anchor="middle" x="582.1576" y="-693.3" font-family="Times,serif" font-size="14.00" fill="#ffffff">Crude oil</text>
</g>
<!-- Petroleum gas -->
<g id="node8" class="node">
<title>Petroleum gas</title>
<ellipse fill="none" stroke="#000000" cx="494.1576" cy="-552" rx="61.99" ry="18"/>
<text text-anchor="middle" x="494.1576" y="-548.3" font-family="Times,serif" font-size="14.00" fill="#000000">Petroleum gas</text>
</g>
<!-- Crude oil&#45;&gt;Petroleum gas -->
<g id="edge6" class="edge">
<title>Crude oil&#45;&gt;Petroleum gas</title>
<path fill="none" stroke="#a0522d" d="M559.0366,-658.903C543.7297,-633.6813 524.0341,-601.2283 510.3786,-578.7277"/>
<polygon fill="#a0522d" stroke="#a0522d" points="513.2859,-576.7721 505.1056,-570.0392 507.3018,-580.4039 513.2859,-576.7721"/>
</g>
<!-- Heavy oil -->
<g id="node11" class="node">
<title>Heavy oil</title>
<ellipse fill="none" stroke="#000000" cx="619.1576" cy="-552" rx="45.4919" ry="18"/>
<text text-anchor="middle" x="619.1576" y="-548.3" font-family="Times,serif" font-size="14.00" fill="#000000">Heavy oil</text>
</g>
<!-- Crude oil&#45;&gt;Heavy oil -->
<g id="edge7" class="edge">
<title>Crude oil&#45;&gt;Heavy oil</title>
<path fill="none" stroke="#a0522d" d="M593.1587,-653.8878C599.2452,-630.0352 606.6353,-601.074 611.9785,-580.1344"/>
<polygon fill="#a0522d" stroke="#a0522d" points="615.414,-580.8263 614.4953,-570.2714 608.6314,-579.0955 615.414,-580.8263"/>
</g>
<!-- Iron ore -->
<g id="node3" class="node">
<title>Iron ore</title>
<ellipse fill="#a0522d" stroke="#a0522d" cx="727.1576" cy="-697" rx="38.9931" ry="38.9931"/>
<polyline fill="none" stroke="#a0522d" points="752.9499,-726.2474 701.3653,-726.2474 "/>
<polyline fill="none" stroke="#a0522d" points="752.9499,-667.7526 701.3653,-667.7526 "/>
<text text-anchor="middle" x="727.1576" y="-693.3" font-family="Times,serif" font-size="14.00" fill="#ffffff">Iron ore</text>
</g>
<!-- Iron plate -->
<g id="node9" class="node">
<title>Iron plate</title>
<ellipse fill="none" stroke="#000000" cx="727.1576" cy="-552" rx="44.6926" ry="18"/>
<text text-anchor="middle" x="727.1576" y="-548.3" font-family="Times,serif" font-size="14.00" fill="#000000">Iron plate</text>
</g>
<!-- Iron ore&#45;&gt;Iron plate -->
<g id="edge10" class="edge">
<title>Iron ore&#45;&gt;Iron plate</title>
<path fill="none" stroke="#a0522d" d="M727.1576,-657.7609C727.1576,-633.2546 727.1576,-602.2752 727.1576,-580.1918"/>
<polygon fill="#a0522d" stroke="#a0522d" points="730.6577,-580.1328 727.1576,-570.1329 723.6577,-580.1329 730.6577,-580.1328"/>
</g>
<!-- Copper ore -->
<g id="node4" class="node">
<title>Copper ore</title>
<ellipse fill="#a0522d" stroke="#a0522d" cx="65.1576" cy="-697" rx="50.0912" ry="50.0912"/>
<polyline fill="none" stroke="#a0522d" points="98.2577,-734.5342 32.0575,-734.5342 "/>
<polyline fill="none" stroke="#a0522d" points="98.2577,-659.4658 32.0575,-659.4658 "/>
<text text-anchor="middle" x="65.1576" y="-693.3" font-family="Times,serif" font-size="14.00" fill="#ffffff">Copper ore</text>
</g>
<!-- Copper plate -->
<g id="node12" class="node">
<title>Copper plate</title>
<ellipse fill="none" stroke="#000000" cx="70.1576" cy="-552" rx="55.7903" ry="18"/>
<text text-anchor="middle" x="70.1576" y="-548.3" font-family="Times,serif" font-size="14.00" fill="#000000">Copper plate</text>
</g>
<!-- Copper ore&#45;&gt;Copper plate -->
<g id="edge11" class="edge">
<title>Copper ore&#45;&gt;Copper plate</title>
<path fill="none" stroke="#a0522d" d="M66.8923,-646.693C67.6598,-624.4356 68.5338,-599.0898 69.1843,-580.225"/>
<polygon fill="#a0522d" stroke="#a0522d" points="72.683,-580.3208 69.5298,-570.2061 65.6872,-580.0795 72.683,-580.3208"/>
</g>
<!-- Water -->
<g id="node5" class="node">
<title>Water</title>
<ellipse fill="#a0522d" stroke="#a0522d" cx="449.1576" cy="-697" rx="32.4942" ry="32.4942"/>
<polyline fill="none" stroke="#a0522d" points="470.6512,-721.3728 427.664,-721.3728 "/>
<polyline fill="none" stroke="#a0522d" points="470.6512,-672.6272 427.664,-672.6272 "/>
<text text-anchor="middle" x="449.1576" y="-693.3" font-family="Times,serif" font-size="14.00" fill="#ffffff">Water</text>
</g>
<!-- Sulfur -->
<g id="node7" class="node">
<title>Sulfur</title>
<ellipse fill="none" stroke="#000000" cx="463.1576" cy="-451" rx="32.4942" ry="18"/>
<text text-anchor="middle" x="463.1576" y="-447.3" font-family="Times,serif" font-size="14.00" fill="#000000">Sulfur</text>
</g>
<!-- Water&#45;&gt;Sulfur -->
<g id="edge1" class="edge">
<title>Water&#45;&gt;Sulfur</title>
<path fill="none" stroke="#a0522d" d="M437.3411,-666.4264C426.2241,-633.4967 412.7253,-579.6769 423.1576,-534 427.8022,-513.6641 438.0944,-492.5089 447.0752,-476.6461"/>
<polygon fill="#a0522d" stroke="#a0522d" points="450.1263,-478.362 452.1588,-467.964 444.0856,-474.825 450.1263,-478.362"/>
</g>
<!-- Water&#45;&gt;Petroleum gas -->
<g id="edge8" class="edge">
<title>Water&#45;&gt;Petroleum gas</title>
<path fill="none" stroke="#a0522d" d="M458.8112,-665.8939C466.7202,-640.4095 477.8139,-604.6632 485.4528,-580.0489"/>
<polygon fill="#a0522d" stroke="#a0522d" points="488.8744,-580.8319 488.4957,-570.2439 482.1889,-578.7571 488.8744,-580.8319"/>
</g>
<!-- Sulfuric acid -->
<g id="node10" class="node">
<title>Sulfuric acid</title>
<ellipse fill="none" stroke="#000000" cx="515.1576" cy="-350" rx="55.7903" ry="18"/>
<text text-anchor="middle" x="515.1576" y="-346.3" font-family="Times,serif" font-size="14.00" fill="#000000">Sulfuric acid</text>
</g>
<!-- Water&#45;&gt;Sulfuric acid -->
<g id="edge5" class="edge">
<title>Water&#45;&gt;Sulfuric acid</title>
<path fill="none" stroke="#a0522d" d="M436.2272,-667.0717C416.2972,-616.1334 384.1419,-510.5713 422.1576,-433 434.713,-407.3807 459.0011,-386.1361 479.6079,-371.5549"/>
<polygon fill="#a0522d" stroke="#a0522d" points="481.5879,-374.4411 487.8754,-365.9135 477.6424,-368.6589 481.5879,-374.4411"/>
</g>
<!-- Water&#45;&gt;Heavy oil -->
<g id="edge9" class="edge">
<title>Water&#45;&gt;Heavy oil</title>
<path fill="none" stroke="#a0522d" d="M474.2417,-675.6048C505.7451,-648.7342 559.5902,-602.8075 592.027,-575.1408"/>
<polygon fill="#a0522d" stroke="#a0522d" points="594.4488,-577.6754 599.7858,-568.523 589.9061,-572.3496 594.4488,-577.6754"/>
</g>
<!-- Utility science pack -->
<g id="node6" class="node">
<title>Utility science pack</title>
<polygon fill="#ffff00" stroke="#ffff00" points="464.1576,-66 248.1576,-66 248.1576,-30 464.1576,-30 464.1576,-66"/>
<text text-anchor="middle" x="356.1576" y="-44.3" font-family="Times,serif" font-size="14.00" fill="#000000">Utility science pack</text>
</g>
<!-- Sulfur&#45;&gt;Sulfuric acid -->
<g id="edge3" class="edge">
<title>Sulfur&#45;&gt;Sulfuric acid</title>
<path fill="none" stroke="#000000" d="M472.2153,-433.4071C480.1701,-417.9566 491.8725,-395.2269 501.0527,-377.396"/>
<polygon fill="#000000" stroke="#000000" points="504.3878,-378.5643 505.8536,-368.0713 498.1643,-375.3601 504.3878,-378.5643"/>
</g>
<!-- Petroleum gas&#45;&gt;Sulfur -->
<g id="edge2" class="edge">
<title>Petroleum gas&#45;&gt;Sulfur</title>
<path fill="none" stroke="#000000" d="M488.6154,-533.9432C483.8986,-518.5754 477.0482,-496.2563 471.6414,-478.6406"/>
<polygon fill="#000000" stroke="#000000" points="474.932,-477.4333 468.6518,-468.9004 468.2401,-479.4873 474.932,-477.4333"/>
</g>
<!-- Petroleum gas&#45;&gt;Plastic bar -->
<g id="edge13" class="edge">
<title>Petroleum gas&#45;&gt;Plastic bar</title>
<path fill="none" stroke="#a0522d" d="M450.2762,-539.3137C394.917,-523.2459 296.8323,-494.567 213.1576,-469 209.6778,-467.9367 206.082,-466.8271 202.4671,-465.7037"/>
<polygon fill="#a0522d" stroke="#a0522d" points="203.5096,-462.3626 192.9208,-462.7202 201.4215,-469.0439 203.5096,-462.3626"/>
</g>
<!-- Iron plate&#45;&gt;Sulfuric acid -->
<g id="edge4" class="edge">
<title>Iron plate&#45;&gt;Sulfuric acid</title>
<path fill="none" stroke="#000000" d="M695.2932,-539.09C664.2982,-525.3134 617.3067,-501.06 585.1576,-469 558.3695,-442.2861 538.0045,-403.2775 526.3253,-377.2894"/>
<polygon fill="#000000" stroke="#000000" points="529.4874,-375.7844 522.2792,-368.0196 523.0719,-378.5847 529.4874,-375.7844"/>
</g>
<!-- Pipe -->
<g id="node14" class="node">
<title>Pipe</title>
<ellipse fill="none" stroke="#000000" cx="814.1576" cy="-451" rx="27" ry="18"/>
<text text-anchor="middle" x="814.1576" y="-447.3" font-family="Times,serif" font-size="14.00" fill="#000000">Pipe</text>
</g>
<!-- Iron plate&#45;&gt;Pipe -->
<g id="edge14" class="edge">
<title>Iron plate&#45;&gt;Pipe</title>
<path fill="none" stroke="#000000" d="M741.916,-534.8667C756.1898,-518.296 777.9368,-493.0495 793.8417,-474.5852"/>
<polygon fill="#000000" stroke="#000000" points="796.601,-476.7446 800.4756,-466.8837 791.2973,-472.1761 796.601,-476.7446"/>
</g>
<!-- Iron gear -->
<g id="node15" class="node">
<title>Iron gear</title>
<ellipse fill="none" stroke="#000000" cx="902.1576" cy="-451" rx="42.7926" ry="18"/>
<text text-anchor="middle" x="902.1576" y="-447.3" font-family="Times,serif" font-size="14.00" fill="#000000">Iron gear</text>
</g>
<!-- Iron plate&#45;&gt;Iron gear -->
<g id="edge15" class="edge">
<title>Iron plate&#45;&gt;Iron gear</title>
<path fill="none" stroke="#000000" d="M752.9795,-537.0971C783.3965,-519.5421 834.0458,-490.3102 867.7673,-470.8481"/>
<polygon fill="#000000" stroke="#000000" points="869.8873,-473.6657 876.7988,-465.6357 866.3882,-467.603 869.8873,-473.6657"/>
</g>
<!-- Steel plate -->
<g id="node16" class="node">
<title>Steel plate</title>
<ellipse fill="none" stroke="#000000" cx="721.1576" cy="-451" rx="48.1917" ry="18"/>
<text text-anchor="middle" x="721.1576" y="-447.3" font-family="Times,serif" font-size="14.00" fill="#000000">Steel plate</text>
</g>
<!-- Iron plate&#45;&gt;Steel plate -->
<g id="edge16" class="edge">
<title>Iron plate&#45;&gt;Steel plate</title>
<path fill="none" stroke="#000000" d="M726.0849,-533.9432C725.1861,-518.813 723.887,-496.9448 722.8484,-479.461"/>
<polygon fill="#000000" stroke="#000000" points="726.3282,-479.0158 722.2412,-469.241 719.3405,-479.431 726.3282,-479.0158"/>
</g>
<!-- Electronic circuit -->
<g id="node18" class="node">
<title>Electronic circuit</title>
<ellipse fill="none" stroke="#000000" cx="370.1576" cy="-350" rx="71.4873" ry="18"/>
<text text-anchor="middle" x="370.1576" y="-346.3" font-family="Times,serif" font-size="14.00" fill="#000000">Electronic circuit</text>
</g>
<!-- Iron plate&#45;&gt;Electronic circuit -->
<g id="edge18" class="edge">
<title>Iron plate&#45;&gt;Electronic circuit</title>
<path fill="none" stroke="#000000" d="M695.1958,-539.1351C659.3388,-524.1848 599.9425,-497.8508 552.1576,-469 529.3291,-455.217 526.1811,-448.0358 504.1576,-433 472.1773,-411.1665 434.6099,-388.1107 407.4029,-371.8548"/>
<polygon fill="#000000" stroke="#000000" points="408.9798,-368.7203 398.5964,-366.6141 405.4001,-374.7358 408.9798,-368.7203"/>
</g>
<!-- Battery -->
<g id="node21" class="node">
<title>Battery</title>
<ellipse fill="none" stroke="#000000" cx="507.1576" cy="-250" rx="36.2938" ry="18"/>
<text text-anchor="middle" x="507.1576" y="-246.3" font-family="Times,serif" font-size="14.00" fill="#000000">Battery</text>
</g>
<!-- Iron plate&#45;&gt;Battery -->
<g id="edge26" class="edge">
<title>Iron plate&#45;&gt;Battery</title>
<path fill="none" stroke="#000000" d="M713.1193,-534.5649C699.9946,-518.0224 680.0842,-492.2978 664.1576,-469 623.8503,-410.0377 622.7372,-389.3429 580.1576,-332 564.7289,-311.2218 545.1305,-289.4168 530.126,-273.5194"/>
<polygon fill="#000000" stroke="#000000" points="532.601,-271.0432 523.1676,-266.2202 527.5344,-275.8733 532.601,-271.0432"/>
</g>
<!-- Sulfuric acid&#45;&gt;Battery -->
<g id="edge27" class="edge">
<title>Sulfuric acid&#45;&gt;Battery</title>
<path fill="none" stroke="#000000" d="M513.6903,-331.6585C512.4949,-316.7164 510.7869,-295.3665 509.4172,-278.2446"/>
<polygon fill="#000000" stroke="#000000" points="512.902,-277.9143 508.6156,-268.2253 505.9243,-278.4726 512.902,-277.9143"/>
</g>
<!-- Processing unit -->
<g id="node23" class="node">
<title>Processing unit</title>
<ellipse fill="none" stroke="#000000" cx="356.1576" cy="-149" rx="64.9885" ry="18"/>
<text text-anchor="middle" x="356.1576" y="-145.3" font-family="Times,serif" font-size="14.00" fill="#000000">Processing unit</text>
</g>
<!-- Sulfuric acid&#45;&gt;Processing unit -->
<g id="edge32" class="edge">
<title>Sulfuric acid&#45;&gt;Processing unit</title>
<path fill="none" stroke="#000000" d="M501.3256,-332.5142C473.1931,-296.9506 409.2024,-216.0566 376.3873,-174.5734"/>
<polygon fill="#000000" stroke="#000000" points="379.02,-172.2599 370.0709,-166.5885 373.53,-176.6028 379.02,-172.2599"/>
</g>
<!-- Lubricant -->
<g id="node24" class="node">
<title>Lubricant</title>
<ellipse fill="none" stroke="#000000" cx="672.1576" cy="-350" rx="44.6926" ry="18"/>
<text text-anchor="middle" x="672.1576" y="-346.3" font-family="Times,serif" font-size="14.00" fill="#000000">Lubricant</text>
</g>
<!-- Heavy oil&#45;&gt;Lubricant -->
<g id="edge35" class="edge">
<title>Heavy oil&#45;&gt;Lubricant</title>
<path fill="none" stroke="#000000" d="M623.861,-534.0738C633.1096,-498.8247 653.7228,-420.2609 664.7926,-378.0705"/>
<polygon fill="#000000" stroke="#000000" points="668.236,-378.7372 667.3886,-368.1764 661.4652,-376.9607 668.236,-378.7372"/>
</g>
<!-- Copper cable -->
<g id="node17" class="node">
<title>Copper cable</title>
<ellipse fill="none" stroke="#000000" cx="280.1576" cy="-451" rx="57.6901" ry="18"/>
<text text-anchor="middle" x="280.1576" y="-447.3" font-family="Times,serif" font-size="14.00" fill="#000000">Copper cable</text>
</g>
<!-- Copper plate&#45;&gt;Copper cable -->
<g id="edge17" class="edge">
<title>Copper plate&#45;&gt;Copper cable</title>
<path fill="none" stroke="#000000" d="M101.5967,-536.8793C138.3251,-519.2147 199.1853,-489.9438 239.4822,-470.5629"/>
<polygon fill="#000000" stroke="#000000" points="241.0087,-473.7126 248.5036,-466.2241 237.9747,-467.4043 241.0087,-473.7126"/>
</g>
<!-- Copper plate&#45;&gt;Battery -->
<g id="edge28" class="edge">
<title>Copper plate&#45;&gt;Battery</title>
<path fill="none" stroke="#000000" d="M57.1859,-534.2234C29.1366,-493.4536 -30.6806,-392.1138 20.1576,-332 34.4667,-315.0802 343.3357,-272.002 461.625,-256.0562"/>
<polygon fill="#000000" stroke="#000000" points="462.3567,-259.4894 471.8011,-254.688 461.4239,-252.5518 462.3567,-259.4894"/>
</g>
<!-- Low density structure -->
<g id="node22" class="node">
<title>Low density structure</title>
<ellipse fill="none" stroke="#000000" cx="117.1576" cy="-350" rx="87.9851" ry="18"/>
<text text-anchor="middle" x="117.1576" y="-346.3" font-family="Times,serif" font-size="14.00" fill="#000000">Low density structure</text>
</g>
<!-- Copper plate&#45;&gt;Low density structure -->
<g id="edge29" class="edge">
<title>Copper plate&#45;&gt;Low density structure</title>
<path fill="none" stroke="#000000" d="M74.4114,-533.7176C82.6606,-498.2636 100.8779,-419.9683 110.6547,-377.9488"/>
<polygon fill="#000000" stroke="#000000" points="114.0899,-378.6286 112.9473,-368.0956 107.272,-377.0422 114.0899,-378.6286"/>
</g>
<!-- Advanced circuit -->
<g id="node20" class="node">
<title>Advanced circuit</title>
<ellipse fill="none" stroke="#000000" cx="268.1576" cy="-250" rx="71.4873" ry="18"/>
<text text-anchor="middle" x="268.1576" y="-246.3" font-family="Times,serif" font-size="14.00" fill="#000000">Advanced circuit</text>
</g>
<!-- Plastic bar&#45;&gt;Advanced circuit -->
<g id="edge23" class="edge">
<title>Plastic bar&#45;&gt;Advanced circuit</title>
<path fill="none" stroke="#000000" d="M169.8007,-433.481C182.2206,-417.0904 200.6293,-391.6525 214.1576,-368 231.2636,-338.0924 247.2027,-301.8072 257.2645,-277.4372"/>
<polygon fill="#000000" stroke="#000000" points="260.5408,-278.6719 261.0764,-268.0906 254.0591,-276.0284 260.5408,-278.6719"/>
</g>
<!-- Plastic bar&#45;&gt;Low density structure -->
<g id="edge30" class="edge">
<title>Plastic bar&#45;&gt;Low density structure</title>
<path fill="none" stroke="#000000" d="M149.1852,-432.9432C143.2877,-417.6703 134.7391,-395.5316 127.9569,-377.9674"/>
<polygon fill="#000000" stroke="#000000" points="131.0684,-376.3089 124.2012,-368.241 124.5383,-378.8305 131.0684,-376.3089"/>
</g>
<!-- Engine unit -->
<g id="node19" class="node">
<title>Engine unit</title>
<ellipse fill="none" stroke="#000000" cx="829.1576" cy="-350" rx="51.9908" ry="18"/>
<text text-anchor="middle" x="829.1576" y="-346.3" font-family="Times,serif" font-size="14.00" fill="#000000">Engine unit</text>
</g>
<!-- Pipe&#45;&gt;Engine unit -->
<g id="edge20" class="edge">
<title>Pipe&#45;&gt;Engine unit</title>
<path fill="none" stroke="#000000" d="M816.8393,-432.9432C819.0864,-417.813 822.3341,-395.9448 824.9307,-378.461"/>
<polygon fill="#000000" stroke="#000000" points="828.4415,-378.6467 826.4486,-368.241 821.5174,-377.6183 828.4415,-378.6467"/>
</g>
<!-- Iron gear&#45;&gt;Engine unit -->
<g id="edge21" class="edge">
<title>Iron gear&#45;&gt;Engine unit</title>
<path fill="none" stroke="#000000" d="M889.442,-433.4071C877.9977,-417.5733 861.0281,-394.0948 848.0063,-376.0784"/>
<polygon fill="#000000" stroke="#000000" points="850.667,-373.7846 841.9725,-367.7301 844.9937,-377.8851 850.667,-373.7846"/>
</g>
<!-- Steel plate&#45;&gt;Engine unit -->
<g id="edge22" class="edge">
<title>Steel plate&#45;&gt;Engine unit</title>
<path fill="none" stroke="#000000" d="M739.4783,-433.8667C757.0109,-417.4706 783.6261,-392.5804 803.3115,-374.1709"/>
<polygon fill="#000000" stroke="#000000" points="805.8338,-376.6041 810.747,-367.2173 801.0525,-371.4914 805.8338,-376.6041"/>
</g>
<!-- Steel plate&#45;&gt;Low density structure -->
<g id="edge31" class="edge">
<title>Steel plate&#45;&gt;Low density structure</title>
<path fill="none" stroke="#000000" d="M677.2329,-443.655C575.8706,-426.7053 324.4794,-384.6681 195.7922,-363.1492"/>
<polygon fill="#000000" stroke="#000000" points="196.0529,-359.6442 185.6126,-361.4469 194.8983,-366.5484 196.0529,-359.6442"/>
</g>
<!-- Flying robot frame -->
<g id="node26" class="node">
<title>Flying robot frame</title>
<ellipse fill="none" stroke="#000000" cx="517.1576" cy="-149" rx="77.9862" ry="18"/>
<text text-anchor="middle" x="517.1576" y="-145.3" font-family="Times,serif" font-size="14.00" fill="#000000">Flying robot frame</text>
</g>
<!-- Steel plate&#45;&gt;Flying robot frame -->
<g id="edge39" class="edge">
<title>Steel plate&#45;&gt;Flying robot frame</title>
<path fill="none" stroke="#000000" d="M728.4266,-433.1658C743.4543,-393.1549 773.1059,-294.8295 730.1576,-232 712.5421,-206.2301 636.1511,-180.7911 579.8678,-165.0065"/>
<polygon fill="#000000" stroke="#000000" points="580.5354,-161.5598 569.9643,-162.2697 578.6708,-168.307 580.5354,-161.5598"/>
</g>
<!-- Copper cable&#45;&gt;Electronic circuit -->
<g id="edge19" class="edge">
<title>Copper cable&#45;&gt;Electronic circuit</title>
<path fill="none" stroke="#000000" d="M295.8344,-433.4071C310.0721,-417.4294 331.2462,-393.6673 347.3561,-375.5884"/>
<polygon fill="#000000" stroke="#000000" points="350.3187,-377.5246 354.3585,-367.7301 345.0926,-372.8676 350.3187,-377.5246"/>
</g>
<!-- Copper cable&#45;&gt;Advanced circuit -->
<g id="edge24" class="edge">
<title>Copper cable&#45;&gt;Advanced circuit</title>
<path fill="none" stroke="#000000" d="M279.0715,-432.8081C276.9698,-397.6044 272.3338,-319.9518 269.8338,-278.0766"/>
<polygon fill="#000000" stroke="#000000" points="273.3224,-277.7796 269.2326,-268.006 266.3349,-278.1968 273.3224,-277.7796"/>
</g>
<!-- Electronic circuit&#45;&gt;Advanced circuit -->
<g id="edge25" class="edge">
<title>Electronic circuit&#45;&gt;Advanced circuit</title>
<path fill="none" stroke="#000000" d="M351.9221,-332.122C335.6768,-316.1953 311.7401,-292.7279 293.6103,-274.9536"/>
<polygon fill="#000000" stroke="#000000" points="295.8263,-272.2247 286.2353,-267.7232 290.9258,-277.2232 295.8263,-272.2247"/>
</g>
<!-- Electronic circuit&#45;&gt;Processing unit -->
<g id="edge33" class="edge">
<title>Electronic circuit&#45;&gt;Processing unit</title>
<path fill="none" stroke="#000000" d="M368.8905,-331.8081C366.4385,-296.6044 361.0299,-218.9518 358.1132,-177.0766"/>
<polygon fill="#000000" stroke="#000000" points="361.5982,-176.7386 357.4118,-167.006 354.6151,-177.225 361.5982,-176.7386"/>
</g>
<!-- Electric engine unit -->
<g id="node25" class="node">
<title>Electric engine unit</title>
<ellipse fill="none" stroke="#000000" cx="641.1576" cy="-250" rx="79.8859" ry="18"/>
<text text-anchor="middle" x="641.1576" y="-246.3" font-family="Times,serif" font-size="14.00" fill="#000000">Electric engine unit</text>
</g>
<!-- Electronic circuit&#45;&gt;Electric engine unit -->
<g id="edge36" class="edge">
<title>Electronic circuit&#45;&gt;Electric engine unit</title>
<path fill="none" stroke="#000000" d="M410.7291,-335.029C458.4473,-317.4208 537.7309,-288.1648 589.7208,-268.9804"/>
<polygon fill="#000000" stroke="#000000" points="591.247,-272.1479 599.417,-265.4024 588.8237,-265.5808 591.247,-272.1479"/>
</g>
<!-- Electronic circuit&#45;&gt;Flying robot frame -->
<g id="edge40" class="edge">
<title>Electronic circuit&#45;&gt;Flying robot frame</title>
<path fill="none" stroke="#000000" d="M383.2029,-332.1626C409.2462,-296.5523 467.7804,-216.5157 498.1177,-175.0341"/>
<polygon fill="#000000" stroke="#000000" points="501.0635,-176.9353 504.1416,-166.7974 495.4132,-172.803 501.0635,-176.9353"/>
</g>
<!-- Engine unit&#45;&gt;Electric engine unit -->
<g id="edge37" class="edge">
<title>Engine unit&#45;&gt;Electric engine unit</title>
<path fill="none" stroke="#000000" d="M800.6045,-334.8122C768.9219,-317.9597 717.5473,-290.6328 681.7041,-271.5673"/>
<polygon fill="#000000" stroke="#000000" points="682.9647,-268.2735 672.4923,-266.6674 679.6774,-274.4536 682.9647,-268.2735"/>
</g>
<!-- Advanced circuit&#45;&gt;Processing unit -->
<g id="edge34" class="edge">
<title>Advanced circuit&#45;&gt;Processing unit</title>
<path fill="none" stroke="#000000" d="M283.486,-232.4071C297.4073,-216.4294 318.1109,-192.6673 333.8628,-174.5884"/>
<polygon fill="#000000" stroke="#000000" points="336.7792,-176.569 340.7096,-166.7301 331.5015,-171.9706 336.7792,-176.569"/>
</g>
<!-- Battery&#45;&gt;Flying robot frame -->
<g id="edge41" class="edge">
<title>Battery&#45;&gt;Flying robot frame</title>
<path fill="none" stroke="#000000" d="M508.9454,-231.9432C510.4435,-216.813 512.6086,-194.9448 514.3397,-177.461"/>
<polygon fill="#000000" stroke="#000000" points="517.8492,-177.5372 515.3516,-167.241 510.8832,-176.8474 517.8492,-177.5372"/>
</g>
<!-- Low density structure&#45;&gt;Utility science pack -->
<g id="edge43" class="edge">
<title>Low density structure&#45;&gt;Utility science pack</title>
<path fill="none" stroke="#ffff00" d="M126.6894,-331.6999C139.4242,-307.8763 163.2864,-265.3476 188.1576,-232 233.358,-171.3949 295.1486,-107.7763 329.8064,-73.5091"/>
<polygon fill="#ffff00" stroke="#ffff00" points="332.5099,-75.7593 337.1854,-66.2519 327.6015,-70.7685 332.5099,-75.7593"/>
</g>
<!-- Processing unit&#45;&gt;Utility science pack -->
<g id="edge44" class="edge">
<title>Processing unit&#45;&gt;Utility science pack</title>
<path fill="none" stroke="#ffff00" d="M356.1576,-130.9432C356.1576,-115.813 356.1576,-93.9448 356.1576,-76.461"/>
<polygon fill="#ffff00" stroke="#ffff00" points="359.6577,-76.2409 356.1576,-66.241 352.6577,-76.241 359.6577,-76.2409"/>
</g>
<!-- Lubricant&#45;&gt;Electric engine unit -->
<g id="edge38" class="edge">
<title>Lubricant&#45;&gt;Electric engine unit</title>
<path fill="none" stroke="#000000" d="M666.6154,-332.122C661.9277,-317.0003 655.1326,-295.0808 649.7417,-277.6905"/>
<polygon fill="#000000" stroke="#000000" points="653.0604,-276.5756 646.7563,-268.0604 646.3743,-278.6483 653.0604,-276.5756"/>
</g>
<!-- Electric engine unit&#45;&gt;Flying robot frame -->
<g id="edge42" class="edge">
<title>Electric engine unit&#45;&gt;Flying robot frame</title>
<path fill="none" stroke="#000000" d="M619.8413,-232.6375C599.6131,-216.1613 569.0404,-191.2594 546.5125,-172.91"/>
<polygon fill="#000000" stroke="#000000" points="548.5747,-170.0756 538.6108,-166.474 544.1539,-175.5031 548.5747,-170.0756"/>
</g>
<!-- Flying robot frame&#45;&gt;Utility science pack -->
<g id="edge45" class="edge">
<title>Flying robot frame&#45;&gt;Utility science pack</title>
<path fill="none" stroke="#ffff00" d="M490.2098,-132.0949C463.8442,-115.555 423.4521,-90.2158 393.8959,-71.6744"/>
<polygon fill="#ffff00" stroke="#ffff00" points="395.4299,-68.505 385.0988,-66.1556 391.7099,-74.4347 395.4299,-68.505"/>
</g>
</g>
</svg>
