<?xml version="1.0" encoding="UTF-8" standalone="no"?>
<!DOCTYPE svg PUBLIC "-//W3C//DTD SVG 1.1//EN"
 "http://www.w3.org/Graphics/SVG/1.1/DTD/svg11.dtd">
<!-- Generated by graphviz version 2.40.1 (20161225.0304)
 -->
<!-- Title: science_packs Pages: 1 -->
<svg width="677pt" height="566pt"
 viewBox="0.00 0.00 677.39 566.29" xmlns="http://www.w3.org/2000/svg" xmlns:xlink="http://www.w3.org/1999/xlink">
<g id="graph0" class="graph" transform="scale(1 1) rotate(0) translate(4 562.2917)">
<title>science_packs</title>
<polygon fill="#ffffff" stroke="transparent" points="-4,4 -4,-562.2917 673.391,-562.2917 673.391,4 -4,4"/>
<text text-anchor="middle" x="334.6955" y="-7.8" font-family="Times,serif" font-size="14.00" fill="#000000">Production pack dependencies; factorio 0.17.79; Visualization by Jonathon Ball (jonathon.ball@gmail.com)</text>
<!-- Coal -->
<g id="node1" class="node">
<title>Coal</title>
<ellipse fill="#a0522d" stroke="#a0522d" cx="334.3454" cy="-508" rx="27.0966" ry="27.0966"/>
<polyline fill="none" stroke="#a0522d" points="352.4001,-528.4732 316.2908,-528.4732 "/>
<polyline fill="none" stroke="#a0522d" points="352.4001,-487.5268 316.2908,-487.5268 "/>
<text text-anchor="middle" x="334.3454" y="-504.3" font-family="Times,serif" font-size="14.00" fill="#ffffff">Coal</text>
</g>
<!-- Plastic bar -->
<g id="node12" class="node">
<title>Plastic bar</title>
<ellipse fill="none" stroke="#000000" cx="423.3454" cy="-331" rx="48.1917" ry="18"/>
<text text-anchor="middle" x="423.3454" y="-327.3" font-family="Times,serif" font-size="14.00" fill="#000000">Plastic bar</text>
</g>
<!-- Coal&#45;&gt;Plastic bar -->
<g id="edge6" class="edge">
<title>Coal&#45;&gt;Plastic bar</title>
<path fill="none" stroke="#a0522d" d="M332.934,-480.6486C332.8156,-454.3592 335.9839,-414.3956 353.3454,-385 361.3363,-371.4704 374.1305,-360.126 386.6085,-351.3828"/>
<polygon fill="#a0522d" stroke="#a0522d" points="388.7194,-354.1831 395.1336,-345.7506 384.8608,-348.3427 388.7194,-354.1831"/>
</g>
<!-- Crude oil -->
<g id="node2" class="node">
<title>Crude oil</title>
<ellipse fill="#a0522d" stroke="#a0522d" cx="423.3454" cy="-508" rx="44.393" ry="44.393"/>
<polyline fill="none" stroke="#a0522d" points="452.5767,-541.1471 394.1142,-541.1471 "/>
<polyline fill="none" stroke="#a0522d" points="452.5767,-474.8529 394.1142,-474.8529 "/>
<text text-anchor="middle" x="423.3454" y="-504.3" font-family="Times,serif" font-size="14.00" fill="#ffffff">Crude oil</text>
</g>
<!-- Petroleum gas -->
<g id="node9" class="node">
<title>Petroleum gas</title>
<ellipse fill="none" stroke="#000000" cx="424.3454" cy="-403" rx="61.99" ry="18"/>
<text text-anchor="middle" x="424.3454" y="-399.3" font-family="Times,serif" font-size="14.00" fill="#000000">Petroleum gas</text>
</g>
<!-- Crude oil&#45;&gt;Petroleum gas -->
<g id="edge2" class="edge">
<title>Crude oil&#45;&gt;Petroleum gas</title>
<path fill="none" stroke="#a0522d" d="M423.7666,-463.7749C423.8717,-452.7442 423.9815,-441.2137 424.0769,-431.1974"/>
<polygon fill="#a0522d" stroke="#a0522d" points="427.5784,-431.0513 424.1738,-421.0184 420.5787,-430.9846 427.5784,-431.0513"/>
</g>
<!-- Iron ore -->
<g id="node3" class="node">
<title>Iron ore</title>
<ellipse fill="#a0522d" stroke="#a0522d" cx="250.3454" cy="-508" rx="38.9931" ry="38.9931"/>
<polyline fill="none" stroke="#a0522d" points="276.1378,-537.2474 224.5531,-537.2474 "/>
<polyline fill="none" stroke="#a0522d" points="276.1378,-478.7526 224.5531,-478.7526 "/>
<text text-anchor="middle" x="250.3454" y="-504.3" font-family="Times,serif" font-size="14.00" fill="#ffffff">Iron ore</text>
</g>
<!-- Iron plate -->
<g id="node10" class="node">
<title>Iron plate</title>
<ellipse fill="none" stroke="#000000" cx="252.3454" cy="-331" rx="44.6926" ry="18"/>
<text text-anchor="middle" x="252.3454" y="-327.3" font-family="Times,serif" font-size="14.00" fill="#000000">Iron plate</text>
</g>
<!-- Iron ore&#45;&gt;Iron plate -->
<g id="edge4" class="edge">
<title>Iron ore&#45;&gt;Iron plate</title>
<path fill="none" stroke="#a0522d" d="M250.7893,-468.718C251.1644,-435.519 251.6927,-388.7712 252.027,-359.1831"/>
<polygon fill="#a0522d" stroke="#a0522d" points="255.5274,-359.1544 252.1407,-349.1155 248.5279,-359.0752 255.5274,-359.1544"/>
</g>
<!-- Copper ore -->
<g id="node4" class="node">
<title>Copper ore</title>
<ellipse fill="#a0522d" stroke="#a0522d" cx="619.3454" cy="-508" rx="50.0912" ry="50.0912"/>
<polyline fill="none" stroke="#a0522d" points="652.4456,-545.5342 586.2453,-545.5342 "/>
<polyline fill="none" stroke="#a0522d" points="652.4456,-470.4658 586.2453,-470.4658 "/>
<text text-anchor="middle" x="619.3454" y="-504.3" font-family="Times,serif" font-size="14.00" fill="#ffffff">Copper ore</text>
</g>
<!-- Copper plate -->
<g id="node11" class="node">
<title>Copper plate</title>
<ellipse fill="none" stroke="#000000" cx="589.3454" cy="-403" rx="55.7903" ry="18"/>
<text text-anchor="middle" x="589.3454" y="-399.3" font-family="Times,serif" font-size="14.00" fill="#000000">Copper plate</text>
</g>
<!-- Copper ore&#45;&gt;Copper plate -->
<g id="edge5" class="edge">
<title>Copper ore&#45;&gt;Copper plate</title>
<path fill="none" stroke="#a0522d" d="M605.5747,-459.8023C602.7405,-449.8826 599.8473,-439.7566 597.3037,-430.8538"/>
<polygon fill="#a0522d" stroke="#a0522d" points="600.6152,-429.7038 594.5026,-421.0501 593.8846,-431.6269 600.6152,-429.7038"/>
</g>
<!-- Water -->
<g id="node5" class="node">
<title>Water</title>
<ellipse fill="#a0522d" stroke="#a0522d" cx="518.3454" cy="-508" rx="32.4942" ry="32.4942"/>
<polyline fill="none" stroke="#a0522d" points="539.839,-532.3728 496.8519,-532.3728 "/>
<polyline fill="none" stroke="#a0522d" points="539.839,-483.6272 496.8519,-483.6272 "/>
<text text-anchor="middle" x="518.3454" y="-504.3" font-family="Times,serif" font-size="14.00" fill="#ffffff">Water</text>
</g>
<!-- Water&#45;&gt;Petroleum gas -->
<g id="edge3" class="edge">
<title>Water&#45;&gt;Petroleum gas</title>
<path fill="none" stroke="#a0522d" d="M497.6979,-482.8038C490.987,-474.7755 483.4398,-465.9139 476.3454,-457.9544 467.4692,-447.9959 457.4515,-437.2896 448.595,-427.9962"/>
<polygon fill="#a0522d" stroke="#a0522d" points="450.9247,-425.3687 441.4792,-420.5695 445.8703,-430.2115 450.9247,-425.3687"/>
</g>
<!-- Stone -->
<g id="node6" class="node">
<title>Stone</title>
<ellipse fill="#a0522d" stroke="#a0522d" cx="62.3454" cy="-508" rx="30.5947" ry="30.5947"/>
<polyline fill="none" stroke="#a0522d" points="82.5494,-530.9105 42.1415,-530.9105 "/>
<polyline fill="none" stroke="#a0522d" points="82.5494,-485.0895 42.1415,-485.0895 "/>
<text text-anchor="middle" x="62.3454" y="-504.3" font-family="Times,serif" font-size="14.00" fill="#ffffff">Stone</text>
</g>
<!-- Stone brick -->
<g id="node8" class="node">
<title>Stone brick</title>
<ellipse fill="none" stroke="#000000" cx="51.3454" cy="-186" rx="51.1914" ry="18"/>
<text text-anchor="middle" x="51.3454" y="-182.3" font-family="Times,serif" font-size="14.00" fill="#000000">Stone brick</text>
</g>
<!-- Stone&#45;&gt;Stone brick -->
<g id="edge1" class="edge">
<title>Stone&#45;&gt;Stone brick</title>
<path fill="none" stroke="#a0522d" d="M61.3007,-477.4167C59.1752,-415.1983 54.3751,-274.6851 52.3147,-214.3728"/>
<polygon fill="#a0522d" stroke="#a0522d" points="55.8026,-213.9561 51.9631,-204.0815 48.8067,-214.1951 55.8026,-213.9561"/>
</g>
<!-- Rail -->
<g id="node13" class="node">
<title>Rail</title>
<ellipse fill="none" stroke="#000000" cx="154.3454" cy="-186" rx="27" ry="18"/>
<text text-anchor="middle" x="154.3454" y="-182.3" font-family="Times,serif" font-size="14.00" fill="#000000">Rail</text>
</g>
<!-- Stone&#45;&gt;Rail -->
<g id="edge8" class="edge">
<title>Stone&#45;&gt;Rail</title>
<path fill="none" stroke="#a0522d" d="M64.2709,-477.0565C68.4844,-415.7209 79.8238,-281.097 100.3454,-240 106.9062,-226.8614 117.8989,-214.983 128.2601,-205.734"/>
<polygon fill="#a0522d" stroke="#a0522d" points="130.6092,-208.3311 135.9765,-199.1964 126.0842,-202.9902 130.6092,-208.3311"/>
</g>
<!-- Production science pack -->
<g id="node7" class="node">
<title>Production science pack</title>
<polygon fill="#9932cc" stroke="#9932cc" points="362.3454,-59 146.3454,-59 146.3454,-23 362.3454,-23 362.3454,-59"/>
<text text-anchor="middle" x="254.3454" y="-37.3" font-family="Times,serif" font-size="14.00" fill="#000000">Production science pack</text>
</g>
<!-- Electric furnace -->
<g id="node19" class="node">
<title>Electric furnace</title>
<ellipse fill="none" stroke="#000000" cx="254.3454" cy="-114" rx="66.8882" ry="18"/>
<text text-anchor="middle" x="254.3454" y="-110.3" font-family="Times,serif" font-size="14.00" fill="#000000">Electric furnace</text>
</g>
<!-- Stone brick&#45;&gt;Electric furnace -->
<g id="edge19" class="edge">
<title>Stone brick&#45;&gt;Electric furnace</title>
<path fill="none" stroke="#000000" d="M87.6378,-173.1278C120.0572,-161.6293 167.8678,-144.6719 203.9846,-131.862"/>
<polygon fill="#000000" stroke="#000000" points="205.5841,-135.0084 213.8388,-128.3669 203.2441,-128.411 205.5841,-135.0084"/>
</g>
<!-- Petroleum gas&#45;&gt;Plastic bar -->
<g id="edge7" class="edge">
<title>Petroleum gas&#45;&gt;Plastic bar</title>
<path fill="none" stroke="#a0522d" d="M424.0931,-384.8314C423.9862,-377.131 423.859,-367.9743 423.7401,-359.4166"/>
<polygon fill="#a0522d" stroke="#a0522d" points="427.2398,-359.3637 423.6012,-349.4133 420.2405,-359.4609 427.2398,-359.3637"/>
</g>
<!-- Iron stick -->
<g id="node14" class="node">
<title>Iron stick</title>
<ellipse fill="none" stroke="#000000" cx="153.3454" cy="-258" rx="44.393" ry="18"/>
<text text-anchor="middle" x="153.3454" y="-254.3" font-family="Times,serif" font-size="14.00" fill="#000000">Iron stick</text>
</g>
<!-- Iron plate&#45;&gt;Iron stick -->
<g id="edge11" class="edge">
<title>Iron plate&#45;&gt;Iron stick</title>
<path fill="none" stroke="#000000" d="M230.8639,-315.1601C216.8529,-304.8288 198.3764,-291.2046 182.9763,-279.849"/>
<polygon fill="#000000" stroke="#000000" points="184.9108,-276.9268 174.785,-273.809 180.7564,-282.5608 184.9108,-276.9268"/>
</g>
<!-- Steel plate -->
<g id="node15" class="node">
<title>Steel plate</title>
<ellipse fill="none" stroke="#000000" cx="263.3454" cy="-258" rx="48.1917" ry="18"/>
<text text-anchor="middle" x="263.3454" y="-254.3" font-family="Times,serif" font-size="14.00" fill="#000000">Steel plate</text>
</g>
<!-- Iron plate&#45;&gt;Steel plate -->
<g id="edge12" class="edge">
<title>Iron plate&#45;&gt;Steel plate</title>
<path fill="none" stroke="#000000" d="M255.0645,-312.9551C256.2809,-304.8828 257.7435,-295.1764 259.0989,-286.1817"/>
<polygon fill="#000000" stroke="#000000" points="262.5903,-286.5003 260.6195,-276.0904 255.6685,-285.4572 262.5903,-286.5003"/>
</g>
<!-- Electronic circuit -->
<g id="node17" class="node">
<title>Electronic circuit</title>
<ellipse fill="none" stroke="#000000" cx="401.3454" cy="-258" rx="71.4873" ry="18"/>
<text text-anchor="middle" x="401.3454" y="-254.3" font-family="Times,serif" font-size="14.00" fill="#000000">Electronic circuit</text>
</g>
<!-- Iron plate&#45;&gt;Electronic circuit -->
<g id="edge14" class="edge">
<title>Iron plate&#45;&gt;Electronic circuit</title>
<path fill="none" stroke="#000000" d="M281.0741,-316.9249C303.27,-306.0504 334.3157,-290.8401 359.3049,-278.5971"/>
<polygon fill="#000000" stroke="#000000" points="361.1143,-281.6081 368.5546,-274.0653 358.0345,-275.322 361.1143,-281.6081"/>
</g>
<!-- Copper cable -->
<g id="node16" class="node">
<title>Copper cable</title>
<ellipse fill="none" stroke="#000000" cx="547.3454" cy="-331" rx="57.6901" ry="18"/>
<text text-anchor="middle" x="547.3454" y="-327.3" font-family="Times,serif" font-size="14.00" fill="#000000">Copper cable</text>
</g>
<!-- Copper plate&#45;&gt;Copper cable -->
<g id="edge13" class="edge">
<title>Copper plate&#45;&gt;Copper cable</title>
<path fill="none" stroke="#000000" d="M578.9634,-385.2022C574.1172,-376.8944 568.2472,-366.8316 562.887,-357.6427"/>
<polygon fill="#000000" stroke="#000000" points="565.8156,-355.7168 557.7536,-348.8425 559.7691,-359.2439 565.8156,-355.7168"/>
</g>
<!-- Advanced circuit -->
<g id="node18" class="node">
<title>Advanced circuit</title>
<ellipse fill="none" stroke="#000000" cx="500.3454" cy="-186" rx="71.4873" ry="18"/>
<text text-anchor="middle" x="500.3454" y="-182.3" font-family="Times,serif" font-size="14.00" fill="#000000">Advanced circuit</text>
</g>
<!-- Plastic bar&#45;&gt;Advanced circuit -->
<g id="edge16" class="edge">
<title>Plastic bar&#45;&gt;Advanced circuit</title>
<path fill="none" stroke="#000000" d="M446.1315,-314.8945C458.4004,-305.0372 472.742,-291.381 481.3454,-276 491.9679,-257.0095 496.6653,-232.7378 498.7356,-214.1869"/>
<polygon fill="#000000" stroke="#000000" points="502.241,-214.2882 499.6759,-204.0086 495.2707,-213.6442 502.241,-214.2882"/>
</g>
<!-- Rail&#45;&gt;Production science pack -->
<g id="edge24" class="edge">
<title>Rail&#45;&gt;Production science pack</title>
<path fill="none" stroke="#9932cc" d="M155.5935,-167.9501C157.6939,-148.6415 163.3167,-117.8511 178.3454,-96 186.8194,-83.6792 198.9906,-73.1216 211.1171,-64.6472"/>
<polygon fill="#9932cc" stroke="#9932cc" points="213.0582,-67.5597 219.4592,-59.1171 209.1904,-61.7253 213.0582,-67.5597"/>
</g>
<!-- Iron stick&#45;&gt;Rail -->
<g id="edge9" class="edge">
<title>Iron stick&#45;&gt;Rail</title>
<path fill="none" stroke="#000000" d="M153.5978,-239.8314C153.7047,-232.131 153.8319,-222.9743 153.9508,-214.4166"/>
<polygon fill="#000000" stroke="#000000" points="157.4504,-214.4609 154.0897,-204.4133 150.4511,-214.3637 157.4504,-214.4609"/>
</g>
<!-- Steel plate&#45;&gt;Rail -->
<g id="edge10" class="edge">
<title>Steel plate&#45;&gt;Rail</title>
<path fill="none" stroke="#000000" d="M239.4249,-242.1993C222.6681,-231.1306 200.209,-216.2952 182.5738,-204.6462"/>
<polygon fill="#000000" stroke="#000000" points="184.1203,-201.4732 173.8472,-198.8819 180.2621,-207.314 184.1203,-201.4732"/>
</g>
<!-- Steel plate&#45;&gt;Electric furnace -->
<g id="edge20" class="edge">
<title>Steel plate&#45;&gt;Electric furnace</title>
<path fill="none" stroke="#000000" d="M262.2056,-239.7623C260.6705,-215.201 257.9234,-171.2474 256.1176,-142.3541"/>
<polygon fill="#000000" stroke="#000000" points="259.5931,-141.8518 255.476,-132.0896 252.6067,-142.2885 259.5931,-141.8518"/>
</g>
<!-- Copper cable&#45;&gt;Electronic circuit -->
<g id="edge15" class="edge">
<title>Copper cable&#45;&gt;Electronic circuit</title>
<path fill="none" stroke="#000000" d="M516.7391,-315.6968C495.258,-304.9563 466.2821,-290.4683 442.7406,-278.6976"/>
<polygon fill="#000000" stroke="#000000" points="444.1927,-275.5106 433.6832,-274.1689 441.0622,-281.7716 444.1927,-275.5106"/>
</g>
<!-- Copper cable&#45;&gt;Advanced circuit -->
<g id="edge17" class="edge">
<title>Copper cable&#45;&gt;Advanced circuit</title>
<path fill="none" stroke="#000000" d="M541.4879,-312.9288C533.4313,-288.0735 518.8553,-243.1049 509.3919,-213.9092"/>
<polygon fill="#000000" stroke="#000000" points="512.6898,-212.7324 506.2768,-204.2989 506.0309,-214.8909 512.6898,-212.7324"/>
</g>
<!-- Electronic circuit&#45;&gt;Advanced circuit -->
<g id="edge18" class="edge">
<title>Electronic circuit&#45;&gt;Advanced circuit</title>
<path fill="none" stroke="#000000" d="M424.8071,-240.937C437.7813,-231.5012 454.092,-219.6389 468.2335,-209.3541"/>
<polygon fill="#000000" stroke="#000000" points="470.6804,-211.9024 476.7091,-203.19 466.5632,-206.2412 470.6804,-211.9024"/>
</g>
<!-- Productivity module -->
<g id="node20" class="node">
<title>Productivity module</title>
<ellipse fill="none" stroke="#000000" cx="422.3454" cy="-114" rx="83.3857" ry="18"/>
<text text-anchor="middle" x="422.3454" y="-110.3" font-family="Times,serif" font-size="14.00" fill="#000000">Productivity module</text>
</g>
<!-- Electronic circuit&#45;&gt;Productivity module -->
<g id="edge22" class="edge">
<title>Electronic circuit&#45;&gt;Productivity module</title>
<path fill="none" stroke="#000000" d="M404.0051,-239.7623C407.587,-215.201 413.9969,-171.2474 418.2105,-142.3541"/>
<polygon fill="#000000" stroke="#000000" points="421.7276,-142.4901 419.7074,-132.0896 414.8009,-141.4798 421.7276,-142.4901"/>
</g>
<!-- Advanced circuit&#45;&gt;Electric furnace -->
<g id="edge21" class="edge">
<title>Advanced circuit&#45;&gt;Electric furnace</title>
<path fill="none" stroke="#000000" d="M453.4957,-172.2879C412.4982,-160.2886 352.8922,-142.843 309.5815,-130.1667"/>
<polygon fill="#000000" stroke="#000000" points="310.3542,-126.746 299.7736,-127.2961 308.3878,-133.4642 310.3542,-126.746"/>
</g>
<!-- Advanced circuit&#45;&gt;Productivity module -->
<g id="edge23" class="edge">
<title>Advanced circuit&#45;&gt;Productivity module</title>
<path fill="none" stroke="#000000" d="M481.4638,-168.5708C471.7406,-159.5955 459.72,-148.4996 449.0623,-138.6617"/>
<polygon fill="#000000" stroke="#000000" points="451.3171,-135.9799 441.5951,-131.7689 446.5691,-141.1235 451.3171,-135.9799"/>
</g>
<!-- Electric furnace&#45;&gt;Production science pack -->
<g id="edge25" class="edge">
<title>Electric furnace&#45;&gt;Production science pack</title>
<path fill="none" stroke="#9932cc" d="M254.3454,-95.9551C254.3454,-87.8828 254.3454,-78.1764 254.3454,-69.1817"/>
<polygon fill="#9932cc" stroke="#9932cc" points="257.8455,-69.0903 254.3454,-59.0904 250.8455,-69.0904 257.8455,-69.0903"/>
</g>
<!-- Productivity module&#45;&gt;Production science pack -->
<g id="edge26" class="edge">
<title>Productivity module&#45;&gt;Production science pack</title>
<path fill="none" stroke="#9932cc" d="M385.0608,-97.7989C361.5568,-87.5859 330.8979,-74.2639 305.1801,-63.0889"/>
<polygon fill="#9932cc" stroke="#9932cc" points="306.5175,-59.8539 295.9511,-59.0786 303.7278,-66.274 306.5175,-59.8539"/>
</g>
</g>
</svg>
