<?xml version="1.0" encoding="UTF-8" standalone="no"?>
<!DOCTYPE svg PUBLIC "-//W3C//DTD SVG 1.1//EN"
 "http://www.w3.org/Graphics/SVG/1.1/DTD/svg11.dtd">
<!-- Generated by graphviz version 2.40.1 (20161225.0304)
 -->
<!-- Title: science_packs Pages: 1 -->
<svg width="665pt" height="347pt"
 viewBox="0.00 0.00 665.00 347.09" xmlns="http://www.w3.org/2000/svg" xmlns:xlink="http://www.w3.org/1999/xlink">
<g id="graph0" class="graph" transform="scale(1 1) rotate(0) translate(4 343.0911)">
<title>science_packs</title>
<polygon fill="#ffffff" stroke="transparent" points="-4,4 -4,-343.0911 661,-343.0911 661,4 -4,4"/>
<text text-anchor="middle" x="328.5" y="-7.8" font-family="Times,serif" font-size="14.00" fill="#000000">Automation science pack dependencies; factorio 0.17.79; Visualization by Jonathon Ball (jonathon.ball@gmail.com)</text>
<!-- Iron ore -->
<g id="node1" class="node">
<title>Iron ore</title>
<ellipse fill="#a0522d" stroke="#a0522d" cx="219.5641" cy="-289" rx="38.9931" ry="38.9931"/>
<polyline fill="none" stroke="#a0522d" points="245.3564,-318.2474 193.7718,-318.2474 "/>
<polyline fill="none" stroke="#a0522d" points="245.3564,-259.7526 193.7718,-259.7526 "/>
<text text-anchor="middle" x="219.5641" y="-285.3" font-family="Times,serif" font-size="14.00" fill="#ffffff">Iron ore</text>
</g>
<!-- Iron plate -->
<g id="node4" class="node">
<title>Iron plate</title>
<ellipse fill="none" stroke="#000000" cx="219.5641" cy="-185" rx="44.6926" ry="18"/>
<text text-anchor="middle" x="219.5641" y="-181.3" font-family="Times,serif" font-size="14.00" fill="#000000">Iron plate</text>
</g>
<!-- Iron ore&#45;&gt;Iron plate -->
<g id="edge1" class="edge">
<title>Iron ore&#45;&gt;Iron plate</title>
<path fill="none" stroke="#a0522d" d="M219.5641,-249.9783C219.5641,-237.8357 219.5641,-224.6845 219.5641,-213.4105"/>
<polygon fill="#a0522d" stroke="#a0522d" points="223.0642,-213.2707 219.5641,-203.2707 216.0642,-213.2708 223.0642,-213.2707"/>
</g>
<!-- Copper ore -->
<g id="node2" class="node">
<title>Copper ore</title>
<ellipse fill="#a0522d" stroke="#a0522d" cx="427.5641" cy="-289" rx="50.0912" ry="50.0912"/>
<polyline fill="none" stroke="#a0522d" points="460.6642,-326.5342 394.464,-326.5342 "/>
<polyline fill="none" stroke="#a0522d" points="460.6642,-251.4658 394.464,-251.4658 "/>
<text text-anchor="middle" x="427.5641" y="-285.3" font-family="Times,serif" font-size="14.00" fill="#ffffff">Copper ore</text>
</g>
<!-- Copper plate -->
<g id="node5" class="node">
<title>Copper plate</title>
<ellipse fill="none" stroke="#000000" cx="427.5641" cy="-113" rx="55.7903" ry="18"/>
<text text-anchor="middle" x="427.5641" y="-109.3" font-family="Times,serif" font-size="14.00" fill="#000000">Copper plate</text>
</g>
<!-- Copper ore&#45;&gt;Copper plate -->
<g id="edge2" class="edge">
<title>Copper ore&#45;&gt;Copper plate</title>
<path fill="none" stroke="#a0522d" d="M427.5641,-238.5655C427.5641,-206.9614 427.5641,-167.3993 427.5641,-141.2218"/>
<polygon fill="#a0522d" stroke="#a0522d" points="431.0642,-141.2197 427.5641,-131.2198 424.0642,-141.2198 431.0642,-141.2197"/>
</g>
<!-- Automation science pack -->
<g id="node3" class="node">
<title>Automation science pack</title>
<polygon fill="#ff0000" stroke="#ff0000" points="430.5641,-59 214.5641,-59 214.5641,-23 430.5641,-23 430.5641,-59"/>
<text text-anchor="middle" x="322.5641" y="-37.3" font-family="Times,serif" font-size="14.00" fill="#000000">Automation science pack</text>
</g>
<!-- Iron gear -->
<g id="node6" class="node">
<title>Iron gear</title>
<ellipse fill="none" stroke="#000000" cx="219.5641" cy="-113" rx="42.7926" ry="18"/>
<text text-anchor="middle" x="219.5641" y="-109.3" font-family="Times,serif" font-size="14.00" fill="#000000">Iron gear</text>
</g>
<!-- Iron plate&#45;&gt;Iron gear -->
<g id="edge3" class="edge">
<title>Iron plate&#45;&gt;Iron gear</title>
<path fill="none" stroke="#000000" d="M219.5641,-166.8314C219.5641,-159.131 219.5641,-149.9743 219.5641,-141.4166"/>
<polygon fill="#000000" stroke="#000000" points="223.0642,-141.4132 219.5641,-131.4133 216.0642,-141.4133 223.0642,-141.4132"/>
</g>
<!-- Copper plate&#45;&gt;Automation science pack -->
<g id="edge4" class="edge">
<title>Copper plate&#45;&gt;Automation science pack</title>
<path fill="none" stroke="#ff0000" d="M403.738,-96.6621C390.0814,-87.2976 372.6909,-75.3726 357.5122,-64.9644"/>
<polygon fill="#ff0000" stroke="#ff0000" points="359.1025,-61.8111 348.8758,-59.0423 355.1438,-67.5842 359.1025,-61.8111"/>
</g>
<!-- Iron gear&#45;&gt;Automation science pack -->
<g id="edge5" class="edge">
<title>Iron gear&#45;&gt;Automation science pack</title>
<path fill="none" stroke="#ff0000" d="M241.6602,-97.5542C255.2261,-88.0712 272.8857,-75.7266 288.2434,-64.9912"/>
<polygon fill="#ff0000" stroke="#ff0000" points="290.3072,-67.8189 296.498,-59.221 286.2966,-62.0817 290.3072,-67.8189"/>
</g>
</g>
</svg>
